G04 #@! TF.GenerationSoftware,KiCad,Pcbnew,(5.1.2)-1*
G04 #@! TF.CreationDate,2020-05-04T21:43:22+09:00*
G04 #@! TF.ProjectId,dcdc,64636463-2e6b-4696-9361-645f70636258,v1.2*
G04 #@! TF.SameCoordinates,Original*
G04 #@! TF.FileFunction,Soldermask,Bot*
G04 #@! TF.FilePolarity,Negative*
%FSLAX46Y46*%
G04 Gerber Fmt 4.6, Leading zero omitted, Abs format (unit mm)*
G04 Created by KiCad (PCBNEW (5.1.2)-1) date 2020-05-04 21:43:22*
%MOMM*%
%LPD*%
G04 APERTURE LIST*
%ADD10C,0.100000*%
G04 APERTURE END LIST*
D10*
G36*
X121375256Y-84391298D02*
G01*
X121481579Y-84412447D01*
X121782042Y-84536903D01*
X122052451Y-84717585D01*
X122282415Y-84947549D01*
X122463097Y-85217958D01*
X122587553Y-85518421D01*
X122651000Y-85837391D01*
X122651000Y-86162609D01*
X122587553Y-86481579D01*
X122463097Y-86782042D01*
X122282415Y-87052451D01*
X122052451Y-87282415D01*
X121782042Y-87463097D01*
X121481579Y-87587553D01*
X121375256Y-87608702D01*
X121162611Y-87651000D01*
X120837389Y-87651000D01*
X120624744Y-87608702D01*
X120518421Y-87587553D01*
X120217958Y-87463097D01*
X119947549Y-87282415D01*
X119717585Y-87052451D01*
X119536903Y-86782042D01*
X119412447Y-86481579D01*
X119349000Y-86162609D01*
X119349000Y-85837391D01*
X119412447Y-85518421D01*
X119536903Y-85217958D01*
X119717585Y-84947549D01*
X119947549Y-84717585D01*
X120217958Y-84536903D01*
X120518421Y-84412447D01*
X120624744Y-84391298D01*
X120837389Y-84349000D01*
X121162611Y-84349000D01*
X121375256Y-84391298D01*
X121375256Y-84391298D01*
G37*
G36*
X120110443Y-79265519D02*
G01*
X120176627Y-79272037D01*
X120346466Y-79323557D01*
X120502991Y-79407222D01*
X120538729Y-79436552D01*
X120640186Y-79519814D01*
X120723448Y-79621271D01*
X120752778Y-79657009D01*
X120836443Y-79813534D01*
X120887963Y-79983373D01*
X120905359Y-80160000D01*
X120887963Y-80336627D01*
X120836443Y-80506466D01*
X120752778Y-80662991D01*
X120723448Y-80698729D01*
X120640186Y-80800186D01*
X120538729Y-80883448D01*
X120502991Y-80912778D01*
X120346466Y-80996443D01*
X120176627Y-81047963D01*
X120110442Y-81054482D01*
X120044260Y-81061000D01*
X119955740Y-81061000D01*
X119889558Y-81054482D01*
X119823373Y-81047963D01*
X119653534Y-80996443D01*
X119497009Y-80912778D01*
X119461271Y-80883448D01*
X119359814Y-80800186D01*
X119276552Y-80698729D01*
X119247222Y-80662991D01*
X119163557Y-80506466D01*
X119112037Y-80336627D01*
X119094641Y-80160000D01*
X119112037Y-79983373D01*
X119163557Y-79813534D01*
X119247222Y-79657009D01*
X119276552Y-79621271D01*
X119359814Y-79519814D01*
X119461271Y-79436552D01*
X119497009Y-79407222D01*
X119653534Y-79323557D01*
X119823373Y-79272037D01*
X119889557Y-79265519D01*
X119955740Y-79259000D01*
X120044260Y-79259000D01*
X120110443Y-79265519D01*
X120110443Y-79265519D01*
G37*
G36*
X120110442Y-76725518D02*
G01*
X120176627Y-76732037D01*
X120346466Y-76783557D01*
X120502991Y-76867222D01*
X120538729Y-76896552D01*
X120640186Y-76979814D01*
X120723448Y-77081271D01*
X120752778Y-77117009D01*
X120836443Y-77273534D01*
X120887963Y-77443373D01*
X120905359Y-77620000D01*
X120887963Y-77796627D01*
X120836443Y-77966466D01*
X120752778Y-78122991D01*
X120723448Y-78158729D01*
X120640186Y-78260186D01*
X120538729Y-78343448D01*
X120502991Y-78372778D01*
X120346466Y-78456443D01*
X120176627Y-78507963D01*
X120110443Y-78514481D01*
X120044260Y-78521000D01*
X119955740Y-78521000D01*
X119889557Y-78514481D01*
X119823373Y-78507963D01*
X119653534Y-78456443D01*
X119497009Y-78372778D01*
X119461271Y-78343448D01*
X119359814Y-78260186D01*
X119276552Y-78158729D01*
X119247222Y-78122991D01*
X119163557Y-77966466D01*
X119112037Y-77796627D01*
X119094641Y-77620000D01*
X119112037Y-77443373D01*
X119163557Y-77273534D01*
X119247222Y-77117009D01*
X119276552Y-77081271D01*
X119359814Y-76979814D01*
X119461271Y-76896552D01*
X119497009Y-76867222D01*
X119653534Y-76783557D01*
X119823373Y-76732037D01*
X119889558Y-76725518D01*
X119955740Y-76719000D01*
X120044260Y-76719000D01*
X120110442Y-76725518D01*
X120110442Y-76725518D01*
G37*
G36*
X120110442Y-74185518D02*
G01*
X120176627Y-74192037D01*
X120346466Y-74243557D01*
X120502991Y-74327222D01*
X120538729Y-74356552D01*
X120640186Y-74439814D01*
X120723448Y-74541271D01*
X120752778Y-74577009D01*
X120836443Y-74733534D01*
X120887963Y-74903373D01*
X120905359Y-75080000D01*
X120887963Y-75256627D01*
X120836443Y-75426466D01*
X120752778Y-75582991D01*
X120723448Y-75618729D01*
X120640186Y-75720186D01*
X120538729Y-75803448D01*
X120502991Y-75832778D01*
X120346466Y-75916443D01*
X120176627Y-75967963D01*
X120110442Y-75974482D01*
X120044260Y-75981000D01*
X119955740Y-75981000D01*
X119889558Y-75974482D01*
X119823373Y-75967963D01*
X119653534Y-75916443D01*
X119497009Y-75832778D01*
X119461271Y-75803448D01*
X119359814Y-75720186D01*
X119276552Y-75618729D01*
X119247222Y-75582991D01*
X119163557Y-75426466D01*
X119112037Y-75256627D01*
X119094641Y-75080000D01*
X119112037Y-74903373D01*
X119163557Y-74733534D01*
X119247222Y-74577009D01*
X119276552Y-74541271D01*
X119359814Y-74439814D01*
X119461271Y-74356552D01*
X119497009Y-74327222D01*
X119653534Y-74243557D01*
X119823373Y-74192037D01*
X119889558Y-74185518D01*
X119955740Y-74179000D01*
X120044260Y-74179000D01*
X120110442Y-74185518D01*
X120110442Y-74185518D01*
G37*
G36*
X120110442Y-71645518D02*
G01*
X120176627Y-71652037D01*
X120346466Y-71703557D01*
X120502991Y-71787222D01*
X120538729Y-71816552D01*
X120640186Y-71899814D01*
X120723448Y-72001271D01*
X120752778Y-72037009D01*
X120836443Y-72193534D01*
X120887963Y-72363373D01*
X120905359Y-72540000D01*
X120887963Y-72716627D01*
X120836443Y-72886466D01*
X120752778Y-73042991D01*
X120723448Y-73078729D01*
X120640186Y-73180186D01*
X120538729Y-73263448D01*
X120502991Y-73292778D01*
X120346466Y-73376443D01*
X120176627Y-73427963D01*
X120110442Y-73434482D01*
X120044260Y-73441000D01*
X119955740Y-73441000D01*
X119889558Y-73434482D01*
X119823373Y-73427963D01*
X119653534Y-73376443D01*
X119497009Y-73292778D01*
X119461271Y-73263448D01*
X119359814Y-73180186D01*
X119276552Y-73078729D01*
X119247222Y-73042991D01*
X119163557Y-72886466D01*
X119112037Y-72716627D01*
X119094641Y-72540000D01*
X119112037Y-72363373D01*
X119163557Y-72193534D01*
X119247222Y-72037009D01*
X119276552Y-72001271D01*
X119359814Y-71899814D01*
X119461271Y-71816552D01*
X119497009Y-71787222D01*
X119653534Y-71703557D01*
X119823373Y-71652037D01*
X119889558Y-71645518D01*
X119955740Y-71639000D01*
X120044260Y-71639000D01*
X120110442Y-71645518D01*
X120110442Y-71645518D01*
G37*
G36*
X120901000Y-70901000D02*
G01*
X119099000Y-70901000D01*
X119099000Y-69099000D01*
X120901000Y-69099000D01*
X120901000Y-70901000D01*
X120901000Y-70901000D01*
G37*
G36*
X121375256Y-62391298D02*
G01*
X121481579Y-62412447D01*
X121782042Y-62536903D01*
X122052451Y-62717585D01*
X122282415Y-62947549D01*
X122463097Y-63217958D01*
X122587553Y-63518421D01*
X122651000Y-63837391D01*
X122651000Y-64162609D01*
X122587553Y-64481579D01*
X122463097Y-64782042D01*
X122282415Y-65052451D01*
X122052451Y-65282415D01*
X121782042Y-65463097D01*
X121481579Y-65587553D01*
X121375256Y-65608702D01*
X121162611Y-65651000D01*
X120837389Y-65651000D01*
X120624744Y-65608702D01*
X120518421Y-65587553D01*
X120217958Y-65463097D01*
X119947549Y-65282415D01*
X119717585Y-65052451D01*
X119536903Y-64782042D01*
X119412447Y-64481579D01*
X119349000Y-64162609D01*
X119349000Y-63837391D01*
X119412447Y-63518421D01*
X119536903Y-63217958D01*
X119717585Y-62947549D01*
X119947549Y-62717585D01*
X120217958Y-62536903D01*
X120518421Y-62412447D01*
X120624744Y-62391298D01*
X120837389Y-62349000D01*
X121162611Y-62349000D01*
X121375256Y-62391298D01*
X121375256Y-62391298D01*
G37*
M02*
