G04 #@! TF.GenerationSoftware,KiCad,Pcbnew,(5.1.2)-1*
G04 #@! TF.CreationDate,2020-05-04T21:43:22+09:00*
G04 #@! TF.ProjectId,dcdc,64636463-2e6b-4696-9361-645f70636258,v1.2*
G04 #@! TF.SameCoordinates,Original*
G04 #@! TF.FileFunction,Paste,Top*
G04 #@! TF.FilePolarity,Positive*
%FSLAX46Y46*%
G04 Gerber Fmt 4.6, Leading zero omitted, Abs format (unit mm)*
G04 Created by KiCad (PCBNEW (5.1.2)-1) date 2020-05-04 21:43:22*
%MOMM*%
%LPD*%
G04 APERTURE LIST*
%ADD10C,0.100000*%
%ADD11C,0.875000*%
%ADD12R,3.000000X1.400000*%
%ADD13C,0.975000*%
%ADD14R,1.450000X0.450000*%
%ADD15R,2.500000X2.300000*%
G04 APERTURE END LIST*
D10*
G36*
X150215691Y-85726053D02*
G01*
X150236926Y-85729203D01*
X150257750Y-85734419D01*
X150277962Y-85741651D01*
X150297368Y-85750830D01*
X150315781Y-85761866D01*
X150333024Y-85774654D01*
X150348930Y-85789070D01*
X150363346Y-85804976D01*
X150376134Y-85822219D01*
X150387170Y-85840632D01*
X150396349Y-85860038D01*
X150403581Y-85880250D01*
X150408797Y-85901074D01*
X150411947Y-85922309D01*
X150413000Y-85943750D01*
X150413000Y-86456250D01*
X150411947Y-86477691D01*
X150408797Y-86498926D01*
X150403581Y-86519750D01*
X150396349Y-86539962D01*
X150387170Y-86559368D01*
X150376134Y-86577781D01*
X150363346Y-86595024D01*
X150348930Y-86610930D01*
X150333024Y-86625346D01*
X150315781Y-86638134D01*
X150297368Y-86649170D01*
X150277962Y-86658349D01*
X150257750Y-86665581D01*
X150236926Y-86670797D01*
X150215691Y-86673947D01*
X150194250Y-86675000D01*
X149756750Y-86675000D01*
X149735309Y-86673947D01*
X149714074Y-86670797D01*
X149693250Y-86665581D01*
X149673038Y-86658349D01*
X149653632Y-86649170D01*
X149635219Y-86638134D01*
X149617976Y-86625346D01*
X149602070Y-86610930D01*
X149587654Y-86595024D01*
X149574866Y-86577781D01*
X149563830Y-86559368D01*
X149554651Y-86539962D01*
X149547419Y-86519750D01*
X149542203Y-86498926D01*
X149539053Y-86477691D01*
X149538000Y-86456250D01*
X149538000Y-85943750D01*
X149539053Y-85922309D01*
X149542203Y-85901074D01*
X149547419Y-85880250D01*
X149554651Y-85860038D01*
X149563830Y-85840632D01*
X149574866Y-85822219D01*
X149587654Y-85804976D01*
X149602070Y-85789070D01*
X149617976Y-85774654D01*
X149635219Y-85761866D01*
X149653632Y-85750830D01*
X149673038Y-85741651D01*
X149693250Y-85734419D01*
X149714074Y-85729203D01*
X149735309Y-85726053D01*
X149756750Y-85725000D01*
X150194250Y-85725000D01*
X150215691Y-85726053D01*
X150215691Y-85726053D01*
G37*
D11*
X149975500Y-86200000D03*
D10*
G36*
X148640691Y-85726053D02*
G01*
X148661926Y-85729203D01*
X148682750Y-85734419D01*
X148702962Y-85741651D01*
X148722368Y-85750830D01*
X148740781Y-85761866D01*
X148758024Y-85774654D01*
X148773930Y-85789070D01*
X148788346Y-85804976D01*
X148801134Y-85822219D01*
X148812170Y-85840632D01*
X148821349Y-85860038D01*
X148828581Y-85880250D01*
X148833797Y-85901074D01*
X148836947Y-85922309D01*
X148838000Y-85943750D01*
X148838000Y-86456250D01*
X148836947Y-86477691D01*
X148833797Y-86498926D01*
X148828581Y-86519750D01*
X148821349Y-86539962D01*
X148812170Y-86559368D01*
X148801134Y-86577781D01*
X148788346Y-86595024D01*
X148773930Y-86610930D01*
X148758024Y-86625346D01*
X148740781Y-86638134D01*
X148722368Y-86649170D01*
X148702962Y-86658349D01*
X148682750Y-86665581D01*
X148661926Y-86670797D01*
X148640691Y-86673947D01*
X148619250Y-86675000D01*
X148181750Y-86675000D01*
X148160309Y-86673947D01*
X148139074Y-86670797D01*
X148118250Y-86665581D01*
X148098038Y-86658349D01*
X148078632Y-86649170D01*
X148060219Y-86638134D01*
X148042976Y-86625346D01*
X148027070Y-86610930D01*
X148012654Y-86595024D01*
X147999866Y-86577781D01*
X147988830Y-86559368D01*
X147979651Y-86539962D01*
X147972419Y-86519750D01*
X147967203Y-86498926D01*
X147964053Y-86477691D01*
X147963000Y-86456250D01*
X147963000Y-85943750D01*
X147964053Y-85922309D01*
X147967203Y-85901074D01*
X147972419Y-85880250D01*
X147979651Y-85860038D01*
X147988830Y-85840632D01*
X147999866Y-85822219D01*
X148012654Y-85804976D01*
X148027070Y-85789070D01*
X148042976Y-85774654D01*
X148060219Y-85761866D01*
X148078632Y-85750830D01*
X148098038Y-85741651D01*
X148118250Y-85734419D01*
X148139074Y-85729203D01*
X148160309Y-85726053D01*
X148181750Y-85725000D01*
X148619250Y-85725000D01*
X148640691Y-85726053D01*
X148640691Y-85726053D01*
G37*
D11*
X148400500Y-86200000D03*
D10*
G36*
X125377691Y-75888553D02*
G01*
X125398926Y-75891703D01*
X125419750Y-75896919D01*
X125439962Y-75904151D01*
X125459368Y-75913330D01*
X125477781Y-75924366D01*
X125495024Y-75937154D01*
X125510930Y-75951570D01*
X125525346Y-75967476D01*
X125538134Y-75984719D01*
X125549170Y-76003132D01*
X125558349Y-76022538D01*
X125565581Y-76042750D01*
X125570797Y-76063574D01*
X125573947Y-76084809D01*
X125575000Y-76106250D01*
X125575000Y-76543750D01*
X125573947Y-76565191D01*
X125570797Y-76586426D01*
X125565581Y-76607250D01*
X125558349Y-76627462D01*
X125549170Y-76646868D01*
X125538134Y-76665281D01*
X125525346Y-76682524D01*
X125510930Y-76698430D01*
X125495024Y-76712846D01*
X125477781Y-76725634D01*
X125459368Y-76736670D01*
X125439962Y-76745849D01*
X125419750Y-76753081D01*
X125398926Y-76758297D01*
X125377691Y-76761447D01*
X125356250Y-76762500D01*
X124843750Y-76762500D01*
X124822309Y-76761447D01*
X124801074Y-76758297D01*
X124780250Y-76753081D01*
X124760038Y-76745849D01*
X124740632Y-76736670D01*
X124722219Y-76725634D01*
X124704976Y-76712846D01*
X124689070Y-76698430D01*
X124674654Y-76682524D01*
X124661866Y-76665281D01*
X124650830Y-76646868D01*
X124641651Y-76627462D01*
X124634419Y-76607250D01*
X124629203Y-76586426D01*
X124626053Y-76565191D01*
X124625000Y-76543750D01*
X124625000Y-76106250D01*
X124626053Y-76084809D01*
X124629203Y-76063574D01*
X124634419Y-76042750D01*
X124641651Y-76022538D01*
X124650830Y-76003132D01*
X124661866Y-75984719D01*
X124674654Y-75967476D01*
X124689070Y-75951570D01*
X124704976Y-75937154D01*
X124722219Y-75924366D01*
X124740632Y-75913330D01*
X124760038Y-75904151D01*
X124780250Y-75896919D01*
X124801074Y-75891703D01*
X124822309Y-75888553D01*
X124843750Y-75887500D01*
X125356250Y-75887500D01*
X125377691Y-75888553D01*
X125377691Y-75888553D01*
G37*
D11*
X125100000Y-76325000D03*
D10*
G36*
X125377691Y-77463553D02*
G01*
X125398926Y-77466703D01*
X125419750Y-77471919D01*
X125439962Y-77479151D01*
X125459368Y-77488330D01*
X125477781Y-77499366D01*
X125495024Y-77512154D01*
X125510930Y-77526570D01*
X125525346Y-77542476D01*
X125538134Y-77559719D01*
X125549170Y-77578132D01*
X125558349Y-77597538D01*
X125565581Y-77617750D01*
X125570797Y-77638574D01*
X125573947Y-77659809D01*
X125575000Y-77681250D01*
X125575000Y-78118750D01*
X125573947Y-78140191D01*
X125570797Y-78161426D01*
X125565581Y-78182250D01*
X125558349Y-78202462D01*
X125549170Y-78221868D01*
X125538134Y-78240281D01*
X125525346Y-78257524D01*
X125510930Y-78273430D01*
X125495024Y-78287846D01*
X125477781Y-78300634D01*
X125459368Y-78311670D01*
X125439962Y-78320849D01*
X125419750Y-78328081D01*
X125398926Y-78333297D01*
X125377691Y-78336447D01*
X125356250Y-78337500D01*
X124843750Y-78337500D01*
X124822309Y-78336447D01*
X124801074Y-78333297D01*
X124780250Y-78328081D01*
X124760038Y-78320849D01*
X124740632Y-78311670D01*
X124722219Y-78300634D01*
X124704976Y-78287846D01*
X124689070Y-78273430D01*
X124674654Y-78257524D01*
X124661866Y-78240281D01*
X124650830Y-78221868D01*
X124641651Y-78202462D01*
X124634419Y-78182250D01*
X124629203Y-78161426D01*
X124626053Y-78140191D01*
X124625000Y-78118750D01*
X124625000Y-77681250D01*
X124626053Y-77659809D01*
X124629203Y-77638574D01*
X124634419Y-77617750D01*
X124641651Y-77597538D01*
X124650830Y-77578132D01*
X124661866Y-77559719D01*
X124674654Y-77542476D01*
X124689070Y-77526570D01*
X124704976Y-77512154D01*
X124722219Y-77499366D01*
X124740632Y-77488330D01*
X124760038Y-77479151D01*
X124780250Y-77471919D01*
X124801074Y-77466703D01*
X124822309Y-77463553D01*
X124843750Y-77462500D01*
X125356250Y-77462500D01*
X125377691Y-77463553D01*
X125377691Y-77463553D01*
G37*
D11*
X125100000Y-77900000D03*
D10*
G36*
X125377691Y-81151053D02*
G01*
X125398926Y-81154203D01*
X125419750Y-81159419D01*
X125439962Y-81166651D01*
X125459368Y-81175830D01*
X125477781Y-81186866D01*
X125495024Y-81199654D01*
X125510930Y-81214070D01*
X125525346Y-81229976D01*
X125538134Y-81247219D01*
X125549170Y-81265632D01*
X125558349Y-81285038D01*
X125565581Y-81305250D01*
X125570797Y-81326074D01*
X125573947Y-81347309D01*
X125575000Y-81368750D01*
X125575000Y-81806250D01*
X125573947Y-81827691D01*
X125570797Y-81848926D01*
X125565581Y-81869750D01*
X125558349Y-81889962D01*
X125549170Y-81909368D01*
X125538134Y-81927781D01*
X125525346Y-81945024D01*
X125510930Y-81960930D01*
X125495024Y-81975346D01*
X125477781Y-81988134D01*
X125459368Y-81999170D01*
X125439962Y-82008349D01*
X125419750Y-82015581D01*
X125398926Y-82020797D01*
X125377691Y-82023947D01*
X125356250Y-82025000D01*
X124843750Y-82025000D01*
X124822309Y-82023947D01*
X124801074Y-82020797D01*
X124780250Y-82015581D01*
X124760038Y-82008349D01*
X124740632Y-81999170D01*
X124722219Y-81988134D01*
X124704976Y-81975346D01*
X124689070Y-81960930D01*
X124674654Y-81945024D01*
X124661866Y-81927781D01*
X124650830Y-81909368D01*
X124641651Y-81889962D01*
X124634419Y-81869750D01*
X124629203Y-81848926D01*
X124626053Y-81827691D01*
X124625000Y-81806250D01*
X124625000Y-81368750D01*
X124626053Y-81347309D01*
X124629203Y-81326074D01*
X124634419Y-81305250D01*
X124641651Y-81285038D01*
X124650830Y-81265632D01*
X124661866Y-81247219D01*
X124674654Y-81229976D01*
X124689070Y-81214070D01*
X124704976Y-81199654D01*
X124722219Y-81186866D01*
X124740632Y-81175830D01*
X124760038Y-81166651D01*
X124780250Y-81159419D01*
X124801074Y-81154203D01*
X124822309Y-81151053D01*
X124843750Y-81150000D01*
X125356250Y-81150000D01*
X125377691Y-81151053D01*
X125377691Y-81151053D01*
G37*
D11*
X125100000Y-81587500D03*
D10*
G36*
X125377691Y-79576053D02*
G01*
X125398926Y-79579203D01*
X125419750Y-79584419D01*
X125439962Y-79591651D01*
X125459368Y-79600830D01*
X125477781Y-79611866D01*
X125495024Y-79624654D01*
X125510930Y-79639070D01*
X125525346Y-79654976D01*
X125538134Y-79672219D01*
X125549170Y-79690632D01*
X125558349Y-79710038D01*
X125565581Y-79730250D01*
X125570797Y-79751074D01*
X125573947Y-79772309D01*
X125575000Y-79793750D01*
X125575000Y-80231250D01*
X125573947Y-80252691D01*
X125570797Y-80273926D01*
X125565581Y-80294750D01*
X125558349Y-80314962D01*
X125549170Y-80334368D01*
X125538134Y-80352781D01*
X125525346Y-80370024D01*
X125510930Y-80385930D01*
X125495024Y-80400346D01*
X125477781Y-80413134D01*
X125459368Y-80424170D01*
X125439962Y-80433349D01*
X125419750Y-80440581D01*
X125398926Y-80445797D01*
X125377691Y-80448947D01*
X125356250Y-80450000D01*
X124843750Y-80450000D01*
X124822309Y-80448947D01*
X124801074Y-80445797D01*
X124780250Y-80440581D01*
X124760038Y-80433349D01*
X124740632Y-80424170D01*
X124722219Y-80413134D01*
X124704976Y-80400346D01*
X124689070Y-80385930D01*
X124674654Y-80370024D01*
X124661866Y-80352781D01*
X124650830Y-80334368D01*
X124641651Y-80314962D01*
X124634419Y-80294750D01*
X124629203Y-80273926D01*
X124626053Y-80252691D01*
X124625000Y-80231250D01*
X124625000Y-79793750D01*
X124626053Y-79772309D01*
X124629203Y-79751074D01*
X124634419Y-79730250D01*
X124641651Y-79710038D01*
X124650830Y-79690632D01*
X124661866Y-79672219D01*
X124674654Y-79654976D01*
X124689070Y-79639070D01*
X124704976Y-79624654D01*
X124722219Y-79611866D01*
X124740632Y-79600830D01*
X124760038Y-79591651D01*
X124780250Y-79584419D01*
X124801074Y-79579203D01*
X124822309Y-79576053D01*
X124843750Y-79575000D01*
X125356250Y-79575000D01*
X125377691Y-79576053D01*
X125377691Y-79576053D01*
G37*
D11*
X125100000Y-80012500D03*
D10*
G36*
X153140691Y-66026053D02*
G01*
X153161926Y-66029203D01*
X153182750Y-66034419D01*
X153202962Y-66041651D01*
X153222368Y-66050830D01*
X153240781Y-66061866D01*
X153258024Y-66074654D01*
X153273930Y-66089070D01*
X153288346Y-66104976D01*
X153301134Y-66122219D01*
X153312170Y-66140632D01*
X153321349Y-66160038D01*
X153328581Y-66180250D01*
X153333797Y-66201074D01*
X153336947Y-66222309D01*
X153338000Y-66243750D01*
X153338000Y-66756250D01*
X153336947Y-66777691D01*
X153333797Y-66798926D01*
X153328581Y-66819750D01*
X153321349Y-66839962D01*
X153312170Y-66859368D01*
X153301134Y-66877781D01*
X153288346Y-66895024D01*
X153273930Y-66910930D01*
X153258024Y-66925346D01*
X153240781Y-66938134D01*
X153222368Y-66949170D01*
X153202962Y-66958349D01*
X153182750Y-66965581D01*
X153161926Y-66970797D01*
X153140691Y-66973947D01*
X153119250Y-66975000D01*
X152681750Y-66975000D01*
X152660309Y-66973947D01*
X152639074Y-66970797D01*
X152618250Y-66965581D01*
X152598038Y-66958349D01*
X152578632Y-66949170D01*
X152560219Y-66938134D01*
X152542976Y-66925346D01*
X152527070Y-66910930D01*
X152512654Y-66895024D01*
X152499866Y-66877781D01*
X152488830Y-66859368D01*
X152479651Y-66839962D01*
X152472419Y-66819750D01*
X152467203Y-66798926D01*
X152464053Y-66777691D01*
X152463000Y-66756250D01*
X152463000Y-66243750D01*
X152464053Y-66222309D01*
X152467203Y-66201074D01*
X152472419Y-66180250D01*
X152479651Y-66160038D01*
X152488830Y-66140632D01*
X152499866Y-66122219D01*
X152512654Y-66104976D01*
X152527070Y-66089070D01*
X152542976Y-66074654D01*
X152560219Y-66061866D01*
X152578632Y-66050830D01*
X152598038Y-66041651D01*
X152618250Y-66034419D01*
X152639074Y-66029203D01*
X152660309Y-66026053D01*
X152681750Y-66025000D01*
X153119250Y-66025000D01*
X153140691Y-66026053D01*
X153140691Y-66026053D01*
G37*
D11*
X152900500Y-66500000D03*
D10*
G36*
X154715691Y-66026053D02*
G01*
X154736926Y-66029203D01*
X154757750Y-66034419D01*
X154777962Y-66041651D01*
X154797368Y-66050830D01*
X154815781Y-66061866D01*
X154833024Y-66074654D01*
X154848930Y-66089070D01*
X154863346Y-66104976D01*
X154876134Y-66122219D01*
X154887170Y-66140632D01*
X154896349Y-66160038D01*
X154903581Y-66180250D01*
X154908797Y-66201074D01*
X154911947Y-66222309D01*
X154913000Y-66243750D01*
X154913000Y-66756250D01*
X154911947Y-66777691D01*
X154908797Y-66798926D01*
X154903581Y-66819750D01*
X154896349Y-66839962D01*
X154887170Y-66859368D01*
X154876134Y-66877781D01*
X154863346Y-66895024D01*
X154848930Y-66910930D01*
X154833024Y-66925346D01*
X154815781Y-66938134D01*
X154797368Y-66949170D01*
X154777962Y-66958349D01*
X154757750Y-66965581D01*
X154736926Y-66970797D01*
X154715691Y-66973947D01*
X154694250Y-66975000D01*
X154256750Y-66975000D01*
X154235309Y-66973947D01*
X154214074Y-66970797D01*
X154193250Y-66965581D01*
X154173038Y-66958349D01*
X154153632Y-66949170D01*
X154135219Y-66938134D01*
X154117976Y-66925346D01*
X154102070Y-66910930D01*
X154087654Y-66895024D01*
X154074866Y-66877781D01*
X154063830Y-66859368D01*
X154054651Y-66839962D01*
X154047419Y-66819750D01*
X154042203Y-66798926D01*
X154039053Y-66777691D01*
X154038000Y-66756250D01*
X154038000Y-66243750D01*
X154039053Y-66222309D01*
X154042203Y-66201074D01*
X154047419Y-66180250D01*
X154054651Y-66160038D01*
X154063830Y-66140632D01*
X154074866Y-66122219D01*
X154087654Y-66104976D01*
X154102070Y-66089070D01*
X154117976Y-66074654D01*
X154135219Y-66061866D01*
X154153632Y-66050830D01*
X154173038Y-66041651D01*
X154193250Y-66034419D01*
X154214074Y-66029203D01*
X154235309Y-66026053D01*
X154256750Y-66025000D01*
X154694250Y-66025000D01*
X154715691Y-66026053D01*
X154715691Y-66026053D01*
G37*
D11*
X154475500Y-66500000D03*
D10*
G36*
X127440691Y-69026053D02*
G01*
X127461926Y-69029203D01*
X127482750Y-69034419D01*
X127502962Y-69041651D01*
X127522368Y-69050830D01*
X127540781Y-69061866D01*
X127558024Y-69074654D01*
X127573930Y-69089070D01*
X127588346Y-69104976D01*
X127601134Y-69122219D01*
X127612170Y-69140632D01*
X127621349Y-69160038D01*
X127628581Y-69180250D01*
X127633797Y-69201074D01*
X127636947Y-69222309D01*
X127638000Y-69243750D01*
X127638000Y-69756250D01*
X127636947Y-69777691D01*
X127633797Y-69798926D01*
X127628581Y-69819750D01*
X127621349Y-69839962D01*
X127612170Y-69859368D01*
X127601134Y-69877781D01*
X127588346Y-69895024D01*
X127573930Y-69910930D01*
X127558024Y-69925346D01*
X127540781Y-69938134D01*
X127522368Y-69949170D01*
X127502962Y-69958349D01*
X127482750Y-69965581D01*
X127461926Y-69970797D01*
X127440691Y-69973947D01*
X127419250Y-69975000D01*
X126981750Y-69975000D01*
X126960309Y-69973947D01*
X126939074Y-69970797D01*
X126918250Y-69965581D01*
X126898038Y-69958349D01*
X126878632Y-69949170D01*
X126860219Y-69938134D01*
X126842976Y-69925346D01*
X126827070Y-69910930D01*
X126812654Y-69895024D01*
X126799866Y-69877781D01*
X126788830Y-69859368D01*
X126779651Y-69839962D01*
X126772419Y-69819750D01*
X126767203Y-69798926D01*
X126764053Y-69777691D01*
X126763000Y-69756250D01*
X126763000Y-69243750D01*
X126764053Y-69222309D01*
X126767203Y-69201074D01*
X126772419Y-69180250D01*
X126779651Y-69160038D01*
X126788830Y-69140632D01*
X126799866Y-69122219D01*
X126812654Y-69104976D01*
X126827070Y-69089070D01*
X126842976Y-69074654D01*
X126860219Y-69061866D01*
X126878632Y-69050830D01*
X126898038Y-69041651D01*
X126918250Y-69034419D01*
X126939074Y-69029203D01*
X126960309Y-69026053D01*
X126981750Y-69025000D01*
X127419250Y-69025000D01*
X127440691Y-69026053D01*
X127440691Y-69026053D01*
G37*
D11*
X127200500Y-69500000D03*
D10*
G36*
X129015691Y-69026053D02*
G01*
X129036926Y-69029203D01*
X129057750Y-69034419D01*
X129077962Y-69041651D01*
X129097368Y-69050830D01*
X129115781Y-69061866D01*
X129133024Y-69074654D01*
X129148930Y-69089070D01*
X129163346Y-69104976D01*
X129176134Y-69122219D01*
X129187170Y-69140632D01*
X129196349Y-69160038D01*
X129203581Y-69180250D01*
X129208797Y-69201074D01*
X129211947Y-69222309D01*
X129213000Y-69243750D01*
X129213000Y-69756250D01*
X129211947Y-69777691D01*
X129208797Y-69798926D01*
X129203581Y-69819750D01*
X129196349Y-69839962D01*
X129187170Y-69859368D01*
X129176134Y-69877781D01*
X129163346Y-69895024D01*
X129148930Y-69910930D01*
X129133024Y-69925346D01*
X129115781Y-69938134D01*
X129097368Y-69949170D01*
X129077962Y-69958349D01*
X129057750Y-69965581D01*
X129036926Y-69970797D01*
X129015691Y-69973947D01*
X128994250Y-69975000D01*
X128556750Y-69975000D01*
X128535309Y-69973947D01*
X128514074Y-69970797D01*
X128493250Y-69965581D01*
X128473038Y-69958349D01*
X128453632Y-69949170D01*
X128435219Y-69938134D01*
X128417976Y-69925346D01*
X128402070Y-69910930D01*
X128387654Y-69895024D01*
X128374866Y-69877781D01*
X128363830Y-69859368D01*
X128354651Y-69839962D01*
X128347419Y-69819750D01*
X128342203Y-69798926D01*
X128339053Y-69777691D01*
X128338000Y-69756250D01*
X128338000Y-69243750D01*
X128339053Y-69222309D01*
X128342203Y-69201074D01*
X128347419Y-69180250D01*
X128354651Y-69160038D01*
X128363830Y-69140632D01*
X128374866Y-69122219D01*
X128387654Y-69104976D01*
X128402070Y-69089070D01*
X128417976Y-69074654D01*
X128435219Y-69061866D01*
X128453632Y-69050830D01*
X128473038Y-69041651D01*
X128493250Y-69034419D01*
X128514074Y-69029203D01*
X128535309Y-69026053D01*
X128556750Y-69025000D01*
X128994250Y-69025000D01*
X129015691Y-69026053D01*
X129015691Y-69026053D01*
G37*
D11*
X128775500Y-69500000D03*
D12*
X134250000Y-68800000D03*
X134250000Y-66800000D03*
X139550000Y-68800000D03*
X139550000Y-66800000D03*
X134250000Y-78300000D03*
X134250000Y-76300000D03*
X139550000Y-78300000D03*
X139550000Y-76300000D03*
D10*
G36*
X155105142Y-67801174D02*
G01*
X155128803Y-67804684D01*
X155152007Y-67810496D01*
X155174529Y-67818554D01*
X155196153Y-67828782D01*
X155216670Y-67841079D01*
X155235883Y-67855329D01*
X155253607Y-67871393D01*
X155269671Y-67889117D01*
X155283921Y-67908330D01*
X155296218Y-67928847D01*
X155306446Y-67950471D01*
X155314504Y-67972993D01*
X155320316Y-67996197D01*
X155323826Y-68019858D01*
X155325000Y-68043750D01*
X155325000Y-68956250D01*
X155323826Y-68980142D01*
X155320316Y-69003803D01*
X155314504Y-69027007D01*
X155306446Y-69049529D01*
X155296218Y-69071153D01*
X155283921Y-69091670D01*
X155269671Y-69110883D01*
X155253607Y-69128607D01*
X155235883Y-69144671D01*
X155216670Y-69158921D01*
X155196153Y-69171218D01*
X155174529Y-69181446D01*
X155152007Y-69189504D01*
X155128803Y-69195316D01*
X155105142Y-69198826D01*
X155081250Y-69200000D01*
X154593750Y-69200000D01*
X154569858Y-69198826D01*
X154546197Y-69195316D01*
X154522993Y-69189504D01*
X154500471Y-69181446D01*
X154478847Y-69171218D01*
X154458330Y-69158921D01*
X154439117Y-69144671D01*
X154421393Y-69128607D01*
X154405329Y-69110883D01*
X154391079Y-69091670D01*
X154378782Y-69071153D01*
X154368554Y-69049529D01*
X154360496Y-69027007D01*
X154354684Y-69003803D01*
X154351174Y-68980142D01*
X154350000Y-68956250D01*
X154350000Y-68043750D01*
X154351174Y-68019858D01*
X154354684Y-67996197D01*
X154360496Y-67972993D01*
X154368554Y-67950471D01*
X154378782Y-67928847D01*
X154391079Y-67908330D01*
X154405329Y-67889117D01*
X154421393Y-67871393D01*
X154439117Y-67855329D01*
X154458330Y-67841079D01*
X154478847Y-67828782D01*
X154500471Y-67818554D01*
X154522993Y-67810496D01*
X154546197Y-67804684D01*
X154569858Y-67801174D01*
X154593750Y-67800000D01*
X155081250Y-67800000D01*
X155105142Y-67801174D01*
X155105142Y-67801174D01*
G37*
D13*
X154837500Y-68500000D03*
D10*
G36*
X153230142Y-67801174D02*
G01*
X153253803Y-67804684D01*
X153277007Y-67810496D01*
X153299529Y-67818554D01*
X153321153Y-67828782D01*
X153341670Y-67841079D01*
X153360883Y-67855329D01*
X153378607Y-67871393D01*
X153394671Y-67889117D01*
X153408921Y-67908330D01*
X153421218Y-67928847D01*
X153431446Y-67950471D01*
X153439504Y-67972993D01*
X153445316Y-67996197D01*
X153448826Y-68019858D01*
X153450000Y-68043750D01*
X153450000Y-68956250D01*
X153448826Y-68980142D01*
X153445316Y-69003803D01*
X153439504Y-69027007D01*
X153431446Y-69049529D01*
X153421218Y-69071153D01*
X153408921Y-69091670D01*
X153394671Y-69110883D01*
X153378607Y-69128607D01*
X153360883Y-69144671D01*
X153341670Y-69158921D01*
X153321153Y-69171218D01*
X153299529Y-69181446D01*
X153277007Y-69189504D01*
X153253803Y-69195316D01*
X153230142Y-69198826D01*
X153206250Y-69200000D01*
X152718750Y-69200000D01*
X152694858Y-69198826D01*
X152671197Y-69195316D01*
X152647993Y-69189504D01*
X152625471Y-69181446D01*
X152603847Y-69171218D01*
X152583330Y-69158921D01*
X152564117Y-69144671D01*
X152546393Y-69128607D01*
X152530329Y-69110883D01*
X152516079Y-69091670D01*
X152503782Y-69071153D01*
X152493554Y-69049529D01*
X152485496Y-69027007D01*
X152479684Y-69003803D01*
X152476174Y-68980142D01*
X152475000Y-68956250D01*
X152475000Y-68043750D01*
X152476174Y-68019858D01*
X152479684Y-67996197D01*
X152485496Y-67972993D01*
X152493554Y-67950471D01*
X152503782Y-67928847D01*
X152516079Y-67908330D01*
X152530329Y-67889117D01*
X152546393Y-67871393D01*
X152564117Y-67855329D01*
X152583330Y-67841079D01*
X152603847Y-67828782D01*
X152625471Y-67818554D01*
X152647993Y-67810496D01*
X152671197Y-67804684D01*
X152694858Y-67801174D01*
X152718750Y-67800000D01*
X153206250Y-67800000D01*
X153230142Y-67801174D01*
X153230142Y-67801174D01*
G37*
D13*
X152962500Y-68500000D03*
D10*
G36*
X131780142Y-76076174D02*
G01*
X131803803Y-76079684D01*
X131827007Y-76085496D01*
X131849529Y-76093554D01*
X131871153Y-76103782D01*
X131891670Y-76116079D01*
X131910883Y-76130329D01*
X131928607Y-76146393D01*
X131944671Y-76164117D01*
X131958921Y-76183330D01*
X131971218Y-76203847D01*
X131981446Y-76225471D01*
X131989504Y-76247993D01*
X131995316Y-76271197D01*
X131998826Y-76294858D01*
X132000000Y-76318750D01*
X132000000Y-76806250D01*
X131998826Y-76830142D01*
X131995316Y-76853803D01*
X131989504Y-76877007D01*
X131981446Y-76899529D01*
X131971218Y-76921153D01*
X131958921Y-76941670D01*
X131944671Y-76960883D01*
X131928607Y-76978607D01*
X131910883Y-76994671D01*
X131891670Y-77008921D01*
X131871153Y-77021218D01*
X131849529Y-77031446D01*
X131827007Y-77039504D01*
X131803803Y-77045316D01*
X131780142Y-77048826D01*
X131756250Y-77050000D01*
X130843750Y-77050000D01*
X130819858Y-77048826D01*
X130796197Y-77045316D01*
X130772993Y-77039504D01*
X130750471Y-77031446D01*
X130728847Y-77021218D01*
X130708330Y-77008921D01*
X130689117Y-76994671D01*
X130671393Y-76978607D01*
X130655329Y-76960883D01*
X130641079Y-76941670D01*
X130628782Y-76921153D01*
X130618554Y-76899529D01*
X130610496Y-76877007D01*
X130604684Y-76853803D01*
X130601174Y-76830142D01*
X130600000Y-76806250D01*
X130600000Y-76318750D01*
X130601174Y-76294858D01*
X130604684Y-76271197D01*
X130610496Y-76247993D01*
X130618554Y-76225471D01*
X130628782Y-76203847D01*
X130641079Y-76183330D01*
X130655329Y-76164117D01*
X130671393Y-76146393D01*
X130689117Y-76130329D01*
X130708330Y-76116079D01*
X130728847Y-76103782D01*
X130750471Y-76093554D01*
X130772993Y-76085496D01*
X130796197Y-76079684D01*
X130819858Y-76076174D01*
X130843750Y-76075000D01*
X131756250Y-76075000D01*
X131780142Y-76076174D01*
X131780142Y-76076174D01*
G37*
D13*
X131300000Y-76562500D03*
D10*
G36*
X131780142Y-77951174D02*
G01*
X131803803Y-77954684D01*
X131827007Y-77960496D01*
X131849529Y-77968554D01*
X131871153Y-77978782D01*
X131891670Y-77991079D01*
X131910883Y-78005329D01*
X131928607Y-78021393D01*
X131944671Y-78039117D01*
X131958921Y-78058330D01*
X131971218Y-78078847D01*
X131981446Y-78100471D01*
X131989504Y-78122993D01*
X131995316Y-78146197D01*
X131998826Y-78169858D01*
X132000000Y-78193750D01*
X132000000Y-78681250D01*
X131998826Y-78705142D01*
X131995316Y-78728803D01*
X131989504Y-78752007D01*
X131981446Y-78774529D01*
X131971218Y-78796153D01*
X131958921Y-78816670D01*
X131944671Y-78835883D01*
X131928607Y-78853607D01*
X131910883Y-78869671D01*
X131891670Y-78883921D01*
X131871153Y-78896218D01*
X131849529Y-78906446D01*
X131827007Y-78914504D01*
X131803803Y-78920316D01*
X131780142Y-78923826D01*
X131756250Y-78925000D01*
X130843750Y-78925000D01*
X130819858Y-78923826D01*
X130796197Y-78920316D01*
X130772993Y-78914504D01*
X130750471Y-78906446D01*
X130728847Y-78896218D01*
X130708330Y-78883921D01*
X130689117Y-78869671D01*
X130671393Y-78853607D01*
X130655329Y-78835883D01*
X130641079Y-78816670D01*
X130628782Y-78796153D01*
X130618554Y-78774529D01*
X130610496Y-78752007D01*
X130604684Y-78728803D01*
X130601174Y-78705142D01*
X130600000Y-78681250D01*
X130600000Y-78193750D01*
X130601174Y-78169858D01*
X130604684Y-78146197D01*
X130610496Y-78122993D01*
X130618554Y-78100471D01*
X130628782Y-78078847D01*
X130641079Y-78058330D01*
X130655329Y-78039117D01*
X130671393Y-78021393D01*
X130689117Y-78005329D01*
X130708330Y-77991079D01*
X130728847Y-77978782D01*
X130750471Y-77968554D01*
X130772993Y-77960496D01*
X130796197Y-77954684D01*
X130819858Y-77951174D01*
X130843750Y-77950000D01*
X131756250Y-77950000D01*
X131780142Y-77951174D01*
X131780142Y-77951174D01*
G37*
D13*
X131300000Y-78437500D03*
D10*
G36*
X153230142Y-63801174D02*
G01*
X153253803Y-63804684D01*
X153277007Y-63810496D01*
X153299529Y-63818554D01*
X153321153Y-63828782D01*
X153341670Y-63841079D01*
X153360883Y-63855329D01*
X153378607Y-63871393D01*
X153394671Y-63889117D01*
X153408921Y-63908330D01*
X153421218Y-63928847D01*
X153431446Y-63950471D01*
X153439504Y-63972993D01*
X153445316Y-63996197D01*
X153448826Y-64019858D01*
X153450000Y-64043750D01*
X153450000Y-64956250D01*
X153448826Y-64980142D01*
X153445316Y-65003803D01*
X153439504Y-65027007D01*
X153431446Y-65049529D01*
X153421218Y-65071153D01*
X153408921Y-65091670D01*
X153394671Y-65110883D01*
X153378607Y-65128607D01*
X153360883Y-65144671D01*
X153341670Y-65158921D01*
X153321153Y-65171218D01*
X153299529Y-65181446D01*
X153277007Y-65189504D01*
X153253803Y-65195316D01*
X153230142Y-65198826D01*
X153206250Y-65200000D01*
X152718750Y-65200000D01*
X152694858Y-65198826D01*
X152671197Y-65195316D01*
X152647993Y-65189504D01*
X152625471Y-65181446D01*
X152603847Y-65171218D01*
X152583330Y-65158921D01*
X152564117Y-65144671D01*
X152546393Y-65128607D01*
X152530329Y-65110883D01*
X152516079Y-65091670D01*
X152503782Y-65071153D01*
X152493554Y-65049529D01*
X152485496Y-65027007D01*
X152479684Y-65003803D01*
X152476174Y-64980142D01*
X152475000Y-64956250D01*
X152475000Y-64043750D01*
X152476174Y-64019858D01*
X152479684Y-63996197D01*
X152485496Y-63972993D01*
X152493554Y-63950471D01*
X152503782Y-63928847D01*
X152516079Y-63908330D01*
X152530329Y-63889117D01*
X152546393Y-63871393D01*
X152564117Y-63855329D01*
X152583330Y-63841079D01*
X152603847Y-63828782D01*
X152625471Y-63818554D01*
X152647993Y-63810496D01*
X152671197Y-63804684D01*
X152694858Y-63801174D01*
X152718750Y-63800000D01*
X153206250Y-63800000D01*
X153230142Y-63801174D01*
X153230142Y-63801174D01*
G37*
D13*
X152962500Y-64500000D03*
D10*
G36*
X155105142Y-63801174D02*
G01*
X155128803Y-63804684D01*
X155152007Y-63810496D01*
X155174529Y-63818554D01*
X155196153Y-63828782D01*
X155216670Y-63841079D01*
X155235883Y-63855329D01*
X155253607Y-63871393D01*
X155269671Y-63889117D01*
X155283921Y-63908330D01*
X155296218Y-63928847D01*
X155306446Y-63950471D01*
X155314504Y-63972993D01*
X155320316Y-63996197D01*
X155323826Y-64019858D01*
X155325000Y-64043750D01*
X155325000Y-64956250D01*
X155323826Y-64980142D01*
X155320316Y-65003803D01*
X155314504Y-65027007D01*
X155306446Y-65049529D01*
X155296218Y-65071153D01*
X155283921Y-65091670D01*
X155269671Y-65110883D01*
X155253607Y-65128607D01*
X155235883Y-65144671D01*
X155216670Y-65158921D01*
X155196153Y-65171218D01*
X155174529Y-65181446D01*
X155152007Y-65189504D01*
X155128803Y-65195316D01*
X155105142Y-65198826D01*
X155081250Y-65200000D01*
X154593750Y-65200000D01*
X154569858Y-65198826D01*
X154546197Y-65195316D01*
X154522993Y-65189504D01*
X154500471Y-65181446D01*
X154478847Y-65171218D01*
X154458330Y-65158921D01*
X154439117Y-65144671D01*
X154421393Y-65128607D01*
X154405329Y-65110883D01*
X154391079Y-65091670D01*
X154378782Y-65071153D01*
X154368554Y-65049529D01*
X154360496Y-65027007D01*
X154354684Y-65003803D01*
X154351174Y-64980142D01*
X154350000Y-64956250D01*
X154350000Y-64043750D01*
X154351174Y-64019858D01*
X154354684Y-63996197D01*
X154360496Y-63972993D01*
X154368554Y-63950471D01*
X154378782Y-63928847D01*
X154391079Y-63908330D01*
X154405329Y-63889117D01*
X154421393Y-63871393D01*
X154439117Y-63855329D01*
X154458330Y-63841079D01*
X154478847Y-63828782D01*
X154500471Y-63818554D01*
X154522993Y-63810496D01*
X154546197Y-63804684D01*
X154569858Y-63801174D01*
X154593750Y-63800000D01*
X155081250Y-63800000D01*
X155105142Y-63801174D01*
X155105142Y-63801174D01*
G37*
D13*
X154837500Y-64500000D03*
D10*
G36*
X154127691Y-85726053D02*
G01*
X154148926Y-85729203D01*
X154169750Y-85734419D01*
X154189962Y-85741651D01*
X154209368Y-85750830D01*
X154227781Y-85761866D01*
X154245024Y-85774654D01*
X154260930Y-85789070D01*
X154275346Y-85804976D01*
X154288134Y-85822219D01*
X154299170Y-85840632D01*
X154308349Y-85860038D01*
X154315581Y-85880250D01*
X154320797Y-85901074D01*
X154323947Y-85922309D01*
X154325000Y-85943750D01*
X154325000Y-86456250D01*
X154323947Y-86477691D01*
X154320797Y-86498926D01*
X154315581Y-86519750D01*
X154308349Y-86539962D01*
X154299170Y-86559368D01*
X154288134Y-86577781D01*
X154275346Y-86595024D01*
X154260930Y-86610930D01*
X154245024Y-86625346D01*
X154227781Y-86638134D01*
X154209368Y-86649170D01*
X154189962Y-86658349D01*
X154169750Y-86665581D01*
X154148926Y-86670797D01*
X154127691Y-86673947D01*
X154106250Y-86675000D01*
X153668750Y-86675000D01*
X153647309Y-86673947D01*
X153626074Y-86670797D01*
X153605250Y-86665581D01*
X153585038Y-86658349D01*
X153565632Y-86649170D01*
X153547219Y-86638134D01*
X153529976Y-86625346D01*
X153514070Y-86610930D01*
X153499654Y-86595024D01*
X153486866Y-86577781D01*
X153475830Y-86559368D01*
X153466651Y-86539962D01*
X153459419Y-86519750D01*
X153454203Y-86498926D01*
X153451053Y-86477691D01*
X153450000Y-86456250D01*
X153450000Y-85943750D01*
X153451053Y-85922309D01*
X153454203Y-85901074D01*
X153459419Y-85880250D01*
X153466651Y-85860038D01*
X153475830Y-85840632D01*
X153486866Y-85822219D01*
X153499654Y-85804976D01*
X153514070Y-85789070D01*
X153529976Y-85774654D01*
X153547219Y-85761866D01*
X153565632Y-85750830D01*
X153585038Y-85741651D01*
X153605250Y-85734419D01*
X153626074Y-85729203D01*
X153647309Y-85726053D01*
X153668750Y-85725000D01*
X154106250Y-85725000D01*
X154127691Y-85726053D01*
X154127691Y-85726053D01*
G37*
D11*
X153887500Y-86200000D03*
D10*
G36*
X152552691Y-85726053D02*
G01*
X152573926Y-85729203D01*
X152594750Y-85734419D01*
X152614962Y-85741651D01*
X152634368Y-85750830D01*
X152652781Y-85761866D01*
X152670024Y-85774654D01*
X152685930Y-85789070D01*
X152700346Y-85804976D01*
X152713134Y-85822219D01*
X152724170Y-85840632D01*
X152733349Y-85860038D01*
X152740581Y-85880250D01*
X152745797Y-85901074D01*
X152748947Y-85922309D01*
X152750000Y-85943750D01*
X152750000Y-86456250D01*
X152748947Y-86477691D01*
X152745797Y-86498926D01*
X152740581Y-86519750D01*
X152733349Y-86539962D01*
X152724170Y-86559368D01*
X152713134Y-86577781D01*
X152700346Y-86595024D01*
X152685930Y-86610930D01*
X152670024Y-86625346D01*
X152652781Y-86638134D01*
X152634368Y-86649170D01*
X152614962Y-86658349D01*
X152594750Y-86665581D01*
X152573926Y-86670797D01*
X152552691Y-86673947D01*
X152531250Y-86675000D01*
X152093750Y-86675000D01*
X152072309Y-86673947D01*
X152051074Y-86670797D01*
X152030250Y-86665581D01*
X152010038Y-86658349D01*
X151990632Y-86649170D01*
X151972219Y-86638134D01*
X151954976Y-86625346D01*
X151939070Y-86610930D01*
X151924654Y-86595024D01*
X151911866Y-86577781D01*
X151900830Y-86559368D01*
X151891651Y-86539962D01*
X151884419Y-86519750D01*
X151879203Y-86498926D01*
X151876053Y-86477691D01*
X151875000Y-86456250D01*
X151875000Y-85943750D01*
X151876053Y-85922309D01*
X151879203Y-85901074D01*
X151884419Y-85880250D01*
X151891651Y-85860038D01*
X151900830Y-85840632D01*
X151911866Y-85822219D01*
X151924654Y-85804976D01*
X151939070Y-85789070D01*
X151954976Y-85774654D01*
X151972219Y-85761866D01*
X151990632Y-85750830D01*
X152010038Y-85741651D01*
X152030250Y-85734419D01*
X152051074Y-85729203D01*
X152072309Y-85726053D01*
X152093750Y-85725000D01*
X152531250Y-85725000D01*
X152552691Y-85726053D01*
X152552691Y-85726053D01*
G37*
D11*
X152312500Y-86200000D03*
D10*
G36*
X154715691Y-69926053D02*
G01*
X154736926Y-69929203D01*
X154757750Y-69934419D01*
X154777962Y-69941651D01*
X154797368Y-69950830D01*
X154815781Y-69961866D01*
X154833024Y-69974654D01*
X154848930Y-69989070D01*
X154863346Y-70004976D01*
X154876134Y-70022219D01*
X154887170Y-70040632D01*
X154896349Y-70060038D01*
X154903581Y-70080250D01*
X154908797Y-70101074D01*
X154911947Y-70122309D01*
X154913000Y-70143750D01*
X154913000Y-70656250D01*
X154911947Y-70677691D01*
X154908797Y-70698926D01*
X154903581Y-70719750D01*
X154896349Y-70739962D01*
X154887170Y-70759368D01*
X154876134Y-70777781D01*
X154863346Y-70795024D01*
X154848930Y-70810930D01*
X154833024Y-70825346D01*
X154815781Y-70838134D01*
X154797368Y-70849170D01*
X154777962Y-70858349D01*
X154757750Y-70865581D01*
X154736926Y-70870797D01*
X154715691Y-70873947D01*
X154694250Y-70875000D01*
X154256750Y-70875000D01*
X154235309Y-70873947D01*
X154214074Y-70870797D01*
X154193250Y-70865581D01*
X154173038Y-70858349D01*
X154153632Y-70849170D01*
X154135219Y-70838134D01*
X154117976Y-70825346D01*
X154102070Y-70810930D01*
X154087654Y-70795024D01*
X154074866Y-70777781D01*
X154063830Y-70759368D01*
X154054651Y-70739962D01*
X154047419Y-70719750D01*
X154042203Y-70698926D01*
X154039053Y-70677691D01*
X154038000Y-70656250D01*
X154038000Y-70143750D01*
X154039053Y-70122309D01*
X154042203Y-70101074D01*
X154047419Y-70080250D01*
X154054651Y-70060038D01*
X154063830Y-70040632D01*
X154074866Y-70022219D01*
X154087654Y-70004976D01*
X154102070Y-69989070D01*
X154117976Y-69974654D01*
X154135219Y-69961866D01*
X154153632Y-69950830D01*
X154173038Y-69941651D01*
X154193250Y-69934419D01*
X154214074Y-69929203D01*
X154235309Y-69926053D01*
X154256750Y-69925000D01*
X154694250Y-69925000D01*
X154715691Y-69926053D01*
X154715691Y-69926053D01*
G37*
D11*
X154475500Y-70400000D03*
D10*
G36*
X153140691Y-69926053D02*
G01*
X153161926Y-69929203D01*
X153182750Y-69934419D01*
X153202962Y-69941651D01*
X153222368Y-69950830D01*
X153240781Y-69961866D01*
X153258024Y-69974654D01*
X153273930Y-69989070D01*
X153288346Y-70004976D01*
X153301134Y-70022219D01*
X153312170Y-70040632D01*
X153321349Y-70060038D01*
X153328581Y-70080250D01*
X153333797Y-70101074D01*
X153336947Y-70122309D01*
X153338000Y-70143750D01*
X153338000Y-70656250D01*
X153336947Y-70677691D01*
X153333797Y-70698926D01*
X153328581Y-70719750D01*
X153321349Y-70739962D01*
X153312170Y-70759368D01*
X153301134Y-70777781D01*
X153288346Y-70795024D01*
X153273930Y-70810930D01*
X153258024Y-70825346D01*
X153240781Y-70838134D01*
X153222368Y-70849170D01*
X153202962Y-70858349D01*
X153182750Y-70865581D01*
X153161926Y-70870797D01*
X153140691Y-70873947D01*
X153119250Y-70875000D01*
X152681750Y-70875000D01*
X152660309Y-70873947D01*
X152639074Y-70870797D01*
X152618250Y-70865581D01*
X152598038Y-70858349D01*
X152578632Y-70849170D01*
X152560219Y-70838134D01*
X152542976Y-70825346D01*
X152527070Y-70810930D01*
X152512654Y-70795024D01*
X152499866Y-70777781D01*
X152488830Y-70759368D01*
X152479651Y-70739962D01*
X152472419Y-70719750D01*
X152467203Y-70698926D01*
X152464053Y-70677691D01*
X152463000Y-70656250D01*
X152463000Y-70143750D01*
X152464053Y-70122309D01*
X152467203Y-70101074D01*
X152472419Y-70080250D01*
X152479651Y-70060038D01*
X152488830Y-70040632D01*
X152499866Y-70022219D01*
X152512654Y-70004976D01*
X152527070Y-69989070D01*
X152542976Y-69974654D01*
X152560219Y-69961866D01*
X152578632Y-69950830D01*
X152598038Y-69941651D01*
X152618250Y-69934419D01*
X152639074Y-69929203D01*
X152660309Y-69926053D01*
X152681750Y-69925000D01*
X153119250Y-69925000D01*
X153140691Y-69926053D01*
X153140691Y-69926053D01*
G37*
D11*
X152900500Y-70400000D03*
D10*
G36*
X154127691Y-84126053D02*
G01*
X154148926Y-84129203D01*
X154169750Y-84134419D01*
X154189962Y-84141651D01*
X154209368Y-84150830D01*
X154227781Y-84161866D01*
X154245024Y-84174654D01*
X154260930Y-84189070D01*
X154275346Y-84204976D01*
X154288134Y-84222219D01*
X154299170Y-84240632D01*
X154308349Y-84260038D01*
X154315581Y-84280250D01*
X154320797Y-84301074D01*
X154323947Y-84322309D01*
X154325000Y-84343750D01*
X154325000Y-84856250D01*
X154323947Y-84877691D01*
X154320797Y-84898926D01*
X154315581Y-84919750D01*
X154308349Y-84939962D01*
X154299170Y-84959368D01*
X154288134Y-84977781D01*
X154275346Y-84995024D01*
X154260930Y-85010930D01*
X154245024Y-85025346D01*
X154227781Y-85038134D01*
X154209368Y-85049170D01*
X154189962Y-85058349D01*
X154169750Y-85065581D01*
X154148926Y-85070797D01*
X154127691Y-85073947D01*
X154106250Y-85075000D01*
X153668750Y-85075000D01*
X153647309Y-85073947D01*
X153626074Y-85070797D01*
X153605250Y-85065581D01*
X153585038Y-85058349D01*
X153565632Y-85049170D01*
X153547219Y-85038134D01*
X153529976Y-85025346D01*
X153514070Y-85010930D01*
X153499654Y-84995024D01*
X153486866Y-84977781D01*
X153475830Y-84959368D01*
X153466651Y-84939962D01*
X153459419Y-84919750D01*
X153454203Y-84898926D01*
X153451053Y-84877691D01*
X153450000Y-84856250D01*
X153450000Y-84343750D01*
X153451053Y-84322309D01*
X153454203Y-84301074D01*
X153459419Y-84280250D01*
X153466651Y-84260038D01*
X153475830Y-84240632D01*
X153486866Y-84222219D01*
X153499654Y-84204976D01*
X153514070Y-84189070D01*
X153529976Y-84174654D01*
X153547219Y-84161866D01*
X153565632Y-84150830D01*
X153585038Y-84141651D01*
X153605250Y-84134419D01*
X153626074Y-84129203D01*
X153647309Y-84126053D01*
X153668750Y-84125000D01*
X154106250Y-84125000D01*
X154127691Y-84126053D01*
X154127691Y-84126053D01*
G37*
D11*
X153887500Y-84600000D03*
D10*
G36*
X152552691Y-84126053D02*
G01*
X152573926Y-84129203D01*
X152594750Y-84134419D01*
X152614962Y-84141651D01*
X152634368Y-84150830D01*
X152652781Y-84161866D01*
X152670024Y-84174654D01*
X152685930Y-84189070D01*
X152700346Y-84204976D01*
X152713134Y-84222219D01*
X152724170Y-84240632D01*
X152733349Y-84260038D01*
X152740581Y-84280250D01*
X152745797Y-84301074D01*
X152748947Y-84322309D01*
X152750000Y-84343750D01*
X152750000Y-84856250D01*
X152748947Y-84877691D01*
X152745797Y-84898926D01*
X152740581Y-84919750D01*
X152733349Y-84939962D01*
X152724170Y-84959368D01*
X152713134Y-84977781D01*
X152700346Y-84995024D01*
X152685930Y-85010930D01*
X152670024Y-85025346D01*
X152652781Y-85038134D01*
X152634368Y-85049170D01*
X152614962Y-85058349D01*
X152594750Y-85065581D01*
X152573926Y-85070797D01*
X152552691Y-85073947D01*
X152531250Y-85075000D01*
X152093750Y-85075000D01*
X152072309Y-85073947D01*
X152051074Y-85070797D01*
X152030250Y-85065581D01*
X152010038Y-85058349D01*
X151990632Y-85049170D01*
X151972219Y-85038134D01*
X151954976Y-85025346D01*
X151939070Y-85010930D01*
X151924654Y-84995024D01*
X151911866Y-84977781D01*
X151900830Y-84959368D01*
X151891651Y-84939962D01*
X151884419Y-84919750D01*
X151879203Y-84898926D01*
X151876053Y-84877691D01*
X151875000Y-84856250D01*
X151875000Y-84343750D01*
X151876053Y-84322309D01*
X151879203Y-84301074D01*
X151884419Y-84280250D01*
X151891651Y-84260038D01*
X151900830Y-84240632D01*
X151911866Y-84222219D01*
X151924654Y-84204976D01*
X151939070Y-84189070D01*
X151954976Y-84174654D01*
X151972219Y-84161866D01*
X151990632Y-84150830D01*
X152010038Y-84141651D01*
X152030250Y-84134419D01*
X152051074Y-84129203D01*
X152072309Y-84126053D01*
X152093750Y-84125000D01*
X152531250Y-84125000D01*
X152552691Y-84126053D01*
X152552691Y-84126053D01*
G37*
D11*
X152312500Y-84600000D03*
D10*
G36*
X142877691Y-68163553D02*
G01*
X142898926Y-68166703D01*
X142919750Y-68171919D01*
X142939962Y-68179151D01*
X142959368Y-68188330D01*
X142977781Y-68199366D01*
X142995024Y-68212154D01*
X143010930Y-68226570D01*
X143025346Y-68242476D01*
X143038134Y-68259719D01*
X143049170Y-68278132D01*
X143058349Y-68297538D01*
X143065581Y-68317750D01*
X143070797Y-68338574D01*
X143073947Y-68359809D01*
X143075000Y-68381250D01*
X143075000Y-68818750D01*
X143073947Y-68840191D01*
X143070797Y-68861426D01*
X143065581Y-68882250D01*
X143058349Y-68902462D01*
X143049170Y-68921868D01*
X143038134Y-68940281D01*
X143025346Y-68957524D01*
X143010930Y-68973430D01*
X142995024Y-68987846D01*
X142977781Y-69000634D01*
X142959368Y-69011670D01*
X142939962Y-69020849D01*
X142919750Y-69028081D01*
X142898926Y-69033297D01*
X142877691Y-69036447D01*
X142856250Y-69037500D01*
X142343750Y-69037500D01*
X142322309Y-69036447D01*
X142301074Y-69033297D01*
X142280250Y-69028081D01*
X142260038Y-69020849D01*
X142240632Y-69011670D01*
X142222219Y-69000634D01*
X142204976Y-68987846D01*
X142189070Y-68973430D01*
X142174654Y-68957524D01*
X142161866Y-68940281D01*
X142150830Y-68921868D01*
X142141651Y-68902462D01*
X142134419Y-68882250D01*
X142129203Y-68861426D01*
X142126053Y-68840191D01*
X142125000Y-68818750D01*
X142125000Y-68381250D01*
X142126053Y-68359809D01*
X142129203Y-68338574D01*
X142134419Y-68317750D01*
X142141651Y-68297538D01*
X142150830Y-68278132D01*
X142161866Y-68259719D01*
X142174654Y-68242476D01*
X142189070Y-68226570D01*
X142204976Y-68212154D01*
X142222219Y-68199366D01*
X142240632Y-68188330D01*
X142260038Y-68179151D01*
X142280250Y-68171919D01*
X142301074Y-68166703D01*
X142322309Y-68163553D01*
X142343750Y-68162500D01*
X142856250Y-68162500D01*
X142877691Y-68163553D01*
X142877691Y-68163553D01*
G37*
D11*
X142600000Y-68600000D03*
D10*
G36*
X142877691Y-66588553D02*
G01*
X142898926Y-66591703D01*
X142919750Y-66596919D01*
X142939962Y-66604151D01*
X142959368Y-66613330D01*
X142977781Y-66624366D01*
X142995024Y-66637154D01*
X143010930Y-66651570D01*
X143025346Y-66667476D01*
X143038134Y-66684719D01*
X143049170Y-66703132D01*
X143058349Y-66722538D01*
X143065581Y-66742750D01*
X143070797Y-66763574D01*
X143073947Y-66784809D01*
X143075000Y-66806250D01*
X143075000Y-67243750D01*
X143073947Y-67265191D01*
X143070797Y-67286426D01*
X143065581Y-67307250D01*
X143058349Y-67327462D01*
X143049170Y-67346868D01*
X143038134Y-67365281D01*
X143025346Y-67382524D01*
X143010930Y-67398430D01*
X142995024Y-67412846D01*
X142977781Y-67425634D01*
X142959368Y-67436670D01*
X142939962Y-67445849D01*
X142919750Y-67453081D01*
X142898926Y-67458297D01*
X142877691Y-67461447D01*
X142856250Y-67462500D01*
X142343750Y-67462500D01*
X142322309Y-67461447D01*
X142301074Y-67458297D01*
X142280250Y-67453081D01*
X142260038Y-67445849D01*
X142240632Y-67436670D01*
X142222219Y-67425634D01*
X142204976Y-67412846D01*
X142189070Y-67398430D01*
X142174654Y-67382524D01*
X142161866Y-67365281D01*
X142150830Y-67346868D01*
X142141651Y-67327462D01*
X142134419Y-67307250D01*
X142129203Y-67286426D01*
X142126053Y-67265191D01*
X142125000Y-67243750D01*
X142125000Y-66806250D01*
X142126053Y-66784809D01*
X142129203Y-66763574D01*
X142134419Y-66742750D01*
X142141651Y-66722538D01*
X142150830Y-66703132D01*
X142161866Y-66684719D01*
X142174654Y-66667476D01*
X142189070Y-66651570D01*
X142204976Y-66637154D01*
X142222219Y-66624366D01*
X142240632Y-66613330D01*
X142260038Y-66604151D01*
X142280250Y-66596919D01*
X142301074Y-66591703D01*
X142322309Y-66588553D01*
X142343750Y-66587500D01*
X142856250Y-66587500D01*
X142877691Y-66588553D01*
X142877691Y-66588553D01*
G37*
D11*
X142600000Y-67025000D03*
D10*
G36*
X142877691Y-77738553D02*
G01*
X142898926Y-77741703D01*
X142919750Y-77746919D01*
X142939962Y-77754151D01*
X142959368Y-77763330D01*
X142977781Y-77774366D01*
X142995024Y-77787154D01*
X143010930Y-77801570D01*
X143025346Y-77817476D01*
X143038134Y-77834719D01*
X143049170Y-77853132D01*
X143058349Y-77872538D01*
X143065581Y-77892750D01*
X143070797Y-77913574D01*
X143073947Y-77934809D01*
X143075000Y-77956250D01*
X143075000Y-78393750D01*
X143073947Y-78415191D01*
X143070797Y-78436426D01*
X143065581Y-78457250D01*
X143058349Y-78477462D01*
X143049170Y-78496868D01*
X143038134Y-78515281D01*
X143025346Y-78532524D01*
X143010930Y-78548430D01*
X142995024Y-78562846D01*
X142977781Y-78575634D01*
X142959368Y-78586670D01*
X142939962Y-78595849D01*
X142919750Y-78603081D01*
X142898926Y-78608297D01*
X142877691Y-78611447D01*
X142856250Y-78612500D01*
X142343750Y-78612500D01*
X142322309Y-78611447D01*
X142301074Y-78608297D01*
X142280250Y-78603081D01*
X142260038Y-78595849D01*
X142240632Y-78586670D01*
X142222219Y-78575634D01*
X142204976Y-78562846D01*
X142189070Y-78548430D01*
X142174654Y-78532524D01*
X142161866Y-78515281D01*
X142150830Y-78496868D01*
X142141651Y-78477462D01*
X142134419Y-78457250D01*
X142129203Y-78436426D01*
X142126053Y-78415191D01*
X142125000Y-78393750D01*
X142125000Y-77956250D01*
X142126053Y-77934809D01*
X142129203Y-77913574D01*
X142134419Y-77892750D01*
X142141651Y-77872538D01*
X142150830Y-77853132D01*
X142161866Y-77834719D01*
X142174654Y-77817476D01*
X142189070Y-77801570D01*
X142204976Y-77787154D01*
X142222219Y-77774366D01*
X142240632Y-77763330D01*
X142260038Y-77754151D01*
X142280250Y-77746919D01*
X142301074Y-77741703D01*
X142322309Y-77738553D01*
X142343750Y-77737500D01*
X142856250Y-77737500D01*
X142877691Y-77738553D01*
X142877691Y-77738553D01*
G37*
D11*
X142600000Y-78175000D03*
D10*
G36*
X142877691Y-76163553D02*
G01*
X142898926Y-76166703D01*
X142919750Y-76171919D01*
X142939962Y-76179151D01*
X142959368Y-76188330D01*
X142977781Y-76199366D01*
X142995024Y-76212154D01*
X143010930Y-76226570D01*
X143025346Y-76242476D01*
X143038134Y-76259719D01*
X143049170Y-76278132D01*
X143058349Y-76297538D01*
X143065581Y-76317750D01*
X143070797Y-76338574D01*
X143073947Y-76359809D01*
X143075000Y-76381250D01*
X143075000Y-76818750D01*
X143073947Y-76840191D01*
X143070797Y-76861426D01*
X143065581Y-76882250D01*
X143058349Y-76902462D01*
X143049170Y-76921868D01*
X143038134Y-76940281D01*
X143025346Y-76957524D01*
X143010930Y-76973430D01*
X142995024Y-76987846D01*
X142977781Y-77000634D01*
X142959368Y-77011670D01*
X142939962Y-77020849D01*
X142919750Y-77028081D01*
X142898926Y-77033297D01*
X142877691Y-77036447D01*
X142856250Y-77037500D01*
X142343750Y-77037500D01*
X142322309Y-77036447D01*
X142301074Y-77033297D01*
X142280250Y-77028081D01*
X142260038Y-77020849D01*
X142240632Y-77011670D01*
X142222219Y-77000634D01*
X142204976Y-76987846D01*
X142189070Y-76973430D01*
X142174654Y-76957524D01*
X142161866Y-76940281D01*
X142150830Y-76921868D01*
X142141651Y-76902462D01*
X142134419Y-76882250D01*
X142129203Y-76861426D01*
X142126053Y-76840191D01*
X142125000Y-76818750D01*
X142125000Y-76381250D01*
X142126053Y-76359809D01*
X142129203Y-76338574D01*
X142134419Y-76317750D01*
X142141651Y-76297538D01*
X142150830Y-76278132D01*
X142161866Y-76259719D01*
X142174654Y-76242476D01*
X142189070Y-76226570D01*
X142204976Y-76212154D01*
X142222219Y-76199366D01*
X142240632Y-76188330D01*
X142260038Y-76179151D01*
X142280250Y-76171919D01*
X142301074Y-76166703D01*
X142322309Y-76163553D01*
X142343750Y-76162500D01*
X142856250Y-76162500D01*
X142877691Y-76163553D01*
X142877691Y-76163553D01*
G37*
D11*
X142600000Y-76600000D03*
D10*
G36*
X131680142Y-68388674D02*
G01*
X131703803Y-68392184D01*
X131727007Y-68397996D01*
X131749529Y-68406054D01*
X131771153Y-68416282D01*
X131791670Y-68428579D01*
X131810883Y-68442829D01*
X131828607Y-68458893D01*
X131844671Y-68476617D01*
X131858921Y-68495830D01*
X131871218Y-68516347D01*
X131881446Y-68537971D01*
X131889504Y-68560493D01*
X131895316Y-68583697D01*
X131898826Y-68607358D01*
X131900000Y-68631250D01*
X131900000Y-69118750D01*
X131898826Y-69142642D01*
X131895316Y-69166303D01*
X131889504Y-69189507D01*
X131881446Y-69212029D01*
X131871218Y-69233653D01*
X131858921Y-69254170D01*
X131844671Y-69273383D01*
X131828607Y-69291107D01*
X131810883Y-69307171D01*
X131791670Y-69321421D01*
X131771153Y-69333718D01*
X131749529Y-69343946D01*
X131727007Y-69352004D01*
X131703803Y-69357816D01*
X131680142Y-69361326D01*
X131656250Y-69362500D01*
X130743750Y-69362500D01*
X130719858Y-69361326D01*
X130696197Y-69357816D01*
X130672993Y-69352004D01*
X130650471Y-69343946D01*
X130628847Y-69333718D01*
X130608330Y-69321421D01*
X130589117Y-69307171D01*
X130571393Y-69291107D01*
X130555329Y-69273383D01*
X130541079Y-69254170D01*
X130528782Y-69233653D01*
X130518554Y-69212029D01*
X130510496Y-69189507D01*
X130504684Y-69166303D01*
X130501174Y-69142642D01*
X130500000Y-69118750D01*
X130500000Y-68631250D01*
X130501174Y-68607358D01*
X130504684Y-68583697D01*
X130510496Y-68560493D01*
X130518554Y-68537971D01*
X130528782Y-68516347D01*
X130541079Y-68495830D01*
X130555329Y-68476617D01*
X130571393Y-68458893D01*
X130589117Y-68442829D01*
X130608330Y-68428579D01*
X130628847Y-68416282D01*
X130650471Y-68406054D01*
X130672993Y-68397996D01*
X130696197Y-68392184D01*
X130719858Y-68388674D01*
X130743750Y-68387500D01*
X131656250Y-68387500D01*
X131680142Y-68388674D01*
X131680142Y-68388674D01*
G37*
D13*
X131200000Y-68875000D03*
D10*
G36*
X131680142Y-66513674D02*
G01*
X131703803Y-66517184D01*
X131727007Y-66522996D01*
X131749529Y-66531054D01*
X131771153Y-66541282D01*
X131791670Y-66553579D01*
X131810883Y-66567829D01*
X131828607Y-66583893D01*
X131844671Y-66601617D01*
X131858921Y-66620830D01*
X131871218Y-66641347D01*
X131881446Y-66662971D01*
X131889504Y-66685493D01*
X131895316Y-66708697D01*
X131898826Y-66732358D01*
X131900000Y-66756250D01*
X131900000Y-67243750D01*
X131898826Y-67267642D01*
X131895316Y-67291303D01*
X131889504Y-67314507D01*
X131881446Y-67337029D01*
X131871218Y-67358653D01*
X131858921Y-67379170D01*
X131844671Y-67398383D01*
X131828607Y-67416107D01*
X131810883Y-67432171D01*
X131791670Y-67446421D01*
X131771153Y-67458718D01*
X131749529Y-67468946D01*
X131727007Y-67477004D01*
X131703803Y-67482816D01*
X131680142Y-67486326D01*
X131656250Y-67487500D01*
X130743750Y-67487500D01*
X130719858Y-67486326D01*
X130696197Y-67482816D01*
X130672993Y-67477004D01*
X130650471Y-67468946D01*
X130628847Y-67458718D01*
X130608330Y-67446421D01*
X130589117Y-67432171D01*
X130571393Y-67416107D01*
X130555329Y-67398383D01*
X130541079Y-67379170D01*
X130528782Y-67358653D01*
X130518554Y-67337029D01*
X130510496Y-67314507D01*
X130504684Y-67291303D01*
X130501174Y-67267642D01*
X130500000Y-67243750D01*
X130500000Y-66756250D01*
X130501174Y-66732358D01*
X130504684Y-66708697D01*
X130510496Y-66685493D01*
X130518554Y-66662971D01*
X130528782Y-66641347D01*
X130541079Y-66620830D01*
X130555329Y-66601617D01*
X130571393Y-66583893D01*
X130589117Y-66567829D01*
X130608330Y-66553579D01*
X130628847Y-66541282D01*
X130650471Y-66531054D01*
X130672993Y-66522996D01*
X130696197Y-66517184D01*
X130719858Y-66513674D01*
X130743750Y-66512500D01*
X131656250Y-66512500D01*
X131680142Y-66513674D01*
X131680142Y-66513674D01*
G37*
D13*
X131200000Y-67000000D03*
D10*
G36*
X154127691Y-79226053D02*
G01*
X154148926Y-79229203D01*
X154169750Y-79234419D01*
X154189962Y-79241651D01*
X154209368Y-79250830D01*
X154227781Y-79261866D01*
X154245024Y-79274654D01*
X154260930Y-79289070D01*
X154275346Y-79304976D01*
X154288134Y-79322219D01*
X154299170Y-79340632D01*
X154308349Y-79360038D01*
X154315581Y-79380250D01*
X154320797Y-79401074D01*
X154323947Y-79422309D01*
X154325000Y-79443750D01*
X154325000Y-79956250D01*
X154323947Y-79977691D01*
X154320797Y-79998926D01*
X154315581Y-80019750D01*
X154308349Y-80039962D01*
X154299170Y-80059368D01*
X154288134Y-80077781D01*
X154275346Y-80095024D01*
X154260930Y-80110930D01*
X154245024Y-80125346D01*
X154227781Y-80138134D01*
X154209368Y-80149170D01*
X154189962Y-80158349D01*
X154169750Y-80165581D01*
X154148926Y-80170797D01*
X154127691Y-80173947D01*
X154106250Y-80175000D01*
X153668750Y-80175000D01*
X153647309Y-80173947D01*
X153626074Y-80170797D01*
X153605250Y-80165581D01*
X153585038Y-80158349D01*
X153565632Y-80149170D01*
X153547219Y-80138134D01*
X153529976Y-80125346D01*
X153514070Y-80110930D01*
X153499654Y-80095024D01*
X153486866Y-80077781D01*
X153475830Y-80059368D01*
X153466651Y-80039962D01*
X153459419Y-80019750D01*
X153454203Y-79998926D01*
X153451053Y-79977691D01*
X153450000Y-79956250D01*
X153450000Y-79443750D01*
X153451053Y-79422309D01*
X153454203Y-79401074D01*
X153459419Y-79380250D01*
X153466651Y-79360038D01*
X153475830Y-79340632D01*
X153486866Y-79322219D01*
X153499654Y-79304976D01*
X153514070Y-79289070D01*
X153529976Y-79274654D01*
X153547219Y-79261866D01*
X153565632Y-79250830D01*
X153585038Y-79241651D01*
X153605250Y-79234419D01*
X153626074Y-79229203D01*
X153647309Y-79226053D01*
X153668750Y-79225000D01*
X154106250Y-79225000D01*
X154127691Y-79226053D01*
X154127691Y-79226053D01*
G37*
D11*
X153887500Y-79700000D03*
D10*
G36*
X152552691Y-79226053D02*
G01*
X152573926Y-79229203D01*
X152594750Y-79234419D01*
X152614962Y-79241651D01*
X152634368Y-79250830D01*
X152652781Y-79261866D01*
X152670024Y-79274654D01*
X152685930Y-79289070D01*
X152700346Y-79304976D01*
X152713134Y-79322219D01*
X152724170Y-79340632D01*
X152733349Y-79360038D01*
X152740581Y-79380250D01*
X152745797Y-79401074D01*
X152748947Y-79422309D01*
X152750000Y-79443750D01*
X152750000Y-79956250D01*
X152748947Y-79977691D01*
X152745797Y-79998926D01*
X152740581Y-80019750D01*
X152733349Y-80039962D01*
X152724170Y-80059368D01*
X152713134Y-80077781D01*
X152700346Y-80095024D01*
X152685930Y-80110930D01*
X152670024Y-80125346D01*
X152652781Y-80138134D01*
X152634368Y-80149170D01*
X152614962Y-80158349D01*
X152594750Y-80165581D01*
X152573926Y-80170797D01*
X152552691Y-80173947D01*
X152531250Y-80175000D01*
X152093750Y-80175000D01*
X152072309Y-80173947D01*
X152051074Y-80170797D01*
X152030250Y-80165581D01*
X152010038Y-80158349D01*
X151990632Y-80149170D01*
X151972219Y-80138134D01*
X151954976Y-80125346D01*
X151939070Y-80110930D01*
X151924654Y-80095024D01*
X151911866Y-80077781D01*
X151900830Y-80059368D01*
X151891651Y-80039962D01*
X151884419Y-80019750D01*
X151879203Y-79998926D01*
X151876053Y-79977691D01*
X151875000Y-79956250D01*
X151875000Y-79443750D01*
X151876053Y-79422309D01*
X151879203Y-79401074D01*
X151884419Y-79380250D01*
X151891651Y-79360038D01*
X151900830Y-79340632D01*
X151911866Y-79322219D01*
X151924654Y-79304976D01*
X151939070Y-79289070D01*
X151954976Y-79274654D01*
X151972219Y-79261866D01*
X151990632Y-79250830D01*
X152010038Y-79241651D01*
X152030250Y-79234419D01*
X152051074Y-79229203D01*
X152072309Y-79226053D01*
X152093750Y-79225000D01*
X152531250Y-79225000D01*
X152552691Y-79226053D01*
X152552691Y-79226053D01*
G37*
D11*
X152312500Y-79700000D03*
D14*
X149800000Y-81925000D03*
X149800000Y-82575000D03*
X149800000Y-83225000D03*
X149800000Y-83875000D03*
X145400000Y-83875000D03*
X145400000Y-83225000D03*
X145400000Y-82575000D03*
X145400000Y-81925000D03*
D10*
G36*
X132927691Y-85126053D02*
G01*
X132948926Y-85129203D01*
X132969750Y-85134419D01*
X132989962Y-85141651D01*
X133009368Y-85150830D01*
X133027781Y-85161866D01*
X133045024Y-85174654D01*
X133060930Y-85189070D01*
X133075346Y-85204976D01*
X133088134Y-85222219D01*
X133099170Y-85240632D01*
X133108349Y-85260038D01*
X133115581Y-85280250D01*
X133120797Y-85301074D01*
X133123947Y-85322309D01*
X133125000Y-85343750D01*
X133125000Y-85856250D01*
X133123947Y-85877691D01*
X133120797Y-85898926D01*
X133115581Y-85919750D01*
X133108349Y-85939962D01*
X133099170Y-85959368D01*
X133088134Y-85977781D01*
X133075346Y-85995024D01*
X133060930Y-86010930D01*
X133045024Y-86025346D01*
X133027781Y-86038134D01*
X133009368Y-86049170D01*
X132989962Y-86058349D01*
X132969750Y-86065581D01*
X132948926Y-86070797D01*
X132927691Y-86073947D01*
X132906250Y-86075000D01*
X132468750Y-86075000D01*
X132447309Y-86073947D01*
X132426074Y-86070797D01*
X132405250Y-86065581D01*
X132385038Y-86058349D01*
X132365632Y-86049170D01*
X132347219Y-86038134D01*
X132329976Y-86025346D01*
X132314070Y-86010930D01*
X132299654Y-85995024D01*
X132286866Y-85977781D01*
X132275830Y-85959368D01*
X132266651Y-85939962D01*
X132259419Y-85919750D01*
X132254203Y-85898926D01*
X132251053Y-85877691D01*
X132250000Y-85856250D01*
X132250000Y-85343750D01*
X132251053Y-85322309D01*
X132254203Y-85301074D01*
X132259419Y-85280250D01*
X132266651Y-85260038D01*
X132275830Y-85240632D01*
X132286866Y-85222219D01*
X132299654Y-85204976D01*
X132314070Y-85189070D01*
X132329976Y-85174654D01*
X132347219Y-85161866D01*
X132365632Y-85150830D01*
X132385038Y-85141651D01*
X132405250Y-85134419D01*
X132426074Y-85129203D01*
X132447309Y-85126053D01*
X132468750Y-85125000D01*
X132906250Y-85125000D01*
X132927691Y-85126053D01*
X132927691Y-85126053D01*
G37*
D11*
X132687500Y-85600000D03*
D10*
G36*
X131352691Y-85126053D02*
G01*
X131373926Y-85129203D01*
X131394750Y-85134419D01*
X131414962Y-85141651D01*
X131434368Y-85150830D01*
X131452781Y-85161866D01*
X131470024Y-85174654D01*
X131485930Y-85189070D01*
X131500346Y-85204976D01*
X131513134Y-85222219D01*
X131524170Y-85240632D01*
X131533349Y-85260038D01*
X131540581Y-85280250D01*
X131545797Y-85301074D01*
X131548947Y-85322309D01*
X131550000Y-85343750D01*
X131550000Y-85856250D01*
X131548947Y-85877691D01*
X131545797Y-85898926D01*
X131540581Y-85919750D01*
X131533349Y-85939962D01*
X131524170Y-85959368D01*
X131513134Y-85977781D01*
X131500346Y-85995024D01*
X131485930Y-86010930D01*
X131470024Y-86025346D01*
X131452781Y-86038134D01*
X131434368Y-86049170D01*
X131414962Y-86058349D01*
X131394750Y-86065581D01*
X131373926Y-86070797D01*
X131352691Y-86073947D01*
X131331250Y-86075000D01*
X130893750Y-86075000D01*
X130872309Y-86073947D01*
X130851074Y-86070797D01*
X130830250Y-86065581D01*
X130810038Y-86058349D01*
X130790632Y-86049170D01*
X130772219Y-86038134D01*
X130754976Y-86025346D01*
X130739070Y-86010930D01*
X130724654Y-85995024D01*
X130711866Y-85977781D01*
X130700830Y-85959368D01*
X130691651Y-85939962D01*
X130684419Y-85919750D01*
X130679203Y-85898926D01*
X130676053Y-85877691D01*
X130675000Y-85856250D01*
X130675000Y-85343750D01*
X130676053Y-85322309D01*
X130679203Y-85301074D01*
X130684419Y-85280250D01*
X130691651Y-85260038D01*
X130700830Y-85240632D01*
X130711866Y-85222219D01*
X130724654Y-85204976D01*
X130739070Y-85189070D01*
X130754976Y-85174654D01*
X130772219Y-85161866D01*
X130790632Y-85150830D01*
X130810038Y-85141651D01*
X130830250Y-85134419D01*
X130851074Y-85129203D01*
X130872309Y-85126053D01*
X130893750Y-85125000D01*
X131331250Y-85125000D01*
X131352691Y-85126053D01*
X131352691Y-85126053D01*
G37*
D11*
X131112500Y-85600000D03*
D10*
G36*
X132939691Y-83126053D02*
G01*
X132960926Y-83129203D01*
X132981750Y-83134419D01*
X133001962Y-83141651D01*
X133021368Y-83150830D01*
X133039781Y-83161866D01*
X133057024Y-83174654D01*
X133072930Y-83189070D01*
X133087346Y-83204976D01*
X133100134Y-83222219D01*
X133111170Y-83240632D01*
X133120349Y-83260038D01*
X133127581Y-83280250D01*
X133132797Y-83301074D01*
X133135947Y-83322309D01*
X133137000Y-83343750D01*
X133137000Y-83856250D01*
X133135947Y-83877691D01*
X133132797Y-83898926D01*
X133127581Y-83919750D01*
X133120349Y-83939962D01*
X133111170Y-83959368D01*
X133100134Y-83977781D01*
X133087346Y-83995024D01*
X133072930Y-84010930D01*
X133057024Y-84025346D01*
X133039781Y-84038134D01*
X133021368Y-84049170D01*
X133001962Y-84058349D01*
X132981750Y-84065581D01*
X132960926Y-84070797D01*
X132939691Y-84073947D01*
X132918250Y-84075000D01*
X132480750Y-84075000D01*
X132459309Y-84073947D01*
X132438074Y-84070797D01*
X132417250Y-84065581D01*
X132397038Y-84058349D01*
X132377632Y-84049170D01*
X132359219Y-84038134D01*
X132341976Y-84025346D01*
X132326070Y-84010930D01*
X132311654Y-83995024D01*
X132298866Y-83977781D01*
X132287830Y-83959368D01*
X132278651Y-83939962D01*
X132271419Y-83919750D01*
X132266203Y-83898926D01*
X132263053Y-83877691D01*
X132262000Y-83856250D01*
X132262000Y-83343750D01*
X132263053Y-83322309D01*
X132266203Y-83301074D01*
X132271419Y-83280250D01*
X132278651Y-83260038D01*
X132287830Y-83240632D01*
X132298866Y-83222219D01*
X132311654Y-83204976D01*
X132326070Y-83189070D01*
X132341976Y-83174654D01*
X132359219Y-83161866D01*
X132377632Y-83150830D01*
X132397038Y-83141651D01*
X132417250Y-83134419D01*
X132438074Y-83129203D01*
X132459309Y-83126053D01*
X132480750Y-83125000D01*
X132918250Y-83125000D01*
X132939691Y-83126053D01*
X132939691Y-83126053D01*
G37*
D11*
X132699500Y-83600000D03*
D10*
G36*
X131364691Y-83126053D02*
G01*
X131385926Y-83129203D01*
X131406750Y-83134419D01*
X131426962Y-83141651D01*
X131446368Y-83150830D01*
X131464781Y-83161866D01*
X131482024Y-83174654D01*
X131497930Y-83189070D01*
X131512346Y-83204976D01*
X131525134Y-83222219D01*
X131536170Y-83240632D01*
X131545349Y-83260038D01*
X131552581Y-83280250D01*
X131557797Y-83301074D01*
X131560947Y-83322309D01*
X131562000Y-83343750D01*
X131562000Y-83856250D01*
X131560947Y-83877691D01*
X131557797Y-83898926D01*
X131552581Y-83919750D01*
X131545349Y-83939962D01*
X131536170Y-83959368D01*
X131525134Y-83977781D01*
X131512346Y-83995024D01*
X131497930Y-84010930D01*
X131482024Y-84025346D01*
X131464781Y-84038134D01*
X131446368Y-84049170D01*
X131426962Y-84058349D01*
X131406750Y-84065581D01*
X131385926Y-84070797D01*
X131364691Y-84073947D01*
X131343250Y-84075000D01*
X130905750Y-84075000D01*
X130884309Y-84073947D01*
X130863074Y-84070797D01*
X130842250Y-84065581D01*
X130822038Y-84058349D01*
X130802632Y-84049170D01*
X130784219Y-84038134D01*
X130766976Y-84025346D01*
X130751070Y-84010930D01*
X130736654Y-83995024D01*
X130723866Y-83977781D01*
X130712830Y-83959368D01*
X130703651Y-83939962D01*
X130696419Y-83919750D01*
X130691203Y-83898926D01*
X130688053Y-83877691D01*
X130687000Y-83856250D01*
X130687000Y-83343750D01*
X130688053Y-83322309D01*
X130691203Y-83301074D01*
X130696419Y-83280250D01*
X130703651Y-83260038D01*
X130712830Y-83240632D01*
X130723866Y-83222219D01*
X130736654Y-83204976D01*
X130751070Y-83189070D01*
X130766976Y-83174654D01*
X130784219Y-83161866D01*
X130802632Y-83150830D01*
X130822038Y-83141651D01*
X130842250Y-83134419D01*
X130863074Y-83129203D01*
X130884309Y-83126053D01*
X130905750Y-83125000D01*
X131343250Y-83125000D01*
X131364691Y-83126053D01*
X131364691Y-83126053D01*
G37*
D11*
X131124500Y-83600000D03*
D10*
G36*
X152552691Y-82476053D02*
G01*
X152573926Y-82479203D01*
X152594750Y-82484419D01*
X152614962Y-82491651D01*
X152634368Y-82500830D01*
X152652781Y-82511866D01*
X152670024Y-82524654D01*
X152685930Y-82539070D01*
X152700346Y-82554976D01*
X152713134Y-82572219D01*
X152724170Y-82590632D01*
X152733349Y-82610038D01*
X152740581Y-82630250D01*
X152745797Y-82651074D01*
X152748947Y-82672309D01*
X152750000Y-82693750D01*
X152750000Y-83206250D01*
X152748947Y-83227691D01*
X152745797Y-83248926D01*
X152740581Y-83269750D01*
X152733349Y-83289962D01*
X152724170Y-83309368D01*
X152713134Y-83327781D01*
X152700346Y-83345024D01*
X152685930Y-83360930D01*
X152670024Y-83375346D01*
X152652781Y-83388134D01*
X152634368Y-83399170D01*
X152614962Y-83408349D01*
X152594750Y-83415581D01*
X152573926Y-83420797D01*
X152552691Y-83423947D01*
X152531250Y-83425000D01*
X152093750Y-83425000D01*
X152072309Y-83423947D01*
X152051074Y-83420797D01*
X152030250Y-83415581D01*
X152010038Y-83408349D01*
X151990632Y-83399170D01*
X151972219Y-83388134D01*
X151954976Y-83375346D01*
X151939070Y-83360930D01*
X151924654Y-83345024D01*
X151911866Y-83327781D01*
X151900830Y-83309368D01*
X151891651Y-83289962D01*
X151884419Y-83269750D01*
X151879203Y-83248926D01*
X151876053Y-83227691D01*
X151875000Y-83206250D01*
X151875000Y-82693750D01*
X151876053Y-82672309D01*
X151879203Y-82651074D01*
X151884419Y-82630250D01*
X151891651Y-82610038D01*
X151900830Y-82590632D01*
X151911866Y-82572219D01*
X151924654Y-82554976D01*
X151939070Y-82539070D01*
X151954976Y-82524654D01*
X151972219Y-82511866D01*
X151990632Y-82500830D01*
X152010038Y-82491651D01*
X152030250Y-82484419D01*
X152051074Y-82479203D01*
X152072309Y-82476053D01*
X152093750Y-82475000D01*
X152531250Y-82475000D01*
X152552691Y-82476053D01*
X152552691Y-82476053D01*
G37*
D11*
X152312500Y-82950000D03*
D10*
G36*
X154127691Y-82476053D02*
G01*
X154148926Y-82479203D01*
X154169750Y-82484419D01*
X154189962Y-82491651D01*
X154209368Y-82500830D01*
X154227781Y-82511866D01*
X154245024Y-82524654D01*
X154260930Y-82539070D01*
X154275346Y-82554976D01*
X154288134Y-82572219D01*
X154299170Y-82590632D01*
X154308349Y-82610038D01*
X154315581Y-82630250D01*
X154320797Y-82651074D01*
X154323947Y-82672309D01*
X154325000Y-82693750D01*
X154325000Y-83206250D01*
X154323947Y-83227691D01*
X154320797Y-83248926D01*
X154315581Y-83269750D01*
X154308349Y-83289962D01*
X154299170Y-83309368D01*
X154288134Y-83327781D01*
X154275346Y-83345024D01*
X154260930Y-83360930D01*
X154245024Y-83375346D01*
X154227781Y-83388134D01*
X154209368Y-83399170D01*
X154189962Y-83408349D01*
X154169750Y-83415581D01*
X154148926Y-83420797D01*
X154127691Y-83423947D01*
X154106250Y-83425000D01*
X153668750Y-83425000D01*
X153647309Y-83423947D01*
X153626074Y-83420797D01*
X153605250Y-83415581D01*
X153585038Y-83408349D01*
X153565632Y-83399170D01*
X153547219Y-83388134D01*
X153529976Y-83375346D01*
X153514070Y-83360930D01*
X153499654Y-83345024D01*
X153486866Y-83327781D01*
X153475830Y-83309368D01*
X153466651Y-83289962D01*
X153459419Y-83269750D01*
X153454203Y-83248926D01*
X153451053Y-83227691D01*
X153450000Y-83206250D01*
X153450000Y-82693750D01*
X153451053Y-82672309D01*
X153454203Y-82651074D01*
X153459419Y-82630250D01*
X153466651Y-82610038D01*
X153475830Y-82590632D01*
X153486866Y-82572219D01*
X153499654Y-82554976D01*
X153514070Y-82539070D01*
X153529976Y-82524654D01*
X153547219Y-82511866D01*
X153565632Y-82500830D01*
X153585038Y-82491651D01*
X153605250Y-82484419D01*
X153626074Y-82479203D01*
X153647309Y-82476053D01*
X153668750Y-82475000D01*
X154106250Y-82475000D01*
X154127691Y-82476053D01*
X154127691Y-82476053D01*
G37*
D11*
X153887500Y-82950000D03*
D10*
G36*
X154127691Y-80826053D02*
G01*
X154148926Y-80829203D01*
X154169750Y-80834419D01*
X154189962Y-80841651D01*
X154209368Y-80850830D01*
X154227781Y-80861866D01*
X154245024Y-80874654D01*
X154260930Y-80889070D01*
X154275346Y-80904976D01*
X154288134Y-80922219D01*
X154299170Y-80940632D01*
X154308349Y-80960038D01*
X154315581Y-80980250D01*
X154320797Y-81001074D01*
X154323947Y-81022309D01*
X154325000Y-81043750D01*
X154325000Y-81556250D01*
X154323947Y-81577691D01*
X154320797Y-81598926D01*
X154315581Y-81619750D01*
X154308349Y-81639962D01*
X154299170Y-81659368D01*
X154288134Y-81677781D01*
X154275346Y-81695024D01*
X154260930Y-81710930D01*
X154245024Y-81725346D01*
X154227781Y-81738134D01*
X154209368Y-81749170D01*
X154189962Y-81758349D01*
X154169750Y-81765581D01*
X154148926Y-81770797D01*
X154127691Y-81773947D01*
X154106250Y-81775000D01*
X153668750Y-81775000D01*
X153647309Y-81773947D01*
X153626074Y-81770797D01*
X153605250Y-81765581D01*
X153585038Y-81758349D01*
X153565632Y-81749170D01*
X153547219Y-81738134D01*
X153529976Y-81725346D01*
X153514070Y-81710930D01*
X153499654Y-81695024D01*
X153486866Y-81677781D01*
X153475830Y-81659368D01*
X153466651Y-81639962D01*
X153459419Y-81619750D01*
X153454203Y-81598926D01*
X153451053Y-81577691D01*
X153450000Y-81556250D01*
X153450000Y-81043750D01*
X153451053Y-81022309D01*
X153454203Y-81001074D01*
X153459419Y-80980250D01*
X153466651Y-80960038D01*
X153475830Y-80940632D01*
X153486866Y-80922219D01*
X153499654Y-80904976D01*
X153514070Y-80889070D01*
X153529976Y-80874654D01*
X153547219Y-80861866D01*
X153565632Y-80850830D01*
X153585038Y-80841651D01*
X153605250Y-80834419D01*
X153626074Y-80829203D01*
X153647309Y-80826053D01*
X153668750Y-80825000D01*
X154106250Y-80825000D01*
X154127691Y-80826053D01*
X154127691Y-80826053D01*
G37*
D11*
X153887500Y-81300000D03*
D10*
G36*
X152552691Y-80826053D02*
G01*
X152573926Y-80829203D01*
X152594750Y-80834419D01*
X152614962Y-80841651D01*
X152634368Y-80850830D01*
X152652781Y-80861866D01*
X152670024Y-80874654D01*
X152685930Y-80889070D01*
X152700346Y-80904976D01*
X152713134Y-80922219D01*
X152724170Y-80940632D01*
X152733349Y-80960038D01*
X152740581Y-80980250D01*
X152745797Y-81001074D01*
X152748947Y-81022309D01*
X152750000Y-81043750D01*
X152750000Y-81556250D01*
X152748947Y-81577691D01*
X152745797Y-81598926D01*
X152740581Y-81619750D01*
X152733349Y-81639962D01*
X152724170Y-81659368D01*
X152713134Y-81677781D01*
X152700346Y-81695024D01*
X152685930Y-81710930D01*
X152670024Y-81725346D01*
X152652781Y-81738134D01*
X152634368Y-81749170D01*
X152614962Y-81758349D01*
X152594750Y-81765581D01*
X152573926Y-81770797D01*
X152552691Y-81773947D01*
X152531250Y-81775000D01*
X152093750Y-81775000D01*
X152072309Y-81773947D01*
X152051074Y-81770797D01*
X152030250Y-81765581D01*
X152010038Y-81758349D01*
X151990632Y-81749170D01*
X151972219Y-81738134D01*
X151954976Y-81725346D01*
X151939070Y-81710930D01*
X151924654Y-81695024D01*
X151911866Y-81677781D01*
X151900830Y-81659368D01*
X151891651Y-81639962D01*
X151884419Y-81619750D01*
X151879203Y-81598926D01*
X151876053Y-81577691D01*
X151875000Y-81556250D01*
X151875000Y-81043750D01*
X151876053Y-81022309D01*
X151879203Y-81001074D01*
X151884419Y-80980250D01*
X151891651Y-80960038D01*
X151900830Y-80940632D01*
X151911866Y-80922219D01*
X151924654Y-80904976D01*
X151939070Y-80889070D01*
X151954976Y-80874654D01*
X151972219Y-80861866D01*
X151990632Y-80850830D01*
X152010038Y-80841651D01*
X152030250Y-80834419D01*
X152051074Y-80829203D01*
X152072309Y-80826053D01*
X152093750Y-80825000D01*
X152531250Y-80825000D01*
X152552691Y-80826053D01*
X152552691Y-80826053D01*
G37*
D11*
X152312500Y-81300000D03*
D10*
G36*
X145464691Y-85726053D02*
G01*
X145485926Y-85729203D01*
X145506750Y-85734419D01*
X145526962Y-85741651D01*
X145546368Y-85750830D01*
X145564781Y-85761866D01*
X145582024Y-85774654D01*
X145597930Y-85789070D01*
X145612346Y-85804976D01*
X145625134Y-85822219D01*
X145636170Y-85840632D01*
X145645349Y-85860038D01*
X145652581Y-85880250D01*
X145657797Y-85901074D01*
X145660947Y-85922309D01*
X145662000Y-85943750D01*
X145662000Y-86456250D01*
X145660947Y-86477691D01*
X145657797Y-86498926D01*
X145652581Y-86519750D01*
X145645349Y-86539962D01*
X145636170Y-86559368D01*
X145625134Y-86577781D01*
X145612346Y-86595024D01*
X145597930Y-86610930D01*
X145582024Y-86625346D01*
X145564781Y-86638134D01*
X145546368Y-86649170D01*
X145526962Y-86658349D01*
X145506750Y-86665581D01*
X145485926Y-86670797D01*
X145464691Y-86673947D01*
X145443250Y-86675000D01*
X145005750Y-86675000D01*
X144984309Y-86673947D01*
X144963074Y-86670797D01*
X144942250Y-86665581D01*
X144922038Y-86658349D01*
X144902632Y-86649170D01*
X144884219Y-86638134D01*
X144866976Y-86625346D01*
X144851070Y-86610930D01*
X144836654Y-86595024D01*
X144823866Y-86577781D01*
X144812830Y-86559368D01*
X144803651Y-86539962D01*
X144796419Y-86519750D01*
X144791203Y-86498926D01*
X144788053Y-86477691D01*
X144787000Y-86456250D01*
X144787000Y-85943750D01*
X144788053Y-85922309D01*
X144791203Y-85901074D01*
X144796419Y-85880250D01*
X144803651Y-85860038D01*
X144812830Y-85840632D01*
X144823866Y-85822219D01*
X144836654Y-85804976D01*
X144851070Y-85789070D01*
X144866976Y-85774654D01*
X144884219Y-85761866D01*
X144902632Y-85750830D01*
X144922038Y-85741651D01*
X144942250Y-85734419D01*
X144963074Y-85729203D01*
X144984309Y-85726053D01*
X145005750Y-85725000D01*
X145443250Y-85725000D01*
X145464691Y-85726053D01*
X145464691Y-85726053D01*
G37*
D11*
X145224500Y-86200000D03*
D10*
G36*
X147039691Y-85726053D02*
G01*
X147060926Y-85729203D01*
X147081750Y-85734419D01*
X147101962Y-85741651D01*
X147121368Y-85750830D01*
X147139781Y-85761866D01*
X147157024Y-85774654D01*
X147172930Y-85789070D01*
X147187346Y-85804976D01*
X147200134Y-85822219D01*
X147211170Y-85840632D01*
X147220349Y-85860038D01*
X147227581Y-85880250D01*
X147232797Y-85901074D01*
X147235947Y-85922309D01*
X147237000Y-85943750D01*
X147237000Y-86456250D01*
X147235947Y-86477691D01*
X147232797Y-86498926D01*
X147227581Y-86519750D01*
X147220349Y-86539962D01*
X147211170Y-86559368D01*
X147200134Y-86577781D01*
X147187346Y-86595024D01*
X147172930Y-86610930D01*
X147157024Y-86625346D01*
X147139781Y-86638134D01*
X147121368Y-86649170D01*
X147101962Y-86658349D01*
X147081750Y-86665581D01*
X147060926Y-86670797D01*
X147039691Y-86673947D01*
X147018250Y-86675000D01*
X146580750Y-86675000D01*
X146559309Y-86673947D01*
X146538074Y-86670797D01*
X146517250Y-86665581D01*
X146497038Y-86658349D01*
X146477632Y-86649170D01*
X146459219Y-86638134D01*
X146441976Y-86625346D01*
X146426070Y-86610930D01*
X146411654Y-86595024D01*
X146398866Y-86577781D01*
X146387830Y-86559368D01*
X146378651Y-86539962D01*
X146371419Y-86519750D01*
X146366203Y-86498926D01*
X146363053Y-86477691D01*
X146362000Y-86456250D01*
X146362000Y-85943750D01*
X146363053Y-85922309D01*
X146366203Y-85901074D01*
X146371419Y-85880250D01*
X146378651Y-85860038D01*
X146387830Y-85840632D01*
X146398866Y-85822219D01*
X146411654Y-85804976D01*
X146426070Y-85789070D01*
X146441976Y-85774654D01*
X146459219Y-85761866D01*
X146477632Y-85750830D01*
X146497038Y-85741651D01*
X146517250Y-85734419D01*
X146538074Y-85729203D01*
X146559309Y-85726053D01*
X146580750Y-85725000D01*
X147018250Y-85725000D01*
X147039691Y-85726053D01*
X147039691Y-85726053D01*
G37*
D11*
X146799500Y-86200000D03*
D10*
G36*
X129039691Y-70626053D02*
G01*
X129060926Y-70629203D01*
X129081750Y-70634419D01*
X129101962Y-70641651D01*
X129121368Y-70650830D01*
X129139781Y-70661866D01*
X129157024Y-70674654D01*
X129172930Y-70689070D01*
X129187346Y-70704976D01*
X129200134Y-70722219D01*
X129211170Y-70740632D01*
X129220349Y-70760038D01*
X129227581Y-70780250D01*
X129232797Y-70801074D01*
X129235947Y-70822309D01*
X129237000Y-70843750D01*
X129237000Y-71356250D01*
X129235947Y-71377691D01*
X129232797Y-71398926D01*
X129227581Y-71419750D01*
X129220349Y-71439962D01*
X129211170Y-71459368D01*
X129200134Y-71477781D01*
X129187346Y-71495024D01*
X129172930Y-71510930D01*
X129157024Y-71525346D01*
X129139781Y-71538134D01*
X129121368Y-71549170D01*
X129101962Y-71558349D01*
X129081750Y-71565581D01*
X129060926Y-71570797D01*
X129039691Y-71573947D01*
X129018250Y-71575000D01*
X128580750Y-71575000D01*
X128559309Y-71573947D01*
X128538074Y-71570797D01*
X128517250Y-71565581D01*
X128497038Y-71558349D01*
X128477632Y-71549170D01*
X128459219Y-71538134D01*
X128441976Y-71525346D01*
X128426070Y-71510930D01*
X128411654Y-71495024D01*
X128398866Y-71477781D01*
X128387830Y-71459368D01*
X128378651Y-71439962D01*
X128371419Y-71419750D01*
X128366203Y-71398926D01*
X128363053Y-71377691D01*
X128362000Y-71356250D01*
X128362000Y-70843750D01*
X128363053Y-70822309D01*
X128366203Y-70801074D01*
X128371419Y-70780250D01*
X128378651Y-70760038D01*
X128387830Y-70740632D01*
X128398866Y-70722219D01*
X128411654Y-70704976D01*
X128426070Y-70689070D01*
X128441976Y-70674654D01*
X128459219Y-70661866D01*
X128477632Y-70650830D01*
X128497038Y-70641651D01*
X128517250Y-70634419D01*
X128538074Y-70629203D01*
X128559309Y-70626053D01*
X128580750Y-70625000D01*
X129018250Y-70625000D01*
X129039691Y-70626053D01*
X129039691Y-70626053D01*
G37*
D11*
X128799500Y-71100000D03*
D10*
G36*
X127464691Y-70626053D02*
G01*
X127485926Y-70629203D01*
X127506750Y-70634419D01*
X127526962Y-70641651D01*
X127546368Y-70650830D01*
X127564781Y-70661866D01*
X127582024Y-70674654D01*
X127597930Y-70689070D01*
X127612346Y-70704976D01*
X127625134Y-70722219D01*
X127636170Y-70740632D01*
X127645349Y-70760038D01*
X127652581Y-70780250D01*
X127657797Y-70801074D01*
X127660947Y-70822309D01*
X127662000Y-70843750D01*
X127662000Y-71356250D01*
X127660947Y-71377691D01*
X127657797Y-71398926D01*
X127652581Y-71419750D01*
X127645349Y-71439962D01*
X127636170Y-71459368D01*
X127625134Y-71477781D01*
X127612346Y-71495024D01*
X127597930Y-71510930D01*
X127582024Y-71525346D01*
X127564781Y-71538134D01*
X127546368Y-71549170D01*
X127526962Y-71558349D01*
X127506750Y-71565581D01*
X127485926Y-71570797D01*
X127464691Y-71573947D01*
X127443250Y-71575000D01*
X127005750Y-71575000D01*
X126984309Y-71573947D01*
X126963074Y-71570797D01*
X126942250Y-71565581D01*
X126922038Y-71558349D01*
X126902632Y-71549170D01*
X126884219Y-71538134D01*
X126866976Y-71525346D01*
X126851070Y-71510930D01*
X126836654Y-71495024D01*
X126823866Y-71477781D01*
X126812830Y-71459368D01*
X126803651Y-71439962D01*
X126796419Y-71419750D01*
X126791203Y-71398926D01*
X126788053Y-71377691D01*
X126787000Y-71356250D01*
X126787000Y-70843750D01*
X126788053Y-70822309D01*
X126791203Y-70801074D01*
X126796419Y-70780250D01*
X126803651Y-70760038D01*
X126812830Y-70740632D01*
X126823866Y-70722219D01*
X126836654Y-70704976D01*
X126851070Y-70689070D01*
X126866976Y-70674654D01*
X126884219Y-70661866D01*
X126902632Y-70650830D01*
X126922038Y-70641651D01*
X126942250Y-70634419D01*
X126963074Y-70629203D01*
X126984309Y-70626053D01*
X127005750Y-70625000D01*
X127443250Y-70625000D01*
X127464691Y-70626053D01*
X127464691Y-70626053D01*
G37*
D11*
X127224500Y-71100000D03*
D10*
G36*
X141652691Y-85776053D02*
G01*
X141673926Y-85779203D01*
X141694750Y-85784419D01*
X141714962Y-85791651D01*
X141734368Y-85800830D01*
X141752781Y-85811866D01*
X141770024Y-85824654D01*
X141785930Y-85839070D01*
X141800346Y-85854976D01*
X141813134Y-85872219D01*
X141824170Y-85890632D01*
X141833349Y-85910038D01*
X141840581Y-85930250D01*
X141845797Y-85951074D01*
X141848947Y-85972309D01*
X141850000Y-85993750D01*
X141850000Y-86506250D01*
X141848947Y-86527691D01*
X141845797Y-86548926D01*
X141840581Y-86569750D01*
X141833349Y-86589962D01*
X141824170Y-86609368D01*
X141813134Y-86627781D01*
X141800346Y-86645024D01*
X141785930Y-86660930D01*
X141770024Y-86675346D01*
X141752781Y-86688134D01*
X141734368Y-86699170D01*
X141714962Y-86708349D01*
X141694750Y-86715581D01*
X141673926Y-86720797D01*
X141652691Y-86723947D01*
X141631250Y-86725000D01*
X141193750Y-86725000D01*
X141172309Y-86723947D01*
X141151074Y-86720797D01*
X141130250Y-86715581D01*
X141110038Y-86708349D01*
X141090632Y-86699170D01*
X141072219Y-86688134D01*
X141054976Y-86675346D01*
X141039070Y-86660930D01*
X141024654Y-86645024D01*
X141011866Y-86627781D01*
X141000830Y-86609368D01*
X140991651Y-86589962D01*
X140984419Y-86569750D01*
X140979203Y-86548926D01*
X140976053Y-86527691D01*
X140975000Y-86506250D01*
X140975000Y-85993750D01*
X140976053Y-85972309D01*
X140979203Y-85951074D01*
X140984419Y-85930250D01*
X140991651Y-85910038D01*
X141000830Y-85890632D01*
X141011866Y-85872219D01*
X141024654Y-85854976D01*
X141039070Y-85839070D01*
X141054976Y-85824654D01*
X141072219Y-85811866D01*
X141090632Y-85800830D01*
X141110038Y-85791651D01*
X141130250Y-85784419D01*
X141151074Y-85779203D01*
X141172309Y-85776053D01*
X141193750Y-85775000D01*
X141631250Y-85775000D01*
X141652691Y-85776053D01*
X141652691Y-85776053D01*
G37*
D11*
X141412500Y-86250000D03*
D10*
G36*
X143227691Y-85776053D02*
G01*
X143248926Y-85779203D01*
X143269750Y-85784419D01*
X143289962Y-85791651D01*
X143309368Y-85800830D01*
X143327781Y-85811866D01*
X143345024Y-85824654D01*
X143360930Y-85839070D01*
X143375346Y-85854976D01*
X143388134Y-85872219D01*
X143399170Y-85890632D01*
X143408349Y-85910038D01*
X143415581Y-85930250D01*
X143420797Y-85951074D01*
X143423947Y-85972309D01*
X143425000Y-85993750D01*
X143425000Y-86506250D01*
X143423947Y-86527691D01*
X143420797Y-86548926D01*
X143415581Y-86569750D01*
X143408349Y-86589962D01*
X143399170Y-86609368D01*
X143388134Y-86627781D01*
X143375346Y-86645024D01*
X143360930Y-86660930D01*
X143345024Y-86675346D01*
X143327781Y-86688134D01*
X143309368Y-86699170D01*
X143289962Y-86708349D01*
X143269750Y-86715581D01*
X143248926Y-86720797D01*
X143227691Y-86723947D01*
X143206250Y-86725000D01*
X142768750Y-86725000D01*
X142747309Y-86723947D01*
X142726074Y-86720797D01*
X142705250Y-86715581D01*
X142685038Y-86708349D01*
X142665632Y-86699170D01*
X142647219Y-86688134D01*
X142629976Y-86675346D01*
X142614070Y-86660930D01*
X142599654Y-86645024D01*
X142586866Y-86627781D01*
X142575830Y-86609368D01*
X142566651Y-86589962D01*
X142559419Y-86569750D01*
X142554203Y-86548926D01*
X142551053Y-86527691D01*
X142550000Y-86506250D01*
X142550000Y-85993750D01*
X142551053Y-85972309D01*
X142554203Y-85951074D01*
X142559419Y-85930250D01*
X142566651Y-85910038D01*
X142575830Y-85890632D01*
X142586866Y-85872219D01*
X142599654Y-85854976D01*
X142614070Y-85839070D01*
X142629976Y-85824654D01*
X142647219Y-85811866D01*
X142665632Y-85800830D01*
X142685038Y-85791651D01*
X142705250Y-85784419D01*
X142726074Y-85779203D01*
X142747309Y-85776053D01*
X142768750Y-85775000D01*
X143206250Y-85775000D01*
X143227691Y-85776053D01*
X143227691Y-85776053D01*
G37*
D11*
X142987500Y-86250000D03*
D10*
G36*
X127392142Y-66601174D02*
G01*
X127415803Y-66604684D01*
X127439007Y-66610496D01*
X127461529Y-66618554D01*
X127483153Y-66628782D01*
X127503670Y-66641079D01*
X127522883Y-66655329D01*
X127540607Y-66671393D01*
X127556671Y-66689117D01*
X127570921Y-66708330D01*
X127583218Y-66728847D01*
X127593446Y-66750471D01*
X127601504Y-66772993D01*
X127607316Y-66796197D01*
X127610826Y-66819858D01*
X127612000Y-66843750D01*
X127612000Y-67756250D01*
X127610826Y-67780142D01*
X127607316Y-67803803D01*
X127601504Y-67827007D01*
X127593446Y-67849529D01*
X127583218Y-67871153D01*
X127570921Y-67891670D01*
X127556671Y-67910883D01*
X127540607Y-67928607D01*
X127522883Y-67944671D01*
X127503670Y-67958921D01*
X127483153Y-67971218D01*
X127461529Y-67981446D01*
X127439007Y-67989504D01*
X127415803Y-67995316D01*
X127392142Y-67998826D01*
X127368250Y-68000000D01*
X126880750Y-68000000D01*
X126856858Y-67998826D01*
X126833197Y-67995316D01*
X126809993Y-67989504D01*
X126787471Y-67981446D01*
X126765847Y-67971218D01*
X126745330Y-67958921D01*
X126726117Y-67944671D01*
X126708393Y-67928607D01*
X126692329Y-67910883D01*
X126678079Y-67891670D01*
X126665782Y-67871153D01*
X126655554Y-67849529D01*
X126647496Y-67827007D01*
X126641684Y-67803803D01*
X126638174Y-67780142D01*
X126637000Y-67756250D01*
X126637000Y-66843750D01*
X126638174Y-66819858D01*
X126641684Y-66796197D01*
X126647496Y-66772993D01*
X126655554Y-66750471D01*
X126665782Y-66728847D01*
X126678079Y-66708330D01*
X126692329Y-66689117D01*
X126708393Y-66671393D01*
X126726117Y-66655329D01*
X126745330Y-66641079D01*
X126765847Y-66628782D01*
X126787471Y-66618554D01*
X126809993Y-66610496D01*
X126833197Y-66604684D01*
X126856858Y-66601174D01*
X126880750Y-66600000D01*
X127368250Y-66600000D01*
X127392142Y-66601174D01*
X127392142Y-66601174D01*
G37*
D13*
X127124500Y-67300000D03*
D10*
G36*
X129267142Y-66601174D02*
G01*
X129290803Y-66604684D01*
X129314007Y-66610496D01*
X129336529Y-66618554D01*
X129358153Y-66628782D01*
X129378670Y-66641079D01*
X129397883Y-66655329D01*
X129415607Y-66671393D01*
X129431671Y-66689117D01*
X129445921Y-66708330D01*
X129458218Y-66728847D01*
X129468446Y-66750471D01*
X129476504Y-66772993D01*
X129482316Y-66796197D01*
X129485826Y-66819858D01*
X129487000Y-66843750D01*
X129487000Y-67756250D01*
X129485826Y-67780142D01*
X129482316Y-67803803D01*
X129476504Y-67827007D01*
X129468446Y-67849529D01*
X129458218Y-67871153D01*
X129445921Y-67891670D01*
X129431671Y-67910883D01*
X129415607Y-67928607D01*
X129397883Y-67944671D01*
X129378670Y-67958921D01*
X129358153Y-67971218D01*
X129336529Y-67981446D01*
X129314007Y-67989504D01*
X129290803Y-67995316D01*
X129267142Y-67998826D01*
X129243250Y-68000000D01*
X128755750Y-68000000D01*
X128731858Y-67998826D01*
X128708197Y-67995316D01*
X128684993Y-67989504D01*
X128662471Y-67981446D01*
X128640847Y-67971218D01*
X128620330Y-67958921D01*
X128601117Y-67944671D01*
X128583393Y-67928607D01*
X128567329Y-67910883D01*
X128553079Y-67891670D01*
X128540782Y-67871153D01*
X128530554Y-67849529D01*
X128522496Y-67827007D01*
X128516684Y-67803803D01*
X128513174Y-67780142D01*
X128512000Y-67756250D01*
X128512000Y-66843750D01*
X128513174Y-66819858D01*
X128516684Y-66796197D01*
X128522496Y-66772993D01*
X128530554Y-66750471D01*
X128540782Y-66728847D01*
X128553079Y-66708330D01*
X128567329Y-66689117D01*
X128583393Y-66671393D01*
X128601117Y-66655329D01*
X128620330Y-66641079D01*
X128640847Y-66628782D01*
X128662471Y-66618554D01*
X128684993Y-66610496D01*
X128708197Y-66604684D01*
X128731858Y-66601174D01*
X128755750Y-66600000D01*
X129243250Y-66600000D01*
X129267142Y-66601174D01*
X129267142Y-66601174D01*
G37*
D13*
X128999500Y-67300000D03*
D10*
G36*
X129155142Y-76951174D02*
G01*
X129178803Y-76954684D01*
X129202007Y-76960496D01*
X129224529Y-76968554D01*
X129246153Y-76978782D01*
X129266670Y-76991079D01*
X129285883Y-77005329D01*
X129303607Y-77021393D01*
X129319671Y-77039117D01*
X129333921Y-77058330D01*
X129346218Y-77078847D01*
X129356446Y-77100471D01*
X129364504Y-77122993D01*
X129370316Y-77146197D01*
X129373826Y-77169858D01*
X129375000Y-77193750D01*
X129375000Y-78106250D01*
X129373826Y-78130142D01*
X129370316Y-78153803D01*
X129364504Y-78177007D01*
X129356446Y-78199529D01*
X129346218Y-78221153D01*
X129333921Y-78241670D01*
X129319671Y-78260883D01*
X129303607Y-78278607D01*
X129285883Y-78294671D01*
X129266670Y-78308921D01*
X129246153Y-78321218D01*
X129224529Y-78331446D01*
X129202007Y-78339504D01*
X129178803Y-78345316D01*
X129155142Y-78348826D01*
X129131250Y-78350000D01*
X128643750Y-78350000D01*
X128619858Y-78348826D01*
X128596197Y-78345316D01*
X128572993Y-78339504D01*
X128550471Y-78331446D01*
X128528847Y-78321218D01*
X128508330Y-78308921D01*
X128489117Y-78294671D01*
X128471393Y-78278607D01*
X128455329Y-78260883D01*
X128441079Y-78241670D01*
X128428782Y-78221153D01*
X128418554Y-78199529D01*
X128410496Y-78177007D01*
X128404684Y-78153803D01*
X128401174Y-78130142D01*
X128400000Y-78106250D01*
X128400000Y-77193750D01*
X128401174Y-77169858D01*
X128404684Y-77146197D01*
X128410496Y-77122993D01*
X128418554Y-77100471D01*
X128428782Y-77078847D01*
X128441079Y-77058330D01*
X128455329Y-77039117D01*
X128471393Y-77021393D01*
X128489117Y-77005329D01*
X128508330Y-76991079D01*
X128528847Y-76978782D01*
X128550471Y-76968554D01*
X128572993Y-76960496D01*
X128596197Y-76954684D01*
X128619858Y-76951174D01*
X128643750Y-76950000D01*
X129131250Y-76950000D01*
X129155142Y-76951174D01*
X129155142Y-76951174D01*
G37*
D13*
X128887500Y-77650000D03*
D10*
G36*
X127280142Y-76951174D02*
G01*
X127303803Y-76954684D01*
X127327007Y-76960496D01*
X127349529Y-76968554D01*
X127371153Y-76978782D01*
X127391670Y-76991079D01*
X127410883Y-77005329D01*
X127428607Y-77021393D01*
X127444671Y-77039117D01*
X127458921Y-77058330D01*
X127471218Y-77078847D01*
X127481446Y-77100471D01*
X127489504Y-77122993D01*
X127495316Y-77146197D01*
X127498826Y-77169858D01*
X127500000Y-77193750D01*
X127500000Y-78106250D01*
X127498826Y-78130142D01*
X127495316Y-78153803D01*
X127489504Y-78177007D01*
X127481446Y-78199529D01*
X127471218Y-78221153D01*
X127458921Y-78241670D01*
X127444671Y-78260883D01*
X127428607Y-78278607D01*
X127410883Y-78294671D01*
X127391670Y-78308921D01*
X127371153Y-78321218D01*
X127349529Y-78331446D01*
X127327007Y-78339504D01*
X127303803Y-78345316D01*
X127280142Y-78348826D01*
X127256250Y-78350000D01*
X126768750Y-78350000D01*
X126744858Y-78348826D01*
X126721197Y-78345316D01*
X126697993Y-78339504D01*
X126675471Y-78331446D01*
X126653847Y-78321218D01*
X126633330Y-78308921D01*
X126614117Y-78294671D01*
X126596393Y-78278607D01*
X126580329Y-78260883D01*
X126566079Y-78241670D01*
X126553782Y-78221153D01*
X126543554Y-78199529D01*
X126535496Y-78177007D01*
X126529684Y-78153803D01*
X126526174Y-78130142D01*
X126525000Y-78106250D01*
X126525000Y-77193750D01*
X126526174Y-77169858D01*
X126529684Y-77146197D01*
X126535496Y-77122993D01*
X126543554Y-77100471D01*
X126553782Y-77078847D01*
X126566079Y-77058330D01*
X126580329Y-77039117D01*
X126596393Y-77021393D01*
X126614117Y-77005329D01*
X126633330Y-76991079D01*
X126653847Y-76978782D01*
X126675471Y-76968554D01*
X126697993Y-76960496D01*
X126721197Y-76954684D01*
X126744858Y-76951174D01*
X126768750Y-76950000D01*
X127256250Y-76950000D01*
X127280142Y-76951174D01*
X127280142Y-76951174D01*
G37*
D13*
X127012500Y-77650000D03*
D10*
G36*
X129155142Y-79501174D02*
G01*
X129178803Y-79504684D01*
X129202007Y-79510496D01*
X129224529Y-79518554D01*
X129246153Y-79528782D01*
X129266670Y-79541079D01*
X129285883Y-79555329D01*
X129303607Y-79571393D01*
X129319671Y-79589117D01*
X129333921Y-79608330D01*
X129346218Y-79628847D01*
X129356446Y-79650471D01*
X129364504Y-79672993D01*
X129370316Y-79696197D01*
X129373826Y-79719858D01*
X129375000Y-79743750D01*
X129375000Y-80656250D01*
X129373826Y-80680142D01*
X129370316Y-80703803D01*
X129364504Y-80727007D01*
X129356446Y-80749529D01*
X129346218Y-80771153D01*
X129333921Y-80791670D01*
X129319671Y-80810883D01*
X129303607Y-80828607D01*
X129285883Y-80844671D01*
X129266670Y-80858921D01*
X129246153Y-80871218D01*
X129224529Y-80881446D01*
X129202007Y-80889504D01*
X129178803Y-80895316D01*
X129155142Y-80898826D01*
X129131250Y-80900000D01*
X128643750Y-80900000D01*
X128619858Y-80898826D01*
X128596197Y-80895316D01*
X128572993Y-80889504D01*
X128550471Y-80881446D01*
X128528847Y-80871218D01*
X128508330Y-80858921D01*
X128489117Y-80844671D01*
X128471393Y-80828607D01*
X128455329Y-80810883D01*
X128441079Y-80791670D01*
X128428782Y-80771153D01*
X128418554Y-80749529D01*
X128410496Y-80727007D01*
X128404684Y-80703803D01*
X128401174Y-80680142D01*
X128400000Y-80656250D01*
X128400000Y-79743750D01*
X128401174Y-79719858D01*
X128404684Y-79696197D01*
X128410496Y-79672993D01*
X128418554Y-79650471D01*
X128428782Y-79628847D01*
X128441079Y-79608330D01*
X128455329Y-79589117D01*
X128471393Y-79571393D01*
X128489117Y-79555329D01*
X128508330Y-79541079D01*
X128528847Y-79528782D01*
X128550471Y-79518554D01*
X128572993Y-79510496D01*
X128596197Y-79504684D01*
X128619858Y-79501174D01*
X128643750Y-79500000D01*
X129131250Y-79500000D01*
X129155142Y-79501174D01*
X129155142Y-79501174D01*
G37*
D13*
X128887500Y-80200000D03*
D10*
G36*
X127280142Y-79501174D02*
G01*
X127303803Y-79504684D01*
X127327007Y-79510496D01*
X127349529Y-79518554D01*
X127371153Y-79528782D01*
X127391670Y-79541079D01*
X127410883Y-79555329D01*
X127428607Y-79571393D01*
X127444671Y-79589117D01*
X127458921Y-79608330D01*
X127471218Y-79628847D01*
X127481446Y-79650471D01*
X127489504Y-79672993D01*
X127495316Y-79696197D01*
X127498826Y-79719858D01*
X127500000Y-79743750D01*
X127500000Y-80656250D01*
X127498826Y-80680142D01*
X127495316Y-80703803D01*
X127489504Y-80727007D01*
X127481446Y-80749529D01*
X127471218Y-80771153D01*
X127458921Y-80791670D01*
X127444671Y-80810883D01*
X127428607Y-80828607D01*
X127410883Y-80844671D01*
X127391670Y-80858921D01*
X127371153Y-80871218D01*
X127349529Y-80881446D01*
X127327007Y-80889504D01*
X127303803Y-80895316D01*
X127280142Y-80898826D01*
X127256250Y-80900000D01*
X126768750Y-80900000D01*
X126744858Y-80898826D01*
X126721197Y-80895316D01*
X126697993Y-80889504D01*
X126675471Y-80881446D01*
X126653847Y-80871218D01*
X126633330Y-80858921D01*
X126614117Y-80844671D01*
X126596393Y-80828607D01*
X126580329Y-80810883D01*
X126566079Y-80791670D01*
X126553782Y-80771153D01*
X126543554Y-80749529D01*
X126535496Y-80727007D01*
X126529684Y-80703803D01*
X126526174Y-80680142D01*
X126525000Y-80656250D01*
X126525000Y-79743750D01*
X126526174Y-79719858D01*
X126529684Y-79696197D01*
X126535496Y-79672993D01*
X126543554Y-79650471D01*
X126553782Y-79628847D01*
X126566079Y-79608330D01*
X126580329Y-79589117D01*
X126596393Y-79571393D01*
X126614117Y-79555329D01*
X126633330Y-79541079D01*
X126653847Y-79528782D01*
X126675471Y-79518554D01*
X126697993Y-79510496D01*
X126721197Y-79504684D01*
X126744858Y-79501174D01*
X126768750Y-79500000D01*
X127256250Y-79500000D01*
X127280142Y-79501174D01*
X127280142Y-79501174D01*
G37*
D13*
X127012500Y-80200000D03*
D10*
G36*
X136227691Y-85126053D02*
G01*
X136248926Y-85129203D01*
X136269750Y-85134419D01*
X136289962Y-85141651D01*
X136309368Y-85150830D01*
X136327781Y-85161866D01*
X136345024Y-85174654D01*
X136360930Y-85189070D01*
X136375346Y-85204976D01*
X136388134Y-85222219D01*
X136399170Y-85240632D01*
X136408349Y-85260038D01*
X136415581Y-85280250D01*
X136420797Y-85301074D01*
X136423947Y-85322309D01*
X136425000Y-85343750D01*
X136425000Y-85856250D01*
X136423947Y-85877691D01*
X136420797Y-85898926D01*
X136415581Y-85919750D01*
X136408349Y-85939962D01*
X136399170Y-85959368D01*
X136388134Y-85977781D01*
X136375346Y-85995024D01*
X136360930Y-86010930D01*
X136345024Y-86025346D01*
X136327781Y-86038134D01*
X136309368Y-86049170D01*
X136289962Y-86058349D01*
X136269750Y-86065581D01*
X136248926Y-86070797D01*
X136227691Y-86073947D01*
X136206250Y-86075000D01*
X135768750Y-86075000D01*
X135747309Y-86073947D01*
X135726074Y-86070797D01*
X135705250Y-86065581D01*
X135685038Y-86058349D01*
X135665632Y-86049170D01*
X135647219Y-86038134D01*
X135629976Y-86025346D01*
X135614070Y-86010930D01*
X135599654Y-85995024D01*
X135586866Y-85977781D01*
X135575830Y-85959368D01*
X135566651Y-85939962D01*
X135559419Y-85919750D01*
X135554203Y-85898926D01*
X135551053Y-85877691D01*
X135550000Y-85856250D01*
X135550000Y-85343750D01*
X135551053Y-85322309D01*
X135554203Y-85301074D01*
X135559419Y-85280250D01*
X135566651Y-85260038D01*
X135575830Y-85240632D01*
X135586866Y-85222219D01*
X135599654Y-85204976D01*
X135614070Y-85189070D01*
X135629976Y-85174654D01*
X135647219Y-85161866D01*
X135665632Y-85150830D01*
X135685038Y-85141651D01*
X135705250Y-85134419D01*
X135726074Y-85129203D01*
X135747309Y-85126053D01*
X135768750Y-85125000D01*
X136206250Y-85125000D01*
X136227691Y-85126053D01*
X136227691Y-85126053D01*
G37*
D11*
X135987500Y-85600000D03*
D10*
G36*
X134652691Y-85126053D02*
G01*
X134673926Y-85129203D01*
X134694750Y-85134419D01*
X134714962Y-85141651D01*
X134734368Y-85150830D01*
X134752781Y-85161866D01*
X134770024Y-85174654D01*
X134785930Y-85189070D01*
X134800346Y-85204976D01*
X134813134Y-85222219D01*
X134824170Y-85240632D01*
X134833349Y-85260038D01*
X134840581Y-85280250D01*
X134845797Y-85301074D01*
X134848947Y-85322309D01*
X134850000Y-85343750D01*
X134850000Y-85856250D01*
X134848947Y-85877691D01*
X134845797Y-85898926D01*
X134840581Y-85919750D01*
X134833349Y-85939962D01*
X134824170Y-85959368D01*
X134813134Y-85977781D01*
X134800346Y-85995024D01*
X134785930Y-86010930D01*
X134770024Y-86025346D01*
X134752781Y-86038134D01*
X134734368Y-86049170D01*
X134714962Y-86058349D01*
X134694750Y-86065581D01*
X134673926Y-86070797D01*
X134652691Y-86073947D01*
X134631250Y-86075000D01*
X134193750Y-86075000D01*
X134172309Y-86073947D01*
X134151074Y-86070797D01*
X134130250Y-86065581D01*
X134110038Y-86058349D01*
X134090632Y-86049170D01*
X134072219Y-86038134D01*
X134054976Y-86025346D01*
X134039070Y-86010930D01*
X134024654Y-85995024D01*
X134011866Y-85977781D01*
X134000830Y-85959368D01*
X133991651Y-85939962D01*
X133984419Y-85919750D01*
X133979203Y-85898926D01*
X133976053Y-85877691D01*
X133975000Y-85856250D01*
X133975000Y-85343750D01*
X133976053Y-85322309D01*
X133979203Y-85301074D01*
X133984419Y-85280250D01*
X133991651Y-85260038D01*
X134000830Y-85240632D01*
X134011866Y-85222219D01*
X134024654Y-85204976D01*
X134039070Y-85189070D01*
X134054976Y-85174654D01*
X134072219Y-85161866D01*
X134090632Y-85150830D01*
X134110038Y-85141651D01*
X134130250Y-85134419D01*
X134151074Y-85129203D01*
X134172309Y-85126053D01*
X134193750Y-85125000D01*
X134631250Y-85125000D01*
X134652691Y-85126053D01*
X134652691Y-85126053D01*
G37*
D11*
X134412500Y-85600000D03*
D10*
G36*
X136227691Y-83126053D02*
G01*
X136248926Y-83129203D01*
X136269750Y-83134419D01*
X136289962Y-83141651D01*
X136309368Y-83150830D01*
X136327781Y-83161866D01*
X136345024Y-83174654D01*
X136360930Y-83189070D01*
X136375346Y-83204976D01*
X136388134Y-83222219D01*
X136399170Y-83240632D01*
X136408349Y-83260038D01*
X136415581Y-83280250D01*
X136420797Y-83301074D01*
X136423947Y-83322309D01*
X136425000Y-83343750D01*
X136425000Y-83856250D01*
X136423947Y-83877691D01*
X136420797Y-83898926D01*
X136415581Y-83919750D01*
X136408349Y-83939962D01*
X136399170Y-83959368D01*
X136388134Y-83977781D01*
X136375346Y-83995024D01*
X136360930Y-84010930D01*
X136345024Y-84025346D01*
X136327781Y-84038134D01*
X136309368Y-84049170D01*
X136289962Y-84058349D01*
X136269750Y-84065581D01*
X136248926Y-84070797D01*
X136227691Y-84073947D01*
X136206250Y-84075000D01*
X135768750Y-84075000D01*
X135747309Y-84073947D01*
X135726074Y-84070797D01*
X135705250Y-84065581D01*
X135685038Y-84058349D01*
X135665632Y-84049170D01*
X135647219Y-84038134D01*
X135629976Y-84025346D01*
X135614070Y-84010930D01*
X135599654Y-83995024D01*
X135586866Y-83977781D01*
X135575830Y-83959368D01*
X135566651Y-83939962D01*
X135559419Y-83919750D01*
X135554203Y-83898926D01*
X135551053Y-83877691D01*
X135550000Y-83856250D01*
X135550000Y-83343750D01*
X135551053Y-83322309D01*
X135554203Y-83301074D01*
X135559419Y-83280250D01*
X135566651Y-83260038D01*
X135575830Y-83240632D01*
X135586866Y-83222219D01*
X135599654Y-83204976D01*
X135614070Y-83189070D01*
X135629976Y-83174654D01*
X135647219Y-83161866D01*
X135665632Y-83150830D01*
X135685038Y-83141651D01*
X135705250Y-83134419D01*
X135726074Y-83129203D01*
X135747309Y-83126053D01*
X135768750Y-83125000D01*
X136206250Y-83125000D01*
X136227691Y-83126053D01*
X136227691Y-83126053D01*
G37*
D11*
X135987500Y-83600000D03*
D10*
G36*
X134652691Y-83126053D02*
G01*
X134673926Y-83129203D01*
X134694750Y-83134419D01*
X134714962Y-83141651D01*
X134734368Y-83150830D01*
X134752781Y-83161866D01*
X134770024Y-83174654D01*
X134785930Y-83189070D01*
X134800346Y-83204976D01*
X134813134Y-83222219D01*
X134824170Y-83240632D01*
X134833349Y-83260038D01*
X134840581Y-83280250D01*
X134845797Y-83301074D01*
X134848947Y-83322309D01*
X134850000Y-83343750D01*
X134850000Y-83856250D01*
X134848947Y-83877691D01*
X134845797Y-83898926D01*
X134840581Y-83919750D01*
X134833349Y-83939962D01*
X134824170Y-83959368D01*
X134813134Y-83977781D01*
X134800346Y-83995024D01*
X134785930Y-84010930D01*
X134770024Y-84025346D01*
X134752781Y-84038134D01*
X134734368Y-84049170D01*
X134714962Y-84058349D01*
X134694750Y-84065581D01*
X134673926Y-84070797D01*
X134652691Y-84073947D01*
X134631250Y-84075000D01*
X134193750Y-84075000D01*
X134172309Y-84073947D01*
X134151074Y-84070797D01*
X134130250Y-84065581D01*
X134110038Y-84058349D01*
X134090632Y-84049170D01*
X134072219Y-84038134D01*
X134054976Y-84025346D01*
X134039070Y-84010930D01*
X134024654Y-83995024D01*
X134011866Y-83977781D01*
X134000830Y-83959368D01*
X133991651Y-83939962D01*
X133984419Y-83919750D01*
X133979203Y-83898926D01*
X133976053Y-83877691D01*
X133975000Y-83856250D01*
X133975000Y-83343750D01*
X133976053Y-83322309D01*
X133979203Y-83301074D01*
X133984419Y-83280250D01*
X133991651Y-83260038D01*
X134000830Y-83240632D01*
X134011866Y-83222219D01*
X134024654Y-83204976D01*
X134039070Y-83189070D01*
X134054976Y-83174654D01*
X134072219Y-83161866D01*
X134090632Y-83150830D01*
X134110038Y-83141651D01*
X134130250Y-83134419D01*
X134151074Y-83129203D01*
X134172309Y-83126053D01*
X134193750Y-83125000D01*
X134631250Y-83125000D01*
X134652691Y-83126053D01*
X134652691Y-83126053D01*
G37*
D11*
X134412500Y-83600000D03*
D15*
X145400000Y-75800000D03*
X149700000Y-75800000D03*
X145350000Y-65800000D03*
X149650000Y-65800000D03*
X145350000Y-70800000D03*
X149650000Y-70800000D03*
D10*
G36*
X141652691Y-82476053D02*
G01*
X141673926Y-82479203D01*
X141694750Y-82484419D01*
X141714962Y-82491651D01*
X141734368Y-82500830D01*
X141752781Y-82511866D01*
X141770024Y-82524654D01*
X141785930Y-82539070D01*
X141800346Y-82554976D01*
X141813134Y-82572219D01*
X141824170Y-82590632D01*
X141833349Y-82610038D01*
X141840581Y-82630250D01*
X141845797Y-82651074D01*
X141848947Y-82672309D01*
X141850000Y-82693750D01*
X141850000Y-83206250D01*
X141848947Y-83227691D01*
X141845797Y-83248926D01*
X141840581Y-83269750D01*
X141833349Y-83289962D01*
X141824170Y-83309368D01*
X141813134Y-83327781D01*
X141800346Y-83345024D01*
X141785930Y-83360930D01*
X141770024Y-83375346D01*
X141752781Y-83388134D01*
X141734368Y-83399170D01*
X141714962Y-83408349D01*
X141694750Y-83415581D01*
X141673926Y-83420797D01*
X141652691Y-83423947D01*
X141631250Y-83425000D01*
X141193750Y-83425000D01*
X141172309Y-83423947D01*
X141151074Y-83420797D01*
X141130250Y-83415581D01*
X141110038Y-83408349D01*
X141090632Y-83399170D01*
X141072219Y-83388134D01*
X141054976Y-83375346D01*
X141039070Y-83360930D01*
X141024654Y-83345024D01*
X141011866Y-83327781D01*
X141000830Y-83309368D01*
X140991651Y-83289962D01*
X140984419Y-83269750D01*
X140979203Y-83248926D01*
X140976053Y-83227691D01*
X140975000Y-83206250D01*
X140975000Y-82693750D01*
X140976053Y-82672309D01*
X140979203Y-82651074D01*
X140984419Y-82630250D01*
X140991651Y-82610038D01*
X141000830Y-82590632D01*
X141011866Y-82572219D01*
X141024654Y-82554976D01*
X141039070Y-82539070D01*
X141054976Y-82524654D01*
X141072219Y-82511866D01*
X141090632Y-82500830D01*
X141110038Y-82491651D01*
X141130250Y-82484419D01*
X141151074Y-82479203D01*
X141172309Y-82476053D01*
X141193750Y-82475000D01*
X141631250Y-82475000D01*
X141652691Y-82476053D01*
X141652691Y-82476053D01*
G37*
D11*
X141412500Y-82950000D03*
D10*
G36*
X143227691Y-82476053D02*
G01*
X143248926Y-82479203D01*
X143269750Y-82484419D01*
X143289962Y-82491651D01*
X143309368Y-82500830D01*
X143327781Y-82511866D01*
X143345024Y-82524654D01*
X143360930Y-82539070D01*
X143375346Y-82554976D01*
X143388134Y-82572219D01*
X143399170Y-82590632D01*
X143408349Y-82610038D01*
X143415581Y-82630250D01*
X143420797Y-82651074D01*
X143423947Y-82672309D01*
X143425000Y-82693750D01*
X143425000Y-83206250D01*
X143423947Y-83227691D01*
X143420797Y-83248926D01*
X143415581Y-83269750D01*
X143408349Y-83289962D01*
X143399170Y-83309368D01*
X143388134Y-83327781D01*
X143375346Y-83345024D01*
X143360930Y-83360930D01*
X143345024Y-83375346D01*
X143327781Y-83388134D01*
X143309368Y-83399170D01*
X143289962Y-83408349D01*
X143269750Y-83415581D01*
X143248926Y-83420797D01*
X143227691Y-83423947D01*
X143206250Y-83425000D01*
X142768750Y-83425000D01*
X142747309Y-83423947D01*
X142726074Y-83420797D01*
X142705250Y-83415581D01*
X142685038Y-83408349D01*
X142665632Y-83399170D01*
X142647219Y-83388134D01*
X142629976Y-83375346D01*
X142614070Y-83360930D01*
X142599654Y-83345024D01*
X142586866Y-83327781D01*
X142575830Y-83309368D01*
X142566651Y-83289962D01*
X142559419Y-83269750D01*
X142554203Y-83248926D01*
X142551053Y-83227691D01*
X142550000Y-83206250D01*
X142550000Y-82693750D01*
X142551053Y-82672309D01*
X142554203Y-82651074D01*
X142559419Y-82630250D01*
X142566651Y-82610038D01*
X142575830Y-82590632D01*
X142586866Y-82572219D01*
X142599654Y-82554976D01*
X142614070Y-82539070D01*
X142629976Y-82524654D01*
X142647219Y-82511866D01*
X142665632Y-82500830D01*
X142685038Y-82491651D01*
X142705250Y-82484419D01*
X142726074Y-82479203D01*
X142747309Y-82476053D01*
X142768750Y-82475000D01*
X143206250Y-82475000D01*
X143227691Y-82476053D01*
X143227691Y-82476053D01*
G37*
D11*
X142987500Y-82950000D03*
D10*
G36*
X141652691Y-84076053D02*
G01*
X141673926Y-84079203D01*
X141694750Y-84084419D01*
X141714962Y-84091651D01*
X141734368Y-84100830D01*
X141752781Y-84111866D01*
X141770024Y-84124654D01*
X141785930Y-84139070D01*
X141800346Y-84154976D01*
X141813134Y-84172219D01*
X141824170Y-84190632D01*
X141833349Y-84210038D01*
X141840581Y-84230250D01*
X141845797Y-84251074D01*
X141848947Y-84272309D01*
X141850000Y-84293750D01*
X141850000Y-84806250D01*
X141848947Y-84827691D01*
X141845797Y-84848926D01*
X141840581Y-84869750D01*
X141833349Y-84889962D01*
X141824170Y-84909368D01*
X141813134Y-84927781D01*
X141800346Y-84945024D01*
X141785930Y-84960930D01*
X141770024Y-84975346D01*
X141752781Y-84988134D01*
X141734368Y-84999170D01*
X141714962Y-85008349D01*
X141694750Y-85015581D01*
X141673926Y-85020797D01*
X141652691Y-85023947D01*
X141631250Y-85025000D01*
X141193750Y-85025000D01*
X141172309Y-85023947D01*
X141151074Y-85020797D01*
X141130250Y-85015581D01*
X141110038Y-85008349D01*
X141090632Y-84999170D01*
X141072219Y-84988134D01*
X141054976Y-84975346D01*
X141039070Y-84960930D01*
X141024654Y-84945024D01*
X141011866Y-84927781D01*
X141000830Y-84909368D01*
X140991651Y-84889962D01*
X140984419Y-84869750D01*
X140979203Y-84848926D01*
X140976053Y-84827691D01*
X140975000Y-84806250D01*
X140975000Y-84293750D01*
X140976053Y-84272309D01*
X140979203Y-84251074D01*
X140984419Y-84230250D01*
X140991651Y-84210038D01*
X141000830Y-84190632D01*
X141011866Y-84172219D01*
X141024654Y-84154976D01*
X141039070Y-84139070D01*
X141054976Y-84124654D01*
X141072219Y-84111866D01*
X141090632Y-84100830D01*
X141110038Y-84091651D01*
X141130250Y-84084419D01*
X141151074Y-84079203D01*
X141172309Y-84076053D01*
X141193750Y-84075000D01*
X141631250Y-84075000D01*
X141652691Y-84076053D01*
X141652691Y-84076053D01*
G37*
D11*
X141412500Y-84550000D03*
D10*
G36*
X143227691Y-84076053D02*
G01*
X143248926Y-84079203D01*
X143269750Y-84084419D01*
X143289962Y-84091651D01*
X143309368Y-84100830D01*
X143327781Y-84111866D01*
X143345024Y-84124654D01*
X143360930Y-84139070D01*
X143375346Y-84154976D01*
X143388134Y-84172219D01*
X143399170Y-84190632D01*
X143408349Y-84210038D01*
X143415581Y-84230250D01*
X143420797Y-84251074D01*
X143423947Y-84272309D01*
X143425000Y-84293750D01*
X143425000Y-84806250D01*
X143423947Y-84827691D01*
X143420797Y-84848926D01*
X143415581Y-84869750D01*
X143408349Y-84889962D01*
X143399170Y-84909368D01*
X143388134Y-84927781D01*
X143375346Y-84945024D01*
X143360930Y-84960930D01*
X143345024Y-84975346D01*
X143327781Y-84988134D01*
X143309368Y-84999170D01*
X143289962Y-85008349D01*
X143269750Y-85015581D01*
X143248926Y-85020797D01*
X143227691Y-85023947D01*
X143206250Y-85025000D01*
X142768750Y-85025000D01*
X142747309Y-85023947D01*
X142726074Y-85020797D01*
X142705250Y-85015581D01*
X142685038Y-85008349D01*
X142665632Y-84999170D01*
X142647219Y-84988134D01*
X142629976Y-84975346D01*
X142614070Y-84960930D01*
X142599654Y-84945024D01*
X142586866Y-84927781D01*
X142575830Y-84909368D01*
X142566651Y-84889962D01*
X142559419Y-84869750D01*
X142554203Y-84848926D01*
X142551053Y-84827691D01*
X142550000Y-84806250D01*
X142550000Y-84293750D01*
X142551053Y-84272309D01*
X142554203Y-84251074D01*
X142559419Y-84230250D01*
X142566651Y-84210038D01*
X142575830Y-84190632D01*
X142586866Y-84172219D01*
X142599654Y-84154976D01*
X142614070Y-84139070D01*
X142629976Y-84124654D01*
X142647219Y-84111866D01*
X142665632Y-84100830D01*
X142685038Y-84091651D01*
X142705250Y-84084419D01*
X142726074Y-84079203D01*
X142747309Y-84076053D01*
X142768750Y-84075000D01*
X143206250Y-84075000D01*
X143227691Y-84076053D01*
X143227691Y-84076053D01*
G37*
D11*
X142987500Y-84550000D03*
M02*
