G04 #@! TF.GenerationSoftware,KiCad,Pcbnew,(5.1.2)-1*
G04 #@! TF.CreationDate,2020-05-04T21:43:22+09:00*
G04 #@! TF.ProjectId,dcdc,64636463-2e6b-4696-9361-645f70636258,v1.2*
G04 #@! TF.SameCoordinates,Original*
G04 #@! TF.FileFunction,Soldermask,Top*
G04 #@! TF.FilePolarity,Negative*
%FSLAX46Y46*%
G04 Gerber Fmt 4.6, Leading zero omitted, Abs format (unit mm)*
G04 Created by KiCad (PCBNEW (5.1.2)-1) date 2020-05-04 21:43:22*
%MOMM*%
%LPD*%
G04 APERTURE LIST*
%ADD10C,0.100000*%
G04 APERTURE END LIST*
D10*
G36*
X121375256Y-84391298D02*
G01*
X121481579Y-84412447D01*
X121782042Y-84536903D01*
X122052451Y-84717585D01*
X122282415Y-84947549D01*
X122398923Y-85121915D01*
X122463098Y-85217960D01*
X122587553Y-85518422D01*
X122650038Y-85832552D01*
X122651000Y-85837391D01*
X122651000Y-86162609D01*
X122587553Y-86481579D01*
X122503361Y-86684836D01*
X122471562Y-86761607D01*
X122463097Y-86782042D01*
X122282415Y-87052451D01*
X122052451Y-87282415D01*
X121782042Y-87463097D01*
X121481579Y-87587553D01*
X121375256Y-87608702D01*
X121162611Y-87651000D01*
X120837389Y-87651000D01*
X120624744Y-87608702D01*
X120518421Y-87587553D01*
X120217958Y-87463097D01*
X119947549Y-87282415D01*
X119717585Y-87052451D01*
X119536903Y-86782042D01*
X119528439Y-86761607D01*
X119496639Y-86684836D01*
X119412447Y-86481579D01*
X119349000Y-86162609D01*
X119349000Y-85837391D01*
X119349963Y-85832552D01*
X119412447Y-85518422D01*
X119536902Y-85217960D01*
X119601077Y-85121915D01*
X119717585Y-84947549D01*
X119947549Y-84717585D01*
X120217958Y-84536903D01*
X120518421Y-84412447D01*
X120624744Y-84391298D01*
X120837389Y-84349000D01*
X121162611Y-84349000D01*
X121375256Y-84391298D01*
X121375256Y-84391298D01*
G37*
G36*
X143329591Y-85728085D02*
G01*
X143363569Y-85738393D01*
X143394890Y-85755134D01*
X143422339Y-85777661D01*
X143444866Y-85805110D01*
X143461607Y-85836431D01*
X143471915Y-85870409D01*
X143476000Y-85911890D01*
X143476000Y-86588110D01*
X143471915Y-86629591D01*
X143461607Y-86663569D01*
X143444866Y-86694890D01*
X143422339Y-86722339D01*
X143394890Y-86744866D01*
X143363569Y-86761607D01*
X143329591Y-86771915D01*
X143288110Y-86776000D01*
X142686890Y-86776000D01*
X142645409Y-86771915D01*
X142611431Y-86761607D01*
X142580110Y-86744866D01*
X142552661Y-86722339D01*
X142530134Y-86694890D01*
X142513393Y-86663569D01*
X142503085Y-86629591D01*
X142499000Y-86588110D01*
X142499000Y-85911890D01*
X142503085Y-85870409D01*
X142513393Y-85836431D01*
X142530134Y-85805110D01*
X142552661Y-85777661D01*
X142580110Y-85755134D01*
X142611431Y-85738393D01*
X142645409Y-85728085D01*
X142686890Y-85724000D01*
X143288110Y-85724000D01*
X143329591Y-85728085D01*
X143329591Y-85728085D01*
G37*
G36*
X141754591Y-85728085D02*
G01*
X141788569Y-85738393D01*
X141819890Y-85755134D01*
X141847339Y-85777661D01*
X141869866Y-85805110D01*
X141886607Y-85836431D01*
X141896915Y-85870409D01*
X141901000Y-85911890D01*
X141901000Y-86588110D01*
X141896915Y-86629591D01*
X141886607Y-86663569D01*
X141869866Y-86694890D01*
X141847339Y-86722339D01*
X141819890Y-86744866D01*
X141788569Y-86761607D01*
X141754591Y-86771915D01*
X141713110Y-86776000D01*
X141111890Y-86776000D01*
X141070409Y-86771915D01*
X141036431Y-86761607D01*
X141005110Y-86744866D01*
X140977661Y-86722339D01*
X140955134Y-86694890D01*
X140938393Y-86663569D01*
X140928085Y-86629591D01*
X140924000Y-86588110D01*
X140924000Y-85911890D01*
X140928085Y-85870409D01*
X140938393Y-85836431D01*
X140955134Y-85805110D01*
X140977661Y-85777661D01*
X141005110Y-85755134D01*
X141036431Y-85738393D01*
X141070409Y-85728085D01*
X141111890Y-85724000D01*
X141713110Y-85724000D01*
X141754591Y-85728085D01*
X141754591Y-85728085D01*
G37*
G36*
X150317591Y-85678085D02*
G01*
X150351569Y-85688393D01*
X150382890Y-85705134D01*
X150410339Y-85727661D01*
X150432866Y-85755110D01*
X150449607Y-85786431D01*
X150459915Y-85820409D01*
X150464000Y-85861890D01*
X150464000Y-86538110D01*
X150459915Y-86579591D01*
X150449607Y-86613569D01*
X150432866Y-86644890D01*
X150410339Y-86672339D01*
X150382890Y-86694866D01*
X150351569Y-86711607D01*
X150317591Y-86721915D01*
X150276110Y-86726000D01*
X149674890Y-86726000D01*
X149633409Y-86721915D01*
X149599431Y-86711607D01*
X149568110Y-86694866D01*
X149540661Y-86672339D01*
X149518134Y-86644890D01*
X149501393Y-86613569D01*
X149491085Y-86579591D01*
X149487000Y-86538110D01*
X149487000Y-85861890D01*
X149491085Y-85820409D01*
X149501393Y-85786431D01*
X149518134Y-85755110D01*
X149540661Y-85727661D01*
X149568110Y-85705134D01*
X149599431Y-85688393D01*
X149633409Y-85678085D01*
X149674890Y-85674000D01*
X150276110Y-85674000D01*
X150317591Y-85678085D01*
X150317591Y-85678085D01*
G37*
G36*
X147141591Y-85678085D02*
G01*
X147175569Y-85688393D01*
X147206890Y-85705134D01*
X147234339Y-85727661D01*
X147256866Y-85755110D01*
X147273607Y-85786431D01*
X147283915Y-85820409D01*
X147288000Y-85861890D01*
X147288000Y-86538110D01*
X147283915Y-86579591D01*
X147273607Y-86613569D01*
X147256866Y-86644890D01*
X147234339Y-86672339D01*
X147206890Y-86694866D01*
X147175569Y-86711607D01*
X147141591Y-86721915D01*
X147100110Y-86726000D01*
X146498890Y-86726000D01*
X146457409Y-86721915D01*
X146423431Y-86711607D01*
X146392110Y-86694866D01*
X146364661Y-86672339D01*
X146342134Y-86644890D01*
X146325393Y-86613569D01*
X146315085Y-86579591D01*
X146311000Y-86538110D01*
X146311000Y-85861890D01*
X146315085Y-85820409D01*
X146325393Y-85786431D01*
X146342134Y-85755110D01*
X146364661Y-85727661D01*
X146392110Y-85705134D01*
X146423431Y-85688393D01*
X146457409Y-85678085D01*
X146498890Y-85674000D01*
X147100110Y-85674000D01*
X147141591Y-85678085D01*
X147141591Y-85678085D01*
G37*
G36*
X145566591Y-85678085D02*
G01*
X145600569Y-85688393D01*
X145631890Y-85705134D01*
X145659339Y-85727661D01*
X145681866Y-85755110D01*
X145698607Y-85786431D01*
X145708915Y-85820409D01*
X145713000Y-85861890D01*
X145713000Y-86538110D01*
X145708915Y-86579591D01*
X145698607Y-86613569D01*
X145681866Y-86644890D01*
X145659339Y-86672339D01*
X145631890Y-86694866D01*
X145600569Y-86711607D01*
X145566591Y-86721915D01*
X145525110Y-86726000D01*
X144923890Y-86726000D01*
X144882409Y-86721915D01*
X144848431Y-86711607D01*
X144817110Y-86694866D01*
X144789661Y-86672339D01*
X144767134Y-86644890D01*
X144750393Y-86613569D01*
X144740085Y-86579591D01*
X144736000Y-86538110D01*
X144736000Y-85861890D01*
X144740085Y-85820409D01*
X144750393Y-85786431D01*
X144767134Y-85755110D01*
X144789661Y-85727661D01*
X144817110Y-85705134D01*
X144848431Y-85688393D01*
X144882409Y-85678085D01*
X144923890Y-85674000D01*
X145525110Y-85674000D01*
X145566591Y-85678085D01*
X145566591Y-85678085D01*
G37*
G36*
X152654591Y-85678085D02*
G01*
X152688569Y-85688393D01*
X152719890Y-85705134D01*
X152747339Y-85727661D01*
X152769866Y-85755110D01*
X152786607Y-85786431D01*
X152796915Y-85820409D01*
X152801000Y-85861890D01*
X152801000Y-86538110D01*
X152796915Y-86579591D01*
X152786607Y-86613569D01*
X152769866Y-86644890D01*
X152747339Y-86672339D01*
X152719890Y-86694866D01*
X152688569Y-86711607D01*
X152654591Y-86721915D01*
X152613110Y-86726000D01*
X152011890Y-86726000D01*
X151970409Y-86721915D01*
X151936431Y-86711607D01*
X151905110Y-86694866D01*
X151877661Y-86672339D01*
X151855134Y-86644890D01*
X151838393Y-86613569D01*
X151828085Y-86579591D01*
X151824000Y-86538110D01*
X151824000Y-85861890D01*
X151828085Y-85820409D01*
X151838393Y-85786431D01*
X151855134Y-85755110D01*
X151877661Y-85727661D01*
X151905110Y-85705134D01*
X151936431Y-85688393D01*
X151970409Y-85678085D01*
X152011890Y-85674000D01*
X152613110Y-85674000D01*
X152654591Y-85678085D01*
X152654591Y-85678085D01*
G37*
G36*
X154229591Y-85678085D02*
G01*
X154263569Y-85688393D01*
X154294890Y-85705134D01*
X154322339Y-85727661D01*
X154344866Y-85755110D01*
X154361607Y-85786431D01*
X154371915Y-85820409D01*
X154376000Y-85861890D01*
X154376000Y-86538110D01*
X154371915Y-86579591D01*
X154361607Y-86613569D01*
X154344866Y-86644890D01*
X154322339Y-86672339D01*
X154294890Y-86694866D01*
X154263569Y-86711607D01*
X154229591Y-86721915D01*
X154188110Y-86726000D01*
X153586890Y-86726000D01*
X153545409Y-86721915D01*
X153511431Y-86711607D01*
X153480110Y-86694866D01*
X153452661Y-86672339D01*
X153430134Y-86644890D01*
X153413393Y-86613569D01*
X153403085Y-86579591D01*
X153399000Y-86538110D01*
X153399000Y-85861890D01*
X153403085Y-85820409D01*
X153413393Y-85786431D01*
X153430134Y-85755110D01*
X153452661Y-85727661D01*
X153480110Y-85705134D01*
X153511431Y-85688393D01*
X153545409Y-85678085D01*
X153586890Y-85674000D01*
X154188110Y-85674000D01*
X154229591Y-85678085D01*
X154229591Y-85678085D01*
G37*
G36*
X148742591Y-85678085D02*
G01*
X148776569Y-85688393D01*
X148807890Y-85705134D01*
X148835339Y-85727661D01*
X148857866Y-85755110D01*
X148874607Y-85786431D01*
X148884915Y-85820409D01*
X148889000Y-85861890D01*
X148889000Y-86538110D01*
X148884915Y-86579591D01*
X148874607Y-86613569D01*
X148857866Y-86644890D01*
X148835339Y-86672339D01*
X148807890Y-86694866D01*
X148776569Y-86711607D01*
X148742591Y-86721915D01*
X148701110Y-86726000D01*
X148099890Y-86726000D01*
X148058409Y-86721915D01*
X148024431Y-86711607D01*
X147993110Y-86694866D01*
X147965661Y-86672339D01*
X147943134Y-86644890D01*
X147926393Y-86613569D01*
X147916085Y-86579591D01*
X147912000Y-86538110D01*
X147912000Y-85861890D01*
X147916085Y-85820409D01*
X147926393Y-85786431D01*
X147943134Y-85755110D01*
X147965661Y-85727661D01*
X147993110Y-85705134D01*
X148024431Y-85688393D01*
X148058409Y-85678085D01*
X148099890Y-85674000D01*
X148701110Y-85674000D01*
X148742591Y-85678085D01*
X148742591Y-85678085D01*
G37*
G36*
X131454591Y-85078085D02*
G01*
X131488569Y-85088393D01*
X131519890Y-85105134D01*
X131547339Y-85127661D01*
X131569866Y-85155110D01*
X131586607Y-85186431D01*
X131596915Y-85220409D01*
X131601000Y-85261890D01*
X131601000Y-85938110D01*
X131596915Y-85979591D01*
X131586607Y-86013569D01*
X131569866Y-86044890D01*
X131547339Y-86072339D01*
X131519890Y-86094866D01*
X131488569Y-86111607D01*
X131454591Y-86121915D01*
X131413110Y-86126000D01*
X130811890Y-86126000D01*
X130770409Y-86121915D01*
X130736431Y-86111607D01*
X130705110Y-86094866D01*
X130677661Y-86072339D01*
X130655134Y-86044890D01*
X130638393Y-86013569D01*
X130628085Y-85979591D01*
X130624000Y-85938110D01*
X130624000Y-85261890D01*
X130628085Y-85220409D01*
X130638393Y-85186431D01*
X130655134Y-85155110D01*
X130677661Y-85127661D01*
X130705110Y-85105134D01*
X130736431Y-85088393D01*
X130770409Y-85078085D01*
X130811890Y-85074000D01*
X131413110Y-85074000D01*
X131454591Y-85078085D01*
X131454591Y-85078085D01*
G37*
G36*
X133029591Y-85078085D02*
G01*
X133063569Y-85088393D01*
X133094890Y-85105134D01*
X133122339Y-85127661D01*
X133144866Y-85155110D01*
X133161607Y-85186431D01*
X133171915Y-85220409D01*
X133176000Y-85261890D01*
X133176000Y-85938110D01*
X133171915Y-85979591D01*
X133161607Y-86013569D01*
X133144866Y-86044890D01*
X133122339Y-86072339D01*
X133094890Y-86094866D01*
X133063569Y-86111607D01*
X133029591Y-86121915D01*
X132988110Y-86126000D01*
X132386890Y-86126000D01*
X132345409Y-86121915D01*
X132311431Y-86111607D01*
X132280110Y-86094866D01*
X132252661Y-86072339D01*
X132230134Y-86044890D01*
X132213393Y-86013569D01*
X132203085Y-85979591D01*
X132199000Y-85938110D01*
X132199000Y-85261890D01*
X132203085Y-85220409D01*
X132213393Y-85186431D01*
X132230134Y-85155110D01*
X132252661Y-85127661D01*
X132280110Y-85105134D01*
X132311431Y-85088393D01*
X132345409Y-85078085D01*
X132386890Y-85074000D01*
X132988110Y-85074000D01*
X133029591Y-85078085D01*
X133029591Y-85078085D01*
G37*
G36*
X134754591Y-85078085D02*
G01*
X134788569Y-85088393D01*
X134819890Y-85105134D01*
X134847339Y-85127661D01*
X134869866Y-85155110D01*
X134886607Y-85186431D01*
X134896915Y-85220409D01*
X134901000Y-85261890D01*
X134901000Y-85938110D01*
X134896915Y-85979591D01*
X134886607Y-86013569D01*
X134869866Y-86044890D01*
X134847339Y-86072339D01*
X134819890Y-86094866D01*
X134788569Y-86111607D01*
X134754591Y-86121915D01*
X134713110Y-86126000D01*
X134111890Y-86126000D01*
X134070409Y-86121915D01*
X134036431Y-86111607D01*
X134005110Y-86094866D01*
X133977661Y-86072339D01*
X133955134Y-86044890D01*
X133938393Y-86013569D01*
X133928085Y-85979591D01*
X133924000Y-85938110D01*
X133924000Y-85261890D01*
X133928085Y-85220409D01*
X133938393Y-85186431D01*
X133955134Y-85155110D01*
X133977661Y-85127661D01*
X134005110Y-85105134D01*
X134036431Y-85088393D01*
X134070409Y-85078085D01*
X134111890Y-85074000D01*
X134713110Y-85074000D01*
X134754591Y-85078085D01*
X134754591Y-85078085D01*
G37*
G36*
X136329591Y-85078085D02*
G01*
X136363569Y-85088393D01*
X136394890Y-85105134D01*
X136422339Y-85127661D01*
X136444866Y-85155110D01*
X136461607Y-85186431D01*
X136471915Y-85220409D01*
X136476000Y-85261890D01*
X136476000Y-85938110D01*
X136471915Y-85979591D01*
X136461607Y-86013569D01*
X136444866Y-86044890D01*
X136422339Y-86072339D01*
X136394890Y-86094866D01*
X136363569Y-86111607D01*
X136329591Y-86121915D01*
X136288110Y-86126000D01*
X135686890Y-86126000D01*
X135645409Y-86121915D01*
X135611431Y-86111607D01*
X135580110Y-86094866D01*
X135552661Y-86072339D01*
X135530134Y-86044890D01*
X135513393Y-86013569D01*
X135503085Y-85979591D01*
X135499000Y-85938110D01*
X135499000Y-85261890D01*
X135503085Y-85220409D01*
X135513393Y-85186431D01*
X135530134Y-85155110D01*
X135552661Y-85127661D01*
X135580110Y-85105134D01*
X135611431Y-85088393D01*
X135645409Y-85078085D01*
X135686890Y-85074000D01*
X136288110Y-85074000D01*
X136329591Y-85078085D01*
X136329591Y-85078085D01*
G37*
G36*
X154229591Y-84078085D02*
G01*
X154263569Y-84088393D01*
X154294890Y-84105134D01*
X154322339Y-84127661D01*
X154344866Y-84155110D01*
X154361607Y-84186431D01*
X154371915Y-84220409D01*
X154376000Y-84261890D01*
X154376000Y-84938110D01*
X154371915Y-84979591D01*
X154361607Y-85013569D01*
X154344866Y-85044890D01*
X154322339Y-85072339D01*
X154294890Y-85094866D01*
X154263569Y-85111607D01*
X154229591Y-85121915D01*
X154188110Y-85126000D01*
X153586890Y-85126000D01*
X153545409Y-85121915D01*
X153511431Y-85111607D01*
X153480110Y-85094866D01*
X153452661Y-85072339D01*
X153430134Y-85044890D01*
X153413393Y-85013569D01*
X153403085Y-84979591D01*
X153399000Y-84938110D01*
X153399000Y-84261890D01*
X153403085Y-84220409D01*
X153413393Y-84186431D01*
X153430134Y-84155110D01*
X153452661Y-84127661D01*
X153480110Y-84105134D01*
X153511431Y-84088393D01*
X153545409Y-84078085D01*
X153586890Y-84074000D01*
X154188110Y-84074000D01*
X154229591Y-84078085D01*
X154229591Y-84078085D01*
G37*
G36*
X152654591Y-84078085D02*
G01*
X152688569Y-84088393D01*
X152719890Y-84105134D01*
X152747339Y-84127661D01*
X152769866Y-84155110D01*
X152786607Y-84186431D01*
X152796915Y-84220409D01*
X152801000Y-84261890D01*
X152801000Y-84938110D01*
X152796915Y-84979591D01*
X152786607Y-85013569D01*
X152769866Y-85044890D01*
X152747339Y-85072339D01*
X152719890Y-85094866D01*
X152688569Y-85111607D01*
X152654591Y-85121915D01*
X152613110Y-85126000D01*
X152011890Y-85126000D01*
X151970409Y-85121915D01*
X151936431Y-85111607D01*
X151905110Y-85094866D01*
X151877661Y-85072339D01*
X151855134Y-85044890D01*
X151838393Y-85013569D01*
X151828085Y-84979591D01*
X151824000Y-84938110D01*
X151824000Y-84261890D01*
X151828085Y-84220409D01*
X151838393Y-84186431D01*
X151855134Y-84155110D01*
X151877661Y-84127661D01*
X151905110Y-84105134D01*
X151936431Y-84088393D01*
X151970409Y-84078085D01*
X152011890Y-84074000D01*
X152613110Y-84074000D01*
X152654591Y-84078085D01*
X152654591Y-84078085D01*
G37*
G36*
X141754591Y-84028085D02*
G01*
X141788569Y-84038393D01*
X141819890Y-84055134D01*
X141847339Y-84077661D01*
X141869866Y-84105110D01*
X141886607Y-84136431D01*
X141896915Y-84170409D01*
X141901000Y-84211890D01*
X141901000Y-84888110D01*
X141896915Y-84929591D01*
X141886607Y-84963569D01*
X141869866Y-84994890D01*
X141847339Y-85022339D01*
X141819890Y-85044866D01*
X141788569Y-85061607D01*
X141754591Y-85071915D01*
X141713110Y-85076000D01*
X141111890Y-85076000D01*
X141070409Y-85071915D01*
X141036431Y-85061607D01*
X141005110Y-85044866D01*
X140977661Y-85022339D01*
X140955134Y-84994890D01*
X140938393Y-84963569D01*
X140928085Y-84929591D01*
X140924000Y-84888110D01*
X140924000Y-84211890D01*
X140928085Y-84170409D01*
X140938393Y-84136431D01*
X140955134Y-84105110D01*
X140977661Y-84077661D01*
X141005110Y-84055134D01*
X141036431Y-84038393D01*
X141070409Y-84028085D01*
X141111890Y-84024000D01*
X141713110Y-84024000D01*
X141754591Y-84028085D01*
X141754591Y-84028085D01*
G37*
G36*
X143329591Y-84028085D02*
G01*
X143363569Y-84038393D01*
X143394890Y-84055134D01*
X143422339Y-84077661D01*
X143444866Y-84105110D01*
X143461607Y-84136431D01*
X143471915Y-84170409D01*
X143476000Y-84211890D01*
X143476000Y-84888110D01*
X143471915Y-84929591D01*
X143461607Y-84963569D01*
X143444866Y-84994890D01*
X143422339Y-85022339D01*
X143394890Y-85044866D01*
X143363569Y-85061607D01*
X143329591Y-85071915D01*
X143288110Y-85076000D01*
X142686890Y-85076000D01*
X142645409Y-85071915D01*
X142611431Y-85061607D01*
X142580110Y-85044866D01*
X142552661Y-85022339D01*
X142530134Y-84994890D01*
X142513393Y-84963569D01*
X142503085Y-84929591D01*
X142499000Y-84888110D01*
X142499000Y-84211890D01*
X142503085Y-84170409D01*
X142513393Y-84136431D01*
X142530134Y-84105110D01*
X142552661Y-84077661D01*
X142580110Y-84055134D01*
X142611431Y-84038393D01*
X142645409Y-84028085D01*
X142686890Y-84024000D01*
X143288110Y-84024000D01*
X143329591Y-84028085D01*
X143329591Y-84028085D01*
G37*
G36*
X150576000Y-84151000D02*
G01*
X149024000Y-84151000D01*
X149024000Y-81649000D01*
X150576000Y-81649000D01*
X150576000Y-84151000D01*
X150576000Y-84151000D01*
G37*
G36*
X146176000Y-84151000D02*
G01*
X144624000Y-84151000D01*
X144624000Y-81649000D01*
X146176000Y-81649000D01*
X146176000Y-84151000D01*
X146176000Y-84151000D01*
G37*
G36*
X134754591Y-83078085D02*
G01*
X134788569Y-83088393D01*
X134819890Y-83105134D01*
X134847339Y-83127661D01*
X134869866Y-83155110D01*
X134886607Y-83186431D01*
X134896915Y-83220409D01*
X134901000Y-83261890D01*
X134901000Y-83938110D01*
X134896915Y-83979591D01*
X134886607Y-84013569D01*
X134869866Y-84044890D01*
X134847339Y-84072339D01*
X134819890Y-84094866D01*
X134788569Y-84111607D01*
X134754591Y-84121915D01*
X134713110Y-84126000D01*
X134111890Y-84126000D01*
X134070409Y-84121915D01*
X134036431Y-84111607D01*
X134005110Y-84094866D01*
X133977661Y-84072339D01*
X133955134Y-84044890D01*
X133938393Y-84013569D01*
X133928085Y-83979591D01*
X133924000Y-83938110D01*
X133924000Y-83261890D01*
X133928085Y-83220409D01*
X133938393Y-83186431D01*
X133955134Y-83155110D01*
X133977661Y-83127661D01*
X134005110Y-83105134D01*
X134036431Y-83088393D01*
X134070409Y-83078085D01*
X134111890Y-83074000D01*
X134713110Y-83074000D01*
X134754591Y-83078085D01*
X134754591Y-83078085D01*
G37*
G36*
X136329591Y-83078085D02*
G01*
X136363569Y-83088393D01*
X136394890Y-83105134D01*
X136422339Y-83127661D01*
X136444866Y-83155110D01*
X136461607Y-83186431D01*
X136471915Y-83220409D01*
X136476000Y-83261890D01*
X136476000Y-83938110D01*
X136471915Y-83979591D01*
X136461607Y-84013569D01*
X136444866Y-84044890D01*
X136422339Y-84072339D01*
X136394890Y-84094866D01*
X136363569Y-84111607D01*
X136329591Y-84121915D01*
X136288110Y-84126000D01*
X135686890Y-84126000D01*
X135645409Y-84121915D01*
X135611431Y-84111607D01*
X135580110Y-84094866D01*
X135552661Y-84072339D01*
X135530134Y-84044890D01*
X135513393Y-84013569D01*
X135503085Y-83979591D01*
X135499000Y-83938110D01*
X135499000Y-83261890D01*
X135503085Y-83220409D01*
X135513393Y-83186431D01*
X135530134Y-83155110D01*
X135552661Y-83127661D01*
X135580110Y-83105134D01*
X135611431Y-83088393D01*
X135645409Y-83078085D01*
X135686890Y-83074000D01*
X136288110Y-83074000D01*
X136329591Y-83078085D01*
X136329591Y-83078085D01*
G37*
G36*
X131466591Y-83078085D02*
G01*
X131500569Y-83088393D01*
X131531890Y-83105134D01*
X131559339Y-83127661D01*
X131581866Y-83155110D01*
X131598607Y-83186431D01*
X131608915Y-83220409D01*
X131613000Y-83261890D01*
X131613000Y-83938110D01*
X131608915Y-83979591D01*
X131598607Y-84013569D01*
X131581866Y-84044890D01*
X131559339Y-84072339D01*
X131531890Y-84094866D01*
X131500569Y-84111607D01*
X131466591Y-84121915D01*
X131425110Y-84126000D01*
X130823890Y-84126000D01*
X130782409Y-84121915D01*
X130748431Y-84111607D01*
X130717110Y-84094866D01*
X130689661Y-84072339D01*
X130667134Y-84044890D01*
X130650393Y-84013569D01*
X130640085Y-83979591D01*
X130636000Y-83938110D01*
X130636000Y-83261890D01*
X130640085Y-83220409D01*
X130650393Y-83186431D01*
X130667134Y-83155110D01*
X130689661Y-83127661D01*
X130717110Y-83105134D01*
X130748431Y-83088393D01*
X130782409Y-83078085D01*
X130823890Y-83074000D01*
X131425110Y-83074000D01*
X131466591Y-83078085D01*
X131466591Y-83078085D01*
G37*
G36*
X133041591Y-83078085D02*
G01*
X133075569Y-83088393D01*
X133106890Y-83105134D01*
X133134339Y-83127661D01*
X133156866Y-83155110D01*
X133173607Y-83186431D01*
X133183915Y-83220409D01*
X133188000Y-83261890D01*
X133188000Y-83938110D01*
X133183915Y-83979591D01*
X133173607Y-84013569D01*
X133156866Y-84044890D01*
X133134339Y-84072339D01*
X133106890Y-84094866D01*
X133075569Y-84111607D01*
X133041591Y-84121915D01*
X133000110Y-84126000D01*
X132398890Y-84126000D01*
X132357409Y-84121915D01*
X132323431Y-84111607D01*
X132292110Y-84094866D01*
X132264661Y-84072339D01*
X132242134Y-84044890D01*
X132225393Y-84013569D01*
X132215085Y-83979591D01*
X132211000Y-83938110D01*
X132211000Y-83261890D01*
X132215085Y-83220409D01*
X132225393Y-83186431D01*
X132242134Y-83155110D01*
X132264661Y-83127661D01*
X132292110Y-83105134D01*
X132323431Y-83088393D01*
X132357409Y-83078085D01*
X132398890Y-83074000D01*
X133000110Y-83074000D01*
X133041591Y-83078085D01*
X133041591Y-83078085D01*
G37*
G36*
X141754591Y-82428085D02*
G01*
X141788569Y-82438393D01*
X141819890Y-82455134D01*
X141847339Y-82477661D01*
X141869866Y-82505110D01*
X141886607Y-82536431D01*
X141896915Y-82570409D01*
X141901000Y-82611890D01*
X141901000Y-83288110D01*
X141896915Y-83329591D01*
X141886607Y-83363569D01*
X141869866Y-83394890D01*
X141847339Y-83422339D01*
X141819890Y-83444866D01*
X141788569Y-83461607D01*
X141754591Y-83471915D01*
X141713110Y-83476000D01*
X141111890Y-83476000D01*
X141070409Y-83471915D01*
X141036431Y-83461607D01*
X141005110Y-83444866D01*
X140977661Y-83422339D01*
X140955134Y-83394890D01*
X140938393Y-83363569D01*
X140928085Y-83329591D01*
X140924000Y-83288110D01*
X140924000Y-82611890D01*
X140928085Y-82570409D01*
X140938393Y-82536431D01*
X140955134Y-82505110D01*
X140977661Y-82477661D01*
X141005110Y-82455134D01*
X141036431Y-82438393D01*
X141070409Y-82428085D01*
X141111890Y-82424000D01*
X141713110Y-82424000D01*
X141754591Y-82428085D01*
X141754591Y-82428085D01*
G37*
G36*
X143329591Y-82428085D02*
G01*
X143363569Y-82438393D01*
X143394890Y-82455134D01*
X143422339Y-82477661D01*
X143444866Y-82505110D01*
X143461607Y-82536431D01*
X143471915Y-82570409D01*
X143476000Y-82611890D01*
X143476000Y-83288110D01*
X143471915Y-83329591D01*
X143461607Y-83363569D01*
X143444866Y-83394890D01*
X143422339Y-83422339D01*
X143394890Y-83444866D01*
X143363569Y-83461607D01*
X143329591Y-83471915D01*
X143288110Y-83476000D01*
X142686890Y-83476000D01*
X142645409Y-83471915D01*
X142611431Y-83461607D01*
X142580110Y-83444866D01*
X142552661Y-83422339D01*
X142530134Y-83394890D01*
X142513393Y-83363569D01*
X142503085Y-83329591D01*
X142499000Y-83288110D01*
X142499000Y-82611890D01*
X142503085Y-82570409D01*
X142513393Y-82536431D01*
X142530134Y-82505110D01*
X142552661Y-82477661D01*
X142580110Y-82455134D01*
X142611431Y-82438393D01*
X142645409Y-82428085D01*
X142686890Y-82424000D01*
X143288110Y-82424000D01*
X143329591Y-82428085D01*
X143329591Y-82428085D01*
G37*
G36*
X154229591Y-82428085D02*
G01*
X154263569Y-82438393D01*
X154294890Y-82455134D01*
X154322339Y-82477661D01*
X154344866Y-82505110D01*
X154361607Y-82536431D01*
X154371915Y-82570409D01*
X154376000Y-82611890D01*
X154376000Y-83288110D01*
X154371915Y-83329591D01*
X154361607Y-83363569D01*
X154344866Y-83394890D01*
X154322339Y-83422339D01*
X154294890Y-83444866D01*
X154263569Y-83461607D01*
X154229591Y-83471915D01*
X154188110Y-83476000D01*
X153586890Y-83476000D01*
X153545409Y-83471915D01*
X153511431Y-83461607D01*
X153480110Y-83444866D01*
X153452661Y-83422339D01*
X153430134Y-83394890D01*
X153413393Y-83363569D01*
X153403085Y-83329591D01*
X153399000Y-83288110D01*
X153399000Y-82611890D01*
X153403085Y-82570409D01*
X153413393Y-82536431D01*
X153430134Y-82505110D01*
X153452661Y-82477661D01*
X153480110Y-82455134D01*
X153511431Y-82438393D01*
X153545409Y-82428085D01*
X153586890Y-82424000D01*
X154188110Y-82424000D01*
X154229591Y-82428085D01*
X154229591Y-82428085D01*
G37*
G36*
X152654591Y-82428085D02*
G01*
X152688569Y-82438393D01*
X152719890Y-82455134D01*
X152747339Y-82477661D01*
X152769866Y-82505110D01*
X152786607Y-82536431D01*
X152796915Y-82570409D01*
X152801000Y-82611890D01*
X152801000Y-83288110D01*
X152796915Y-83329591D01*
X152786607Y-83363569D01*
X152769866Y-83394890D01*
X152747339Y-83422339D01*
X152719890Y-83444866D01*
X152688569Y-83461607D01*
X152654591Y-83471915D01*
X152613110Y-83476000D01*
X152011890Y-83476000D01*
X151970409Y-83471915D01*
X151936431Y-83461607D01*
X151905110Y-83444866D01*
X151877661Y-83422339D01*
X151855134Y-83394890D01*
X151838393Y-83363569D01*
X151828085Y-83329591D01*
X151824000Y-83288110D01*
X151824000Y-82611890D01*
X151828085Y-82570409D01*
X151838393Y-82536431D01*
X151855134Y-82505110D01*
X151877661Y-82477661D01*
X151905110Y-82455134D01*
X151936431Y-82438393D01*
X151970409Y-82428085D01*
X152011890Y-82424000D01*
X152613110Y-82424000D01*
X152654591Y-82428085D01*
X152654591Y-82428085D01*
G37*
G36*
X125479591Y-81103085D02*
G01*
X125513569Y-81113393D01*
X125544890Y-81130134D01*
X125572339Y-81152661D01*
X125594866Y-81180110D01*
X125611607Y-81211431D01*
X125621915Y-81245409D01*
X125626000Y-81286890D01*
X125626000Y-81888110D01*
X125621915Y-81929591D01*
X125611607Y-81963569D01*
X125594866Y-81994890D01*
X125572339Y-82022339D01*
X125544890Y-82044866D01*
X125513569Y-82061607D01*
X125479591Y-82071915D01*
X125438110Y-82076000D01*
X124761890Y-82076000D01*
X124720409Y-82071915D01*
X124686431Y-82061607D01*
X124655110Y-82044866D01*
X124627661Y-82022339D01*
X124605134Y-81994890D01*
X124588393Y-81963569D01*
X124578085Y-81929591D01*
X124574000Y-81888110D01*
X124574000Y-81286890D01*
X124578085Y-81245409D01*
X124588393Y-81211431D01*
X124605134Y-81180110D01*
X124627661Y-81152661D01*
X124655110Y-81130134D01*
X124686431Y-81113393D01*
X124720409Y-81103085D01*
X124761890Y-81099000D01*
X125438110Y-81099000D01*
X125479591Y-81103085D01*
X125479591Y-81103085D01*
G37*
G36*
X152654591Y-80778085D02*
G01*
X152688569Y-80788393D01*
X152719890Y-80805134D01*
X152747339Y-80827661D01*
X152769866Y-80855110D01*
X152786607Y-80886431D01*
X152796915Y-80920409D01*
X152801000Y-80961890D01*
X152801000Y-81638110D01*
X152796915Y-81679591D01*
X152786607Y-81713569D01*
X152769866Y-81744890D01*
X152747339Y-81772339D01*
X152719890Y-81794866D01*
X152688569Y-81811607D01*
X152654591Y-81821915D01*
X152613110Y-81826000D01*
X152011890Y-81826000D01*
X151970409Y-81821915D01*
X151936431Y-81811607D01*
X151905110Y-81794866D01*
X151877661Y-81772339D01*
X151855134Y-81744890D01*
X151838393Y-81713569D01*
X151828085Y-81679591D01*
X151824000Y-81638110D01*
X151824000Y-80961890D01*
X151828085Y-80920409D01*
X151838393Y-80886431D01*
X151855134Y-80855110D01*
X151877661Y-80827661D01*
X151905110Y-80805134D01*
X151936431Y-80788393D01*
X151970409Y-80778085D01*
X152011890Y-80774000D01*
X152613110Y-80774000D01*
X152654591Y-80778085D01*
X152654591Y-80778085D01*
G37*
G36*
X154229591Y-80778085D02*
G01*
X154263569Y-80788393D01*
X154294890Y-80805134D01*
X154322339Y-80827661D01*
X154344866Y-80855110D01*
X154361607Y-80886431D01*
X154371915Y-80920409D01*
X154376000Y-80961890D01*
X154376000Y-81638110D01*
X154371915Y-81679591D01*
X154361607Y-81713569D01*
X154344866Y-81744890D01*
X154322339Y-81772339D01*
X154294890Y-81794866D01*
X154263569Y-81811607D01*
X154229591Y-81821915D01*
X154188110Y-81826000D01*
X153586890Y-81826000D01*
X153545409Y-81821915D01*
X153511431Y-81811607D01*
X153480110Y-81794866D01*
X153452661Y-81772339D01*
X153430134Y-81744890D01*
X153413393Y-81713569D01*
X153403085Y-81679591D01*
X153399000Y-81638110D01*
X153399000Y-80961890D01*
X153403085Y-80920409D01*
X153413393Y-80886431D01*
X153430134Y-80855110D01*
X153452661Y-80827661D01*
X153480110Y-80805134D01*
X153511431Y-80788393D01*
X153545409Y-80778085D01*
X153586890Y-80774000D01*
X154188110Y-80774000D01*
X154229591Y-80778085D01*
X154229591Y-80778085D01*
G37*
G36*
X120110443Y-79265519D02*
G01*
X120176627Y-79272037D01*
X120346466Y-79323557D01*
X120502991Y-79407222D01*
X120538729Y-79436552D01*
X120640186Y-79519814D01*
X120723448Y-79621271D01*
X120752778Y-79657009D01*
X120836443Y-79813534D01*
X120887963Y-79983373D01*
X120905359Y-80160000D01*
X120887963Y-80336627D01*
X120836443Y-80506466D01*
X120752778Y-80662991D01*
X120723448Y-80698729D01*
X120640186Y-80800186D01*
X120539821Y-80882552D01*
X120502991Y-80912778D01*
X120346466Y-80996443D01*
X120176627Y-81047963D01*
X120110442Y-81054482D01*
X120044260Y-81061000D01*
X119955740Y-81061000D01*
X119889558Y-81054482D01*
X119823373Y-81047963D01*
X119653534Y-80996443D01*
X119497009Y-80912778D01*
X119460179Y-80882552D01*
X119359814Y-80800186D01*
X119276552Y-80698729D01*
X119247222Y-80662991D01*
X119163557Y-80506466D01*
X119112037Y-80336627D01*
X119094641Y-80160000D01*
X119112037Y-79983373D01*
X119163557Y-79813534D01*
X119247222Y-79657009D01*
X119276552Y-79621271D01*
X119359814Y-79519814D01*
X119461271Y-79436552D01*
X119497009Y-79407222D01*
X119653534Y-79323557D01*
X119823373Y-79272037D01*
X119889557Y-79265519D01*
X119955740Y-79259000D01*
X120044260Y-79259000D01*
X120110443Y-79265519D01*
X120110443Y-79265519D01*
G37*
G36*
X127384468Y-79453565D02*
G01*
X127423138Y-79465296D01*
X127458777Y-79484346D01*
X127490017Y-79509983D01*
X127515654Y-79541223D01*
X127534704Y-79576862D01*
X127546435Y-79615532D01*
X127551000Y-79661888D01*
X127551000Y-80738112D01*
X127546435Y-80784468D01*
X127534704Y-80823138D01*
X127515654Y-80858777D01*
X127490017Y-80890017D01*
X127458777Y-80915654D01*
X127423138Y-80934704D01*
X127384468Y-80946435D01*
X127338112Y-80951000D01*
X126686888Y-80951000D01*
X126640532Y-80946435D01*
X126601862Y-80934704D01*
X126566223Y-80915654D01*
X126534983Y-80890017D01*
X126509346Y-80858777D01*
X126490296Y-80823138D01*
X126478565Y-80784468D01*
X126474000Y-80738112D01*
X126474000Y-79661888D01*
X126478565Y-79615532D01*
X126490296Y-79576862D01*
X126509346Y-79541223D01*
X126534983Y-79509983D01*
X126566223Y-79484346D01*
X126601862Y-79465296D01*
X126640532Y-79453565D01*
X126686888Y-79449000D01*
X127338112Y-79449000D01*
X127384468Y-79453565D01*
X127384468Y-79453565D01*
G37*
G36*
X129259468Y-79453565D02*
G01*
X129298138Y-79465296D01*
X129333777Y-79484346D01*
X129365017Y-79509983D01*
X129390654Y-79541223D01*
X129409704Y-79576862D01*
X129421435Y-79615532D01*
X129426000Y-79661888D01*
X129426000Y-80738112D01*
X129421435Y-80784468D01*
X129409704Y-80823138D01*
X129390654Y-80858777D01*
X129365017Y-80890017D01*
X129333777Y-80915654D01*
X129298138Y-80934704D01*
X129259468Y-80946435D01*
X129213112Y-80951000D01*
X128561888Y-80951000D01*
X128515532Y-80946435D01*
X128476862Y-80934704D01*
X128441223Y-80915654D01*
X128409983Y-80890017D01*
X128384346Y-80858777D01*
X128365296Y-80823138D01*
X128353565Y-80784468D01*
X128349000Y-80738112D01*
X128349000Y-79661888D01*
X128353565Y-79615532D01*
X128365296Y-79576862D01*
X128384346Y-79541223D01*
X128409983Y-79509983D01*
X128441223Y-79484346D01*
X128476862Y-79465296D01*
X128515532Y-79453565D01*
X128561888Y-79449000D01*
X129213112Y-79449000D01*
X129259468Y-79453565D01*
X129259468Y-79453565D01*
G37*
G36*
X125479591Y-79528085D02*
G01*
X125513569Y-79538393D01*
X125544890Y-79555134D01*
X125572339Y-79577661D01*
X125594866Y-79605110D01*
X125611607Y-79636431D01*
X125621915Y-79670409D01*
X125626000Y-79711890D01*
X125626000Y-80313110D01*
X125621915Y-80354591D01*
X125611607Y-80388569D01*
X125594866Y-80419890D01*
X125572339Y-80447339D01*
X125544890Y-80469866D01*
X125513569Y-80486607D01*
X125479591Y-80496915D01*
X125438110Y-80501000D01*
X124761890Y-80501000D01*
X124720409Y-80496915D01*
X124686431Y-80486607D01*
X124655110Y-80469866D01*
X124627661Y-80447339D01*
X124605134Y-80419890D01*
X124588393Y-80388569D01*
X124578085Y-80354591D01*
X124574000Y-80313110D01*
X124574000Y-79711890D01*
X124578085Y-79670409D01*
X124588393Y-79636431D01*
X124605134Y-79605110D01*
X124627661Y-79577661D01*
X124655110Y-79555134D01*
X124686431Y-79538393D01*
X124720409Y-79528085D01*
X124761890Y-79524000D01*
X125438110Y-79524000D01*
X125479591Y-79528085D01*
X125479591Y-79528085D01*
G37*
G36*
X152654591Y-79178085D02*
G01*
X152688569Y-79188393D01*
X152719890Y-79205134D01*
X152747339Y-79227661D01*
X152769866Y-79255110D01*
X152786607Y-79286431D01*
X152796915Y-79320409D01*
X152801000Y-79361890D01*
X152801000Y-80038110D01*
X152796915Y-80079591D01*
X152786607Y-80113569D01*
X152769866Y-80144890D01*
X152747339Y-80172339D01*
X152719890Y-80194866D01*
X152688569Y-80211607D01*
X152654591Y-80221915D01*
X152613110Y-80226000D01*
X152011890Y-80226000D01*
X151970409Y-80221915D01*
X151936431Y-80211607D01*
X151905110Y-80194866D01*
X151877661Y-80172339D01*
X151855134Y-80144890D01*
X151838393Y-80113569D01*
X151828085Y-80079591D01*
X151824000Y-80038110D01*
X151824000Y-79361890D01*
X151828085Y-79320409D01*
X151838393Y-79286431D01*
X151855134Y-79255110D01*
X151877661Y-79227661D01*
X151905110Y-79205134D01*
X151936431Y-79188393D01*
X151970409Y-79178085D01*
X152011890Y-79174000D01*
X152613110Y-79174000D01*
X152654591Y-79178085D01*
X152654591Y-79178085D01*
G37*
G36*
X154229591Y-79178085D02*
G01*
X154263569Y-79188393D01*
X154294890Y-79205134D01*
X154322339Y-79227661D01*
X154344866Y-79255110D01*
X154361607Y-79286431D01*
X154371915Y-79320409D01*
X154376000Y-79361890D01*
X154376000Y-80038110D01*
X154371915Y-80079591D01*
X154361607Y-80113569D01*
X154344866Y-80144890D01*
X154322339Y-80172339D01*
X154294890Y-80194866D01*
X154263569Y-80211607D01*
X154229591Y-80221915D01*
X154188110Y-80226000D01*
X153586890Y-80226000D01*
X153545409Y-80221915D01*
X153511431Y-80211607D01*
X153480110Y-80194866D01*
X153452661Y-80172339D01*
X153430134Y-80144890D01*
X153413393Y-80113569D01*
X153403085Y-80079591D01*
X153399000Y-80038110D01*
X153399000Y-79361890D01*
X153403085Y-79320409D01*
X153413393Y-79286431D01*
X153430134Y-79255110D01*
X153452661Y-79227661D01*
X153480110Y-79205134D01*
X153511431Y-79188393D01*
X153545409Y-79178085D01*
X153586890Y-79174000D01*
X154188110Y-79174000D01*
X154229591Y-79178085D01*
X154229591Y-79178085D01*
G37*
G36*
X135801000Y-79051000D02*
G01*
X132699000Y-79051000D01*
X132699000Y-77549000D01*
X135801000Y-77549000D01*
X135801000Y-79051000D01*
X135801000Y-79051000D01*
G37*
G36*
X141101000Y-79051000D02*
G01*
X137999000Y-79051000D01*
X137999000Y-77549000D01*
X141101000Y-77549000D01*
X141101000Y-79051000D01*
X141101000Y-79051000D01*
G37*
G36*
X131884468Y-77903565D02*
G01*
X131923138Y-77915296D01*
X131958777Y-77934346D01*
X131990017Y-77959983D01*
X132015654Y-77991223D01*
X132034704Y-78026862D01*
X132046435Y-78065532D01*
X132051000Y-78111888D01*
X132051000Y-78763112D01*
X132046435Y-78809468D01*
X132034704Y-78848138D01*
X132015654Y-78883777D01*
X131990017Y-78915017D01*
X131958777Y-78940654D01*
X131923138Y-78959704D01*
X131884468Y-78971435D01*
X131838112Y-78976000D01*
X130761888Y-78976000D01*
X130715532Y-78971435D01*
X130676862Y-78959704D01*
X130641223Y-78940654D01*
X130609983Y-78915017D01*
X130584346Y-78883777D01*
X130565296Y-78848138D01*
X130553565Y-78809468D01*
X130549000Y-78763112D01*
X130549000Y-78111888D01*
X130553565Y-78065532D01*
X130565296Y-78026862D01*
X130584346Y-77991223D01*
X130609983Y-77959983D01*
X130641223Y-77934346D01*
X130676862Y-77915296D01*
X130715532Y-77903565D01*
X130761888Y-77899000D01*
X131838112Y-77899000D01*
X131884468Y-77903565D01*
X131884468Y-77903565D01*
G37*
G36*
X142979591Y-77690585D02*
G01*
X143013569Y-77700893D01*
X143044890Y-77717634D01*
X143072339Y-77740161D01*
X143094866Y-77767610D01*
X143111607Y-77798931D01*
X143121915Y-77832909D01*
X143126000Y-77874390D01*
X143126000Y-78475610D01*
X143121915Y-78517091D01*
X143111607Y-78551069D01*
X143094866Y-78582390D01*
X143072339Y-78609839D01*
X143044890Y-78632366D01*
X143013569Y-78649107D01*
X142979591Y-78659415D01*
X142938110Y-78663500D01*
X142261890Y-78663500D01*
X142220409Y-78659415D01*
X142186431Y-78649107D01*
X142155110Y-78632366D01*
X142127661Y-78609839D01*
X142105134Y-78582390D01*
X142088393Y-78551069D01*
X142078085Y-78517091D01*
X142074000Y-78475610D01*
X142074000Y-77874390D01*
X142078085Y-77832909D01*
X142088393Y-77798931D01*
X142105134Y-77767610D01*
X142127661Y-77740161D01*
X142155110Y-77717634D01*
X142186431Y-77700893D01*
X142220409Y-77690585D01*
X142261890Y-77686500D01*
X142938110Y-77686500D01*
X142979591Y-77690585D01*
X142979591Y-77690585D01*
G37*
G36*
X120110442Y-76725518D02*
G01*
X120176627Y-76732037D01*
X120346466Y-76783557D01*
X120502991Y-76867222D01*
X120528445Y-76888112D01*
X120640186Y-76979814D01*
X120703830Y-77057366D01*
X120752778Y-77117009D01*
X120836443Y-77273534D01*
X120887963Y-77443373D01*
X120905359Y-77620000D01*
X120887963Y-77796627D01*
X120836443Y-77966466D01*
X120752778Y-78122991D01*
X120735331Y-78144250D01*
X120640186Y-78260186D01*
X120542910Y-78340017D01*
X120502991Y-78372778D01*
X120346466Y-78456443D01*
X120176627Y-78507963D01*
X120110443Y-78514481D01*
X120044260Y-78521000D01*
X119955740Y-78521000D01*
X119889557Y-78514481D01*
X119823373Y-78507963D01*
X119653534Y-78456443D01*
X119497009Y-78372778D01*
X119457090Y-78340017D01*
X119359814Y-78260186D01*
X119264669Y-78144250D01*
X119247222Y-78122991D01*
X119163557Y-77966466D01*
X119112037Y-77796627D01*
X119094641Y-77620000D01*
X119112037Y-77443373D01*
X119163557Y-77273534D01*
X119247222Y-77117009D01*
X119296170Y-77057366D01*
X119359814Y-76979814D01*
X119471555Y-76888112D01*
X119497009Y-76867222D01*
X119653534Y-76783557D01*
X119823373Y-76732037D01*
X119889558Y-76725518D01*
X119955740Y-76719000D01*
X120044260Y-76719000D01*
X120110442Y-76725518D01*
X120110442Y-76725518D01*
G37*
G36*
X129259468Y-76903565D02*
G01*
X129298138Y-76915296D01*
X129333777Y-76934346D01*
X129365017Y-76959983D01*
X129390654Y-76991223D01*
X129409704Y-77026862D01*
X129421435Y-77065532D01*
X129426000Y-77111888D01*
X129426000Y-78188112D01*
X129421435Y-78234468D01*
X129409704Y-78273138D01*
X129390654Y-78308777D01*
X129365017Y-78340017D01*
X129333777Y-78365654D01*
X129298138Y-78384704D01*
X129259468Y-78396435D01*
X129213112Y-78401000D01*
X128561888Y-78401000D01*
X128515532Y-78396435D01*
X128476862Y-78384704D01*
X128441223Y-78365654D01*
X128409983Y-78340017D01*
X128384346Y-78308777D01*
X128365296Y-78273138D01*
X128353565Y-78234468D01*
X128349000Y-78188112D01*
X128349000Y-77111888D01*
X128353565Y-77065532D01*
X128365296Y-77026862D01*
X128384346Y-76991223D01*
X128409983Y-76959983D01*
X128441223Y-76934346D01*
X128476862Y-76915296D01*
X128515532Y-76903565D01*
X128561888Y-76899000D01*
X129213112Y-76899000D01*
X129259468Y-76903565D01*
X129259468Y-76903565D01*
G37*
G36*
X127384468Y-76903565D02*
G01*
X127423138Y-76915296D01*
X127458777Y-76934346D01*
X127490017Y-76959983D01*
X127515654Y-76991223D01*
X127534704Y-77026862D01*
X127546435Y-77065532D01*
X127551000Y-77111888D01*
X127551000Y-78188112D01*
X127546435Y-78234468D01*
X127534704Y-78273138D01*
X127515654Y-78308777D01*
X127490017Y-78340017D01*
X127458777Y-78365654D01*
X127423138Y-78384704D01*
X127384468Y-78396435D01*
X127338112Y-78401000D01*
X126686888Y-78401000D01*
X126640532Y-78396435D01*
X126601862Y-78384704D01*
X126566223Y-78365654D01*
X126534983Y-78340017D01*
X126509346Y-78308777D01*
X126490296Y-78273138D01*
X126478565Y-78234468D01*
X126474000Y-78188112D01*
X126474000Y-77111888D01*
X126478565Y-77065532D01*
X126490296Y-77026862D01*
X126509346Y-76991223D01*
X126534983Y-76959983D01*
X126566223Y-76934346D01*
X126601862Y-76915296D01*
X126640532Y-76903565D01*
X126686888Y-76899000D01*
X127338112Y-76899000D01*
X127384468Y-76903565D01*
X127384468Y-76903565D01*
G37*
G36*
X125479591Y-77415585D02*
G01*
X125513569Y-77425893D01*
X125544890Y-77442634D01*
X125572339Y-77465161D01*
X125594866Y-77492610D01*
X125611607Y-77523931D01*
X125621915Y-77557909D01*
X125626000Y-77599390D01*
X125626000Y-78200610D01*
X125621915Y-78242091D01*
X125611607Y-78276069D01*
X125594866Y-78307390D01*
X125572339Y-78334839D01*
X125544890Y-78357366D01*
X125513569Y-78374107D01*
X125479591Y-78384415D01*
X125438110Y-78388500D01*
X124761890Y-78388500D01*
X124720409Y-78384415D01*
X124686431Y-78374107D01*
X124655110Y-78357366D01*
X124627661Y-78334839D01*
X124605134Y-78307390D01*
X124588393Y-78276069D01*
X124578085Y-78242091D01*
X124574000Y-78200610D01*
X124574000Y-77599390D01*
X124578085Y-77557909D01*
X124588393Y-77523931D01*
X124605134Y-77492610D01*
X124627661Y-77465161D01*
X124655110Y-77442634D01*
X124686431Y-77425893D01*
X124720409Y-77415585D01*
X124761890Y-77411500D01*
X125438110Y-77411500D01*
X125479591Y-77415585D01*
X125479591Y-77415585D01*
G37*
G36*
X131884468Y-76028565D02*
G01*
X131923138Y-76040296D01*
X131958777Y-76059346D01*
X131990017Y-76084983D01*
X132015654Y-76116223D01*
X132034704Y-76151862D01*
X132046435Y-76190532D01*
X132051000Y-76236888D01*
X132051000Y-76888112D01*
X132046435Y-76934468D01*
X132034704Y-76973138D01*
X132015654Y-77008777D01*
X131990017Y-77040017D01*
X131958777Y-77065654D01*
X131923138Y-77084704D01*
X131884468Y-77096435D01*
X131838112Y-77101000D01*
X130761888Y-77101000D01*
X130715532Y-77096435D01*
X130676862Y-77084704D01*
X130641223Y-77065654D01*
X130609983Y-77040017D01*
X130584346Y-77008777D01*
X130565296Y-76973138D01*
X130553565Y-76934468D01*
X130549000Y-76888112D01*
X130549000Y-76236888D01*
X130553565Y-76190532D01*
X130565296Y-76151862D01*
X130584346Y-76116223D01*
X130609983Y-76084983D01*
X130641223Y-76059346D01*
X130676862Y-76040296D01*
X130715532Y-76028565D01*
X130761888Y-76024000D01*
X131838112Y-76024000D01*
X131884468Y-76028565D01*
X131884468Y-76028565D01*
G37*
G36*
X142979591Y-76115585D02*
G01*
X143013569Y-76125893D01*
X143044890Y-76142634D01*
X143072339Y-76165161D01*
X143094866Y-76192610D01*
X143111607Y-76223931D01*
X143121915Y-76257909D01*
X143126000Y-76299390D01*
X143126000Y-76900610D01*
X143121915Y-76942091D01*
X143111607Y-76976069D01*
X143094866Y-77007390D01*
X143072339Y-77034839D01*
X143044890Y-77057366D01*
X143013569Y-77074107D01*
X142979591Y-77084415D01*
X142938110Y-77088500D01*
X142261890Y-77088500D01*
X142220409Y-77084415D01*
X142186431Y-77074107D01*
X142155110Y-77057366D01*
X142127661Y-77034839D01*
X142105134Y-77007390D01*
X142088393Y-76976069D01*
X142078085Y-76942091D01*
X142074000Y-76900610D01*
X142074000Y-76299390D01*
X142078085Y-76257909D01*
X142088393Y-76223931D01*
X142105134Y-76192610D01*
X142127661Y-76165161D01*
X142155110Y-76142634D01*
X142186431Y-76125893D01*
X142220409Y-76115585D01*
X142261890Y-76111500D01*
X142938110Y-76111500D01*
X142979591Y-76115585D01*
X142979591Y-76115585D01*
G37*
G36*
X141101000Y-77051000D02*
G01*
X137999000Y-77051000D01*
X137999000Y-75549000D01*
X141101000Y-75549000D01*
X141101000Y-77051000D01*
X141101000Y-77051000D01*
G37*
G36*
X135801000Y-77051000D02*
G01*
X132699000Y-77051000D01*
X132699000Y-75549000D01*
X135801000Y-75549000D01*
X135801000Y-77051000D01*
X135801000Y-77051000D01*
G37*
G36*
X151001000Y-77001000D02*
G01*
X148399000Y-77001000D01*
X148399000Y-74599000D01*
X151001000Y-74599000D01*
X151001000Y-77001000D01*
X151001000Y-77001000D01*
G37*
G36*
X146701000Y-77001000D02*
G01*
X144099000Y-77001000D01*
X144099000Y-74599000D01*
X146701000Y-74599000D01*
X146701000Y-77001000D01*
X146701000Y-77001000D01*
G37*
G36*
X125479591Y-75840585D02*
G01*
X125513569Y-75850893D01*
X125544890Y-75867634D01*
X125572339Y-75890161D01*
X125594866Y-75917610D01*
X125611607Y-75948931D01*
X125621915Y-75982909D01*
X125626000Y-76024390D01*
X125626000Y-76625610D01*
X125621915Y-76667091D01*
X125611607Y-76701069D01*
X125594866Y-76732390D01*
X125572339Y-76759839D01*
X125544890Y-76782366D01*
X125513569Y-76799107D01*
X125479591Y-76809415D01*
X125438110Y-76813500D01*
X124761890Y-76813500D01*
X124720409Y-76809415D01*
X124686431Y-76799107D01*
X124655110Y-76782366D01*
X124627661Y-76759839D01*
X124605134Y-76732390D01*
X124588393Y-76701069D01*
X124578085Y-76667091D01*
X124574000Y-76625610D01*
X124574000Y-76024390D01*
X124578085Y-75982909D01*
X124588393Y-75948931D01*
X124605134Y-75917610D01*
X124627661Y-75890161D01*
X124655110Y-75867634D01*
X124686431Y-75850893D01*
X124720409Y-75840585D01*
X124761890Y-75836500D01*
X125438110Y-75836500D01*
X125479591Y-75840585D01*
X125479591Y-75840585D01*
G37*
G36*
X120110442Y-74185518D02*
G01*
X120176627Y-74192037D01*
X120346466Y-74243557D01*
X120502991Y-74327222D01*
X120538729Y-74356552D01*
X120640186Y-74439814D01*
X120723448Y-74541271D01*
X120752778Y-74577009D01*
X120836443Y-74733534D01*
X120887963Y-74903373D01*
X120905359Y-75080000D01*
X120887963Y-75256627D01*
X120836443Y-75426466D01*
X120752778Y-75582991D01*
X120723448Y-75618729D01*
X120640186Y-75720186D01*
X120538729Y-75803448D01*
X120502991Y-75832778D01*
X120346466Y-75916443D01*
X120176627Y-75967963D01*
X120110442Y-75974482D01*
X120044260Y-75981000D01*
X119955740Y-75981000D01*
X119889558Y-75974482D01*
X119823373Y-75967963D01*
X119653534Y-75916443D01*
X119497009Y-75832778D01*
X119461271Y-75803448D01*
X119359814Y-75720186D01*
X119276552Y-75618729D01*
X119247222Y-75582991D01*
X119163557Y-75426466D01*
X119112037Y-75256627D01*
X119094641Y-75080000D01*
X119112037Y-74903373D01*
X119163557Y-74733534D01*
X119247222Y-74577009D01*
X119276552Y-74541271D01*
X119359814Y-74439814D01*
X119461271Y-74356552D01*
X119497009Y-74327222D01*
X119653534Y-74243557D01*
X119823373Y-74192037D01*
X119889558Y-74185518D01*
X119955740Y-74179000D01*
X120044260Y-74179000D01*
X120110442Y-74185518D01*
X120110442Y-74185518D01*
G37*
G36*
X120110442Y-71645518D02*
G01*
X120176627Y-71652037D01*
X120346466Y-71703557D01*
X120502991Y-71787222D01*
X120538729Y-71816552D01*
X120640186Y-71899814D01*
X120723226Y-72001000D01*
X120752778Y-72037009D01*
X120836443Y-72193534D01*
X120887963Y-72363373D01*
X120905359Y-72540000D01*
X120887963Y-72716627D01*
X120836443Y-72886466D01*
X120752778Y-73042991D01*
X120723448Y-73078729D01*
X120640186Y-73180186D01*
X120538729Y-73263448D01*
X120502991Y-73292778D01*
X120346466Y-73376443D01*
X120176627Y-73427963D01*
X120110442Y-73434482D01*
X120044260Y-73441000D01*
X119955740Y-73441000D01*
X119889558Y-73434482D01*
X119823373Y-73427963D01*
X119653534Y-73376443D01*
X119497009Y-73292778D01*
X119461271Y-73263448D01*
X119359814Y-73180186D01*
X119276552Y-73078729D01*
X119247222Y-73042991D01*
X119163557Y-72886466D01*
X119112037Y-72716627D01*
X119094641Y-72540000D01*
X119112037Y-72363373D01*
X119163557Y-72193534D01*
X119247222Y-72037009D01*
X119276774Y-72001000D01*
X119359814Y-71899814D01*
X119461271Y-71816552D01*
X119497009Y-71787222D01*
X119653534Y-71703557D01*
X119823373Y-71652037D01*
X119889558Y-71645518D01*
X119955740Y-71639000D01*
X120044260Y-71639000D01*
X120110442Y-71645518D01*
X120110442Y-71645518D01*
G37*
G36*
X146651000Y-72001000D02*
G01*
X144049000Y-72001000D01*
X144049000Y-69599000D01*
X146651000Y-69599000D01*
X146651000Y-72001000D01*
X146651000Y-72001000D01*
G37*
G36*
X150951000Y-72001000D02*
G01*
X148349000Y-72001000D01*
X148349000Y-69599000D01*
X150951000Y-69599000D01*
X150951000Y-72001000D01*
X150951000Y-72001000D01*
G37*
G36*
X129141591Y-70578085D02*
G01*
X129175569Y-70588393D01*
X129206890Y-70605134D01*
X129234339Y-70627661D01*
X129256866Y-70655110D01*
X129273607Y-70686431D01*
X129283915Y-70720409D01*
X129288000Y-70761890D01*
X129288000Y-71438110D01*
X129283915Y-71479591D01*
X129273607Y-71513569D01*
X129256866Y-71544890D01*
X129234339Y-71572339D01*
X129206890Y-71594866D01*
X129175569Y-71611607D01*
X129141591Y-71621915D01*
X129100110Y-71626000D01*
X128498890Y-71626000D01*
X128457409Y-71621915D01*
X128423431Y-71611607D01*
X128392110Y-71594866D01*
X128364661Y-71572339D01*
X128342134Y-71544890D01*
X128325393Y-71513569D01*
X128315085Y-71479591D01*
X128311000Y-71438110D01*
X128311000Y-70761890D01*
X128315085Y-70720409D01*
X128325393Y-70686431D01*
X128342134Y-70655110D01*
X128364661Y-70627661D01*
X128392110Y-70605134D01*
X128423431Y-70588393D01*
X128457409Y-70578085D01*
X128498890Y-70574000D01*
X129100110Y-70574000D01*
X129141591Y-70578085D01*
X129141591Y-70578085D01*
G37*
G36*
X127566591Y-70578085D02*
G01*
X127600569Y-70588393D01*
X127631890Y-70605134D01*
X127659339Y-70627661D01*
X127681866Y-70655110D01*
X127698607Y-70686431D01*
X127708915Y-70720409D01*
X127713000Y-70761890D01*
X127713000Y-71438110D01*
X127708915Y-71479591D01*
X127698607Y-71513569D01*
X127681866Y-71544890D01*
X127659339Y-71572339D01*
X127631890Y-71594866D01*
X127600569Y-71611607D01*
X127566591Y-71621915D01*
X127525110Y-71626000D01*
X126923890Y-71626000D01*
X126882409Y-71621915D01*
X126848431Y-71611607D01*
X126817110Y-71594866D01*
X126789661Y-71572339D01*
X126767134Y-71544890D01*
X126750393Y-71513569D01*
X126740085Y-71479591D01*
X126736000Y-71438110D01*
X126736000Y-70761890D01*
X126740085Y-70720409D01*
X126750393Y-70686431D01*
X126767134Y-70655110D01*
X126789661Y-70627661D01*
X126817110Y-70605134D01*
X126848431Y-70588393D01*
X126882409Y-70578085D01*
X126923890Y-70574000D01*
X127525110Y-70574000D01*
X127566591Y-70578085D01*
X127566591Y-70578085D01*
G37*
G36*
X153242591Y-69878085D02*
G01*
X153276569Y-69888393D01*
X153307890Y-69905134D01*
X153335339Y-69927661D01*
X153357866Y-69955110D01*
X153374607Y-69986431D01*
X153384915Y-70020409D01*
X153389000Y-70061890D01*
X153389000Y-70738110D01*
X153384915Y-70779591D01*
X153374607Y-70813569D01*
X153357866Y-70844890D01*
X153335339Y-70872339D01*
X153307890Y-70894866D01*
X153276569Y-70911607D01*
X153242591Y-70921915D01*
X153201110Y-70926000D01*
X152599890Y-70926000D01*
X152558409Y-70921915D01*
X152524431Y-70911607D01*
X152493110Y-70894866D01*
X152465661Y-70872339D01*
X152443134Y-70844890D01*
X152426393Y-70813569D01*
X152416085Y-70779591D01*
X152412000Y-70738110D01*
X152412000Y-70061890D01*
X152416085Y-70020409D01*
X152426393Y-69986431D01*
X152443134Y-69955110D01*
X152465661Y-69927661D01*
X152493110Y-69905134D01*
X152524431Y-69888393D01*
X152558409Y-69878085D01*
X152599890Y-69874000D01*
X153201110Y-69874000D01*
X153242591Y-69878085D01*
X153242591Y-69878085D01*
G37*
G36*
X154817591Y-69878085D02*
G01*
X154851569Y-69888393D01*
X154882890Y-69905134D01*
X154910339Y-69927661D01*
X154932866Y-69955110D01*
X154949607Y-69986431D01*
X154959915Y-70020409D01*
X154964000Y-70061890D01*
X154964000Y-70738110D01*
X154959915Y-70779591D01*
X154949607Y-70813569D01*
X154932866Y-70844890D01*
X154910339Y-70872339D01*
X154882890Y-70894866D01*
X154851569Y-70911607D01*
X154817591Y-70921915D01*
X154776110Y-70926000D01*
X154174890Y-70926000D01*
X154133409Y-70921915D01*
X154099431Y-70911607D01*
X154068110Y-70894866D01*
X154040661Y-70872339D01*
X154018134Y-70844890D01*
X154001393Y-70813569D01*
X153991085Y-70779591D01*
X153987000Y-70738110D01*
X153987000Y-70061890D01*
X153991085Y-70020409D01*
X154001393Y-69986431D01*
X154018134Y-69955110D01*
X154040661Y-69927661D01*
X154068110Y-69905134D01*
X154099431Y-69888393D01*
X154133409Y-69878085D01*
X154174890Y-69874000D01*
X154776110Y-69874000D01*
X154817591Y-69878085D01*
X154817591Y-69878085D01*
G37*
G36*
X120901000Y-70901000D02*
G01*
X119099000Y-70901000D01*
X119099000Y-69099000D01*
X120901000Y-69099000D01*
X120901000Y-70901000D01*
X120901000Y-70901000D01*
G37*
G36*
X127542591Y-68978085D02*
G01*
X127576569Y-68988393D01*
X127607890Y-69005134D01*
X127635339Y-69027661D01*
X127657866Y-69055110D01*
X127674607Y-69086431D01*
X127684915Y-69120409D01*
X127689000Y-69161890D01*
X127689000Y-69838110D01*
X127684915Y-69879591D01*
X127674607Y-69913569D01*
X127657866Y-69944890D01*
X127635339Y-69972339D01*
X127607890Y-69994866D01*
X127576569Y-70011607D01*
X127542591Y-70021915D01*
X127501110Y-70026000D01*
X126899890Y-70026000D01*
X126858409Y-70021915D01*
X126824431Y-70011607D01*
X126793110Y-69994866D01*
X126765661Y-69972339D01*
X126743134Y-69944890D01*
X126726393Y-69913569D01*
X126716085Y-69879591D01*
X126712000Y-69838110D01*
X126712000Y-69161890D01*
X126716085Y-69120409D01*
X126726393Y-69086431D01*
X126743134Y-69055110D01*
X126765661Y-69027661D01*
X126793110Y-69005134D01*
X126824431Y-68988393D01*
X126858409Y-68978085D01*
X126899890Y-68974000D01*
X127501110Y-68974000D01*
X127542591Y-68978085D01*
X127542591Y-68978085D01*
G37*
G36*
X129117591Y-68978085D02*
G01*
X129151569Y-68988393D01*
X129182890Y-69005134D01*
X129210339Y-69027661D01*
X129232866Y-69055110D01*
X129249607Y-69086431D01*
X129259915Y-69120409D01*
X129264000Y-69161890D01*
X129264000Y-69838110D01*
X129259915Y-69879591D01*
X129249607Y-69913569D01*
X129232866Y-69944890D01*
X129210339Y-69972339D01*
X129182890Y-69994866D01*
X129151569Y-70011607D01*
X129117591Y-70021915D01*
X129076110Y-70026000D01*
X128474890Y-70026000D01*
X128433409Y-70021915D01*
X128399431Y-70011607D01*
X128368110Y-69994866D01*
X128340661Y-69972339D01*
X128318134Y-69944890D01*
X128301393Y-69913569D01*
X128291085Y-69879591D01*
X128287000Y-69838110D01*
X128287000Y-69161890D01*
X128291085Y-69120409D01*
X128301393Y-69086431D01*
X128318134Y-69055110D01*
X128340661Y-69027661D01*
X128368110Y-69005134D01*
X128399431Y-68988393D01*
X128433409Y-68978085D01*
X128474890Y-68974000D01*
X129076110Y-68974000D01*
X129117591Y-68978085D01*
X129117591Y-68978085D01*
G37*
G36*
X135801000Y-69551000D02*
G01*
X132699000Y-69551000D01*
X132699000Y-68049000D01*
X135801000Y-68049000D01*
X135801000Y-69551000D01*
X135801000Y-69551000D01*
G37*
G36*
X141101000Y-69551000D02*
G01*
X137999000Y-69551000D01*
X137999000Y-68049000D01*
X141101000Y-68049000D01*
X141101000Y-69551000D01*
X141101000Y-69551000D01*
G37*
G36*
X131784468Y-68341065D02*
G01*
X131823138Y-68352796D01*
X131858777Y-68371846D01*
X131890017Y-68397483D01*
X131915654Y-68428723D01*
X131934704Y-68464362D01*
X131946435Y-68503032D01*
X131951000Y-68549388D01*
X131951000Y-69200612D01*
X131946435Y-69246968D01*
X131934704Y-69285638D01*
X131915654Y-69321277D01*
X131890017Y-69352517D01*
X131858777Y-69378154D01*
X131823138Y-69397204D01*
X131784468Y-69408935D01*
X131738112Y-69413500D01*
X130661888Y-69413500D01*
X130615532Y-69408935D01*
X130576862Y-69397204D01*
X130541223Y-69378154D01*
X130509983Y-69352517D01*
X130484346Y-69321277D01*
X130465296Y-69285638D01*
X130453565Y-69246968D01*
X130449000Y-69200612D01*
X130449000Y-68549388D01*
X130453565Y-68503032D01*
X130465296Y-68464362D01*
X130484346Y-68428723D01*
X130509983Y-68397483D01*
X130541223Y-68371846D01*
X130576862Y-68352796D01*
X130615532Y-68341065D01*
X130661888Y-68336500D01*
X131738112Y-68336500D01*
X131784468Y-68341065D01*
X131784468Y-68341065D01*
G37*
G36*
X153334468Y-67753565D02*
G01*
X153373138Y-67765296D01*
X153408777Y-67784346D01*
X153440017Y-67809983D01*
X153465654Y-67841223D01*
X153484704Y-67876862D01*
X153496435Y-67915532D01*
X153501000Y-67961888D01*
X153501000Y-69038112D01*
X153496435Y-69084468D01*
X153484704Y-69123138D01*
X153465654Y-69158777D01*
X153440017Y-69190017D01*
X153408777Y-69215654D01*
X153373138Y-69234704D01*
X153334468Y-69246435D01*
X153288112Y-69251000D01*
X152636888Y-69251000D01*
X152590532Y-69246435D01*
X152551862Y-69234704D01*
X152516223Y-69215654D01*
X152484983Y-69190017D01*
X152459346Y-69158777D01*
X152440296Y-69123138D01*
X152428565Y-69084468D01*
X152424000Y-69038112D01*
X152424000Y-67961888D01*
X152428565Y-67915532D01*
X152440296Y-67876862D01*
X152459346Y-67841223D01*
X152484983Y-67809983D01*
X152516223Y-67784346D01*
X152551862Y-67765296D01*
X152590532Y-67753565D01*
X152636888Y-67749000D01*
X153288112Y-67749000D01*
X153334468Y-67753565D01*
X153334468Y-67753565D01*
G37*
G36*
X155209468Y-67753565D02*
G01*
X155248138Y-67765296D01*
X155283777Y-67784346D01*
X155315017Y-67809983D01*
X155340654Y-67841223D01*
X155359704Y-67876862D01*
X155371435Y-67915532D01*
X155376000Y-67961888D01*
X155376000Y-69038112D01*
X155371435Y-69084468D01*
X155359704Y-69123138D01*
X155340654Y-69158777D01*
X155315017Y-69190017D01*
X155283777Y-69215654D01*
X155248138Y-69234704D01*
X155209468Y-69246435D01*
X155163112Y-69251000D01*
X154511888Y-69251000D01*
X154465532Y-69246435D01*
X154426862Y-69234704D01*
X154391223Y-69215654D01*
X154359983Y-69190017D01*
X154334346Y-69158777D01*
X154315296Y-69123138D01*
X154303565Y-69084468D01*
X154299000Y-69038112D01*
X154299000Y-67961888D01*
X154303565Y-67915532D01*
X154315296Y-67876862D01*
X154334346Y-67841223D01*
X154359983Y-67809983D01*
X154391223Y-67784346D01*
X154426862Y-67765296D01*
X154465532Y-67753565D01*
X154511888Y-67749000D01*
X155163112Y-67749000D01*
X155209468Y-67753565D01*
X155209468Y-67753565D01*
G37*
G36*
X142979591Y-68115585D02*
G01*
X143013569Y-68125893D01*
X143044890Y-68142634D01*
X143072339Y-68165161D01*
X143094866Y-68192610D01*
X143111607Y-68223931D01*
X143121915Y-68257909D01*
X143126000Y-68299390D01*
X143126000Y-68900610D01*
X143121915Y-68942091D01*
X143111607Y-68976069D01*
X143094866Y-69007390D01*
X143072339Y-69034839D01*
X143044890Y-69057366D01*
X143013569Y-69074107D01*
X142979591Y-69084415D01*
X142938110Y-69088500D01*
X142261890Y-69088500D01*
X142220409Y-69084415D01*
X142186431Y-69074107D01*
X142155110Y-69057366D01*
X142127661Y-69034839D01*
X142105134Y-69007390D01*
X142088393Y-68976069D01*
X142078085Y-68942091D01*
X142074000Y-68900610D01*
X142074000Y-68299390D01*
X142078085Y-68257909D01*
X142088393Y-68223931D01*
X142105134Y-68192610D01*
X142127661Y-68165161D01*
X142155110Y-68142634D01*
X142186431Y-68125893D01*
X142220409Y-68115585D01*
X142261890Y-68111500D01*
X142938110Y-68111500D01*
X142979591Y-68115585D01*
X142979591Y-68115585D01*
G37*
G36*
X129371468Y-66553565D02*
G01*
X129410138Y-66565296D01*
X129445777Y-66584346D01*
X129477017Y-66609983D01*
X129502654Y-66641223D01*
X129521704Y-66676862D01*
X129533435Y-66715532D01*
X129538000Y-66761888D01*
X129538000Y-67838112D01*
X129533435Y-67884468D01*
X129521704Y-67923138D01*
X129502654Y-67958777D01*
X129477017Y-67990017D01*
X129445777Y-68015654D01*
X129410138Y-68034704D01*
X129371468Y-68046435D01*
X129325112Y-68051000D01*
X128673888Y-68051000D01*
X128627532Y-68046435D01*
X128588862Y-68034704D01*
X128553223Y-68015654D01*
X128521983Y-67990017D01*
X128496346Y-67958777D01*
X128477296Y-67923138D01*
X128465565Y-67884468D01*
X128461000Y-67838112D01*
X128461000Y-66761888D01*
X128465565Y-66715532D01*
X128477296Y-66676862D01*
X128496346Y-66641223D01*
X128521983Y-66609983D01*
X128553223Y-66584346D01*
X128588862Y-66565296D01*
X128627532Y-66553565D01*
X128673888Y-66549000D01*
X129325112Y-66549000D01*
X129371468Y-66553565D01*
X129371468Y-66553565D01*
G37*
G36*
X127496468Y-66553565D02*
G01*
X127535138Y-66565296D01*
X127570777Y-66584346D01*
X127602017Y-66609983D01*
X127627654Y-66641223D01*
X127646704Y-66676862D01*
X127658435Y-66715532D01*
X127663000Y-66761888D01*
X127663000Y-67838112D01*
X127658435Y-67884468D01*
X127646704Y-67923138D01*
X127627654Y-67958777D01*
X127602017Y-67990017D01*
X127570777Y-68015654D01*
X127535138Y-68034704D01*
X127496468Y-68046435D01*
X127450112Y-68051000D01*
X126798888Y-68051000D01*
X126752532Y-68046435D01*
X126713862Y-68034704D01*
X126678223Y-68015654D01*
X126646983Y-67990017D01*
X126621346Y-67958777D01*
X126602296Y-67923138D01*
X126590565Y-67884468D01*
X126586000Y-67838112D01*
X126586000Y-66761888D01*
X126590565Y-66715532D01*
X126602296Y-66676862D01*
X126621346Y-66641223D01*
X126646983Y-66609983D01*
X126678223Y-66584346D01*
X126713862Y-66565296D01*
X126752532Y-66553565D01*
X126798888Y-66549000D01*
X127450112Y-66549000D01*
X127496468Y-66553565D01*
X127496468Y-66553565D01*
G37*
G36*
X141101000Y-67551000D02*
G01*
X137999000Y-67551000D01*
X137999000Y-66049000D01*
X141101000Y-66049000D01*
X141101000Y-67551000D01*
X141101000Y-67551000D01*
G37*
G36*
X135801000Y-67551000D02*
G01*
X132699000Y-67551000D01*
X132699000Y-66049000D01*
X135801000Y-66049000D01*
X135801000Y-67551000D01*
X135801000Y-67551000D01*
G37*
G36*
X131784468Y-66466065D02*
G01*
X131823138Y-66477796D01*
X131858777Y-66496846D01*
X131890017Y-66522483D01*
X131915654Y-66553723D01*
X131934704Y-66589362D01*
X131946435Y-66628032D01*
X131951000Y-66674388D01*
X131951000Y-67325612D01*
X131946435Y-67371968D01*
X131934704Y-67410638D01*
X131915654Y-67446277D01*
X131890017Y-67477517D01*
X131858777Y-67503154D01*
X131823138Y-67522204D01*
X131784468Y-67533935D01*
X131738112Y-67538500D01*
X130661888Y-67538500D01*
X130615532Y-67533935D01*
X130576862Y-67522204D01*
X130541223Y-67503154D01*
X130509983Y-67477517D01*
X130484346Y-67446277D01*
X130465296Y-67410638D01*
X130453565Y-67371968D01*
X130449000Y-67325612D01*
X130449000Y-66674388D01*
X130453565Y-66628032D01*
X130465296Y-66589362D01*
X130484346Y-66553723D01*
X130509983Y-66522483D01*
X130541223Y-66496846D01*
X130576862Y-66477796D01*
X130615532Y-66466065D01*
X130661888Y-66461500D01*
X131738112Y-66461500D01*
X131784468Y-66466065D01*
X131784468Y-66466065D01*
G37*
G36*
X142979591Y-66540585D02*
G01*
X143013569Y-66550893D01*
X143044890Y-66567634D01*
X143072339Y-66590161D01*
X143094866Y-66617610D01*
X143111607Y-66648931D01*
X143121915Y-66682909D01*
X143126000Y-66724390D01*
X143126000Y-67325610D01*
X143121915Y-67367091D01*
X143111607Y-67401069D01*
X143094866Y-67432390D01*
X143072339Y-67459839D01*
X143044890Y-67482366D01*
X143013569Y-67499107D01*
X142979591Y-67509415D01*
X142938110Y-67513500D01*
X142261890Y-67513500D01*
X142220409Y-67509415D01*
X142186431Y-67499107D01*
X142155110Y-67482366D01*
X142127661Y-67459839D01*
X142105134Y-67432390D01*
X142088393Y-67401069D01*
X142078085Y-67367091D01*
X142074000Y-67325610D01*
X142074000Y-66724390D01*
X142078085Y-66682909D01*
X142088393Y-66648931D01*
X142105134Y-66617610D01*
X142127661Y-66590161D01*
X142155110Y-66567634D01*
X142186431Y-66550893D01*
X142220409Y-66540585D01*
X142261890Y-66536500D01*
X142938110Y-66536500D01*
X142979591Y-66540585D01*
X142979591Y-66540585D01*
G37*
G36*
X153242591Y-65978085D02*
G01*
X153276569Y-65988393D01*
X153307890Y-66005134D01*
X153335339Y-66027661D01*
X153357866Y-66055110D01*
X153374607Y-66086431D01*
X153384915Y-66120409D01*
X153389000Y-66161890D01*
X153389000Y-66838110D01*
X153384915Y-66879591D01*
X153374607Y-66913569D01*
X153357866Y-66944890D01*
X153335339Y-66972339D01*
X153307890Y-66994866D01*
X153276569Y-67011607D01*
X153242591Y-67021915D01*
X153201110Y-67026000D01*
X152599890Y-67026000D01*
X152558409Y-67021915D01*
X152524431Y-67011607D01*
X152493110Y-66994866D01*
X152465661Y-66972339D01*
X152443134Y-66944890D01*
X152426393Y-66913569D01*
X152416085Y-66879591D01*
X152412000Y-66838110D01*
X152412000Y-66161890D01*
X152416085Y-66120409D01*
X152426393Y-66086431D01*
X152443134Y-66055110D01*
X152465661Y-66027661D01*
X152493110Y-66005134D01*
X152524431Y-65988393D01*
X152558409Y-65978085D01*
X152599890Y-65974000D01*
X153201110Y-65974000D01*
X153242591Y-65978085D01*
X153242591Y-65978085D01*
G37*
G36*
X154817591Y-65978085D02*
G01*
X154851569Y-65988393D01*
X154882890Y-66005134D01*
X154910339Y-66027661D01*
X154932866Y-66055110D01*
X154949607Y-66086431D01*
X154959915Y-66120409D01*
X154964000Y-66161890D01*
X154964000Y-66838110D01*
X154959915Y-66879591D01*
X154949607Y-66913569D01*
X154932866Y-66944890D01*
X154910339Y-66972339D01*
X154882890Y-66994866D01*
X154851569Y-67011607D01*
X154817591Y-67021915D01*
X154776110Y-67026000D01*
X154174890Y-67026000D01*
X154133409Y-67021915D01*
X154099431Y-67011607D01*
X154068110Y-66994866D01*
X154040661Y-66972339D01*
X154018134Y-66944890D01*
X154001393Y-66913569D01*
X153991085Y-66879591D01*
X153987000Y-66838110D01*
X153987000Y-66161890D01*
X153991085Y-66120409D01*
X154001393Y-66086431D01*
X154018134Y-66055110D01*
X154040661Y-66027661D01*
X154068110Y-66005134D01*
X154099431Y-65988393D01*
X154133409Y-65978085D01*
X154174890Y-65974000D01*
X154776110Y-65974000D01*
X154817591Y-65978085D01*
X154817591Y-65978085D01*
G37*
G36*
X146651000Y-67001000D02*
G01*
X144049000Y-67001000D01*
X144049000Y-64599000D01*
X146651000Y-64599000D01*
X146651000Y-67001000D01*
X146651000Y-67001000D01*
G37*
G36*
X150951000Y-67001000D02*
G01*
X148349000Y-67001000D01*
X148349000Y-64599000D01*
X150951000Y-64599000D01*
X150951000Y-67001000D01*
X150951000Y-67001000D01*
G37*
G36*
X121375256Y-62391298D02*
G01*
X121481579Y-62412447D01*
X121782042Y-62536903D01*
X122052451Y-62717585D01*
X122282415Y-62947549D01*
X122282416Y-62947551D01*
X122463098Y-63217960D01*
X122587553Y-63518422D01*
X122649105Y-63827861D01*
X122651000Y-63837391D01*
X122651000Y-64162609D01*
X122587553Y-64481579D01*
X122463097Y-64782042D01*
X122282415Y-65052451D01*
X122052451Y-65282415D01*
X121782042Y-65463097D01*
X121481579Y-65587553D01*
X121375256Y-65608702D01*
X121162611Y-65651000D01*
X120837389Y-65651000D01*
X120624744Y-65608702D01*
X120518421Y-65587553D01*
X120217958Y-65463097D01*
X119947549Y-65282415D01*
X119717585Y-65052451D01*
X119536903Y-64782042D01*
X119412447Y-64481579D01*
X119349000Y-64162609D01*
X119349000Y-63837391D01*
X119350896Y-63827861D01*
X119412447Y-63518422D01*
X119536902Y-63217960D01*
X119717584Y-62947551D01*
X119717585Y-62947549D01*
X119947549Y-62717585D01*
X120217958Y-62536903D01*
X120518421Y-62412447D01*
X120624744Y-62391298D01*
X120837389Y-62349000D01*
X121162611Y-62349000D01*
X121375256Y-62391298D01*
X121375256Y-62391298D01*
G37*
G36*
X155209468Y-63753565D02*
G01*
X155248138Y-63765296D01*
X155283777Y-63784346D01*
X155315017Y-63809983D01*
X155340654Y-63841223D01*
X155359704Y-63876862D01*
X155371435Y-63915532D01*
X155376000Y-63961888D01*
X155376000Y-65038112D01*
X155371435Y-65084468D01*
X155359704Y-65123138D01*
X155340654Y-65158777D01*
X155315017Y-65190017D01*
X155283777Y-65215654D01*
X155248138Y-65234704D01*
X155209468Y-65246435D01*
X155163112Y-65251000D01*
X154511888Y-65251000D01*
X154465532Y-65246435D01*
X154426862Y-65234704D01*
X154391223Y-65215654D01*
X154359983Y-65190017D01*
X154334346Y-65158777D01*
X154315296Y-65123138D01*
X154303565Y-65084468D01*
X154299000Y-65038112D01*
X154299000Y-63961888D01*
X154303565Y-63915532D01*
X154315296Y-63876862D01*
X154334346Y-63841223D01*
X154359983Y-63809983D01*
X154391223Y-63784346D01*
X154426862Y-63765296D01*
X154465532Y-63753565D01*
X154511888Y-63749000D01*
X155163112Y-63749000D01*
X155209468Y-63753565D01*
X155209468Y-63753565D01*
G37*
G36*
X153334468Y-63753565D02*
G01*
X153373138Y-63765296D01*
X153408777Y-63784346D01*
X153440017Y-63809983D01*
X153465654Y-63841223D01*
X153484704Y-63876862D01*
X153496435Y-63915532D01*
X153501000Y-63961888D01*
X153501000Y-65038112D01*
X153496435Y-65084468D01*
X153484704Y-65123138D01*
X153465654Y-65158777D01*
X153440017Y-65190017D01*
X153408777Y-65215654D01*
X153373138Y-65234704D01*
X153334468Y-65246435D01*
X153288112Y-65251000D01*
X152636888Y-65251000D01*
X152590532Y-65246435D01*
X152551862Y-65234704D01*
X152516223Y-65215654D01*
X152484983Y-65190017D01*
X152459346Y-65158777D01*
X152440296Y-65123138D01*
X152428565Y-65084468D01*
X152424000Y-65038112D01*
X152424000Y-63961888D01*
X152428565Y-63915532D01*
X152440296Y-63876862D01*
X152459346Y-63841223D01*
X152484983Y-63809983D01*
X152516223Y-63784346D01*
X152551862Y-63765296D01*
X152590532Y-63753565D01*
X152636888Y-63749000D01*
X153288112Y-63749000D01*
X153334468Y-63753565D01*
X153334468Y-63753565D01*
G37*
M02*
