G04 #@! TF.GenerationSoftware,KiCad,Pcbnew,(5.1.2)-1*
G04 #@! TF.CreationDate,2020-05-04T21:43:22+09:00*
G04 #@! TF.ProjectId,dcdc,64636463-2e6b-4696-9361-645f70636258,v1.2*
G04 #@! TF.SameCoordinates,Original*
G04 #@! TF.FileFunction,Copper,L2,Bot*
G04 #@! TF.FilePolarity,Positive*
%FSLAX46Y46*%
G04 Gerber Fmt 4.6, Leading zero omitted, Abs format (unit mm)*
G04 Created by KiCad (PCBNEW (5.1.2)-1) date 2020-05-04 21:43:22*
%MOMM*%
%LPD*%
G04 APERTURE LIST*
%ADD10O,1.700000X1.700000*%
%ADD11R,1.700000X1.700000*%
%ADD12C,0.800000*%
%ADD13C,0.300000*%
%ADD14C,0.600000*%
%ADD15C,0.254000*%
G04 APERTURE END LIST*
D10*
X120000000Y-80160000D03*
X120000000Y-77620000D03*
X120000000Y-75080000D03*
X120000000Y-72540000D03*
D11*
X120000000Y-70000000D03*
D12*
X151221100Y-78820100D03*
X141412500Y-81790500D03*
X134000000Y-73000000D03*
X127000000Y-63000000D03*
X147900000Y-62600000D03*
X141500000Y-72500000D03*
X153600000Y-73900000D03*
X135900000Y-80600000D03*
X129700000Y-75200000D03*
X146900000Y-79200000D03*
X148200000Y-84700000D03*
X127900000Y-83900000D03*
X123100000Y-76400000D03*
X123200000Y-81700000D03*
X149089600Y-77863000D03*
X134698900Y-71100000D03*
X130088800Y-87722800D03*
X127283300Y-72251600D03*
X143881600Y-88165600D03*
X129586100Y-78929300D03*
D13*
X141412500Y-81790500D02*
X148250700Y-81790500D01*
X148250700Y-81790500D02*
X151221100Y-78820100D01*
X141412500Y-81790500D02*
X131041400Y-71419400D01*
X131041400Y-71419400D02*
X122370900Y-71419400D01*
X122370900Y-71419400D02*
X121250300Y-72540000D01*
X120000000Y-72540000D02*
X121250300Y-72540000D01*
X123100000Y-76400000D02*
X123100000Y-81600000D01*
X123100000Y-81600000D02*
X123200000Y-81700000D01*
D14*
X134698900Y-71100000D02*
X141461900Y-77863000D01*
X141461900Y-77863000D02*
X149089600Y-77863000D01*
D13*
X125591900Y-76330300D02*
X125591900Y-73943000D01*
X125591900Y-83225900D02*
X125591900Y-76330300D01*
X130088800Y-87722800D02*
X125591900Y-83225900D01*
X125591900Y-73943000D02*
X127283300Y-72251600D01*
X120000000Y-75600000D02*
X120000000Y-75080000D01*
X120000000Y-75080000D02*
X124454900Y-75080000D01*
X124454900Y-75080000D02*
X125591900Y-73943000D01*
D14*
X138822400Y-88165600D02*
X143881600Y-88165600D01*
X129586100Y-78929300D02*
X138822400Y-88165600D01*
D15*
G36*
X124806900Y-76368860D02*
G01*
X124806901Y-76368870D01*
X124806900Y-83187347D01*
X124803103Y-83225900D01*
X124806900Y-83264453D01*
X124806900Y-83264460D01*
X124818259Y-83379786D01*
X124863146Y-83527759D01*
X124936038Y-83664132D01*
X125034136Y-83783664D01*
X125064090Y-83808247D01*
X129053800Y-87797958D01*
X129053800Y-87824739D01*
X129093574Y-88024698D01*
X129171595Y-88213056D01*
X129256416Y-88340000D01*
X119032279Y-88340000D01*
X118934576Y-88330420D01*
X118871643Y-88311420D01*
X118813594Y-88280554D01*
X118762657Y-88239011D01*
X118720752Y-88188356D01*
X118689485Y-88130529D01*
X118670044Y-88067728D01*
X118660000Y-87972165D01*
X118660000Y-85779872D01*
X118765000Y-85779872D01*
X118765000Y-86220128D01*
X118850890Y-86651925D01*
X119019369Y-87058669D01*
X119263962Y-87424729D01*
X119575271Y-87736038D01*
X119941331Y-87980631D01*
X120348075Y-88149110D01*
X120779872Y-88235000D01*
X121220128Y-88235000D01*
X121651925Y-88149110D01*
X122058669Y-87980631D01*
X122424729Y-87736038D01*
X122736038Y-87424729D01*
X122980631Y-87058669D01*
X123149110Y-86651925D01*
X123235000Y-86220128D01*
X123235000Y-85779872D01*
X123149110Y-85348075D01*
X122980631Y-84941331D01*
X122736038Y-84575271D01*
X122424729Y-84263962D01*
X122058669Y-84019369D01*
X121651925Y-83850890D01*
X121220128Y-83765000D01*
X120779872Y-83765000D01*
X120348075Y-83850890D01*
X119941331Y-84019369D01*
X119575271Y-84263962D01*
X119263962Y-84575271D01*
X119019369Y-84941331D01*
X118850890Y-85348075D01*
X118765000Y-85779872D01*
X118660000Y-85779872D01*
X118660000Y-80803248D01*
X118759294Y-80989014D01*
X118944866Y-81215134D01*
X119170986Y-81400706D01*
X119428966Y-81538599D01*
X119708889Y-81623513D01*
X119927050Y-81645000D01*
X120072950Y-81645000D01*
X120291111Y-81623513D01*
X120571034Y-81538599D01*
X120829014Y-81400706D01*
X121055134Y-81215134D01*
X121240706Y-80989014D01*
X121378599Y-80731034D01*
X121463513Y-80451111D01*
X121492185Y-80160000D01*
X121463513Y-79868889D01*
X121378599Y-79588966D01*
X121240706Y-79330986D01*
X121055134Y-79104866D01*
X120829014Y-78919294D01*
X120774209Y-78890000D01*
X120829014Y-78860706D01*
X121055134Y-78675134D01*
X121240706Y-78449014D01*
X121378599Y-78191034D01*
X121463513Y-77911111D01*
X121492185Y-77620000D01*
X121463513Y-77328889D01*
X121378599Y-77048966D01*
X121240706Y-76790986D01*
X121055134Y-76564866D01*
X120829014Y-76379294D01*
X120774209Y-76350000D01*
X120829014Y-76320706D01*
X121055134Y-76135134D01*
X121240706Y-75909014D01*
X121264232Y-75865000D01*
X124416347Y-75865000D01*
X124454900Y-75868797D01*
X124493453Y-75865000D01*
X124493461Y-75865000D01*
X124608787Y-75853641D01*
X124756760Y-75808754D01*
X124806900Y-75781954D01*
X124806900Y-76368860D01*
X124806900Y-76368860D01*
G37*
X124806900Y-76368860D02*
X124806901Y-76368870D01*
X124806900Y-83187347D01*
X124803103Y-83225900D01*
X124806900Y-83264453D01*
X124806900Y-83264460D01*
X124818259Y-83379786D01*
X124863146Y-83527759D01*
X124936038Y-83664132D01*
X125034136Y-83783664D01*
X125064090Y-83808247D01*
X129053800Y-87797958D01*
X129053800Y-87824739D01*
X129093574Y-88024698D01*
X129171595Y-88213056D01*
X129256416Y-88340000D01*
X119032279Y-88340000D01*
X118934576Y-88330420D01*
X118871643Y-88311420D01*
X118813594Y-88280554D01*
X118762657Y-88239011D01*
X118720752Y-88188356D01*
X118689485Y-88130529D01*
X118670044Y-88067728D01*
X118660000Y-87972165D01*
X118660000Y-85779872D01*
X118765000Y-85779872D01*
X118765000Y-86220128D01*
X118850890Y-86651925D01*
X119019369Y-87058669D01*
X119263962Y-87424729D01*
X119575271Y-87736038D01*
X119941331Y-87980631D01*
X120348075Y-88149110D01*
X120779872Y-88235000D01*
X121220128Y-88235000D01*
X121651925Y-88149110D01*
X122058669Y-87980631D01*
X122424729Y-87736038D01*
X122736038Y-87424729D01*
X122980631Y-87058669D01*
X123149110Y-86651925D01*
X123235000Y-86220128D01*
X123235000Y-85779872D01*
X123149110Y-85348075D01*
X122980631Y-84941331D01*
X122736038Y-84575271D01*
X122424729Y-84263962D01*
X122058669Y-84019369D01*
X121651925Y-83850890D01*
X121220128Y-83765000D01*
X120779872Y-83765000D01*
X120348075Y-83850890D01*
X119941331Y-84019369D01*
X119575271Y-84263962D01*
X119263962Y-84575271D01*
X119019369Y-84941331D01*
X118850890Y-85348075D01*
X118765000Y-85779872D01*
X118660000Y-85779872D01*
X118660000Y-80803248D01*
X118759294Y-80989014D01*
X118944866Y-81215134D01*
X119170986Y-81400706D01*
X119428966Y-81538599D01*
X119708889Y-81623513D01*
X119927050Y-81645000D01*
X120072950Y-81645000D01*
X120291111Y-81623513D01*
X120571034Y-81538599D01*
X120829014Y-81400706D01*
X121055134Y-81215134D01*
X121240706Y-80989014D01*
X121378599Y-80731034D01*
X121463513Y-80451111D01*
X121492185Y-80160000D01*
X121463513Y-79868889D01*
X121378599Y-79588966D01*
X121240706Y-79330986D01*
X121055134Y-79104866D01*
X120829014Y-78919294D01*
X120774209Y-78890000D01*
X120829014Y-78860706D01*
X121055134Y-78675134D01*
X121240706Y-78449014D01*
X121378599Y-78191034D01*
X121463513Y-77911111D01*
X121492185Y-77620000D01*
X121463513Y-77328889D01*
X121378599Y-77048966D01*
X121240706Y-76790986D01*
X121055134Y-76564866D01*
X120829014Y-76379294D01*
X120774209Y-76350000D01*
X120829014Y-76320706D01*
X121055134Y-76135134D01*
X121240706Y-75909014D01*
X121264232Y-75865000D01*
X124416347Y-75865000D01*
X124454900Y-75868797D01*
X124493453Y-75865000D01*
X124493461Y-75865000D01*
X124608787Y-75853641D01*
X124756760Y-75808754D01*
X124806900Y-75781954D01*
X124806900Y-76368860D01*
G36*
X157065424Y-61669580D02*
G01*
X157128356Y-61688580D01*
X157186405Y-61719445D01*
X157237343Y-61760989D01*
X157279248Y-61811644D01*
X157310515Y-61869471D01*
X157329956Y-61932272D01*
X157340001Y-62027845D01*
X157340000Y-87967721D01*
X157330420Y-88065424D01*
X157311420Y-88128357D01*
X157280554Y-88186406D01*
X157239011Y-88237343D01*
X157188356Y-88279248D01*
X157130529Y-88310515D01*
X157067728Y-88329956D01*
X156972165Y-88340000D01*
X144902187Y-88340000D01*
X144916600Y-88267539D01*
X144916600Y-88063661D01*
X144876826Y-87863702D01*
X144798805Y-87675344D01*
X144685537Y-87505826D01*
X144541374Y-87361663D01*
X144371856Y-87248395D01*
X144183498Y-87170374D01*
X143983539Y-87130600D01*
X143779661Y-87130600D01*
X143579702Y-87170374D01*
X143434305Y-87230600D01*
X139209689Y-87230600D01*
X130563531Y-78584442D01*
X130503305Y-78439044D01*
X130390037Y-78269526D01*
X130245874Y-78125363D01*
X130076356Y-78012095D01*
X129887998Y-77934074D01*
X129688039Y-77894300D01*
X129484161Y-77894300D01*
X129284202Y-77934074D01*
X129095844Y-78012095D01*
X128926326Y-78125363D01*
X128782163Y-78269526D01*
X128668895Y-78439044D01*
X128590874Y-78627402D01*
X128551100Y-78827361D01*
X128551100Y-79031239D01*
X128590874Y-79231198D01*
X128668895Y-79419556D01*
X128782163Y-79589074D01*
X128926326Y-79733237D01*
X129095844Y-79846505D01*
X129241242Y-79906731D01*
X137674511Y-88340000D01*
X130921184Y-88340000D01*
X131006005Y-88213056D01*
X131084026Y-88024698D01*
X131123800Y-87824739D01*
X131123800Y-87620861D01*
X131084026Y-87420902D01*
X131006005Y-87232544D01*
X130892737Y-87063026D01*
X130748574Y-86918863D01*
X130579056Y-86805595D01*
X130390698Y-86727574D01*
X130190739Y-86687800D01*
X130163958Y-86687800D01*
X126376900Y-82900743D01*
X126376900Y-74268157D01*
X127358457Y-73286600D01*
X127385239Y-73286600D01*
X127585198Y-73246826D01*
X127773556Y-73168805D01*
X127943074Y-73055537D01*
X128087237Y-72911374D01*
X128200505Y-72741856D01*
X128278526Y-72553498D01*
X128318300Y-72353539D01*
X128318300Y-72149661D01*
X128278526Y-71949702D01*
X128200505Y-71761344D01*
X128087237Y-71591826D01*
X127943074Y-71447663D01*
X127773556Y-71334395D01*
X127585198Y-71256374D01*
X127385239Y-71216600D01*
X127181361Y-71216600D01*
X126981402Y-71256374D01*
X126793044Y-71334395D01*
X126623526Y-71447663D01*
X126479363Y-71591826D01*
X126366095Y-71761344D01*
X126288074Y-71949702D01*
X126248300Y-72149661D01*
X126248300Y-72176443D01*
X125064085Y-73360658D01*
X125034137Y-73385236D01*
X125009559Y-73415184D01*
X124129743Y-74295000D01*
X121264232Y-74295000D01*
X121240706Y-74250986D01*
X121055134Y-74024866D01*
X120829014Y-73839294D01*
X120764477Y-73804799D01*
X120881355Y-73735178D01*
X121097588Y-73540269D01*
X121271641Y-73306920D01*
X121396825Y-73044099D01*
X121441476Y-72896890D01*
X121320155Y-72667000D01*
X120127000Y-72667000D01*
X120127000Y-72687000D01*
X119873000Y-72687000D01*
X119873000Y-72667000D01*
X119853000Y-72667000D01*
X119853000Y-72413000D01*
X119873000Y-72413000D01*
X119873000Y-72393000D01*
X120127000Y-72393000D01*
X120127000Y-72413000D01*
X121320155Y-72413000D01*
X121441476Y-72183110D01*
X121396825Y-72035901D01*
X121271641Y-71773080D01*
X121097588Y-71539731D01*
X121013534Y-71463966D01*
X121094180Y-71439502D01*
X121204494Y-71380537D01*
X121301185Y-71301185D01*
X121380537Y-71204494D01*
X121439502Y-71094180D01*
X121468659Y-70998061D01*
X133663900Y-70998061D01*
X133663900Y-71201939D01*
X133703674Y-71401898D01*
X133781695Y-71590256D01*
X133894963Y-71759774D01*
X134039126Y-71903937D01*
X134208644Y-72017205D01*
X134354042Y-72077431D01*
X140768275Y-78491665D01*
X140797556Y-78527344D01*
X140939928Y-78644186D01*
X141102360Y-78731007D01*
X141225143Y-78768253D01*
X141278607Y-78784471D01*
X141461899Y-78802524D01*
X141507831Y-78798000D01*
X148642305Y-78798000D01*
X148787702Y-78858226D01*
X148987661Y-78898000D01*
X149191539Y-78898000D01*
X149391498Y-78858226D01*
X149579856Y-78780205D01*
X149749374Y-78666937D01*
X149893537Y-78522774D01*
X150006805Y-78353256D01*
X150084826Y-78164898D01*
X150124600Y-77964939D01*
X150124600Y-77761061D01*
X150084826Y-77561102D01*
X150006805Y-77372744D01*
X149893537Y-77203226D01*
X149749374Y-77059063D01*
X149579856Y-76945795D01*
X149391498Y-76867774D01*
X149191539Y-76828000D01*
X148987661Y-76828000D01*
X148787702Y-76867774D01*
X148642305Y-76928000D01*
X141849190Y-76928000D01*
X135676331Y-70755142D01*
X135616105Y-70609744D01*
X135502837Y-70440226D01*
X135358674Y-70296063D01*
X135189156Y-70182795D01*
X135000798Y-70104774D01*
X134800839Y-70065000D01*
X134596961Y-70065000D01*
X134397002Y-70104774D01*
X134208644Y-70182795D01*
X134039126Y-70296063D01*
X133894963Y-70440226D01*
X133781695Y-70609744D01*
X133703674Y-70798102D01*
X133663900Y-70998061D01*
X121468659Y-70998061D01*
X121475812Y-70974482D01*
X121488072Y-70850000D01*
X121488072Y-69150000D01*
X121475812Y-69025518D01*
X121439502Y-68905820D01*
X121380537Y-68795506D01*
X121301185Y-68698815D01*
X121204494Y-68619463D01*
X121094180Y-68560498D01*
X120974482Y-68524188D01*
X120850000Y-68511928D01*
X119150000Y-68511928D01*
X119025518Y-68524188D01*
X118905820Y-68560498D01*
X118795506Y-68619463D01*
X118698815Y-68698815D01*
X118660000Y-68746111D01*
X118660000Y-63779872D01*
X118765000Y-63779872D01*
X118765000Y-64220128D01*
X118850890Y-64651925D01*
X119019369Y-65058669D01*
X119263962Y-65424729D01*
X119575271Y-65736038D01*
X119941331Y-65980631D01*
X120348075Y-66149110D01*
X120779872Y-66235000D01*
X121220128Y-66235000D01*
X121651925Y-66149110D01*
X122058669Y-65980631D01*
X122424729Y-65736038D01*
X122736038Y-65424729D01*
X122980631Y-65058669D01*
X123149110Y-64651925D01*
X123235000Y-64220128D01*
X123235000Y-63779872D01*
X123149110Y-63348075D01*
X122980631Y-62941331D01*
X122736038Y-62575271D01*
X122424729Y-62263962D01*
X122058669Y-62019369D01*
X121651925Y-61850890D01*
X121220128Y-61765000D01*
X120779872Y-61765000D01*
X120348075Y-61850890D01*
X119941331Y-62019369D01*
X119575271Y-62263962D01*
X119263962Y-62575271D01*
X119019369Y-62941331D01*
X118850890Y-63348075D01*
X118765000Y-63779872D01*
X118660000Y-63779872D01*
X118660000Y-62032279D01*
X118669580Y-61934576D01*
X118688580Y-61871644D01*
X118719445Y-61813595D01*
X118760989Y-61762657D01*
X118811644Y-61720752D01*
X118869471Y-61689485D01*
X118932272Y-61670044D01*
X119027835Y-61660000D01*
X156967721Y-61660000D01*
X157065424Y-61669580D01*
X157065424Y-61669580D01*
G37*
X157065424Y-61669580D02*
X157128356Y-61688580D01*
X157186405Y-61719445D01*
X157237343Y-61760989D01*
X157279248Y-61811644D01*
X157310515Y-61869471D01*
X157329956Y-61932272D01*
X157340001Y-62027845D01*
X157340000Y-87967721D01*
X157330420Y-88065424D01*
X157311420Y-88128357D01*
X157280554Y-88186406D01*
X157239011Y-88237343D01*
X157188356Y-88279248D01*
X157130529Y-88310515D01*
X157067728Y-88329956D01*
X156972165Y-88340000D01*
X144902187Y-88340000D01*
X144916600Y-88267539D01*
X144916600Y-88063661D01*
X144876826Y-87863702D01*
X144798805Y-87675344D01*
X144685537Y-87505826D01*
X144541374Y-87361663D01*
X144371856Y-87248395D01*
X144183498Y-87170374D01*
X143983539Y-87130600D01*
X143779661Y-87130600D01*
X143579702Y-87170374D01*
X143434305Y-87230600D01*
X139209689Y-87230600D01*
X130563531Y-78584442D01*
X130503305Y-78439044D01*
X130390037Y-78269526D01*
X130245874Y-78125363D01*
X130076356Y-78012095D01*
X129887998Y-77934074D01*
X129688039Y-77894300D01*
X129484161Y-77894300D01*
X129284202Y-77934074D01*
X129095844Y-78012095D01*
X128926326Y-78125363D01*
X128782163Y-78269526D01*
X128668895Y-78439044D01*
X128590874Y-78627402D01*
X128551100Y-78827361D01*
X128551100Y-79031239D01*
X128590874Y-79231198D01*
X128668895Y-79419556D01*
X128782163Y-79589074D01*
X128926326Y-79733237D01*
X129095844Y-79846505D01*
X129241242Y-79906731D01*
X137674511Y-88340000D01*
X130921184Y-88340000D01*
X131006005Y-88213056D01*
X131084026Y-88024698D01*
X131123800Y-87824739D01*
X131123800Y-87620861D01*
X131084026Y-87420902D01*
X131006005Y-87232544D01*
X130892737Y-87063026D01*
X130748574Y-86918863D01*
X130579056Y-86805595D01*
X130390698Y-86727574D01*
X130190739Y-86687800D01*
X130163958Y-86687800D01*
X126376900Y-82900743D01*
X126376900Y-74268157D01*
X127358457Y-73286600D01*
X127385239Y-73286600D01*
X127585198Y-73246826D01*
X127773556Y-73168805D01*
X127943074Y-73055537D01*
X128087237Y-72911374D01*
X128200505Y-72741856D01*
X128278526Y-72553498D01*
X128318300Y-72353539D01*
X128318300Y-72149661D01*
X128278526Y-71949702D01*
X128200505Y-71761344D01*
X128087237Y-71591826D01*
X127943074Y-71447663D01*
X127773556Y-71334395D01*
X127585198Y-71256374D01*
X127385239Y-71216600D01*
X127181361Y-71216600D01*
X126981402Y-71256374D01*
X126793044Y-71334395D01*
X126623526Y-71447663D01*
X126479363Y-71591826D01*
X126366095Y-71761344D01*
X126288074Y-71949702D01*
X126248300Y-72149661D01*
X126248300Y-72176443D01*
X125064085Y-73360658D01*
X125034137Y-73385236D01*
X125009559Y-73415184D01*
X124129743Y-74295000D01*
X121264232Y-74295000D01*
X121240706Y-74250986D01*
X121055134Y-74024866D01*
X120829014Y-73839294D01*
X120764477Y-73804799D01*
X120881355Y-73735178D01*
X121097588Y-73540269D01*
X121271641Y-73306920D01*
X121396825Y-73044099D01*
X121441476Y-72896890D01*
X121320155Y-72667000D01*
X120127000Y-72667000D01*
X120127000Y-72687000D01*
X119873000Y-72687000D01*
X119873000Y-72667000D01*
X119853000Y-72667000D01*
X119853000Y-72413000D01*
X119873000Y-72413000D01*
X119873000Y-72393000D01*
X120127000Y-72393000D01*
X120127000Y-72413000D01*
X121320155Y-72413000D01*
X121441476Y-72183110D01*
X121396825Y-72035901D01*
X121271641Y-71773080D01*
X121097588Y-71539731D01*
X121013534Y-71463966D01*
X121094180Y-71439502D01*
X121204494Y-71380537D01*
X121301185Y-71301185D01*
X121380537Y-71204494D01*
X121439502Y-71094180D01*
X121468659Y-70998061D01*
X133663900Y-70998061D01*
X133663900Y-71201939D01*
X133703674Y-71401898D01*
X133781695Y-71590256D01*
X133894963Y-71759774D01*
X134039126Y-71903937D01*
X134208644Y-72017205D01*
X134354042Y-72077431D01*
X140768275Y-78491665D01*
X140797556Y-78527344D01*
X140939928Y-78644186D01*
X141102360Y-78731007D01*
X141225143Y-78768253D01*
X141278607Y-78784471D01*
X141461899Y-78802524D01*
X141507831Y-78798000D01*
X148642305Y-78798000D01*
X148787702Y-78858226D01*
X148987661Y-78898000D01*
X149191539Y-78898000D01*
X149391498Y-78858226D01*
X149579856Y-78780205D01*
X149749374Y-78666937D01*
X149893537Y-78522774D01*
X150006805Y-78353256D01*
X150084826Y-78164898D01*
X150124600Y-77964939D01*
X150124600Y-77761061D01*
X150084826Y-77561102D01*
X150006805Y-77372744D01*
X149893537Y-77203226D01*
X149749374Y-77059063D01*
X149579856Y-76945795D01*
X149391498Y-76867774D01*
X149191539Y-76828000D01*
X148987661Y-76828000D01*
X148787702Y-76867774D01*
X148642305Y-76928000D01*
X141849190Y-76928000D01*
X135676331Y-70755142D01*
X135616105Y-70609744D01*
X135502837Y-70440226D01*
X135358674Y-70296063D01*
X135189156Y-70182795D01*
X135000798Y-70104774D01*
X134800839Y-70065000D01*
X134596961Y-70065000D01*
X134397002Y-70104774D01*
X134208644Y-70182795D01*
X134039126Y-70296063D01*
X133894963Y-70440226D01*
X133781695Y-70609744D01*
X133703674Y-70798102D01*
X133663900Y-70998061D01*
X121468659Y-70998061D01*
X121475812Y-70974482D01*
X121488072Y-70850000D01*
X121488072Y-69150000D01*
X121475812Y-69025518D01*
X121439502Y-68905820D01*
X121380537Y-68795506D01*
X121301185Y-68698815D01*
X121204494Y-68619463D01*
X121094180Y-68560498D01*
X120974482Y-68524188D01*
X120850000Y-68511928D01*
X119150000Y-68511928D01*
X119025518Y-68524188D01*
X118905820Y-68560498D01*
X118795506Y-68619463D01*
X118698815Y-68698815D01*
X118660000Y-68746111D01*
X118660000Y-63779872D01*
X118765000Y-63779872D01*
X118765000Y-64220128D01*
X118850890Y-64651925D01*
X119019369Y-65058669D01*
X119263962Y-65424729D01*
X119575271Y-65736038D01*
X119941331Y-65980631D01*
X120348075Y-66149110D01*
X120779872Y-66235000D01*
X121220128Y-66235000D01*
X121651925Y-66149110D01*
X122058669Y-65980631D01*
X122424729Y-65736038D01*
X122736038Y-65424729D01*
X122980631Y-65058669D01*
X123149110Y-64651925D01*
X123235000Y-64220128D01*
X123235000Y-63779872D01*
X123149110Y-63348075D01*
X122980631Y-62941331D01*
X122736038Y-62575271D01*
X122424729Y-62263962D01*
X122058669Y-62019369D01*
X121651925Y-61850890D01*
X121220128Y-61765000D01*
X120779872Y-61765000D01*
X120348075Y-61850890D01*
X119941331Y-62019369D01*
X119575271Y-62263962D01*
X119263962Y-62575271D01*
X119019369Y-62941331D01*
X118850890Y-63348075D01*
X118765000Y-63779872D01*
X118660000Y-63779872D01*
X118660000Y-62032279D01*
X118669580Y-61934576D01*
X118688580Y-61871644D01*
X118719445Y-61813595D01*
X118760989Y-61762657D01*
X118811644Y-61720752D01*
X118869471Y-61689485D01*
X118932272Y-61670044D01*
X119027835Y-61660000D01*
X156967721Y-61660000D01*
X157065424Y-61669580D01*
M02*
