G04 #@! TF.GenerationSoftware,KiCad,Pcbnew,(5.1.2)-1*
G04 #@! TF.CreationDate,2020-05-04T21:43:22+09:00*
G04 #@! TF.ProjectId,dcdc,64636463-2e6b-4696-9361-645f70636258,v1.2*
G04 #@! TF.SameCoordinates,Original*
G04 #@! TF.FileFunction,Legend,Top*
G04 #@! TF.FilePolarity,Positive*
%FSLAX46Y46*%
G04 Gerber Fmt 4.6, Leading zero omitted, Abs format (unit mm)*
G04 Created by KiCad (PCBNEW (5.1.2)-1) date 2020-05-04 21:43:22*
%MOMM*%
%LPD*%
G04 APERTURE LIST*
%ADD10C,0.150000*%
%ADD11C,0.120000*%
%ADD12C,0.100000*%
%ADD13C,0.977000*%
%ADD14R,3.102000X1.502000*%
%ADD15C,3.302000*%
%ADD16C,1.077000*%
%ADD17R,1.552000X0.552000*%
%ADD18O,1.802000X1.802000*%
%ADD19R,1.802000X1.802000*%
%ADD20R,2.602000X2.402000*%
G04 APERTURE END LIST*
D10*
X121533333Y-80157142D02*
X122142857Y-80157142D01*
X122942857Y-80461904D02*
X122485714Y-80461904D01*
X122714285Y-80461904D02*
X122714285Y-79661904D01*
X122638095Y-79776190D01*
X122561904Y-79852380D01*
X122485714Y-79890476D01*
X123666666Y-79661904D02*
X123285714Y-79661904D01*
X123247619Y-80042857D01*
X123285714Y-80004761D01*
X123361904Y-79966666D01*
X123552380Y-79966666D01*
X123628571Y-80004761D01*
X123666666Y-80042857D01*
X123704761Y-80119047D01*
X123704761Y-80309523D01*
X123666666Y-80385714D01*
X123628571Y-80423809D01*
X123552380Y-80461904D01*
X123361904Y-80461904D01*
X123285714Y-80423809D01*
X123247619Y-80385714D01*
X121533333Y-77657142D02*
X122142857Y-77657142D01*
X121838095Y-77961904D02*
X121838095Y-77352380D01*
X122942857Y-77961904D02*
X122485714Y-77961904D01*
X122714285Y-77961904D02*
X122714285Y-77161904D01*
X122638095Y-77276190D01*
X122561904Y-77352380D01*
X122485714Y-77390476D01*
X123666666Y-77161904D02*
X123285714Y-77161904D01*
X123247619Y-77542857D01*
X123285714Y-77504761D01*
X123361904Y-77466666D01*
X123552380Y-77466666D01*
X123628571Y-77504761D01*
X123666666Y-77542857D01*
X123704761Y-77619047D01*
X123704761Y-77809523D01*
X123666666Y-77885714D01*
X123628571Y-77923809D01*
X123552380Y-77961904D01*
X123361904Y-77961904D01*
X123285714Y-77923809D01*
X123247619Y-77885714D01*
X122009523Y-75042857D02*
X122276190Y-75042857D01*
X122390476Y-75461904D02*
X122009523Y-75461904D01*
X122009523Y-74661904D01*
X122390476Y-74661904D01*
X122733333Y-75461904D02*
X122733333Y-74661904D01*
X123190476Y-75461904D01*
X123190476Y-74661904D01*
X121990476Y-72200000D02*
X121914285Y-72161904D01*
X121800000Y-72161904D01*
X121685714Y-72200000D01*
X121609523Y-72276190D01*
X121571428Y-72352380D01*
X121533333Y-72504761D01*
X121533333Y-72619047D01*
X121571428Y-72771428D01*
X121609523Y-72847619D01*
X121685714Y-72923809D01*
X121800000Y-72961904D01*
X121876190Y-72961904D01*
X121990476Y-72923809D01*
X122028571Y-72885714D01*
X122028571Y-72619047D01*
X121876190Y-72619047D01*
X122371428Y-72961904D02*
X122371428Y-72161904D01*
X122828571Y-72961904D01*
X122828571Y-72161904D01*
X123209523Y-72961904D02*
X123209523Y-72161904D01*
X123400000Y-72161904D01*
X123514285Y-72200000D01*
X123590476Y-72276190D01*
X123628571Y-72352380D01*
X123666666Y-72504761D01*
X123666666Y-72619047D01*
X123628571Y-72771428D01*
X123590476Y-72847619D01*
X123514285Y-72923809D01*
X123400000Y-72961904D01*
X123209523Y-72961904D01*
X122080952Y-70361904D02*
X122080952Y-69561904D01*
X122461904Y-70361904D02*
X122461904Y-69561904D01*
X122919047Y-70361904D01*
X122919047Y-69561904D01*
X124457142Y-88461904D02*
X124457142Y-87661904D01*
X124647619Y-87661904D01*
X124761904Y-87700000D01*
X124838095Y-87776190D01*
X124876190Y-87852380D01*
X124914285Y-88004761D01*
X124914285Y-88119047D01*
X124876190Y-88271428D01*
X124838095Y-88347619D01*
X124761904Y-88423809D01*
X124647619Y-88461904D01*
X124457142Y-88461904D01*
X125599999Y-87928571D02*
X125599999Y-88461904D01*
X125257142Y-87928571D02*
X125257142Y-88347619D01*
X125295238Y-88423809D01*
X125371428Y-88461904D01*
X125485714Y-88461904D01*
X125561904Y-88423809D01*
X125599999Y-88385714D01*
X126323809Y-88461904D02*
X126323809Y-88042857D01*
X126285714Y-87966666D01*
X126209523Y-87928571D01*
X126057142Y-87928571D01*
X125980952Y-87966666D01*
X126323809Y-88423809D02*
X126247619Y-88461904D01*
X126057142Y-88461904D01*
X125980952Y-88423809D01*
X125942857Y-88347619D01*
X125942857Y-88271428D01*
X125980952Y-88195238D01*
X126057142Y-88157142D01*
X126247619Y-88157142D01*
X126323809Y-88119047D01*
X126819047Y-88461904D02*
X126742857Y-88423809D01*
X126704761Y-88347619D01*
X126704761Y-87661904D01*
X127885714Y-87661904D02*
X128038095Y-87661904D01*
X128114285Y-87700000D01*
X128190476Y-87776190D01*
X128228571Y-87928571D01*
X128228571Y-88195238D01*
X128190476Y-88347619D01*
X128114285Y-88423809D01*
X128038095Y-88461904D01*
X127885714Y-88461904D01*
X127809523Y-88423809D01*
X127733333Y-88347619D01*
X127695238Y-88195238D01*
X127695238Y-87928571D01*
X127733333Y-87776190D01*
X127809523Y-87700000D01*
X127885714Y-87661904D01*
X128914285Y-87928571D02*
X128914285Y-88461904D01*
X128571428Y-87928571D02*
X128571428Y-88347619D01*
X128609523Y-88423809D01*
X128685714Y-88461904D01*
X128799999Y-88461904D01*
X128876190Y-88423809D01*
X128914285Y-88385714D01*
X129180952Y-87928571D02*
X129485714Y-87928571D01*
X129295238Y-87661904D02*
X129295238Y-88347619D01*
X129333333Y-88423809D01*
X129409523Y-88461904D01*
X129485714Y-88461904D01*
X129752380Y-87928571D02*
X129752380Y-88728571D01*
X129752380Y-87966666D02*
X129828571Y-87928571D01*
X129980952Y-87928571D01*
X130057142Y-87966666D01*
X130095238Y-88004761D01*
X130133333Y-88080952D01*
X130133333Y-88309523D01*
X130095238Y-88385714D01*
X130057142Y-88423809D01*
X129980952Y-88461904D01*
X129828571Y-88461904D01*
X129752380Y-88423809D01*
X130819047Y-87928571D02*
X130819047Y-88461904D01*
X130476190Y-87928571D02*
X130476190Y-88347619D01*
X130514285Y-88423809D01*
X130590476Y-88461904D01*
X130704761Y-88461904D01*
X130780952Y-88423809D01*
X130819047Y-88385714D01*
X131085714Y-87928571D02*
X131390476Y-87928571D01*
X131199999Y-87661904D02*
X131199999Y-88347619D01*
X131238095Y-88423809D01*
X131314285Y-88461904D01*
X131390476Y-88461904D01*
X132723809Y-88385714D02*
X132685714Y-88423809D01*
X132571428Y-88461904D01*
X132495238Y-88461904D01*
X132380952Y-88423809D01*
X132304761Y-88347619D01*
X132266666Y-88271428D01*
X132228571Y-88119047D01*
X132228571Y-88004761D01*
X132266666Y-87852380D01*
X132304761Y-87776190D01*
X132380952Y-87700000D01*
X132495238Y-87661904D01*
X132571428Y-87661904D01*
X132685714Y-87700000D01*
X132723809Y-87738095D01*
X133180952Y-88461904D02*
X133104761Y-88423809D01*
X133066666Y-88385714D01*
X133028571Y-88309523D01*
X133028571Y-88080952D01*
X133066666Y-88004761D01*
X133104761Y-87966666D01*
X133180952Y-87928571D01*
X133295238Y-87928571D01*
X133371428Y-87966666D01*
X133409523Y-88004761D01*
X133447619Y-88080952D01*
X133447619Y-88309523D01*
X133409523Y-88385714D01*
X133371428Y-88423809D01*
X133295238Y-88461904D01*
X133180952Y-88461904D01*
X133790476Y-87928571D02*
X133790476Y-88461904D01*
X133790476Y-88004761D02*
X133828571Y-87966666D01*
X133904761Y-87928571D01*
X134019047Y-87928571D01*
X134095238Y-87966666D01*
X134133333Y-88042857D01*
X134133333Y-88461904D01*
X134438095Y-87928571D02*
X134628571Y-88461904D01*
X134819047Y-87928571D01*
X135428571Y-88423809D02*
X135352380Y-88461904D01*
X135200000Y-88461904D01*
X135123809Y-88423809D01*
X135085714Y-88347619D01*
X135085714Y-88042857D01*
X135123809Y-87966666D01*
X135200000Y-87928571D01*
X135352380Y-87928571D01*
X135428571Y-87966666D01*
X135466666Y-88042857D01*
X135466666Y-88119047D01*
X135085714Y-88195238D01*
X135809523Y-88461904D02*
X135809523Y-87928571D01*
X135809523Y-88080952D02*
X135847619Y-88004761D01*
X135885714Y-87966666D01*
X135961904Y-87928571D01*
X136038095Y-87928571D01*
X136190476Y-87928571D02*
X136495238Y-87928571D01*
X136304761Y-87661904D02*
X136304761Y-88347619D01*
X136342857Y-88423809D01*
X136419047Y-88461904D01*
X136495238Y-88461904D01*
X137066666Y-88423809D02*
X136990476Y-88461904D01*
X136838095Y-88461904D01*
X136761904Y-88423809D01*
X136723809Y-88347619D01*
X136723809Y-88042857D01*
X136761904Y-87966666D01*
X136838095Y-87928571D01*
X136990476Y-87928571D01*
X137066666Y-87966666D01*
X137104761Y-88042857D01*
X137104761Y-88119047D01*
X136723809Y-88195238D01*
X137447619Y-88461904D02*
X137447619Y-87928571D01*
X137447619Y-88080952D02*
X137485714Y-88004761D01*
X137523809Y-87966666D01*
X137600000Y-87928571D01*
X137676190Y-87928571D01*
X138476190Y-87928571D02*
X138666666Y-88461904D01*
X138857142Y-87928571D01*
X139580952Y-88461904D02*
X139123809Y-88461904D01*
X139352380Y-88461904D02*
X139352380Y-87661904D01*
X139276190Y-87776190D01*
X139200000Y-87852380D01*
X139123809Y-87890476D01*
X139923809Y-88385714D02*
X139961904Y-88423809D01*
X139923809Y-88461904D01*
X139885714Y-88423809D01*
X139923809Y-88385714D01*
X139923809Y-88461904D01*
X140266666Y-87738095D02*
X140304761Y-87700000D01*
X140380952Y-87661904D01*
X140571428Y-87661904D01*
X140647619Y-87700000D01*
X140685714Y-87738095D01*
X140723809Y-87814285D01*
X140723809Y-87890476D01*
X140685714Y-88004761D01*
X140228571Y-88461904D01*
X140723809Y-88461904D01*
X141638095Y-87738095D02*
X141676190Y-87700000D01*
X141752380Y-87661904D01*
X141942857Y-87661904D01*
X142019047Y-87700000D01*
X142057142Y-87738095D01*
X142095238Y-87814285D01*
X142095238Y-87890476D01*
X142057142Y-88004761D01*
X141600000Y-88461904D01*
X142095238Y-88461904D01*
X142590476Y-87661904D02*
X142666666Y-87661904D01*
X142742857Y-87700000D01*
X142780952Y-87738095D01*
X142819047Y-87814285D01*
X142857142Y-87966666D01*
X142857142Y-88157142D01*
X142819047Y-88309523D01*
X142780952Y-88385714D01*
X142742857Y-88423809D01*
X142666666Y-88461904D01*
X142590476Y-88461904D01*
X142514285Y-88423809D01*
X142476190Y-88385714D01*
X142438095Y-88309523D01*
X142400000Y-88157142D01*
X142400000Y-87966666D01*
X142438095Y-87814285D01*
X142476190Y-87738095D01*
X142514285Y-87700000D01*
X142590476Y-87661904D01*
X143352380Y-87661904D02*
X143428571Y-87661904D01*
X143504761Y-87700000D01*
X143542857Y-87738095D01*
X143580952Y-87814285D01*
X143619047Y-87966666D01*
X143619047Y-88157142D01*
X143580952Y-88309523D01*
X143542857Y-88385714D01*
X143504761Y-88423809D01*
X143428571Y-88461904D01*
X143352380Y-88461904D01*
X143276190Y-88423809D01*
X143238095Y-88385714D01*
X143200000Y-88309523D01*
X143161904Y-88157142D01*
X143161904Y-87966666D01*
X143200000Y-87814285D01*
X143238095Y-87738095D01*
X143276190Y-87700000D01*
X143352380Y-87661904D01*
X144342857Y-87661904D02*
X143961904Y-87661904D01*
X143923809Y-88042857D01*
X143961904Y-88004761D01*
X144038095Y-87966666D01*
X144228571Y-87966666D01*
X144304761Y-88004761D01*
X144342857Y-88042857D01*
X144380952Y-88119047D01*
X144380952Y-88309523D01*
X144342857Y-88385714D01*
X144304761Y-88423809D01*
X144228571Y-88461904D01*
X144038095Y-88461904D01*
X143961904Y-88423809D01*
X143923809Y-88385714D01*
D11*
X149025221Y-86710000D02*
X149350779Y-86710000D01*
X149025221Y-85690000D02*
X149350779Y-85690000D01*
X125610000Y-77275279D02*
X125610000Y-76949721D01*
X124590000Y-77275279D02*
X124590000Y-76949721D01*
X124590000Y-80637221D02*
X124590000Y-80962779D01*
X125610000Y-80637221D02*
X125610000Y-80962779D01*
X153850779Y-65990000D02*
X153525221Y-65990000D01*
X153850779Y-67010000D02*
X153525221Y-67010000D01*
X128150779Y-68990000D02*
X127825221Y-68990000D01*
X128150779Y-70010000D02*
X127825221Y-70010000D01*
X140900000Y-69700000D02*
X140900000Y-71800000D01*
X140900000Y-71800000D02*
X132900000Y-71800000D01*
X132900000Y-71800000D02*
X132900000Y-69700000D01*
X132900000Y-65900000D02*
X132900000Y-63800000D01*
X132900000Y-63800000D02*
X140900000Y-63800000D01*
X140900000Y-63800000D02*
X140900000Y-65900000D01*
X140900000Y-79200000D02*
X140900000Y-81300000D01*
X140900000Y-81300000D02*
X132900000Y-81300000D01*
X132900000Y-81300000D02*
X132900000Y-79200000D01*
X132900000Y-75400000D02*
X132900000Y-73300000D01*
X132900000Y-73300000D02*
X140900000Y-73300000D01*
X140900000Y-73300000D02*
X140900000Y-75400000D01*
X153641422Y-69210000D02*
X154158578Y-69210000D01*
X153641422Y-67790000D02*
X154158578Y-67790000D01*
X132010000Y-77758578D02*
X132010000Y-77241422D01*
X130590000Y-77758578D02*
X130590000Y-77241422D01*
X154158578Y-63790000D02*
X153641422Y-63790000D01*
X154158578Y-65210000D02*
X153641422Y-65210000D01*
X152937221Y-86710000D02*
X153262779Y-86710000D01*
X152937221Y-85690000D02*
X153262779Y-85690000D01*
X153525221Y-70910000D02*
X153850779Y-70910000D01*
X153525221Y-69890000D02*
X153850779Y-69890000D01*
X152937221Y-85110000D02*
X153262779Y-85110000D01*
X152937221Y-84090000D02*
X153262779Y-84090000D01*
X142090000Y-67649721D02*
X142090000Y-67975279D01*
X143110000Y-67649721D02*
X143110000Y-67975279D01*
X142090000Y-77224721D02*
X142090000Y-77550279D01*
X143110000Y-77224721D02*
X143110000Y-77550279D01*
X130490000Y-67678922D02*
X130490000Y-68196078D01*
X131910000Y-67678922D02*
X131910000Y-68196078D01*
X152937221Y-80210000D02*
X153262779Y-80210000D01*
X152937221Y-79190000D02*
X153262779Y-79190000D01*
D10*
X145925000Y-81400000D02*
X144675000Y-81400000D01*
X145925000Y-84575000D02*
X149275000Y-84575000D01*
X145925000Y-81225000D02*
X149275000Y-81225000D01*
X145925000Y-84575000D02*
X145925000Y-84325000D01*
X149275000Y-84575000D02*
X149275000Y-84325000D01*
X149275000Y-81225000D02*
X149275000Y-81475000D01*
X145925000Y-81225000D02*
X145925000Y-81400000D01*
D11*
X131737221Y-86110000D02*
X132062779Y-86110000D01*
X131737221Y-85090000D02*
X132062779Y-85090000D01*
X131749221Y-84110000D02*
X132074779Y-84110000D01*
X131749221Y-83090000D02*
X132074779Y-83090000D01*
X153262779Y-82440000D02*
X152937221Y-82440000D01*
X153262779Y-83460000D02*
X152937221Y-83460000D01*
X152937221Y-81810000D02*
X153262779Y-81810000D01*
X152937221Y-80790000D02*
X153262779Y-80790000D01*
X146174779Y-85690000D02*
X145849221Y-85690000D01*
X146174779Y-86710000D02*
X145849221Y-86710000D01*
X127849221Y-71610000D02*
X128174779Y-71610000D01*
X127849221Y-70590000D02*
X128174779Y-70590000D01*
X142362779Y-85740000D02*
X142037221Y-85740000D01*
X142362779Y-86760000D02*
X142037221Y-86760000D01*
X118670000Y-68670000D02*
X120000000Y-68670000D01*
X118670000Y-70000000D02*
X118670000Y-68670000D01*
X118670000Y-71270000D02*
X121330000Y-71270000D01*
X121330000Y-71270000D02*
X121330000Y-81490000D01*
X118670000Y-71270000D02*
X118670000Y-81490000D01*
X118670000Y-81490000D02*
X121330000Y-81490000D01*
X128320578Y-66590000D02*
X127803422Y-66590000D01*
X128320578Y-68010000D02*
X127803422Y-68010000D01*
X127691422Y-78360000D02*
X128208578Y-78360000D01*
X127691422Y-76940000D02*
X128208578Y-76940000D01*
X127691422Y-80910000D02*
X128208578Y-80910000D01*
X127691422Y-79490000D02*
X128208578Y-79490000D01*
X133715000Y-86335000D02*
X136000000Y-86335000D01*
X133715000Y-84865000D02*
X133715000Y-86335000D01*
X136000000Y-84865000D02*
X133715000Y-84865000D01*
X133715000Y-84335000D02*
X136000000Y-84335000D01*
X133715000Y-82865000D02*
X133715000Y-84335000D01*
X136000000Y-82865000D02*
X133715000Y-82865000D01*
X151100000Y-77950000D02*
X145400000Y-77950000D01*
X151100000Y-73650000D02*
X145400000Y-73650000D01*
X151100000Y-77950000D02*
X151100000Y-73650000D01*
X151050000Y-67950000D02*
X145350000Y-67950000D01*
X151050000Y-63650000D02*
X145350000Y-63650000D01*
X151050000Y-67950000D02*
X151050000Y-63650000D01*
X151050000Y-72950000D02*
X145350000Y-72950000D01*
X151050000Y-68650000D02*
X145350000Y-68650000D01*
X151050000Y-72950000D02*
X151050000Y-68650000D01*
X142362779Y-82440000D02*
X142037221Y-82440000D01*
X142362779Y-83460000D02*
X142037221Y-83460000D01*
X142362779Y-84040000D02*
X142037221Y-84040000D01*
X142362779Y-85060000D02*
X142037221Y-85060000D01*
D10*
X148933833Y-88052380D02*
X148600500Y-87576190D01*
X148362404Y-88052380D02*
X148362404Y-87052380D01*
X148743357Y-87052380D01*
X148838595Y-87100000D01*
X148886214Y-87147619D01*
X148933833Y-87242857D01*
X148933833Y-87385714D01*
X148886214Y-87480952D01*
X148838595Y-87528571D01*
X148743357Y-87576190D01*
X148362404Y-87576190D01*
X149314785Y-87147619D02*
X149362404Y-87100000D01*
X149457642Y-87052380D01*
X149695738Y-87052380D01*
X149790976Y-87100000D01*
X149838595Y-87147619D01*
X149886214Y-87242857D01*
X149886214Y-87338095D01*
X149838595Y-87480952D01*
X149267166Y-88052380D01*
X149886214Y-88052380D01*
X125457142Y-74855357D02*
X125504761Y-74902976D01*
X125552380Y-75045833D01*
X125552380Y-75141071D01*
X125504761Y-75283928D01*
X125409523Y-75379166D01*
X125314285Y-75426785D01*
X125123809Y-75474404D01*
X124980952Y-75474404D01*
X124790476Y-75426785D01*
X124695238Y-75379166D01*
X124600000Y-75283928D01*
X124552380Y-75141071D01*
X124552380Y-75045833D01*
X124600000Y-74902976D01*
X124647619Y-74855357D01*
X125552380Y-73902976D02*
X125552380Y-74474404D01*
X125552380Y-74188690D02*
X124552380Y-74188690D01*
X124695238Y-74283928D01*
X124790476Y-74379166D01*
X124838095Y-74474404D01*
X124552380Y-73569642D02*
X124552380Y-72950595D01*
X124933333Y-73283928D01*
X124933333Y-73141071D01*
X124980952Y-73045833D01*
X125028571Y-72998214D01*
X125123809Y-72950595D01*
X125361904Y-72950595D01*
X125457142Y-72998214D01*
X125504761Y-73045833D01*
X125552380Y-73141071D01*
X125552380Y-73426785D01*
X125504761Y-73522023D01*
X125457142Y-73569642D01*
X125457142Y-84442857D02*
X125504761Y-84490476D01*
X125552380Y-84633333D01*
X125552380Y-84728571D01*
X125504761Y-84871428D01*
X125409523Y-84966666D01*
X125314285Y-85014285D01*
X125123809Y-85061904D01*
X124980952Y-85061904D01*
X124790476Y-85014285D01*
X124695238Y-84966666D01*
X124600000Y-84871428D01*
X124552380Y-84728571D01*
X124552380Y-84633333D01*
X124600000Y-84490476D01*
X124647619Y-84442857D01*
X125552380Y-83490476D02*
X125552380Y-84061904D01*
X125552380Y-83776190D02*
X124552380Y-83776190D01*
X124695238Y-83871428D01*
X124790476Y-83966666D01*
X124838095Y-84061904D01*
X124647619Y-83109523D02*
X124600000Y-83061904D01*
X124552380Y-82966666D01*
X124552380Y-82728571D01*
X124600000Y-82633333D01*
X124647619Y-82585714D01*
X124742857Y-82538095D01*
X124838095Y-82538095D01*
X124980952Y-82585714D01*
X125552380Y-83157142D01*
X125552380Y-82538095D01*
X155921333Y-67052380D02*
X155588000Y-66576190D01*
X155349904Y-67052380D02*
X155349904Y-66052380D01*
X155730857Y-66052380D01*
X155826095Y-66100000D01*
X155873714Y-66147619D01*
X155921333Y-66242857D01*
X155921333Y-66385714D01*
X155873714Y-66480952D01*
X155826095Y-66528571D01*
X155730857Y-66576190D01*
X155349904Y-66576190D01*
X156492761Y-66480952D02*
X156397523Y-66433333D01*
X156349904Y-66385714D01*
X156302285Y-66290476D01*
X156302285Y-66242857D01*
X156349904Y-66147619D01*
X156397523Y-66100000D01*
X156492761Y-66052380D01*
X156683238Y-66052380D01*
X156778476Y-66100000D01*
X156826095Y-66147619D01*
X156873714Y-66242857D01*
X156873714Y-66290476D01*
X156826095Y-66385714D01*
X156778476Y-66433333D01*
X156683238Y-66480952D01*
X156492761Y-66480952D01*
X156397523Y-66528571D01*
X156349904Y-66576190D01*
X156302285Y-66671428D01*
X156302285Y-66861904D01*
X156349904Y-66957142D01*
X156397523Y-67004761D01*
X156492761Y-67052380D01*
X156683238Y-67052380D01*
X156778476Y-67004761D01*
X156826095Y-66957142D01*
X156873714Y-66861904D01*
X156873714Y-66671428D01*
X156826095Y-66576190D01*
X156778476Y-66528571D01*
X156683238Y-66480952D01*
X125233833Y-69952380D02*
X124900500Y-69476190D01*
X124662404Y-69952380D02*
X124662404Y-68952380D01*
X125043357Y-68952380D01*
X125138595Y-69000000D01*
X125186214Y-69047619D01*
X125233833Y-69142857D01*
X125233833Y-69285714D01*
X125186214Y-69380952D01*
X125138595Y-69428571D01*
X125043357Y-69476190D01*
X124662404Y-69476190D01*
X125567166Y-68952380D02*
X126186214Y-68952380D01*
X125852880Y-69333333D01*
X125995738Y-69333333D01*
X126090976Y-69380952D01*
X126138595Y-69428571D01*
X126186214Y-69523809D01*
X126186214Y-69761904D01*
X126138595Y-69857142D01*
X126090976Y-69904761D01*
X125995738Y-69952380D01*
X125710023Y-69952380D01*
X125614785Y-69904761D01*
X125567166Y-69857142D01*
X132452380Y-71266666D02*
X132452380Y-71742857D01*
X131452380Y-71742857D01*
X131547619Y-70980952D02*
X131500000Y-70933333D01*
X131452380Y-70838095D01*
X131452380Y-70600000D01*
X131500000Y-70504761D01*
X131547619Y-70457142D01*
X131642857Y-70409523D01*
X131738095Y-70409523D01*
X131880952Y-70457142D01*
X132452380Y-71028571D01*
X132452380Y-70409523D01*
X132452380Y-74066666D02*
X132452380Y-74542857D01*
X131452380Y-74542857D01*
X132452380Y-73209523D02*
X132452380Y-73780952D01*
X132452380Y-73495238D02*
X131452380Y-73495238D01*
X131595238Y-73590476D01*
X131690476Y-73685714D01*
X131738095Y-73780952D01*
X156133333Y-69052380D02*
X155657142Y-69052380D01*
X155657142Y-68052380D01*
X156371428Y-68052380D02*
X156990476Y-68052380D01*
X156657142Y-68433333D01*
X156800000Y-68433333D01*
X156895238Y-68480952D01*
X156942857Y-68528571D01*
X156990476Y-68623809D01*
X156990476Y-68861904D01*
X156942857Y-68957142D01*
X156895238Y-69004761D01*
X156800000Y-69052380D01*
X156514285Y-69052380D01*
X156419047Y-69004761D01*
X156371428Y-68957142D01*
X131657142Y-81042857D02*
X131704761Y-81090476D01*
X131752380Y-81233333D01*
X131752380Y-81328571D01*
X131704761Y-81471428D01*
X131609523Y-81566666D01*
X131514285Y-81614285D01*
X131323809Y-81661904D01*
X131180952Y-81661904D01*
X130990476Y-81614285D01*
X130895238Y-81566666D01*
X130800000Y-81471428D01*
X130752380Y-81328571D01*
X130752380Y-81233333D01*
X130800000Y-81090476D01*
X130847619Y-81042857D01*
X131752380Y-80090476D02*
X131752380Y-80661904D01*
X131752380Y-80376190D02*
X130752380Y-80376190D01*
X130895238Y-80471428D01*
X130990476Y-80566666D01*
X131038095Y-80661904D01*
X131752380Y-79138095D02*
X131752380Y-79709523D01*
X131752380Y-79423809D02*
X130752380Y-79423809D01*
X130895238Y-79519047D01*
X130990476Y-79614285D01*
X131038095Y-79709523D01*
X153057142Y-63157142D02*
X153009523Y-63204761D01*
X152866666Y-63252380D01*
X152771428Y-63252380D01*
X152628571Y-63204761D01*
X152533333Y-63109523D01*
X152485714Y-63014285D01*
X152438095Y-62823809D01*
X152438095Y-62680952D01*
X152485714Y-62490476D01*
X152533333Y-62395238D01*
X152628571Y-62300000D01*
X152771428Y-62252380D01*
X152866666Y-62252380D01*
X153009523Y-62300000D01*
X153057142Y-62347619D01*
X154009523Y-63252380D02*
X153438095Y-63252380D01*
X153723809Y-63252380D02*
X153723809Y-62252380D01*
X153628571Y-62395238D01*
X153533333Y-62490476D01*
X153438095Y-62538095D01*
X154628571Y-62252380D02*
X154723809Y-62252380D01*
X154819047Y-62300000D01*
X154866666Y-62347619D01*
X154914285Y-62442857D01*
X154961904Y-62633333D01*
X154961904Y-62871428D01*
X154914285Y-63061904D01*
X154866666Y-63157142D01*
X154819047Y-63204761D01*
X154723809Y-63252380D01*
X154628571Y-63252380D01*
X154533333Y-63204761D01*
X154485714Y-63157142D01*
X154438095Y-63061904D01*
X154390476Y-62871428D01*
X154390476Y-62633333D01*
X154438095Y-62442857D01*
X154485714Y-62347619D01*
X154533333Y-62300000D01*
X154628571Y-62252380D01*
X155333333Y-86557142D02*
X155285714Y-86604761D01*
X155142857Y-86652380D01*
X155047619Y-86652380D01*
X154904761Y-86604761D01*
X154809523Y-86509523D01*
X154761904Y-86414285D01*
X154714285Y-86223809D01*
X154714285Y-86080952D01*
X154761904Y-85890476D01*
X154809523Y-85795238D01*
X154904761Y-85700000D01*
X155047619Y-85652380D01*
X155142857Y-85652380D01*
X155285714Y-85700000D01*
X155333333Y-85747619D01*
X155809523Y-86652380D02*
X156000000Y-86652380D01*
X156095238Y-86604761D01*
X156142857Y-86557142D01*
X156238095Y-86414285D01*
X156285714Y-86223809D01*
X156285714Y-85842857D01*
X156238095Y-85747619D01*
X156190476Y-85700000D01*
X156095238Y-85652380D01*
X155904761Y-85652380D01*
X155809523Y-85700000D01*
X155761904Y-85747619D01*
X155714285Y-85842857D01*
X155714285Y-86080952D01*
X155761904Y-86176190D01*
X155809523Y-86223809D01*
X155904761Y-86271428D01*
X156095238Y-86271428D01*
X156190476Y-86223809D01*
X156238095Y-86176190D01*
X156285714Y-86080952D01*
X155921333Y-70757142D02*
X155873714Y-70804761D01*
X155730857Y-70852380D01*
X155635619Y-70852380D01*
X155492761Y-70804761D01*
X155397523Y-70709523D01*
X155349904Y-70614285D01*
X155302285Y-70423809D01*
X155302285Y-70280952D01*
X155349904Y-70090476D01*
X155397523Y-69995238D01*
X155492761Y-69900000D01*
X155635619Y-69852380D01*
X155730857Y-69852380D01*
X155873714Y-69900000D01*
X155921333Y-69947619D01*
X156492761Y-70280952D02*
X156397523Y-70233333D01*
X156349904Y-70185714D01*
X156302285Y-70090476D01*
X156302285Y-70042857D01*
X156349904Y-69947619D01*
X156397523Y-69900000D01*
X156492761Y-69852380D01*
X156683238Y-69852380D01*
X156778476Y-69900000D01*
X156826095Y-69947619D01*
X156873714Y-70042857D01*
X156873714Y-70090476D01*
X156826095Y-70185714D01*
X156778476Y-70233333D01*
X156683238Y-70280952D01*
X156492761Y-70280952D01*
X156397523Y-70328571D01*
X156349904Y-70376190D01*
X156302285Y-70471428D01*
X156302285Y-70661904D01*
X156349904Y-70757142D01*
X156397523Y-70804761D01*
X156492761Y-70852380D01*
X156683238Y-70852380D01*
X156778476Y-70804761D01*
X156826095Y-70757142D01*
X156873714Y-70661904D01*
X156873714Y-70471428D01*
X156826095Y-70376190D01*
X156778476Y-70328571D01*
X156683238Y-70280952D01*
X155333333Y-84957142D02*
X155285714Y-85004761D01*
X155142857Y-85052380D01*
X155047619Y-85052380D01*
X154904761Y-85004761D01*
X154809523Y-84909523D01*
X154761904Y-84814285D01*
X154714285Y-84623809D01*
X154714285Y-84480952D01*
X154761904Y-84290476D01*
X154809523Y-84195238D01*
X154904761Y-84100000D01*
X155047619Y-84052380D01*
X155142857Y-84052380D01*
X155285714Y-84100000D01*
X155333333Y-84147619D01*
X155666666Y-84052380D02*
X156333333Y-84052380D01*
X155904761Y-85052380D01*
X142957142Y-65466666D02*
X143004761Y-65514285D01*
X143052380Y-65657142D01*
X143052380Y-65752380D01*
X143004761Y-65895238D01*
X142909523Y-65990476D01*
X142814285Y-66038095D01*
X142623809Y-66085714D01*
X142480952Y-66085714D01*
X142290476Y-66038095D01*
X142195238Y-65990476D01*
X142100000Y-65895238D01*
X142052380Y-65752380D01*
X142052380Y-65657142D01*
X142100000Y-65514285D01*
X142147619Y-65466666D01*
X142052380Y-64561904D02*
X142052380Y-65038095D01*
X142528571Y-65085714D01*
X142480952Y-65038095D01*
X142433333Y-64942857D01*
X142433333Y-64704761D01*
X142480952Y-64609523D01*
X142528571Y-64561904D01*
X142623809Y-64514285D01*
X142861904Y-64514285D01*
X142957142Y-64561904D01*
X143004761Y-64609523D01*
X143052380Y-64704761D01*
X143052380Y-64942857D01*
X143004761Y-65038095D01*
X142957142Y-65085714D01*
X143057142Y-80066666D02*
X143104761Y-80114285D01*
X143152380Y-80257142D01*
X143152380Y-80352380D01*
X143104761Y-80495238D01*
X143009523Y-80590476D01*
X142914285Y-80638095D01*
X142723809Y-80685714D01*
X142580952Y-80685714D01*
X142390476Y-80638095D01*
X142295238Y-80590476D01*
X142200000Y-80495238D01*
X142152380Y-80352380D01*
X142152380Y-80257142D01*
X142200000Y-80114285D01*
X142247619Y-80066666D01*
X142485714Y-79209523D02*
X143152380Y-79209523D01*
X142104761Y-79447619D02*
X142819047Y-79685714D01*
X142819047Y-79066666D01*
X131657142Y-65366666D02*
X131704761Y-65414285D01*
X131752380Y-65557142D01*
X131752380Y-65652380D01*
X131704761Y-65795238D01*
X131609523Y-65890476D01*
X131514285Y-65938095D01*
X131323809Y-65985714D01*
X131180952Y-65985714D01*
X130990476Y-65938095D01*
X130895238Y-65890476D01*
X130800000Y-65795238D01*
X130752380Y-65652380D01*
X130752380Y-65557142D01*
X130800000Y-65414285D01*
X130847619Y-65366666D01*
X130752380Y-65033333D02*
X130752380Y-64414285D01*
X131133333Y-64747619D01*
X131133333Y-64604761D01*
X131180952Y-64509523D01*
X131228571Y-64461904D01*
X131323809Y-64414285D01*
X131561904Y-64414285D01*
X131657142Y-64461904D01*
X131704761Y-64509523D01*
X131752380Y-64604761D01*
X131752380Y-64890476D01*
X131704761Y-64985714D01*
X131657142Y-65033333D01*
X155333333Y-80007142D02*
X155285714Y-80054761D01*
X155142857Y-80102380D01*
X155047619Y-80102380D01*
X154904761Y-80054761D01*
X154809523Y-79959523D01*
X154761904Y-79864285D01*
X154714285Y-79673809D01*
X154714285Y-79530952D01*
X154761904Y-79340476D01*
X154809523Y-79245238D01*
X154904761Y-79150000D01*
X155047619Y-79102380D01*
X155142857Y-79102380D01*
X155285714Y-79150000D01*
X155333333Y-79197619D01*
X156190476Y-79102380D02*
X156000000Y-79102380D01*
X155904761Y-79150000D01*
X155857142Y-79197619D01*
X155761904Y-79340476D01*
X155714285Y-79530952D01*
X155714285Y-79911904D01*
X155761904Y-80007142D01*
X155809523Y-80054761D01*
X155904761Y-80102380D01*
X156095238Y-80102380D01*
X156190476Y-80054761D01*
X156238095Y-80007142D01*
X156285714Y-79911904D01*
X156285714Y-79673809D01*
X156238095Y-79578571D01*
X156190476Y-79530952D01*
X156095238Y-79483333D01*
X155904761Y-79483333D01*
X155809523Y-79530952D01*
X155761904Y-79578571D01*
X155714285Y-79673809D01*
X146838095Y-79752380D02*
X146838095Y-80561904D01*
X146885714Y-80657142D01*
X146933333Y-80704761D01*
X147028571Y-80752380D01*
X147219047Y-80752380D01*
X147314285Y-80704761D01*
X147361904Y-80657142D01*
X147409523Y-80561904D01*
X147409523Y-79752380D01*
X148409523Y-80752380D02*
X147838095Y-80752380D01*
X148123809Y-80752380D02*
X148123809Y-79752380D01*
X148028571Y-79895238D01*
X147933333Y-79990476D01*
X147838095Y-80038095D01*
X128357142Y-86152380D02*
X128023809Y-85676190D01*
X127785714Y-86152380D02*
X127785714Y-85152380D01*
X128166666Y-85152380D01*
X128261904Y-85200000D01*
X128309523Y-85247619D01*
X128357142Y-85342857D01*
X128357142Y-85485714D01*
X128309523Y-85580952D01*
X128261904Y-85628571D01*
X128166666Y-85676190D01*
X127785714Y-85676190D01*
X129309523Y-86152380D02*
X128738095Y-86152380D01*
X129023809Y-86152380D02*
X129023809Y-85152380D01*
X128928571Y-85295238D01*
X128833333Y-85390476D01*
X128738095Y-85438095D01*
X129928571Y-85152380D02*
X130023809Y-85152380D01*
X130119047Y-85200000D01*
X130166666Y-85247619D01*
X130214285Y-85342857D01*
X130261904Y-85533333D01*
X130261904Y-85771428D01*
X130214285Y-85961904D01*
X130166666Y-86057142D01*
X130119047Y-86104761D01*
X130023809Y-86152380D01*
X129928571Y-86152380D01*
X129833333Y-86104761D01*
X129785714Y-86057142D01*
X129738095Y-85961904D01*
X129690476Y-85771428D01*
X129690476Y-85533333D01*
X129738095Y-85342857D01*
X129785714Y-85247619D01*
X129833333Y-85200000D01*
X129928571Y-85152380D01*
X129233333Y-84052380D02*
X128900000Y-83576190D01*
X128661904Y-84052380D02*
X128661904Y-83052380D01*
X129042857Y-83052380D01*
X129138095Y-83100000D01*
X129185714Y-83147619D01*
X129233333Y-83242857D01*
X129233333Y-83385714D01*
X129185714Y-83480952D01*
X129138095Y-83528571D01*
X129042857Y-83576190D01*
X128661904Y-83576190D01*
X129709523Y-84052380D02*
X129900000Y-84052380D01*
X129995238Y-84004761D01*
X130042857Y-83957142D01*
X130138095Y-83814285D01*
X130185714Y-83623809D01*
X130185714Y-83242857D01*
X130138095Y-83147619D01*
X130090476Y-83100000D01*
X129995238Y-83052380D01*
X129804761Y-83052380D01*
X129709523Y-83100000D01*
X129661904Y-83147619D01*
X129614285Y-83242857D01*
X129614285Y-83480952D01*
X129661904Y-83576190D01*
X129709523Y-83623809D01*
X129804761Y-83671428D01*
X129995238Y-83671428D01*
X130090476Y-83623809D01*
X130138095Y-83576190D01*
X130185714Y-83480952D01*
X155333333Y-83452380D02*
X155000000Y-82976190D01*
X154761904Y-83452380D02*
X154761904Y-82452380D01*
X155142857Y-82452380D01*
X155238095Y-82500000D01*
X155285714Y-82547619D01*
X155333333Y-82642857D01*
X155333333Y-82785714D01*
X155285714Y-82880952D01*
X155238095Y-82928571D01*
X155142857Y-82976190D01*
X154761904Y-82976190D01*
X155666666Y-82452380D02*
X156333333Y-82452380D01*
X155904761Y-83452380D01*
X155333333Y-81852380D02*
X155000000Y-81376190D01*
X154761904Y-81852380D02*
X154761904Y-80852380D01*
X155142857Y-80852380D01*
X155238095Y-80900000D01*
X155285714Y-80947619D01*
X155333333Y-81042857D01*
X155333333Y-81185714D01*
X155285714Y-81280952D01*
X155238095Y-81328571D01*
X155142857Y-81376190D01*
X154761904Y-81376190D01*
X156190476Y-80852380D02*
X156000000Y-80852380D01*
X155904761Y-80900000D01*
X155857142Y-80947619D01*
X155761904Y-81090476D01*
X155714285Y-81280952D01*
X155714285Y-81661904D01*
X155761904Y-81757142D01*
X155809523Y-81804761D01*
X155904761Y-81852380D01*
X156095238Y-81852380D01*
X156190476Y-81804761D01*
X156238095Y-81757142D01*
X156285714Y-81661904D01*
X156285714Y-81423809D01*
X156238095Y-81328571D01*
X156190476Y-81280952D01*
X156095238Y-81233333D01*
X155904761Y-81233333D01*
X155809523Y-81280952D01*
X155761904Y-81328571D01*
X155714285Y-81423809D01*
X145895333Y-88152380D02*
X145562000Y-87676190D01*
X145323904Y-88152380D02*
X145323904Y-87152380D01*
X145704857Y-87152380D01*
X145800095Y-87200000D01*
X145847714Y-87247619D01*
X145895333Y-87342857D01*
X145895333Y-87485714D01*
X145847714Y-87580952D01*
X145800095Y-87628571D01*
X145704857Y-87676190D01*
X145323904Y-87676190D01*
X146800095Y-87152380D02*
X146323904Y-87152380D01*
X146276285Y-87628571D01*
X146323904Y-87580952D01*
X146419142Y-87533333D01*
X146657238Y-87533333D01*
X146752476Y-87580952D01*
X146800095Y-87628571D01*
X146847714Y-87723809D01*
X146847714Y-87961904D01*
X146800095Y-88057142D01*
X146752476Y-88104761D01*
X146657238Y-88152380D01*
X146419142Y-88152380D01*
X146323904Y-88104761D01*
X146276285Y-88057142D01*
X125132833Y-71652380D02*
X124799500Y-71176190D01*
X124561404Y-71652380D02*
X124561404Y-70652380D01*
X124942357Y-70652380D01*
X125037595Y-70700000D01*
X125085214Y-70747619D01*
X125132833Y-70842857D01*
X125132833Y-70985714D01*
X125085214Y-71080952D01*
X125037595Y-71128571D01*
X124942357Y-71176190D01*
X124561404Y-71176190D01*
X125989976Y-70985714D02*
X125989976Y-71652380D01*
X125751880Y-70604761D02*
X125513785Y-71319047D01*
X126132833Y-71319047D01*
X139633333Y-86652380D02*
X139300000Y-86176190D01*
X139061904Y-86652380D02*
X139061904Y-85652380D01*
X139442857Y-85652380D01*
X139538095Y-85700000D01*
X139585714Y-85747619D01*
X139633333Y-85842857D01*
X139633333Y-85985714D01*
X139585714Y-86080952D01*
X139538095Y-86128571D01*
X139442857Y-86176190D01*
X139061904Y-86176190D01*
X140585714Y-86652380D02*
X140014285Y-86652380D01*
X140300000Y-86652380D02*
X140300000Y-85652380D01*
X140204761Y-85795238D01*
X140109523Y-85890476D01*
X140014285Y-85938095D01*
X124066666Y-67328571D02*
X123733333Y-67328571D01*
X123733333Y-67852380D02*
X123733333Y-66852380D01*
X124209523Y-66852380D01*
X124923809Y-67328571D02*
X125066666Y-67376190D01*
X125114285Y-67423809D01*
X125161904Y-67519047D01*
X125161904Y-67661904D01*
X125114285Y-67757142D01*
X125066666Y-67804761D01*
X124971428Y-67852380D01*
X124590476Y-67852380D01*
X124590476Y-66852380D01*
X124923809Y-66852380D01*
X125019047Y-66900000D01*
X125066666Y-66947619D01*
X125114285Y-67042857D01*
X125114285Y-67138095D01*
X125066666Y-67233333D01*
X125019047Y-67280952D01*
X124923809Y-67328571D01*
X124590476Y-67328571D01*
X125495238Y-66852380D02*
X126114285Y-66852380D01*
X125780952Y-67233333D01*
X125923809Y-67233333D01*
X126019047Y-67280952D01*
X126066666Y-67328571D01*
X126114285Y-67423809D01*
X126114285Y-67661904D01*
X126066666Y-67757142D01*
X126019047Y-67804761D01*
X125923809Y-67852380D01*
X125638095Y-67852380D01*
X125542857Y-67804761D01*
X125495238Y-67757142D01*
X127116666Y-75928571D02*
X126783333Y-75928571D01*
X126783333Y-76452380D02*
X126783333Y-75452380D01*
X127259523Y-75452380D01*
X127973809Y-75928571D02*
X128116666Y-75976190D01*
X128164285Y-76023809D01*
X128211904Y-76119047D01*
X128211904Y-76261904D01*
X128164285Y-76357142D01*
X128116666Y-76404761D01*
X128021428Y-76452380D01*
X127640476Y-76452380D01*
X127640476Y-75452380D01*
X127973809Y-75452380D01*
X128069047Y-75500000D01*
X128116666Y-75547619D01*
X128164285Y-75642857D01*
X128164285Y-75738095D01*
X128116666Y-75833333D01*
X128069047Y-75880952D01*
X127973809Y-75928571D01*
X127640476Y-75928571D01*
X128592857Y-75547619D02*
X128640476Y-75500000D01*
X128735714Y-75452380D01*
X128973809Y-75452380D01*
X129069047Y-75500000D01*
X129116666Y-75547619D01*
X129164285Y-75642857D01*
X129164285Y-75738095D01*
X129116666Y-75880952D01*
X128545238Y-76452380D01*
X129164285Y-76452380D01*
X127166666Y-81828571D02*
X126833333Y-81828571D01*
X126833333Y-82352380D02*
X126833333Y-81352380D01*
X127309523Y-81352380D01*
X128023809Y-81828571D02*
X128166666Y-81876190D01*
X128214285Y-81923809D01*
X128261904Y-82019047D01*
X128261904Y-82161904D01*
X128214285Y-82257142D01*
X128166666Y-82304761D01*
X128071428Y-82352380D01*
X127690476Y-82352380D01*
X127690476Y-81352380D01*
X128023809Y-81352380D01*
X128119047Y-81400000D01*
X128166666Y-81447619D01*
X128214285Y-81542857D01*
X128214285Y-81638095D01*
X128166666Y-81733333D01*
X128119047Y-81780952D01*
X128023809Y-81828571D01*
X127690476Y-81828571D01*
X129214285Y-82352380D02*
X128642857Y-82352380D01*
X128928571Y-82352380D02*
X128928571Y-81352380D01*
X128833333Y-81495238D01*
X128738095Y-81590476D01*
X128642857Y-81638095D01*
X136861904Y-86152380D02*
X136861904Y-85152380D01*
X137100000Y-85152380D01*
X137242857Y-85200000D01*
X137338095Y-85295238D01*
X137385714Y-85390476D01*
X137433333Y-85580952D01*
X137433333Y-85723809D01*
X137385714Y-85914285D01*
X137338095Y-86009523D01*
X137242857Y-86104761D01*
X137100000Y-86152380D01*
X136861904Y-86152380D01*
X138338095Y-85152380D02*
X137861904Y-85152380D01*
X137814285Y-85628571D01*
X137861904Y-85580952D01*
X137957142Y-85533333D01*
X138195238Y-85533333D01*
X138290476Y-85580952D01*
X138338095Y-85628571D01*
X138385714Y-85723809D01*
X138385714Y-85961904D01*
X138338095Y-86057142D01*
X138290476Y-86104761D01*
X138195238Y-86152380D01*
X137957142Y-86152380D01*
X137861904Y-86104761D01*
X137814285Y-86057142D01*
X136861904Y-84052380D02*
X136861904Y-83052380D01*
X137100000Y-83052380D01*
X137242857Y-83100000D01*
X137338095Y-83195238D01*
X137385714Y-83290476D01*
X137433333Y-83480952D01*
X137433333Y-83623809D01*
X137385714Y-83814285D01*
X137338095Y-83909523D01*
X137242857Y-84004761D01*
X137100000Y-84052380D01*
X136861904Y-84052380D01*
X138290476Y-83385714D02*
X138290476Y-84052380D01*
X138052380Y-83004761D02*
X137814285Y-83719047D01*
X138433333Y-83719047D01*
X142061904Y-74652380D02*
X142061904Y-73652380D01*
X142300000Y-73652380D01*
X142442857Y-73700000D01*
X142538095Y-73795238D01*
X142585714Y-73890476D01*
X142633333Y-74080952D01*
X142633333Y-74223809D01*
X142585714Y-74414285D01*
X142538095Y-74509523D01*
X142442857Y-74604761D01*
X142300000Y-74652380D01*
X142061904Y-74652380D01*
X142966666Y-73652380D02*
X143585714Y-73652380D01*
X143252380Y-74033333D01*
X143395238Y-74033333D01*
X143490476Y-74080952D01*
X143538095Y-74128571D01*
X143585714Y-74223809D01*
X143585714Y-74461904D01*
X143538095Y-74557142D01*
X143490476Y-74604761D01*
X143395238Y-74652380D01*
X143109523Y-74652380D01*
X143014285Y-74604761D01*
X142966666Y-74557142D01*
X143861904Y-63352380D02*
X143861904Y-62352380D01*
X144100000Y-62352380D01*
X144242857Y-62400000D01*
X144338095Y-62495238D01*
X144385714Y-62590476D01*
X144433333Y-62780952D01*
X144433333Y-62923809D01*
X144385714Y-63114285D01*
X144338095Y-63209523D01*
X144242857Y-63304761D01*
X144100000Y-63352380D01*
X143861904Y-63352380D01*
X144814285Y-62447619D02*
X144861904Y-62400000D01*
X144957142Y-62352380D01*
X145195238Y-62352380D01*
X145290476Y-62400000D01*
X145338095Y-62447619D01*
X145385714Y-62542857D01*
X145385714Y-62638095D01*
X145338095Y-62780952D01*
X144766666Y-63352380D01*
X145385714Y-63352380D01*
X142061904Y-71352380D02*
X142061904Y-70352380D01*
X142300000Y-70352380D01*
X142442857Y-70400000D01*
X142538095Y-70495238D01*
X142585714Y-70590476D01*
X142633333Y-70780952D01*
X142633333Y-70923809D01*
X142585714Y-71114285D01*
X142538095Y-71209523D01*
X142442857Y-71304761D01*
X142300000Y-71352380D01*
X142061904Y-71352380D01*
X143585714Y-71352380D02*
X143014285Y-71352380D01*
X143300000Y-71352380D02*
X143300000Y-70352380D01*
X143204761Y-70495238D01*
X143109523Y-70590476D01*
X143014285Y-70638095D01*
X139483333Y-83257142D02*
X139435714Y-83304761D01*
X139292857Y-83352380D01*
X139197619Y-83352380D01*
X139054761Y-83304761D01*
X138959523Y-83209523D01*
X138911904Y-83114285D01*
X138864285Y-82923809D01*
X138864285Y-82780952D01*
X138911904Y-82590476D01*
X138959523Y-82495238D01*
X139054761Y-82400000D01*
X139197619Y-82352380D01*
X139292857Y-82352380D01*
X139435714Y-82400000D01*
X139483333Y-82447619D01*
X139864285Y-82447619D02*
X139911904Y-82400000D01*
X140007142Y-82352380D01*
X140245238Y-82352380D01*
X140340476Y-82400000D01*
X140388095Y-82447619D01*
X140435714Y-82542857D01*
X140435714Y-82638095D01*
X140388095Y-82780952D01*
X139816666Y-83352380D01*
X140435714Y-83352380D01*
X139533333Y-84907142D02*
X139485714Y-84954761D01*
X139342857Y-85002380D01*
X139247619Y-85002380D01*
X139104761Y-84954761D01*
X139009523Y-84859523D01*
X138961904Y-84764285D01*
X138914285Y-84573809D01*
X138914285Y-84430952D01*
X138961904Y-84240476D01*
X139009523Y-84145238D01*
X139104761Y-84050000D01*
X139247619Y-84002380D01*
X139342857Y-84002380D01*
X139485714Y-84050000D01*
X139533333Y-84097619D01*
X140485714Y-85002380D02*
X139914285Y-85002380D01*
X140200000Y-85002380D02*
X140200000Y-84002380D01*
X140104761Y-84145238D01*
X140009523Y-84240476D01*
X139914285Y-84288095D01*
%LPC*%
D12*
G36*
X150243691Y-85675176D02*
G01*
X150267401Y-85678693D01*
X150290652Y-85684517D01*
X150313220Y-85692592D01*
X150334889Y-85702841D01*
X150355448Y-85715164D01*
X150374701Y-85729442D01*
X150392461Y-85745539D01*
X150408558Y-85763299D01*
X150422836Y-85782552D01*
X150435159Y-85803111D01*
X150445408Y-85824780D01*
X150453483Y-85847348D01*
X150459307Y-85870599D01*
X150462824Y-85894309D01*
X150464000Y-85918250D01*
X150464000Y-86481750D01*
X150462824Y-86505691D01*
X150459307Y-86529401D01*
X150453483Y-86552652D01*
X150445408Y-86575220D01*
X150435159Y-86596889D01*
X150422836Y-86617448D01*
X150408558Y-86636701D01*
X150392461Y-86654461D01*
X150374701Y-86670558D01*
X150355448Y-86684836D01*
X150334889Y-86697159D01*
X150313220Y-86707408D01*
X150290652Y-86715483D01*
X150267401Y-86721307D01*
X150243691Y-86724824D01*
X150219750Y-86726000D01*
X149731250Y-86726000D01*
X149707309Y-86724824D01*
X149683599Y-86721307D01*
X149660348Y-86715483D01*
X149637780Y-86707408D01*
X149616111Y-86697159D01*
X149595552Y-86684836D01*
X149576299Y-86670558D01*
X149558539Y-86654461D01*
X149542442Y-86636701D01*
X149528164Y-86617448D01*
X149515841Y-86596889D01*
X149505592Y-86575220D01*
X149497517Y-86552652D01*
X149491693Y-86529401D01*
X149488176Y-86505691D01*
X149487000Y-86481750D01*
X149487000Y-85918250D01*
X149488176Y-85894309D01*
X149491693Y-85870599D01*
X149497517Y-85847348D01*
X149505592Y-85824780D01*
X149515841Y-85803111D01*
X149528164Y-85782552D01*
X149542442Y-85763299D01*
X149558539Y-85745539D01*
X149576299Y-85729442D01*
X149595552Y-85715164D01*
X149616111Y-85702841D01*
X149637780Y-85692592D01*
X149660348Y-85684517D01*
X149683599Y-85678693D01*
X149707309Y-85675176D01*
X149731250Y-85674000D01*
X150219750Y-85674000D01*
X150243691Y-85675176D01*
X150243691Y-85675176D01*
G37*
D13*
X149975500Y-86200000D03*
D12*
G36*
X148668691Y-85675176D02*
G01*
X148692401Y-85678693D01*
X148715652Y-85684517D01*
X148738220Y-85692592D01*
X148759889Y-85702841D01*
X148780448Y-85715164D01*
X148799701Y-85729442D01*
X148817461Y-85745539D01*
X148833558Y-85763299D01*
X148847836Y-85782552D01*
X148860159Y-85803111D01*
X148870408Y-85824780D01*
X148878483Y-85847348D01*
X148884307Y-85870599D01*
X148887824Y-85894309D01*
X148889000Y-85918250D01*
X148889000Y-86481750D01*
X148887824Y-86505691D01*
X148884307Y-86529401D01*
X148878483Y-86552652D01*
X148870408Y-86575220D01*
X148860159Y-86596889D01*
X148847836Y-86617448D01*
X148833558Y-86636701D01*
X148817461Y-86654461D01*
X148799701Y-86670558D01*
X148780448Y-86684836D01*
X148759889Y-86697159D01*
X148738220Y-86707408D01*
X148715652Y-86715483D01*
X148692401Y-86721307D01*
X148668691Y-86724824D01*
X148644750Y-86726000D01*
X148156250Y-86726000D01*
X148132309Y-86724824D01*
X148108599Y-86721307D01*
X148085348Y-86715483D01*
X148062780Y-86707408D01*
X148041111Y-86697159D01*
X148020552Y-86684836D01*
X148001299Y-86670558D01*
X147983539Y-86654461D01*
X147967442Y-86636701D01*
X147953164Y-86617448D01*
X147940841Y-86596889D01*
X147930592Y-86575220D01*
X147922517Y-86552652D01*
X147916693Y-86529401D01*
X147913176Y-86505691D01*
X147912000Y-86481750D01*
X147912000Y-85918250D01*
X147913176Y-85894309D01*
X147916693Y-85870599D01*
X147922517Y-85847348D01*
X147930592Y-85824780D01*
X147940841Y-85803111D01*
X147953164Y-85782552D01*
X147967442Y-85763299D01*
X147983539Y-85745539D01*
X148001299Y-85729442D01*
X148020552Y-85715164D01*
X148041111Y-85702841D01*
X148062780Y-85692592D01*
X148085348Y-85684517D01*
X148108599Y-85678693D01*
X148132309Y-85675176D01*
X148156250Y-85674000D01*
X148644750Y-85674000D01*
X148668691Y-85675176D01*
X148668691Y-85675176D01*
G37*
D13*
X148400500Y-86200000D03*
D12*
G36*
X125405691Y-75837676D02*
G01*
X125429401Y-75841193D01*
X125452652Y-75847017D01*
X125475220Y-75855092D01*
X125496889Y-75865341D01*
X125517448Y-75877664D01*
X125536701Y-75891942D01*
X125554461Y-75908039D01*
X125570558Y-75925799D01*
X125584836Y-75945052D01*
X125597159Y-75965611D01*
X125607408Y-75987280D01*
X125615483Y-76009848D01*
X125621307Y-76033099D01*
X125624824Y-76056809D01*
X125626000Y-76080750D01*
X125626000Y-76569250D01*
X125624824Y-76593191D01*
X125621307Y-76616901D01*
X125615483Y-76640152D01*
X125607408Y-76662720D01*
X125597159Y-76684389D01*
X125584836Y-76704948D01*
X125570558Y-76724201D01*
X125554461Y-76741961D01*
X125536701Y-76758058D01*
X125517448Y-76772336D01*
X125496889Y-76784659D01*
X125475220Y-76794908D01*
X125452652Y-76802983D01*
X125429401Y-76808807D01*
X125405691Y-76812324D01*
X125381750Y-76813500D01*
X124818250Y-76813500D01*
X124794309Y-76812324D01*
X124770599Y-76808807D01*
X124747348Y-76802983D01*
X124724780Y-76794908D01*
X124703111Y-76784659D01*
X124682552Y-76772336D01*
X124663299Y-76758058D01*
X124645539Y-76741961D01*
X124629442Y-76724201D01*
X124615164Y-76704948D01*
X124602841Y-76684389D01*
X124592592Y-76662720D01*
X124584517Y-76640152D01*
X124578693Y-76616901D01*
X124575176Y-76593191D01*
X124574000Y-76569250D01*
X124574000Y-76080750D01*
X124575176Y-76056809D01*
X124578693Y-76033099D01*
X124584517Y-76009848D01*
X124592592Y-75987280D01*
X124602841Y-75965611D01*
X124615164Y-75945052D01*
X124629442Y-75925799D01*
X124645539Y-75908039D01*
X124663299Y-75891942D01*
X124682552Y-75877664D01*
X124703111Y-75865341D01*
X124724780Y-75855092D01*
X124747348Y-75847017D01*
X124770599Y-75841193D01*
X124794309Y-75837676D01*
X124818250Y-75836500D01*
X125381750Y-75836500D01*
X125405691Y-75837676D01*
X125405691Y-75837676D01*
G37*
D13*
X125100000Y-76325000D03*
D12*
G36*
X125405691Y-77412676D02*
G01*
X125429401Y-77416193D01*
X125452652Y-77422017D01*
X125475220Y-77430092D01*
X125496889Y-77440341D01*
X125517448Y-77452664D01*
X125536701Y-77466942D01*
X125554461Y-77483039D01*
X125570558Y-77500799D01*
X125584836Y-77520052D01*
X125597159Y-77540611D01*
X125607408Y-77562280D01*
X125615483Y-77584848D01*
X125621307Y-77608099D01*
X125624824Y-77631809D01*
X125626000Y-77655750D01*
X125626000Y-78144250D01*
X125624824Y-78168191D01*
X125621307Y-78191901D01*
X125615483Y-78215152D01*
X125607408Y-78237720D01*
X125597159Y-78259389D01*
X125584836Y-78279948D01*
X125570558Y-78299201D01*
X125554461Y-78316961D01*
X125536701Y-78333058D01*
X125517448Y-78347336D01*
X125496889Y-78359659D01*
X125475220Y-78369908D01*
X125452652Y-78377983D01*
X125429401Y-78383807D01*
X125405691Y-78387324D01*
X125381750Y-78388500D01*
X124818250Y-78388500D01*
X124794309Y-78387324D01*
X124770599Y-78383807D01*
X124747348Y-78377983D01*
X124724780Y-78369908D01*
X124703111Y-78359659D01*
X124682552Y-78347336D01*
X124663299Y-78333058D01*
X124645539Y-78316961D01*
X124629442Y-78299201D01*
X124615164Y-78279948D01*
X124602841Y-78259389D01*
X124592592Y-78237720D01*
X124584517Y-78215152D01*
X124578693Y-78191901D01*
X124575176Y-78168191D01*
X124574000Y-78144250D01*
X124574000Y-77655750D01*
X124575176Y-77631809D01*
X124578693Y-77608099D01*
X124584517Y-77584848D01*
X124592592Y-77562280D01*
X124602841Y-77540611D01*
X124615164Y-77520052D01*
X124629442Y-77500799D01*
X124645539Y-77483039D01*
X124663299Y-77466942D01*
X124682552Y-77452664D01*
X124703111Y-77440341D01*
X124724780Y-77430092D01*
X124747348Y-77422017D01*
X124770599Y-77416193D01*
X124794309Y-77412676D01*
X124818250Y-77411500D01*
X125381750Y-77411500D01*
X125405691Y-77412676D01*
X125405691Y-77412676D01*
G37*
D13*
X125100000Y-77900000D03*
D12*
G36*
X125405691Y-81100176D02*
G01*
X125429401Y-81103693D01*
X125452652Y-81109517D01*
X125475220Y-81117592D01*
X125496889Y-81127841D01*
X125517448Y-81140164D01*
X125536701Y-81154442D01*
X125554461Y-81170539D01*
X125570558Y-81188299D01*
X125584836Y-81207552D01*
X125597159Y-81228111D01*
X125607408Y-81249780D01*
X125615483Y-81272348D01*
X125621307Y-81295599D01*
X125624824Y-81319309D01*
X125626000Y-81343250D01*
X125626000Y-81831750D01*
X125624824Y-81855691D01*
X125621307Y-81879401D01*
X125615483Y-81902652D01*
X125607408Y-81925220D01*
X125597159Y-81946889D01*
X125584836Y-81967448D01*
X125570558Y-81986701D01*
X125554461Y-82004461D01*
X125536701Y-82020558D01*
X125517448Y-82034836D01*
X125496889Y-82047159D01*
X125475220Y-82057408D01*
X125452652Y-82065483D01*
X125429401Y-82071307D01*
X125405691Y-82074824D01*
X125381750Y-82076000D01*
X124818250Y-82076000D01*
X124794309Y-82074824D01*
X124770599Y-82071307D01*
X124747348Y-82065483D01*
X124724780Y-82057408D01*
X124703111Y-82047159D01*
X124682552Y-82034836D01*
X124663299Y-82020558D01*
X124645539Y-82004461D01*
X124629442Y-81986701D01*
X124615164Y-81967448D01*
X124602841Y-81946889D01*
X124592592Y-81925220D01*
X124584517Y-81902652D01*
X124578693Y-81879401D01*
X124575176Y-81855691D01*
X124574000Y-81831750D01*
X124574000Y-81343250D01*
X124575176Y-81319309D01*
X124578693Y-81295599D01*
X124584517Y-81272348D01*
X124592592Y-81249780D01*
X124602841Y-81228111D01*
X124615164Y-81207552D01*
X124629442Y-81188299D01*
X124645539Y-81170539D01*
X124663299Y-81154442D01*
X124682552Y-81140164D01*
X124703111Y-81127841D01*
X124724780Y-81117592D01*
X124747348Y-81109517D01*
X124770599Y-81103693D01*
X124794309Y-81100176D01*
X124818250Y-81099000D01*
X125381750Y-81099000D01*
X125405691Y-81100176D01*
X125405691Y-81100176D01*
G37*
D13*
X125100000Y-81587500D03*
D12*
G36*
X125405691Y-79525176D02*
G01*
X125429401Y-79528693D01*
X125452652Y-79534517D01*
X125475220Y-79542592D01*
X125496889Y-79552841D01*
X125517448Y-79565164D01*
X125536701Y-79579442D01*
X125554461Y-79595539D01*
X125570558Y-79613299D01*
X125584836Y-79632552D01*
X125597159Y-79653111D01*
X125607408Y-79674780D01*
X125615483Y-79697348D01*
X125621307Y-79720599D01*
X125624824Y-79744309D01*
X125626000Y-79768250D01*
X125626000Y-80256750D01*
X125624824Y-80280691D01*
X125621307Y-80304401D01*
X125615483Y-80327652D01*
X125607408Y-80350220D01*
X125597159Y-80371889D01*
X125584836Y-80392448D01*
X125570558Y-80411701D01*
X125554461Y-80429461D01*
X125536701Y-80445558D01*
X125517448Y-80459836D01*
X125496889Y-80472159D01*
X125475220Y-80482408D01*
X125452652Y-80490483D01*
X125429401Y-80496307D01*
X125405691Y-80499824D01*
X125381750Y-80501000D01*
X124818250Y-80501000D01*
X124794309Y-80499824D01*
X124770599Y-80496307D01*
X124747348Y-80490483D01*
X124724780Y-80482408D01*
X124703111Y-80472159D01*
X124682552Y-80459836D01*
X124663299Y-80445558D01*
X124645539Y-80429461D01*
X124629442Y-80411701D01*
X124615164Y-80392448D01*
X124602841Y-80371889D01*
X124592592Y-80350220D01*
X124584517Y-80327652D01*
X124578693Y-80304401D01*
X124575176Y-80280691D01*
X124574000Y-80256750D01*
X124574000Y-79768250D01*
X124575176Y-79744309D01*
X124578693Y-79720599D01*
X124584517Y-79697348D01*
X124592592Y-79674780D01*
X124602841Y-79653111D01*
X124615164Y-79632552D01*
X124629442Y-79613299D01*
X124645539Y-79595539D01*
X124663299Y-79579442D01*
X124682552Y-79565164D01*
X124703111Y-79552841D01*
X124724780Y-79542592D01*
X124747348Y-79534517D01*
X124770599Y-79528693D01*
X124794309Y-79525176D01*
X124818250Y-79524000D01*
X125381750Y-79524000D01*
X125405691Y-79525176D01*
X125405691Y-79525176D01*
G37*
D13*
X125100000Y-80012500D03*
D12*
G36*
X153168691Y-65975176D02*
G01*
X153192401Y-65978693D01*
X153215652Y-65984517D01*
X153238220Y-65992592D01*
X153259889Y-66002841D01*
X153280448Y-66015164D01*
X153299701Y-66029442D01*
X153317461Y-66045539D01*
X153333558Y-66063299D01*
X153347836Y-66082552D01*
X153360159Y-66103111D01*
X153370408Y-66124780D01*
X153378483Y-66147348D01*
X153384307Y-66170599D01*
X153387824Y-66194309D01*
X153389000Y-66218250D01*
X153389000Y-66781750D01*
X153387824Y-66805691D01*
X153384307Y-66829401D01*
X153378483Y-66852652D01*
X153370408Y-66875220D01*
X153360159Y-66896889D01*
X153347836Y-66917448D01*
X153333558Y-66936701D01*
X153317461Y-66954461D01*
X153299701Y-66970558D01*
X153280448Y-66984836D01*
X153259889Y-66997159D01*
X153238220Y-67007408D01*
X153215652Y-67015483D01*
X153192401Y-67021307D01*
X153168691Y-67024824D01*
X153144750Y-67026000D01*
X152656250Y-67026000D01*
X152632309Y-67024824D01*
X152608599Y-67021307D01*
X152585348Y-67015483D01*
X152562780Y-67007408D01*
X152541111Y-66997159D01*
X152520552Y-66984836D01*
X152501299Y-66970558D01*
X152483539Y-66954461D01*
X152467442Y-66936701D01*
X152453164Y-66917448D01*
X152440841Y-66896889D01*
X152430592Y-66875220D01*
X152422517Y-66852652D01*
X152416693Y-66829401D01*
X152413176Y-66805691D01*
X152412000Y-66781750D01*
X152412000Y-66218250D01*
X152413176Y-66194309D01*
X152416693Y-66170599D01*
X152422517Y-66147348D01*
X152430592Y-66124780D01*
X152440841Y-66103111D01*
X152453164Y-66082552D01*
X152467442Y-66063299D01*
X152483539Y-66045539D01*
X152501299Y-66029442D01*
X152520552Y-66015164D01*
X152541111Y-66002841D01*
X152562780Y-65992592D01*
X152585348Y-65984517D01*
X152608599Y-65978693D01*
X152632309Y-65975176D01*
X152656250Y-65974000D01*
X153144750Y-65974000D01*
X153168691Y-65975176D01*
X153168691Y-65975176D01*
G37*
D13*
X152900500Y-66500000D03*
D12*
G36*
X154743691Y-65975176D02*
G01*
X154767401Y-65978693D01*
X154790652Y-65984517D01*
X154813220Y-65992592D01*
X154834889Y-66002841D01*
X154855448Y-66015164D01*
X154874701Y-66029442D01*
X154892461Y-66045539D01*
X154908558Y-66063299D01*
X154922836Y-66082552D01*
X154935159Y-66103111D01*
X154945408Y-66124780D01*
X154953483Y-66147348D01*
X154959307Y-66170599D01*
X154962824Y-66194309D01*
X154964000Y-66218250D01*
X154964000Y-66781750D01*
X154962824Y-66805691D01*
X154959307Y-66829401D01*
X154953483Y-66852652D01*
X154945408Y-66875220D01*
X154935159Y-66896889D01*
X154922836Y-66917448D01*
X154908558Y-66936701D01*
X154892461Y-66954461D01*
X154874701Y-66970558D01*
X154855448Y-66984836D01*
X154834889Y-66997159D01*
X154813220Y-67007408D01*
X154790652Y-67015483D01*
X154767401Y-67021307D01*
X154743691Y-67024824D01*
X154719750Y-67026000D01*
X154231250Y-67026000D01*
X154207309Y-67024824D01*
X154183599Y-67021307D01*
X154160348Y-67015483D01*
X154137780Y-67007408D01*
X154116111Y-66997159D01*
X154095552Y-66984836D01*
X154076299Y-66970558D01*
X154058539Y-66954461D01*
X154042442Y-66936701D01*
X154028164Y-66917448D01*
X154015841Y-66896889D01*
X154005592Y-66875220D01*
X153997517Y-66852652D01*
X153991693Y-66829401D01*
X153988176Y-66805691D01*
X153987000Y-66781750D01*
X153987000Y-66218250D01*
X153988176Y-66194309D01*
X153991693Y-66170599D01*
X153997517Y-66147348D01*
X154005592Y-66124780D01*
X154015841Y-66103111D01*
X154028164Y-66082552D01*
X154042442Y-66063299D01*
X154058539Y-66045539D01*
X154076299Y-66029442D01*
X154095552Y-66015164D01*
X154116111Y-66002841D01*
X154137780Y-65992592D01*
X154160348Y-65984517D01*
X154183599Y-65978693D01*
X154207309Y-65975176D01*
X154231250Y-65974000D01*
X154719750Y-65974000D01*
X154743691Y-65975176D01*
X154743691Y-65975176D01*
G37*
D13*
X154475500Y-66500000D03*
D12*
G36*
X127468691Y-68975176D02*
G01*
X127492401Y-68978693D01*
X127515652Y-68984517D01*
X127538220Y-68992592D01*
X127559889Y-69002841D01*
X127580448Y-69015164D01*
X127599701Y-69029442D01*
X127617461Y-69045539D01*
X127633558Y-69063299D01*
X127647836Y-69082552D01*
X127660159Y-69103111D01*
X127670408Y-69124780D01*
X127678483Y-69147348D01*
X127684307Y-69170599D01*
X127687824Y-69194309D01*
X127689000Y-69218250D01*
X127689000Y-69781750D01*
X127687824Y-69805691D01*
X127684307Y-69829401D01*
X127678483Y-69852652D01*
X127670408Y-69875220D01*
X127660159Y-69896889D01*
X127647836Y-69917448D01*
X127633558Y-69936701D01*
X127617461Y-69954461D01*
X127599701Y-69970558D01*
X127580448Y-69984836D01*
X127559889Y-69997159D01*
X127538220Y-70007408D01*
X127515652Y-70015483D01*
X127492401Y-70021307D01*
X127468691Y-70024824D01*
X127444750Y-70026000D01*
X126956250Y-70026000D01*
X126932309Y-70024824D01*
X126908599Y-70021307D01*
X126885348Y-70015483D01*
X126862780Y-70007408D01*
X126841111Y-69997159D01*
X126820552Y-69984836D01*
X126801299Y-69970558D01*
X126783539Y-69954461D01*
X126767442Y-69936701D01*
X126753164Y-69917448D01*
X126740841Y-69896889D01*
X126730592Y-69875220D01*
X126722517Y-69852652D01*
X126716693Y-69829401D01*
X126713176Y-69805691D01*
X126712000Y-69781750D01*
X126712000Y-69218250D01*
X126713176Y-69194309D01*
X126716693Y-69170599D01*
X126722517Y-69147348D01*
X126730592Y-69124780D01*
X126740841Y-69103111D01*
X126753164Y-69082552D01*
X126767442Y-69063299D01*
X126783539Y-69045539D01*
X126801299Y-69029442D01*
X126820552Y-69015164D01*
X126841111Y-69002841D01*
X126862780Y-68992592D01*
X126885348Y-68984517D01*
X126908599Y-68978693D01*
X126932309Y-68975176D01*
X126956250Y-68974000D01*
X127444750Y-68974000D01*
X127468691Y-68975176D01*
X127468691Y-68975176D01*
G37*
D13*
X127200500Y-69500000D03*
D12*
G36*
X129043691Y-68975176D02*
G01*
X129067401Y-68978693D01*
X129090652Y-68984517D01*
X129113220Y-68992592D01*
X129134889Y-69002841D01*
X129155448Y-69015164D01*
X129174701Y-69029442D01*
X129192461Y-69045539D01*
X129208558Y-69063299D01*
X129222836Y-69082552D01*
X129235159Y-69103111D01*
X129245408Y-69124780D01*
X129253483Y-69147348D01*
X129259307Y-69170599D01*
X129262824Y-69194309D01*
X129264000Y-69218250D01*
X129264000Y-69781750D01*
X129262824Y-69805691D01*
X129259307Y-69829401D01*
X129253483Y-69852652D01*
X129245408Y-69875220D01*
X129235159Y-69896889D01*
X129222836Y-69917448D01*
X129208558Y-69936701D01*
X129192461Y-69954461D01*
X129174701Y-69970558D01*
X129155448Y-69984836D01*
X129134889Y-69997159D01*
X129113220Y-70007408D01*
X129090652Y-70015483D01*
X129067401Y-70021307D01*
X129043691Y-70024824D01*
X129019750Y-70026000D01*
X128531250Y-70026000D01*
X128507309Y-70024824D01*
X128483599Y-70021307D01*
X128460348Y-70015483D01*
X128437780Y-70007408D01*
X128416111Y-69997159D01*
X128395552Y-69984836D01*
X128376299Y-69970558D01*
X128358539Y-69954461D01*
X128342442Y-69936701D01*
X128328164Y-69917448D01*
X128315841Y-69896889D01*
X128305592Y-69875220D01*
X128297517Y-69852652D01*
X128291693Y-69829401D01*
X128288176Y-69805691D01*
X128287000Y-69781750D01*
X128287000Y-69218250D01*
X128288176Y-69194309D01*
X128291693Y-69170599D01*
X128297517Y-69147348D01*
X128305592Y-69124780D01*
X128315841Y-69103111D01*
X128328164Y-69082552D01*
X128342442Y-69063299D01*
X128358539Y-69045539D01*
X128376299Y-69029442D01*
X128395552Y-69015164D01*
X128416111Y-69002841D01*
X128437780Y-68992592D01*
X128460348Y-68984517D01*
X128483599Y-68978693D01*
X128507309Y-68975176D01*
X128531250Y-68974000D01*
X129019750Y-68974000D01*
X129043691Y-68975176D01*
X129043691Y-68975176D01*
G37*
D13*
X128775500Y-69500000D03*
D14*
X134250000Y-68800000D03*
X134250000Y-66800000D03*
X139550000Y-68800000D03*
X139550000Y-66800000D03*
X134250000Y-78300000D03*
X134250000Y-76300000D03*
X139550000Y-78300000D03*
X139550000Y-76300000D03*
D15*
X121000000Y-64000000D03*
X121000000Y-86000000D03*
D12*
G36*
X155133141Y-67750297D02*
G01*
X155159278Y-67754174D01*
X155184909Y-67760594D01*
X155209788Y-67769495D01*
X155233674Y-67780793D01*
X155256337Y-67794377D01*
X155277560Y-67810117D01*
X155297139Y-67827861D01*
X155314883Y-67847440D01*
X155330623Y-67868663D01*
X155344207Y-67891326D01*
X155355505Y-67915212D01*
X155364406Y-67940091D01*
X155370826Y-67965722D01*
X155374703Y-67991859D01*
X155376000Y-68018250D01*
X155376000Y-68981750D01*
X155374703Y-69008141D01*
X155370826Y-69034278D01*
X155364406Y-69059909D01*
X155355505Y-69084788D01*
X155344207Y-69108674D01*
X155330623Y-69131337D01*
X155314883Y-69152560D01*
X155297139Y-69172139D01*
X155277560Y-69189883D01*
X155256337Y-69205623D01*
X155233674Y-69219207D01*
X155209788Y-69230505D01*
X155184909Y-69239406D01*
X155159278Y-69245826D01*
X155133141Y-69249703D01*
X155106750Y-69251000D01*
X154568250Y-69251000D01*
X154541859Y-69249703D01*
X154515722Y-69245826D01*
X154490091Y-69239406D01*
X154465212Y-69230505D01*
X154441326Y-69219207D01*
X154418663Y-69205623D01*
X154397440Y-69189883D01*
X154377861Y-69172139D01*
X154360117Y-69152560D01*
X154344377Y-69131337D01*
X154330793Y-69108674D01*
X154319495Y-69084788D01*
X154310594Y-69059909D01*
X154304174Y-69034278D01*
X154300297Y-69008141D01*
X154299000Y-68981750D01*
X154299000Y-68018250D01*
X154300297Y-67991859D01*
X154304174Y-67965722D01*
X154310594Y-67940091D01*
X154319495Y-67915212D01*
X154330793Y-67891326D01*
X154344377Y-67868663D01*
X154360117Y-67847440D01*
X154377861Y-67827861D01*
X154397440Y-67810117D01*
X154418663Y-67794377D01*
X154441326Y-67780793D01*
X154465212Y-67769495D01*
X154490091Y-67760594D01*
X154515722Y-67754174D01*
X154541859Y-67750297D01*
X154568250Y-67749000D01*
X155106750Y-67749000D01*
X155133141Y-67750297D01*
X155133141Y-67750297D01*
G37*
D16*
X154837500Y-68500000D03*
D12*
G36*
X153258141Y-67750297D02*
G01*
X153284278Y-67754174D01*
X153309909Y-67760594D01*
X153334788Y-67769495D01*
X153358674Y-67780793D01*
X153381337Y-67794377D01*
X153402560Y-67810117D01*
X153422139Y-67827861D01*
X153439883Y-67847440D01*
X153455623Y-67868663D01*
X153469207Y-67891326D01*
X153480505Y-67915212D01*
X153489406Y-67940091D01*
X153495826Y-67965722D01*
X153499703Y-67991859D01*
X153501000Y-68018250D01*
X153501000Y-68981750D01*
X153499703Y-69008141D01*
X153495826Y-69034278D01*
X153489406Y-69059909D01*
X153480505Y-69084788D01*
X153469207Y-69108674D01*
X153455623Y-69131337D01*
X153439883Y-69152560D01*
X153422139Y-69172139D01*
X153402560Y-69189883D01*
X153381337Y-69205623D01*
X153358674Y-69219207D01*
X153334788Y-69230505D01*
X153309909Y-69239406D01*
X153284278Y-69245826D01*
X153258141Y-69249703D01*
X153231750Y-69251000D01*
X152693250Y-69251000D01*
X152666859Y-69249703D01*
X152640722Y-69245826D01*
X152615091Y-69239406D01*
X152590212Y-69230505D01*
X152566326Y-69219207D01*
X152543663Y-69205623D01*
X152522440Y-69189883D01*
X152502861Y-69172139D01*
X152485117Y-69152560D01*
X152469377Y-69131337D01*
X152455793Y-69108674D01*
X152444495Y-69084788D01*
X152435594Y-69059909D01*
X152429174Y-69034278D01*
X152425297Y-69008141D01*
X152424000Y-68981750D01*
X152424000Y-68018250D01*
X152425297Y-67991859D01*
X152429174Y-67965722D01*
X152435594Y-67940091D01*
X152444495Y-67915212D01*
X152455793Y-67891326D01*
X152469377Y-67868663D01*
X152485117Y-67847440D01*
X152502861Y-67827861D01*
X152522440Y-67810117D01*
X152543663Y-67794377D01*
X152566326Y-67780793D01*
X152590212Y-67769495D01*
X152615091Y-67760594D01*
X152640722Y-67754174D01*
X152666859Y-67750297D01*
X152693250Y-67749000D01*
X153231750Y-67749000D01*
X153258141Y-67750297D01*
X153258141Y-67750297D01*
G37*
D16*
X152962500Y-68500000D03*
D12*
G36*
X131808141Y-76025297D02*
G01*
X131834278Y-76029174D01*
X131859909Y-76035594D01*
X131884788Y-76044495D01*
X131908674Y-76055793D01*
X131931337Y-76069377D01*
X131952560Y-76085117D01*
X131972139Y-76102861D01*
X131989883Y-76122440D01*
X132005623Y-76143663D01*
X132019207Y-76166326D01*
X132030505Y-76190212D01*
X132039406Y-76215091D01*
X132045826Y-76240722D01*
X132049703Y-76266859D01*
X132051000Y-76293250D01*
X132051000Y-76831750D01*
X132049703Y-76858141D01*
X132045826Y-76884278D01*
X132039406Y-76909909D01*
X132030505Y-76934788D01*
X132019207Y-76958674D01*
X132005623Y-76981337D01*
X131989883Y-77002560D01*
X131972139Y-77022139D01*
X131952560Y-77039883D01*
X131931337Y-77055623D01*
X131908674Y-77069207D01*
X131884788Y-77080505D01*
X131859909Y-77089406D01*
X131834278Y-77095826D01*
X131808141Y-77099703D01*
X131781750Y-77101000D01*
X130818250Y-77101000D01*
X130791859Y-77099703D01*
X130765722Y-77095826D01*
X130740091Y-77089406D01*
X130715212Y-77080505D01*
X130691326Y-77069207D01*
X130668663Y-77055623D01*
X130647440Y-77039883D01*
X130627861Y-77022139D01*
X130610117Y-77002560D01*
X130594377Y-76981337D01*
X130580793Y-76958674D01*
X130569495Y-76934788D01*
X130560594Y-76909909D01*
X130554174Y-76884278D01*
X130550297Y-76858141D01*
X130549000Y-76831750D01*
X130549000Y-76293250D01*
X130550297Y-76266859D01*
X130554174Y-76240722D01*
X130560594Y-76215091D01*
X130569495Y-76190212D01*
X130580793Y-76166326D01*
X130594377Y-76143663D01*
X130610117Y-76122440D01*
X130627861Y-76102861D01*
X130647440Y-76085117D01*
X130668663Y-76069377D01*
X130691326Y-76055793D01*
X130715212Y-76044495D01*
X130740091Y-76035594D01*
X130765722Y-76029174D01*
X130791859Y-76025297D01*
X130818250Y-76024000D01*
X131781750Y-76024000D01*
X131808141Y-76025297D01*
X131808141Y-76025297D01*
G37*
D16*
X131300000Y-76562500D03*
D12*
G36*
X131808141Y-77900297D02*
G01*
X131834278Y-77904174D01*
X131859909Y-77910594D01*
X131884788Y-77919495D01*
X131908674Y-77930793D01*
X131931337Y-77944377D01*
X131952560Y-77960117D01*
X131972139Y-77977861D01*
X131989883Y-77997440D01*
X132005623Y-78018663D01*
X132019207Y-78041326D01*
X132030505Y-78065212D01*
X132039406Y-78090091D01*
X132045826Y-78115722D01*
X132049703Y-78141859D01*
X132051000Y-78168250D01*
X132051000Y-78706750D01*
X132049703Y-78733141D01*
X132045826Y-78759278D01*
X132039406Y-78784909D01*
X132030505Y-78809788D01*
X132019207Y-78833674D01*
X132005623Y-78856337D01*
X131989883Y-78877560D01*
X131972139Y-78897139D01*
X131952560Y-78914883D01*
X131931337Y-78930623D01*
X131908674Y-78944207D01*
X131884788Y-78955505D01*
X131859909Y-78964406D01*
X131834278Y-78970826D01*
X131808141Y-78974703D01*
X131781750Y-78976000D01*
X130818250Y-78976000D01*
X130791859Y-78974703D01*
X130765722Y-78970826D01*
X130740091Y-78964406D01*
X130715212Y-78955505D01*
X130691326Y-78944207D01*
X130668663Y-78930623D01*
X130647440Y-78914883D01*
X130627861Y-78897139D01*
X130610117Y-78877560D01*
X130594377Y-78856337D01*
X130580793Y-78833674D01*
X130569495Y-78809788D01*
X130560594Y-78784909D01*
X130554174Y-78759278D01*
X130550297Y-78733141D01*
X130549000Y-78706750D01*
X130549000Y-78168250D01*
X130550297Y-78141859D01*
X130554174Y-78115722D01*
X130560594Y-78090091D01*
X130569495Y-78065212D01*
X130580793Y-78041326D01*
X130594377Y-78018663D01*
X130610117Y-77997440D01*
X130627861Y-77977861D01*
X130647440Y-77960117D01*
X130668663Y-77944377D01*
X130691326Y-77930793D01*
X130715212Y-77919495D01*
X130740091Y-77910594D01*
X130765722Y-77904174D01*
X130791859Y-77900297D01*
X130818250Y-77899000D01*
X131781750Y-77899000D01*
X131808141Y-77900297D01*
X131808141Y-77900297D01*
G37*
D16*
X131300000Y-78437500D03*
D12*
G36*
X153258141Y-63750297D02*
G01*
X153284278Y-63754174D01*
X153309909Y-63760594D01*
X153334788Y-63769495D01*
X153358674Y-63780793D01*
X153381337Y-63794377D01*
X153402560Y-63810117D01*
X153422139Y-63827861D01*
X153439883Y-63847440D01*
X153455623Y-63868663D01*
X153469207Y-63891326D01*
X153480505Y-63915212D01*
X153489406Y-63940091D01*
X153495826Y-63965722D01*
X153499703Y-63991859D01*
X153501000Y-64018250D01*
X153501000Y-64981750D01*
X153499703Y-65008141D01*
X153495826Y-65034278D01*
X153489406Y-65059909D01*
X153480505Y-65084788D01*
X153469207Y-65108674D01*
X153455623Y-65131337D01*
X153439883Y-65152560D01*
X153422139Y-65172139D01*
X153402560Y-65189883D01*
X153381337Y-65205623D01*
X153358674Y-65219207D01*
X153334788Y-65230505D01*
X153309909Y-65239406D01*
X153284278Y-65245826D01*
X153258141Y-65249703D01*
X153231750Y-65251000D01*
X152693250Y-65251000D01*
X152666859Y-65249703D01*
X152640722Y-65245826D01*
X152615091Y-65239406D01*
X152590212Y-65230505D01*
X152566326Y-65219207D01*
X152543663Y-65205623D01*
X152522440Y-65189883D01*
X152502861Y-65172139D01*
X152485117Y-65152560D01*
X152469377Y-65131337D01*
X152455793Y-65108674D01*
X152444495Y-65084788D01*
X152435594Y-65059909D01*
X152429174Y-65034278D01*
X152425297Y-65008141D01*
X152424000Y-64981750D01*
X152424000Y-64018250D01*
X152425297Y-63991859D01*
X152429174Y-63965722D01*
X152435594Y-63940091D01*
X152444495Y-63915212D01*
X152455793Y-63891326D01*
X152469377Y-63868663D01*
X152485117Y-63847440D01*
X152502861Y-63827861D01*
X152522440Y-63810117D01*
X152543663Y-63794377D01*
X152566326Y-63780793D01*
X152590212Y-63769495D01*
X152615091Y-63760594D01*
X152640722Y-63754174D01*
X152666859Y-63750297D01*
X152693250Y-63749000D01*
X153231750Y-63749000D01*
X153258141Y-63750297D01*
X153258141Y-63750297D01*
G37*
D16*
X152962500Y-64500000D03*
D12*
G36*
X155133141Y-63750297D02*
G01*
X155159278Y-63754174D01*
X155184909Y-63760594D01*
X155209788Y-63769495D01*
X155233674Y-63780793D01*
X155256337Y-63794377D01*
X155277560Y-63810117D01*
X155297139Y-63827861D01*
X155314883Y-63847440D01*
X155330623Y-63868663D01*
X155344207Y-63891326D01*
X155355505Y-63915212D01*
X155364406Y-63940091D01*
X155370826Y-63965722D01*
X155374703Y-63991859D01*
X155376000Y-64018250D01*
X155376000Y-64981750D01*
X155374703Y-65008141D01*
X155370826Y-65034278D01*
X155364406Y-65059909D01*
X155355505Y-65084788D01*
X155344207Y-65108674D01*
X155330623Y-65131337D01*
X155314883Y-65152560D01*
X155297139Y-65172139D01*
X155277560Y-65189883D01*
X155256337Y-65205623D01*
X155233674Y-65219207D01*
X155209788Y-65230505D01*
X155184909Y-65239406D01*
X155159278Y-65245826D01*
X155133141Y-65249703D01*
X155106750Y-65251000D01*
X154568250Y-65251000D01*
X154541859Y-65249703D01*
X154515722Y-65245826D01*
X154490091Y-65239406D01*
X154465212Y-65230505D01*
X154441326Y-65219207D01*
X154418663Y-65205623D01*
X154397440Y-65189883D01*
X154377861Y-65172139D01*
X154360117Y-65152560D01*
X154344377Y-65131337D01*
X154330793Y-65108674D01*
X154319495Y-65084788D01*
X154310594Y-65059909D01*
X154304174Y-65034278D01*
X154300297Y-65008141D01*
X154299000Y-64981750D01*
X154299000Y-64018250D01*
X154300297Y-63991859D01*
X154304174Y-63965722D01*
X154310594Y-63940091D01*
X154319495Y-63915212D01*
X154330793Y-63891326D01*
X154344377Y-63868663D01*
X154360117Y-63847440D01*
X154377861Y-63827861D01*
X154397440Y-63810117D01*
X154418663Y-63794377D01*
X154441326Y-63780793D01*
X154465212Y-63769495D01*
X154490091Y-63760594D01*
X154515722Y-63754174D01*
X154541859Y-63750297D01*
X154568250Y-63749000D01*
X155106750Y-63749000D01*
X155133141Y-63750297D01*
X155133141Y-63750297D01*
G37*
D16*
X154837500Y-64500000D03*
D12*
G36*
X154155691Y-85675176D02*
G01*
X154179401Y-85678693D01*
X154202652Y-85684517D01*
X154225220Y-85692592D01*
X154246889Y-85702841D01*
X154267448Y-85715164D01*
X154286701Y-85729442D01*
X154304461Y-85745539D01*
X154320558Y-85763299D01*
X154334836Y-85782552D01*
X154347159Y-85803111D01*
X154357408Y-85824780D01*
X154365483Y-85847348D01*
X154371307Y-85870599D01*
X154374824Y-85894309D01*
X154376000Y-85918250D01*
X154376000Y-86481750D01*
X154374824Y-86505691D01*
X154371307Y-86529401D01*
X154365483Y-86552652D01*
X154357408Y-86575220D01*
X154347159Y-86596889D01*
X154334836Y-86617448D01*
X154320558Y-86636701D01*
X154304461Y-86654461D01*
X154286701Y-86670558D01*
X154267448Y-86684836D01*
X154246889Y-86697159D01*
X154225220Y-86707408D01*
X154202652Y-86715483D01*
X154179401Y-86721307D01*
X154155691Y-86724824D01*
X154131750Y-86726000D01*
X153643250Y-86726000D01*
X153619309Y-86724824D01*
X153595599Y-86721307D01*
X153572348Y-86715483D01*
X153549780Y-86707408D01*
X153528111Y-86697159D01*
X153507552Y-86684836D01*
X153488299Y-86670558D01*
X153470539Y-86654461D01*
X153454442Y-86636701D01*
X153440164Y-86617448D01*
X153427841Y-86596889D01*
X153417592Y-86575220D01*
X153409517Y-86552652D01*
X153403693Y-86529401D01*
X153400176Y-86505691D01*
X153399000Y-86481750D01*
X153399000Y-85918250D01*
X153400176Y-85894309D01*
X153403693Y-85870599D01*
X153409517Y-85847348D01*
X153417592Y-85824780D01*
X153427841Y-85803111D01*
X153440164Y-85782552D01*
X153454442Y-85763299D01*
X153470539Y-85745539D01*
X153488299Y-85729442D01*
X153507552Y-85715164D01*
X153528111Y-85702841D01*
X153549780Y-85692592D01*
X153572348Y-85684517D01*
X153595599Y-85678693D01*
X153619309Y-85675176D01*
X153643250Y-85674000D01*
X154131750Y-85674000D01*
X154155691Y-85675176D01*
X154155691Y-85675176D01*
G37*
D13*
X153887500Y-86200000D03*
D12*
G36*
X152580691Y-85675176D02*
G01*
X152604401Y-85678693D01*
X152627652Y-85684517D01*
X152650220Y-85692592D01*
X152671889Y-85702841D01*
X152692448Y-85715164D01*
X152711701Y-85729442D01*
X152729461Y-85745539D01*
X152745558Y-85763299D01*
X152759836Y-85782552D01*
X152772159Y-85803111D01*
X152782408Y-85824780D01*
X152790483Y-85847348D01*
X152796307Y-85870599D01*
X152799824Y-85894309D01*
X152801000Y-85918250D01*
X152801000Y-86481750D01*
X152799824Y-86505691D01*
X152796307Y-86529401D01*
X152790483Y-86552652D01*
X152782408Y-86575220D01*
X152772159Y-86596889D01*
X152759836Y-86617448D01*
X152745558Y-86636701D01*
X152729461Y-86654461D01*
X152711701Y-86670558D01*
X152692448Y-86684836D01*
X152671889Y-86697159D01*
X152650220Y-86707408D01*
X152627652Y-86715483D01*
X152604401Y-86721307D01*
X152580691Y-86724824D01*
X152556750Y-86726000D01*
X152068250Y-86726000D01*
X152044309Y-86724824D01*
X152020599Y-86721307D01*
X151997348Y-86715483D01*
X151974780Y-86707408D01*
X151953111Y-86697159D01*
X151932552Y-86684836D01*
X151913299Y-86670558D01*
X151895539Y-86654461D01*
X151879442Y-86636701D01*
X151865164Y-86617448D01*
X151852841Y-86596889D01*
X151842592Y-86575220D01*
X151834517Y-86552652D01*
X151828693Y-86529401D01*
X151825176Y-86505691D01*
X151824000Y-86481750D01*
X151824000Y-85918250D01*
X151825176Y-85894309D01*
X151828693Y-85870599D01*
X151834517Y-85847348D01*
X151842592Y-85824780D01*
X151852841Y-85803111D01*
X151865164Y-85782552D01*
X151879442Y-85763299D01*
X151895539Y-85745539D01*
X151913299Y-85729442D01*
X151932552Y-85715164D01*
X151953111Y-85702841D01*
X151974780Y-85692592D01*
X151997348Y-85684517D01*
X152020599Y-85678693D01*
X152044309Y-85675176D01*
X152068250Y-85674000D01*
X152556750Y-85674000D01*
X152580691Y-85675176D01*
X152580691Y-85675176D01*
G37*
D13*
X152312500Y-86200000D03*
D12*
G36*
X154743691Y-69875176D02*
G01*
X154767401Y-69878693D01*
X154790652Y-69884517D01*
X154813220Y-69892592D01*
X154834889Y-69902841D01*
X154855448Y-69915164D01*
X154874701Y-69929442D01*
X154892461Y-69945539D01*
X154908558Y-69963299D01*
X154922836Y-69982552D01*
X154935159Y-70003111D01*
X154945408Y-70024780D01*
X154953483Y-70047348D01*
X154959307Y-70070599D01*
X154962824Y-70094309D01*
X154964000Y-70118250D01*
X154964000Y-70681750D01*
X154962824Y-70705691D01*
X154959307Y-70729401D01*
X154953483Y-70752652D01*
X154945408Y-70775220D01*
X154935159Y-70796889D01*
X154922836Y-70817448D01*
X154908558Y-70836701D01*
X154892461Y-70854461D01*
X154874701Y-70870558D01*
X154855448Y-70884836D01*
X154834889Y-70897159D01*
X154813220Y-70907408D01*
X154790652Y-70915483D01*
X154767401Y-70921307D01*
X154743691Y-70924824D01*
X154719750Y-70926000D01*
X154231250Y-70926000D01*
X154207309Y-70924824D01*
X154183599Y-70921307D01*
X154160348Y-70915483D01*
X154137780Y-70907408D01*
X154116111Y-70897159D01*
X154095552Y-70884836D01*
X154076299Y-70870558D01*
X154058539Y-70854461D01*
X154042442Y-70836701D01*
X154028164Y-70817448D01*
X154015841Y-70796889D01*
X154005592Y-70775220D01*
X153997517Y-70752652D01*
X153991693Y-70729401D01*
X153988176Y-70705691D01*
X153987000Y-70681750D01*
X153987000Y-70118250D01*
X153988176Y-70094309D01*
X153991693Y-70070599D01*
X153997517Y-70047348D01*
X154005592Y-70024780D01*
X154015841Y-70003111D01*
X154028164Y-69982552D01*
X154042442Y-69963299D01*
X154058539Y-69945539D01*
X154076299Y-69929442D01*
X154095552Y-69915164D01*
X154116111Y-69902841D01*
X154137780Y-69892592D01*
X154160348Y-69884517D01*
X154183599Y-69878693D01*
X154207309Y-69875176D01*
X154231250Y-69874000D01*
X154719750Y-69874000D01*
X154743691Y-69875176D01*
X154743691Y-69875176D01*
G37*
D13*
X154475500Y-70400000D03*
D12*
G36*
X153168691Y-69875176D02*
G01*
X153192401Y-69878693D01*
X153215652Y-69884517D01*
X153238220Y-69892592D01*
X153259889Y-69902841D01*
X153280448Y-69915164D01*
X153299701Y-69929442D01*
X153317461Y-69945539D01*
X153333558Y-69963299D01*
X153347836Y-69982552D01*
X153360159Y-70003111D01*
X153370408Y-70024780D01*
X153378483Y-70047348D01*
X153384307Y-70070599D01*
X153387824Y-70094309D01*
X153389000Y-70118250D01*
X153389000Y-70681750D01*
X153387824Y-70705691D01*
X153384307Y-70729401D01*
X153378483Y-70752652D01*
X153370408Y-70775220D01*
X153360159Y-70796889D01*
X153347836Y-70817448D01*
X153333558Y-70836701D01*
X153317461Y-70854461D01*
X153299701Y-70870558D01*
X153280448Y-70884836D01*
X153259889Y-70897159D01*
X153238220Y-70907408D01*
X153215652Y-70915483D01*
X153192401Y-70921307D01*
X153168691Y-70924824D01*
X153144750Y-70926000D01*
X152656250Y-70926000D01*
X152632309Y-70924824D01*
X152608599Y-70921307D01*
X152585348Y-70915483D01*
X152562780Y-70907408D01*
X152541111Y-70897159D01*
X152520552Y-70884836D01*
X152501299Y-70870558D01*
X152483539Y-70854461D01*
X152467442Y-70836701D01*
X152453164Y-70817448D01*
X152440841Y-70796889D01*
X152430592Y-70775220D01*
X152422517Y-70752652D01*
X152416693Y-70729401D01*
X152413176Y-70705691D01*
X152412000Y-70681750D01*
X152412000Y-70118250D01*
X152413176Y-70094309D01*
X152416693Y-70070599D01*
X152422517Y-70047348D01*
X152430592Y-70024780D01*
X152440841Y-70003111D01*
X152453164Y-69982552D01*
X152467442Y-69963299D01*
X152483539Y-69945539D01*
X152501299Y-69929442D01*
X152520552Y-69915164D01*
X152541111Y-69902841D01*
X152562780Y-69892592D01*
X152585348Y-69884517D01*
X152608599Y-69878693D01*
X152632309Y-69875176D01*
X152656250Y-69874000D01*
X153144750Y-69874000D01*
X153168691Y-69875176D01*
X153168691Y-69875176D01*
G37*
D13*
X152900500Y-70400000D03*
D12*
G36*
X154155691Y-84075176D02*
G01*
X154179401Y-84078693D01*
X154202652Y-84084517D01*
X154225220Y-84092592D01*
X154246889Y-84102841D01*
X154267448Y-84115164D01*
X154286701Y-84129442D01*
X154304461Y-84145539D01*
X154320558Y-84163299D01*
X154334836Y-84182552D01*
X154347159Y-84203111D01*
X154357408Y-84224780D01*
X154365483Y-84247348D01*
X154371307Y-84270599D01*
X154374824Y-84294309D01*
X154376000Y-84318250D01*
X154376000Y-84881750D01*
X154374824Y-84905691D01*
X154371307Y-84929401D01*
X154365483Y-84952652D01*
X154357408Y-84975220D01*
X154347159Y-84996889D01*
X154334836Y-85017448D01*
X154320558Y-85036701D01*
X154304461Y-85054461D01*
X154286701Y-85070558D01*
X154267448Y-85084836D01*
X154246889Y-85097159D01*
X154225220Y-85107408D01*
X154202652Y-85115483D01*
X154179401Y-85121307D01*
X154155691Y-85124824D01*
X154131750Y-85126000D01*
X153643250Y-85126000D01*
X153619309Y-85124824D01*
X153595599Y-85121307D01*
X153572348Y-85115483D01*
X153549780Y-85107408D01*
X153528111Y-85097159D01*
X153507552Y-85084836D01*
X153488299Y-85070558D01*
X153470539Y-85054461D01*
X153454442Y-85036701D01*
X153440164Y-85017448D01*
X153427841Y-84996889D01*
X153417592Y-84975220D01*
X153409517Y-84952652D01*
X153403693Y-84929401D01*
X153400176Y-84905691D01*
X153399000Y-84881750D01*
X153399000Y-84318250D01*
X153400176Y-84294309D01*
X153403693Y-84270599D01*
X153409517Y-84247348D01*
X153417592Y-84224780D01*
X153427841Y-84203111D01*
X153440164Y-84182552D01*
X153454442Y-84163299D01*
X153470539Y-84145539D01*
X153488299Y-84129442D01*
X153507552Y-84115164D01*
X153528111Y-84102841D01*
X153549780Y-84092592D01*
X153572348Y-84084517D01*
X153595599Y-84078693D01*
X153619309Y-84075176D01*
X153643250Y-84074000D01*
X154131750Y-84074000D01*
X154155691Y-84075176D01*
X154155691Y-84075176D01*
G37*
D13*
X153887500Y-84600000D03*
D12*
G36*
X152580691Y-84075176D02*
G01*
X152604401Y-84078693D01*
X152627652Y-84084517D01*
X152650220Y-84092592D01*
X152671889Y-84102841D01*
X152692448Y-84115164D01*
X152711701Y-84129442D01*
X152729461Y-84145539D01*
X152745558Y-84163299D01*
X152759836Y-84182552D01*
X152772159Y-84203111D01*
X152782408Y-84224780D01*
X152790483Y-84247348D01*
X152796307Y-84270599D01*
X152799824Y-84294309D01*
X152801000Y-84318250D01*
X152801000Y-84881750D01*
X152799824Y-84905691D01*
X152796307Y-84929401D01*
X152790483Y-84952652D01*
X152782408Y-84975220D01*
X152772159Y-84996889D01*
X152759836Y-85017448D01*
X152745558Y-85036701D01*
X152729461Y-85054461D01*
X152711701Y-85070558D01*
X152692448Y-85084836D01*
X152671889Y-85097159D01*
X152650220Y-85107408D01*
X152627652Y-85115483D01*
X152604401Y-85121307D01*
X152580691Y-85124824D01*
X152556750Y-85126000D01*
X152068250Y-85126000D01*
X152044309Y-85124824D01*
X152020599Y-85121307D01*
X151997348Y-85115483D01*
X151974780Y-85107408D01*
X151953111Y-85097159D01*
X151932552Y-85084836D01*
X151913299Y-85070558D01*
X151895539Y-85054461D01*
X151879442Y-85036701D01*
X151865164Y-85017448D01*
X151852841Y-84996889D01*
X151842592Y-84975220D01*
X151834517Y-84952652D01*
X151828693Y-84929401D01*
X151825176Y-84905691D01*
X151824000Y-84881750D01*
X151824000Y-84318250D01*
X151825176Y-84294309D01*
X151828693Y-84270599D01*
X151834517Y-84247348D01*
X151842592Y-84224780D01*
X151852841Y-84203111D01*
X151865164Y-84182552D01*
X151879442Y-84163299D01*
X151895539Y-84145539D01*
X151913299Y-84129442D01*
X151932552Y-84115164D01*
X151953111Y-84102841D01*
X151974780Y-84092592D01*
X151997348Y-84084517D01*
X152020599Y-84078693D01*
X152044309Y-84075176D01*
X152068250Y-84074000D01*
X152556750Y-84074000D01*
X152580691Y-84075176D01*
X152580691Y-84075176D01*
G37*
D13*
X152312500Y-84600000D03*
D12*
G36*
X142905691Y-68112676D02*
G01*
X142929401Y-68116193D01*
X142952652Y-68122017D01*
X142975220Y-68130092D01*
X142996889Y-68140341D01*
X143017448Y-68152664D01*
X143036701Y-68166942D01*
X143054461Y-68183039D01*
X143070558Y-68200799D01*
X143084836Y-68220052D01*
X143097159Y-68240611D01*
X143107408Y-68262280D01*
X143115483Y-68284848D01*
X143121307Y-68308099D01*
X143124824Y-68331809D01*
X143126000Y-68355750D01*
X143126000Y-68844250D01*
X143124824Y-68868191D01*
X143121307Y-68891901D01*
X143115483Y-68915152D01*
X143107408Y-68937720D01*
X143097159Y-68959389D01*
X143084836Y-68979948D01*
X143070558Y-68999201D01*
X143054461Y-69016961D01*
X143036701Y-69033058D01*
X143017448Y-69047336D01*
X142996889Y-69059659D01*
X142975220Y-69069908D01*
X142952652Y-69077983D01*
X142929401Y-69083807D01*
X142905691Y-69087324D01*
X142881750Y-69088500D01*
X142318250Y-69088500D01*
X142294309Y-69087324D01*
X142270599Y-69083807D01*
X142247348Y-69077983D01*
X142224780Y-69069908D01*
X142203111Y-69059659D01*
X142182552Y-69047336D01*
X142163299Y-69033058D01*
X142145539Y-69016961D01*
X142129442Y-68999201D01*
X142115164Y-68979948D01*
X142102841Y-68959389D01*
X142092592Y-68937720D01*
X142084517Y-68915152D01*
X142078693Y-68891901D01*
X142075176Y-68868191D01*
X142074000Y-68844250D01*
X142074000Y-68355750D01*
X142075176Y-68331809D01*
X142078693Y-68308099D01*
X142084517Y-68284848D01*
X142092592Y-68262280D01*
X142102841Y-68240611D01*
X142115164Y-68220052D01*
X142129442Y-68200799D01*
X142145539Y-68183039D01*
X142163299Y-68166942D01*
X142182552Y-68152664D01*
X142203111Y-68140341D01*
X142224780Y-68130092D01*
X142247348Y-68122017D01*
X142270599Y-68116193D01*
X142294309Y-68112676D01*
X142318250Y-68111500D01*
X142881750Y-68111500D01*
X142905691Y-68112676D01*
X142905691Y-68112676D01*
G37*
D13*
X142600000Y-68600000D03*
D12*
G36*
X142905691Y-66537676D02*
G01*
X142929401Y-66541193D01*
X142952652Y-66547017D01*
X142975220Y-66555092D01*
X142996889Y-66565341D01*
X143017448Y-66577664D01*
X143036701Y-66591942D01*
X143054461Y-66608039D01*
X143070558Y-66625799D01*
X143084836Y-66645052D01*
X143097159Y-66665611D01*
X143107408Y-66687280D01*
X143115483Y-66709848D01*
X143121307Y-66733099D01*
X143124824Y-66756809D01*
X143126000Y-66780750D01*
X143126000Y-67269250D01*
X143124824Y-67293191D01*
X143121307Y-67316901D01*
X143115483Y-67340152D01*
X143107408Y-67362720D01*
X143097159Y-67384389D01*
X143084836Y-67404948D01*
X143070558Y-67424201D01*
X143054461Y-67441961D01*
X143036701Y-67458058D01*
X143017448Y-67472336D01*
X142996889Y-67484659D01*
X142975220Y-67494908D01*
X142952652Y-67502983D01*
X142929401Y-67508807D01*
X142905691Y-67512324D01*
X142881750Y-67513500D01*
X142318250Y-67513500D01*
X142294309Y-67512324D01*
X142270599Y-67508807D01*
X142247348Y-67502983D01*
X142224780Y-67494908D01*
X142203111Y-67484659D01*
X142182552Y-67472336D01*
X142163299Y-67458058D01*
X142145539Y-67441961D01*
X142129442Y-67424201D01*
X142115164Y-67404948D01*
X142102841Y-67384389D01*
X142092592Y-67362720D01*
X142084517Y-67340152D01*
X142078693Y-67316901D01*
X142075176Y-67293191D01*
X142074000Y-67269250D01*
X142074000Y-66780750D01*
X142075176Y-66756809D01*
X142078693Y-66733099D01*
X142084517Y-66709848D01*
X142092592Y-66687280D01*
X142102841Y-66665611D01*
X142115164Y-66645052D01*
X142129442Y-66625799D01*
X142145539Y-66608039D01*
X142163299Y-66591942D01*
X142182552Y-66577664D01*
X142203111Y-66565341D01*
X142224780Y-66555092D01*
X142247348Y-66547017D01*
X142270599Y-66541193D01*
X142294309Y-66537676D01*
X142318250Y-66536500D01*
X142881750Y-66536500D01*
X142905691Y-66537676D01*
X142905691Y-66537676D01*
G37*
D13*
X142600000Y-67025000D03*
D12*
G36*
X142905691Y-77687676D02*
G01*
X142929401Y-77691193D01*
X142952652Y-77697017D01*
X142975220Y-77705092D01*
X142996889Y-77715341D01*
X143017448Y-77727664D01*
X143036701Y-77741942D01*
X143054461Y-77758039D01*
X143070558Y-77775799D01*
X143084836Y-77795052D01*
X143097159Y-77815611D01*
X143107408Y-77837280D01*
X143115483Y-77859848D01*
X143121307Y-77883099D01*
X143124824Y-77906809D01*
X143126000Y-77930750D01*
X143126000Y-78419250D01*
X143124824Y-78443191D01*
X143121307Y-78466901D01*
X143115483Y-78490152D01*
X143107408Y-78512720D01*
X143097159Y-78534389D01*
X143084836Y-78554948D01*
X143070558Y-78574201D01*
X143054461Y-78591961D01*
X143036701Y-78608058D01*
X143017448Y-78622336D01*
X142996889Y-78634659D01*
X142975220Y-78644908D01*
X142952652Y-78652983D01*
X142929401Y-78658807D01*
X142905691Y-78662324D01*
X142881750Y-78663500D01*
X142318250Y-78663500D01*
X142294309Y-78662324D01*
X142270599Y-78658807D01*
X142247348Y-78652983D01*
X142224780Y-78644908D01*
X142203111Y-78634659D01*
X142182552Y-78622336D01*
X142163299Y-78608058D01*
X142145539Y-78591961D01*
X142129442Y-78574201D01*
X142115164Y-78554948D01*
X142102841Y-78534389D01*
X142092592Y-78512720D01*
X142084517Y-78490152D01*
X142078693Y-78466901D01*
X142075176Y-78443191D01*
X142074000Y-78419250D01*
X142074000Y-77930750D01*
X142075176Y-77906809D01*
X142078693Y-77883099D01*
X142084517Y-77859848D01*
X142092592Y-77837280D01*
X142102841Y-77815611D01*
X142115164Y-77795052D01*
X142129442Y-77775799D01*
X142145539Y-77758039D01*
X142163299Y-77741942D01*
X142182552Y-77727664D01*
X142203111Y-77715341D01*
X142224780Y-77705092D01*
X142247348Y-77697017D01*
X142270599Y-77691193D01*
X142294309Y-77687676D01*
X142318250Y-77686500D01*
X142881750Y-77686500D01*
X142905691Y-77687676D01*
X142905691Y-77687676D01*
G37*
D13*
X142600000Y-78175000D03*
D12*
G36*
X142905691Y-76112676D02*
G01*
X142929401Y-76116193D01*
X142952652Y-76122017D01*
X142975220Y-76130092D01*
X142996889Y-76140341D01*
X143017448Y-76152664D01*
X143036701Y-76166942D01*
X143054461Y-76183039D01*
X143070558Y-76200799D01*
X143084836Y-76220052D01*
X143097159Y-76240611D01*
X143107408Y-76262280D01*
X143115483Y-76284848D01*
X143121307Y-76308099D01*
X143124824Y-76331809D01*
X143126000Y-76355750D01*
X143126000Y-76844250D01*
X143124824Y-76868191D01*
X143121307Y-76891901D01*
X143115483Y-76915152D01*
X143107408Y-76937720D01*
X143097159Y-76959389D01*
X143084836Y-76979948D01*
X143070558Y-76999201D01*
X143054461Y-77016961D01*
X143036701Y-77033058D01*
X143017448Y-77047336D01*
X142996889Y-77059659D01*
X142975220Y-77069908D01*
X142952652Y-77077983D01*
X142929401Y-77083807D01*
X142905691Y-77087324D01*
X142881750Y-77088500D01*
X142318250Y-77088500D01*
X142294309Y-77087324D01*
X142270599Y-77083807D01*
X142247348Y-77077983D01*
X142224780Y-77069908D01*
X142203111Y-77059659D01*
X142182552Y-77047336D01*
X142163299Y-77033058D01*
X142145539Y-77016961D01*
X142129442Y-76999201D01*
X142115164Y-76979948D01*
X142102841Y-76959389D01*
X142092592Y-76937720D01*
X142084517Y-76915152D01*
X142078693Y-76891901D01*
X142075176Y-76868191D01*
X142074000Y-76844250D01*
X142074000Y-76355750D01*
X142075176Y-76331809D01*
X142078693Y-76308099D01*
X142084517Y-76284848D01*
X142092592Y-76262280D01*
X142102841Y-76240611D01*
X142115164Y-76220052D01*
X142129442Y-76200799D01*
X142145539Y-76183039D01*
X142163299Y-76166942D01*
X142182552Y-76152664D01*
X142203111Y-76140341D01*
X142224780Y-76130092D01*
X142247348Y-76122017D01*
X142270599Y-76116193D01*
X142294309Y-76112676D01*
X142318250Y-76111500D01*
X142881750Y-76111500D01*
X142905691Y-76112676D01*
X142905691Y-76112676D01*
G37*
D13*
X142600000Y-76600000D03*
D12*
G36*
X131708141Y-68337797D02*
G01*
X131734278Y-68341674D01*
X131759909Y-68348094D01*
X131784788Y-68356995D01*
X131808674Y-68368293D01*
X131831337Y-68381877D01*
X131852560Y-68397617D01*
X131872139Y-68415361D01*
X131889883Y-68434940D01*
X131905623Y-68456163D01*
X131919207Y-68478826D01*
X131930505Y-68502712D01*
X131939406Y-68527591D01*
X131945826Y-68553222D01*
X131949703Y-68579359D01*
X131951000Y-68605750D01*
X131951000Y-69144250D01*
X131949703Y-69170641D01*
X131945826Y-69196778D01*
X131939406Y-69222409D01*
X131930505Y-69247288D01*
X131919207Y-69271174D01*
X131905623Y-69293837D01*
X131889883Y-69315060D01*
X131872139Y-69334639D01*
X131852560Y-69352383D01*
X131831337Y-69368123D01*
X131808674Y-69381707D01*
X131784788Y-69393005D01*
X131759909Y-69401906D01*
X131734278Y-69408326D01*
X131708141Y-69412203D01*
X131681750Y-69413500D01*
X130718250Y-69413500D01*
X130691859Y-69412203D01*
X130665722Y-69408326D01*
X130640091Y-69401906D01*
X130615212Y-69393005D01*
X130591326Y-69381707D01*
X130568663Y-69368123D01*
X130547440Y-69352383D01*
X130527861Y-69334639D01*
X130510117Y-69315060D01*
X130494377Y-69293837D01*
X130480793Y-69271174D01*
X130469495Y-69247288D01*
X130460594Y-69222409D01*
X130454174Y-69196778D01*
X130450297Y-69170641D01*
X130449000Y-69144250D01*
X130449000Y-68605750D01*
X130450297Y-68579359D01*
X130454174Y-68553222D01*
X130460594Y-68527591D01*
X130469495Y-68502712D01*
X130480793Y-68478826D01*
X130494377Y-68456163D01*
X130510117Y-68434940D01*
X130527861Y-68415361D01*
X130547440Y-68397617D01*
X130568663Y-68381877D01*
X130591326Y-68368293D01*
X130615212Y-68356995D01*
X130640091Y-68348094D01*
X130665722Y-68341674D01*
X130691859Y-68337797D01*
X130718250Y-68336500D01*
X131681750Y-68336500D01*
X131708141Y-68337797D01*
X131708141Y-68337797D01*
G37*
D16*
X131200000Y-68875000D03*
D12*
G36*
X131708141Y-66462797D02*
G01*
X131734278Y-66466674D01*
X131759909Y-66473094D01*
X131784788Y-66481995D01*
X131808674Y-66493293D01*
X131831337Y-66506877D01*
X131852560Y-66522617D01*
X131872139Y-66540361D01*
X131889883Y-66559940D01*
X131905623Y-66581163D01*
X131919207Y-66603826D01*
X131930505Y-66627712D01*
X131939406Y-66652591D01*
X131945826Y-66678222D01*
X131949703Y-66704359D01*
X131951000Y-66730750D01*
X131951000Y-67269250D01*
X131949703Y-67295641D01*
X131945826Y-67321778D01*
X131939406Y-67347409D01*
X131930505Y-67372288D01*
X131919207Y-67396174D01*
X131905623Y-67418837D01*
X131889883Y-67440060D01*
X131872139Y-67459639D01*
X131852560Y-67477383D01*
X131831337Y-67493123D01*
X131808674Y-67506707D01*
X131784788Y-67518005D01*
X131759909Y-67526906D01*
X131734278Y-67533326D01*
X131708141Y-67537203D01*
X131681750Y-67538500D01*
X130718250Y-67538500D01*
X130691859Y-67537203D01*
X130665722Y-67533326D01*
X130640091Y-67526906D01*
X130615212Y-67518005D01*
X130591326Y-67506707D01*
X130568663Y-67493123D01*
X130547440Y-67477383D01*
X130527861Y-67459639D01*
X130510117Y-67440060D01*
X130494377Y-67418837D01*
X130480793Y-67396174D01*
X130469495Y-67372288D01*
X130460594Y-67347409D01*
X130454174Y-67321778D01*
X130450297Y-67295641D01*
X130449000Y-67269250D01*
X130449000Y-66730750D01*
X130450297Y-66704359D01*
X130454174Y-66678222D01*
X130460594Y-66652591D01*
X130469495Y-66627712D01*
X130480793Y-66603826D01*
X130494377Y-66581163D01*
X130510117Y-66559940D01*
X130527861Y-66540361D01*
X130547440Y-66522617D01*
X130568663Y-66506877D01*
X130591326Y-66493293D01*
X130615212Y-66481995D01*
X130640091Y-66473094D01*
X130665722Y-66466674D01*
X130691859Y-66462797D01*
X130718250Y-66461500D01*
X131681750Y-66461500D01*
X131708141Y-66462797D01*
X131708141Y-66462797D01*
G37*
D16*
X131200000Y-67000000D03*
D12*
G36*
X154155691Y-79175176D02*
G01*
X154179401Y-79178693D01*
X154202652Y-79184517D01*
X154225220Y-79192592D01*
X154246889Y-79202841D01*
X154267448Y-79215164D01*
X154286701Y-79229442D01*
X154304461Y-79245539D01*
X154320558Y-79263299D01*
X154334836Y-79282552D01*
X154347159Y-79303111D01*
X154357408Y-79324780D01*
X154365483Y-79347348D01*
X154371307Y-79370599D01*
X154374824Y-79394309D01*
X154376000Y-79418250D01*
X154376000Y-79981750D01*
X154374824Y-80005691D01*
X154371307Y-80029401D01*
X154365483Y-80052652D01*
X154357408Y-80075220D01*
X154347159Y-80096889D01*
X154334836Y-80117448D01*
X154320558Y-80136701D01*
X154304461Y-80154461D01*
X154286701Y-80170558D01*
X154267448Y-80184836D01*
X154246889Y-80197159D01*
X154225220Y-80207408D01*
X154202652Y-80215483D01*
X154179401Y-80221307D01*
X154155691Y-80224824D01*
X154131750Y-80226000D01*
X153643250Y-80226000D01*
X153619309Y-80224824D01*
X153595599Y-80221307D01*
X153572348Y-80215483D01*
X153549780Y-80207408D01*
X153528111Y-80197159D01*
X153507552Y-80184836D01*
X153488299Y-80170558D01*
X153470539Y-80154461D01*
X153454442Y-80136701D01*
X153440164Y-80117448D01*
X153427841Y-80096889D01*
X153417592Y-80075220D01*
X153409517Y-80052652D01*
X153403693Y-80029401D01*
X153400176Y-80005691D01*
X153399000Y-79981750D01*
X153399000Y-79418250D01*
X153400176Y-79394309D01*
X153403693Y-79370599D01*
X153409517Y-79347348D01*
X153417592Y-79324780D01*
X153427841Y-79303111D01*
X153440164Y-79282552D01*
X153454442Y-79263299D01*
X153470539Y-79245539D01*
X153488299Y-79229442D01*
X153507552Y-79215164D01*
X153528111Y-79202841D01*
X153549780Y-79192592D01*
X153572348Y-79184517D01*
X153595599Y-79178693D01*
X153619309Y-79175176D01*
X153643250Y-79174000D01*
X154131750Y-79174000D01*
X154155691Y-79175176D01*
X154155691Y-79175176D01*
G37*
D13*
X153887500Y-79700000D03*
D12*
G36*
X152580691Y-79175176D02*
G01*
X152604401Y-79178693D01*
X152627652Y-79184517D01*
X152650220Y-79192592D01*
X152671889Y-79202841D01*
X152692448Y-79215164D01*
X152711701Y-79229442D01*
X152729461Y-79245539D01*
X152745558Y-79263299D01*
X152759836Y-79282552D01*
X152772159Y-79303111D01*
X152782408Y-79324780D01*
X152790483Y-79347348D01*
X152796307Y-79370599D01*
X152799824Y-79394309D01*
X152801000Y-79418250D01*
X152801000Y-79981750D01*
X152799824Y-80005691D01*
X152796307Y-80029401D01*
X152790483Y-80052652D01*
X152782408Y-80075220D01*
X152772159Y-80096889D01*
X152759836Y-80117448D01*
X152745558Y-80136701D01*
X152729461Y-80154461D01*
X152711701Y-80170558D01*
X152692448Y-80184836D01*
X152671889Y-80197159D01*
X152650220Y-80207408D01*
X152627652Y-80215483D01*
X152604401Y-80221307D01*
X152580691Y-80224824D01*
X152556750Y-80226000D01*
X152068250Y-80226000D01*
X152044309Y-80224824D01*
X152020599Y-80221307D01*
X151997348Y-80215483D01*
X151974780Y-80207408D01*
X151953111Y-80197159D01*
X151932552Y-80184836D01*
X151913299Y-80170558D01*
X151895539Y-80154461D01*
X151879442Y-80136701D01*
X151865164Y-80117448D01*
X151852841Y-80096889D01*
X151842592Y-80075220D01*
X151834517Y-80052652D01*
X151828693Y-80029401D01*
X151825176Y-80005691D01*
X151824000Y-79981750D01*
X151824000Y-79418250D01*
X151825176Y-79394309D01*
X151828693Y-79370599D01*
X151834517Y-79347348D01*
X151842592Y-79324780D01*
X151852841Y-79303111D01*
X151865164Y-79282552D01*
X151879442Y-79263299D01*
X151895539Y-79245539D01*
X151913299Y-79229442D01*
X151932552Y-79215164D01*
X151953111Y-79202841D01*
X151974780Y-79192592D01*
X151997348Y-79184517D01*
X152020599Y-79178693D01*
X152044309Y-79175176D01*
X152068250Y-79174000D01*
X152556750Y-79174000D01*
X152580691Y-79175176D01*
X152580691Y-79175176D01*
G37*
D13*
X152312500Y-79700000D03*
D17*
X149800000Y-81925000D03*
X149800000Y-82575000D03*
X149800000Y-83225000D03*
X149800000Y-83875000D03*
X145400000Y-83875000D03*
X145400000Y-83225000D03*
X145400000Y-82575000D03*
X145400000Y-81925000D03*
D12*
G36*
X132955691Y-85075176D02*
G01*
X132979401Y-85078693D01*
X133002652Y-85084517D01*
X133025220Y-85092592D01*
X133046889Y-85102841D01*
X133067448Y-85115164D01*
X133086701Y-85129442D01*
X133104461Y-85145539D01*
X133120558Y-85163299D01*
X133134836Y-85182552D01*
X133147159Y-85203111D01*
X133157408Y-85224780D01*
X133165483Y-85247348D01*
X133171307Y-85270599D01*
X133174824Y-85294309D01*
X133176000Y-85318250D01*
X133176000Y-85881750D01*
X133174824Y-85905691D01*
X133171307Y-85929401D01*
X133165483Y-85952652D01*
X133157408Y-85975220D01*
X133147159Y-85996889D01*
X133134836Y-86017448D01*
X133120558Y-86036701D01*
X133104461Y-86054461D01*
X133086701Y-86070558D01*
X133067448Y-86084836D01*
X133046889Y-86097159D01*
X133025220Y-86107408D01*
X133002652Y-86115483D01*
X132979401Y-86121307D01*
X132955691Y-86124824D01*
X132931750Y-86126000D01*
X132443250Y-86126000D01*
X132419309Y-86124824D01*
X132395599Y-86121307D01*
X132372348Y-86115483D01*
X132349780Y-86107408D01*
X132328111Y-86097159D01*
X132307552Y-86084836D01*
X132288299Y-86070558D01*
X132270539Y-86054461D01*
X132254442Y-86036701D01*
X132240164Y-86017448D01*
X132227841Y-85996889D01*
X132217592Y-85975220D01*
X132209517Y-85952652D01*
X132203693Y-85929401D01*
X132200176Y-85905691D01*
X132199000Y-85881750D01*
X132199000Y-85318250D01*
X132200176Y-85294309D01*
X132203693Y-85270599D01*
X132209517Y-85247348D01*
X132217592Y-85224780D01*
X132227841Y-85203111D01*
X132240164Y-85182552D01*
X132254442Y-85163299D01*
X132270539Y-85145539D01*
X132288299Y-85129442D01*
X132307552Y-85115164D01*
X132328111Y-85102841D01*
X132349780Y-85092592D01*
X132372348Y-85084517D01*
X132395599Y-85078693D01*
X132419309Y-85075176D01*
X132443250Y-85074000D01*
X132931750Y-85074000D01*
X132955691Y-85075176D01*
X132955691Y-85075176D01*
G37*
D13*
X132687500Y-85600000D03*
D12*
G36*
X131380691Y-85075176D02*
G01*
X131404401Y-85078693D01*
X131427652Y-85084517D01*
X131450220Y-85092592D01*
X131471889Y-85102841D01*
X131492448Y-85115164D01*
X131511701Y-85129442D01*
X131529461Y-85145539D01*
X131545558Y-85163299D01*
X131559836Y-85182552D01*
X131572159Y-85203111D01*
X131582408Y-85224780D01*
X131590483Y-85247348D01*
X131596307Y-85270599D01*
X131599824Y-85294309D01*
X131601000Y-85318250D01*
X131601000Y-85881750D01*
X131599824Y-85905691D01*
X131596307Y-85929401D01*
X131590483Y-85952652D01*
X131582408Y-85975220D01*
X131572159Y-85996889D01*
X131559836Y-86017448D01*
X131545558Y-86036701D01*
X131529461Y-86054461D01*
X131511701Y-86070558D01*
X131492448Y-86084836D01*
X131471889Y-86097159D01*
X131450220Y-86107408D01*
X131427652Y-86115483D01*
X131404401Y-86121307D01*
X131380691Y-86124824D01*
X131356750Y-86126000D01*
X130868250Y-86126000D01*
X130844309Y-86124824D01*
X130820599Y-86121307D01*
X130797348Y-86115483D01*
X130774780Y-86107408D01*
X130753111Y-86097159D01*
X130732552Y-86084836D01*
X130713299Y-86070558D01*
X130695539Y-86054461D01*
X130679442Y-86036701D01*
X130665164Y-86017448D01*
X130652841Y-85996889D01*
X130642592Y-85975220D01*
X130634517Y-85952652D01*
X130628693Y-85929401D01*
X130625176Y-85905691D01*
X130624000Y-85881750D01*
X130624000Y-85318250D01*
X130625176Y-85294309D01*
X130628693Y-85270599D01*
X130634517Y-85247348D01*
X130642592Y-85224780D01*
X130652841Y-85203111D01*
X130665164Y-85182552D01*
X130679442Y-85163299D01*
X130695539Y-85145539D01*
X130713299Y-85129442D01*
X130732552Y-85115164D01*
X130753111Y-85102841D01*
X130774780Y-85092592D01*
X130797348Y-85084517D01*
X130820599Y-85078693D01*
X130844309Y-85075176D01*
X130868250Y-85074000D01*
X131356750Y-85074000D01*
X131380691Y-85075176D01*
X131380691Y-85075176D01*
G37*
D13*
X131112500Y-85600000D03*
D12*
G36*
X132967691Y-83075176D02*
G01*
X132991401Y-83078693D01*
X133014652Y-83084517D01*
X133037220Y-83092592D01*
X133058889Y-83102841D01*
X133079448Y-83115164D01*
X133098701Y-83129442D01*
X133116461Y-83145539D01*
X133132558Y-83163299D01*
X133146836Y-83182552D01*
X133159159Y-83203111D01*
X133169408Y-83224780D01*
X133177483Y-83247348D01*
X133183307Y-83270599D01*
X133186824Y-83294309D01*
X133188000Y-83318250D01*
X133188000Y-83881750D01*
X133186824Y-83905691D01*
X133183307Y-83929401D01*
X133177483Y-83952652D01*
X133169408Y-83975220D01*
X133159159Y-83996889D01*
X133146836Y-84017448D01*
X133132558Y-84036701D01*
X133116461Y-84054461D01*
X133098701Y-84070558D01*
X133079448Y-84084836D01*
X133058889Y-84097159D01*
X133037220Y-84107408D01*
X133014652Y-84115483D01*
X132991401Y-84121307D01*
X132967691Y-84124824D01*
X132943750Y-84126000D01*
X132455250Y-84126000D01*
X132431309Y-84124824D01*
X132407599Y-84121307D01*
X132384348Y-84115483D01*
X132361780Y-84107408D01*
X132340111Y-84097159D01*
X132319552Y-84084836D01*
X132300299Y-84070558D01*
X132282539Y-84054461D01*
X132266442Y-84036701D01*
X132252164Y-84017448D01*
X132239841Y-83996889D01*
X132229592Y-83975220D01*
X132221517Y-83952652D01*
X132215693Y-83929401D01*
X132212176Y-83905691D01*
X132211000Y-83881750D01*
X132211000Y-83318250D01*
X132212176Y-83294309D01*
X132215693Y-83270599D01*
X132221517Y-83247348D01*
X132229592Y-83224780D01*
X132239841Y-83203111D01*
X132252164Y-83182552D01*
X132266442Y-83163299D01*
X132282539Y-83145539D01*
X132300299Y-83129442D01*
X132319552Y-83115164D01*
X132340111Y-83102841D01*
X132361780Y-83092592D01*
X132384348Y-83084517D01*
X132407599Y-83078693D01*
X132431309Y-83075176D01*
X132455250Y-83074000D01*
X132943750Y-83074000D01*
X132967691Y-83075176D01*
X132967691Y-83075176D01*
G37*
D13*
X132699500Y-83600000D03*
D12*
G36*
X131392691Y-83075176D02*
G01*
X131416401Y-83078693D01*
X131439652Y-83084517D01*
X131462220Y-83092592D01*
X131483889Y-83102841D01*
X131504448Y-83115164D01*
X131523701Y-83129442D01*
X131541461Y-83145539D01*
X131557558Y-83163299D01*
X131571836Y-83182552D01*
X131584159Y-83203111D01*
X131594408Y-83224780D01*
X131602483Y-83247348D01*
X131608307Y-83270599D01*
X131611824Y-83294309D01*
X131613000Y-83318250D01*
X131613000Y-83881750D01*
X131611824Y-83905691D01*
X131608307Y-83929401D01*
X131602483Y-83952652D01*
X131594408Y-83975220D01*
X131584159Y-83996889D01*
X131571836Y-84017448D01*
X131557558Y-84036701D01*
X131541461Y-84054461D01*
X131523701Y-84070558D01*
X131504448Y-84084836D01*
X131483889Y-84097159D01*
X131462220Y-84107408D01*
X131439652Y-84115483D01*
X131416401Y-84121307D01*
X131392691Y-84124824D01*
X131368750Y-84126000D01*
X130880250Y-84126000D01*
X130856309Y-84124824D01*
X130832599Y-84121307D01*
X130809348Y-84115483D01*
X130786780Y-84107408D01*
X130765111Y-84097159D01*
X130744552Y-84084836D01*
X130725299Y-84070558D01*
X130707539Y-84054461D01*
X130691442Y-84036701D01*
X130677164Y-84017448D01*
X130664841Y-83996889D01*
X130654592Y-83975220D01*
X130646517Y-83952652D01*
X130640693Y-83929401D01*
X130637176Y-83905691D01*
X130636000Y-83881750D01*
X130636000Y-83318250D01*
X130637176Y-83294309D01*
X130640693Y-83270599D01*
X130646517Y-83247348D01*
X130654592Y-83224780D01*
X130664841Y-83203111D01*
X130677164Y-83182552D01*
X130691442Y-83163299D01*
X130707539Y-83145539D01*
X130725299Y-83129442D01*
X130744552Y-83115164D01*
X130765111Y-83102841D01*
X130786780Y-83092592D01*
X130809348Y-83084517D01*
X130832599Y-83078693D01*
X130856309Y-83075176D01*
X130880250Y-83074000D01*
X131368750Y-83074000D01*
X131392691Y-83075176D01*
X131392691Y-83075176D01*
G37*
D13*
X131124500Y-83600000D03*
D12*
G36*
X152580691Y-82425176D02*
G01*
X152604401Y-82428693D01*
X152627652Y-82434517D01*
X152650220Y-82442592D01*
X152671889Y-82452841D01*
X152692448Y-82465164D01*
X152711701Y-82479442D01*
X152729461Y-82495539D01*
X152745558Y-82513299D01*
X152759836Y-82532552D01*
X152772159Y-82553111D01*
X152782408Y-82574780D01*
X152790483Y-82597348D01*
X152796307Y-82620599D01*
X152799824Y-82644309D01*
X152801000Y-82668250D01*
X152801000Y-83231750D01*
X152799824Y-83255691D01*
X152796307Y-83279401D01*
X152790483Y-83302652D01*
X152782408Y-83325220D01*
X152772159Y-83346889D01*
X152759836Y-83367448D01*
X152745558Y-83386701D01*
X152729461Y-83404461D01*
X152711701Y-83420558D01*
X152692448Y-83434836D01*
X152671889Y-83447159D01*
X152650220Y-83457408D01*
X152627652Y-83465483D01*
X152604401Y-83471307D01*
X152580691Y-83474824D01*
X152556750Y-83476000D01*
X152068250Y-83476000D01*
X152044309Y-83474824D01*
X152020599Y-83471307D01*
X151997348Y-83465483D01*
X151974780Y-83457408D01*
X151953111Y-83447159D01*
X151932552Y-83434836D01*
X151913299Y-83420558D01*
X151895539Y-83404461D01*
X151879442Y-83386701D01*
X151865164Y-83367448D01*
X151852841Y-83346889D01*
X151842592Y-83325220D01*
X151834517Y-83302652D01*
X151828693Y-83279401D01*
X151825176Y-83255691D01*
X151824000Y-83231750D01*
X151824000Y-82668250D01*
X151825176Y-82644309D01*
X151828693Y-82620599D01*
X151834517Y-82597348D01*
X151842592Y-82574780D01*
X151852841Y-82553111D01*
X151865164Y-82532552D01*
X151879442Y-82513299D01*
X151895539Y-82495539D01*
X151913299Y-82479442D01*
X151932552Y-82465164D01*
X151953111Y-82452841D01*
X151974780Y-82442592D01*
X151997348Y-82434517D01*
X152020599Y-82428693D01*
X152044309Y-82425176D01*
X152068250Y-82424000D01*
X152556750Y-82424000D01*
X152580691Y-82425176D01*
X152580691Y-82425176D01*
G37*
D13*
X152312500Y-82950000D03*
D12*
G36*
X154155691Y-82425176D02*
G01*
X154179401Y-82428693D01*
X154202652Y-82434517D01*
X154225220Y-82442592D01*
X154246889Y-82452841D01*
X154267448Y-82465164D01*
X154286701Y-82479442D01*
X154304461Y-82495539D01*
X154320558Y-82513299D01*
X154334836Y-82532552D01*
X154347159Y-82553111D01*
X154357408Y-82574780D01*
X154365483Y-82597348D01*
X154371307Y-82620599D01*
X154374824Y-82644309D01*
X154376000Y-82668250D01*
X154376000Y-83231750D01*
X154374824Y-83255691D01*
X154371307Y-83279401D01*
X154365483Y-83302652D01*
X154357408Y-83325220D01*
X154347159Y-83346889D01*
X154334836Y-83367448D01*
X154320558Y-83386701D01*
X154304461Y-83404461D01*
X154286701Y-83420558D01*
X154267448Y-83434836D01*
X154246889Y-83447159D01*
X154225220Y-83457408D01*
X154202652Y-83465483D01*
X154179401Y-83471307D01*
X154155691Y-83474824D01*
X154131750Y-83476000D01*
X153643250Y-83476000D01*
X153619309Y-83474824D01*
X153595599Y-83471307D01*
X153572348Y-83465483D01*
X153549780Y-83457408D01*
X153528111Y-83447159D01*
X153507552Y-83434836D01*
X153488299Y-83420558D01*
X153470539Y-83404461D01*
X153454442Y-83386701D01*
X153440164Y-83367448D01*
X153427841Y-83346889D01*
X153417592Y-83325220D01*
X153409517Y-83302652D01*
X153403693Y-83279401D01*
X153400176Y-83255691D01*
X153399000Y-83231750D01*
X153399000Y-82668250D01*
X153400176Y-82644309D01*
X153403693Y-82620599D01*
X153409517Y-82597348D01*
X153417592Y-82574780D01*
X153427841Y-82553111D01*
X153440164Y-82532552D01*
X153454442Y-82513299D01*
X153470539Y-82495539D01*
X153488299Y-82479442D01*
X153507552Y-82465164D01*
X153528111Y-82452841D01*
X153549780Y-82442592D01*
X153572348Y-82434517D01*
X153595599Y-82428693D01*
X153619309Y-82425176D01*
X153643250Y-82424000D01*
X154131750Y-82424000D01*
X154155691Y-82425176D01*
X154155691Y-82425176D01*
G37*
D13*
X153887500Y-82950000D03*
D12*
G36*
X154155691Y-80775176D02*
G01*
X154179401Y-80778693D01*
X154202652Y-80784517D01*
X154225220Y-80792592D01*
X154246889Y-80802841D01*
X154267448Y-80815164D01*
X154286701Y-80829442D01*
X154304461Y-80845539D01*
X154320558Y-80863299D01*
X154334836Y-80882552D01*
X154347159Y-80903111D01*
X154357408Y-80924780D01*
X154365483Y-80947348D01*
X154371307Y-80970599D01*
X154374824Y-80994309D01*
X154376000Y-81018250D01*
X154376000Y-81581750D01*
X154374824Y-81605691D01*
X154371307Y-81629401D01*
X154365483Y-81652652D01*
X154357408Y-81675220D01*
X154347159Y-81696889D01*
X154334836Y-81717448D01*
X154320558Y-81736701D01*
X154304461Y-81754461D01*
X154286701Y-81770558D01*
X154267448Y-81784836D01*
X154246889Y-81797159D01*
X154225220Y-81807408D01*
X154202652Y-81815483D01*
X154179401Y-81821307D01*
X154155691Y-81824824D01*
X154131750Y-81826000D01*
X153643250Y-81826000D01*
X153619309Y-81824824D01*
X153595599Y-81821307D01*
X153572348Y-81815483D01*
X153549780Y-81807408D01*
X153528111Y-81797159D01*
X153507552Y-81784836D01*
X153488299Y-81770558D01*
X153470539Y-81754461D01*
X153454442Y-81736701D01*
X153440164Y-81717448D01*
X153427841Y-81696889D01*
X153417592Y-81675220D01*
X153409517Y-81652652D01*
X153403693Y-81629401D01*
X153400176Y-81605691D01*
X153399000Y-81581750D01*
X153399000Y-81018250D01*
X153400176Y-80994309D01*
X153403693Y-80970599D01*
X153409517Y-80947348D01*
X153417592Y-80924780D01*
X153427841Y-80903111D01*
X153440164Y-80882552D01*
X153454442Y-80863299D01*
X153470539Y-80845539D01*
X153488299Y-80829442D01*
X153507552Y-80815164D01*
X153528111Y-80802841D01*
X153549780Y-80792592D01*
X153572348Y-80784517D01*
X153595599Y-80778693D01*
X153619309Y-80775176D01*
X153643250Y-80774000D01*
X154131750Y-80774000D01*
X154155691Y-80775176D01*
X154155691Y-80775176D01*
G37*
D13*
X153887500Y-81300000D03*
D12*
G36*
X152580691Y-80775176D02*
G01*
X152604401Y-80778693D01*
X152627652Y-80784517D01*
X152650220Y-80792592D01*
X152671889Y-80802841D01*
X152692448Y-80815164D01*
X152711701Y-80829442D01*
X152729461Y-80845539D01*
X152745558Y-80863299D01*
X152759836Y-80882552D01*
X152772159Y-80903111D01*
X152782408Y-80924780D01*
X152790483Y-80947348D01*
X152796307Y-80970599D01*
X152799824Y-80994309D01*
X152801000Y-81018250D01*
X152801000Y-81581750D01*
X152799824Y-81605691D01*
X152796307Y-81629401D01*
X152790483Y-81652652D01*
X152782408Y-81675220D01*
X152772159Y-81696889D01*
X152759836Y-81717448D01*
X152745558Y-81736701D01*
X152729461Y-81754461D01*
X152711701Y-81770558D01*
X152692448Y-81784836D01*
X152671889Y-81797159D01*
X152650220Y-81807408D01*
X152627652Y-81815483D01*
X152604401Y-81821307D01*
X152580691Y-81824824D01*
X152556750Y-81826000D01*
X152068250Y-81826000D01*
X152044309Y-81824824D01*
X152020599Y-81821307D01*
X151997348Y-81815483D01*
X151974780Y-81807408D01*
X151953111Y-81797159D01*
X151932552Y-81784836D01*
X151913299Y-81770558D01*
X151895539Y-81754461D01*
X151879442Y-81736701D01*
X151865164Y-81717448D01*
X151852841Y-81696889D01*
X151842592Y-81675220D01*
X151834517Y-81652652D01*
X151828693Y-81629401D01*
X151825176Y-81605691D01*
X151824000Y-81581750D01*
X151824000Y-81018250D01*
X151825176Y-80994309D01*
X151828693Y-80970599D01*
X151834517Y-80947348D01*
X151842592Y-80924780D01*
X151852841Y-80903111D01*
X151865164Y-80882552D01*
X151879442Y-80863299D01*
X151895539Y-80845539D01*
X151913299Y-80829442D01*
X151932552Y-80815164D01*
X151953111Y-80802841D01*
X151974780Y-80792592D01*
X151997348Y-80784517D01*
X152020599Y-80778693D01*
X152044309Y-80775176D01*
X152068250Y-80774000D01*
X152556750Y-80774000D01*
X152580691Y-80775176D01*
X152580691Y-80775176D01*
G37*
D13*
X152312500Y-81300000D03*
D12*
G36*
X145492691Y-85675176D02*
G01*
X145516401Y-85678693D01*
X145539652Y-85684517D01*
X145562220Y-85692592D01*
X145583889Y-85702841D01*
X145604448Y-85715164D01*
X145623701Y-85729442D01*
X145641461Y-85745539D01*
X145657558Y-85763299D01*
X145671836Y-85782552D01*
X145684159Y-85803111D01*
X145694408Y-85824780D01*
X145702483Y-85847348D01*
X145708307Y-85870599D01*
X145711824Y-85894309D01*
X145713000Y-85918250D01*
X145713000Y-86481750D01*
X145711824Y-86505691D01*
X145708307Y-86529401D01*
X145702483Y-86552652D01*
X145694408Y-86575220D01*
X145684159Y-86596889D01*
X145671836Y-86617448D01*
X145657558Y-86636701D01*
X145641461Y-86654461D01*
X145623701Y-86670558D01*
X145604448Y-86684836D01*
X145583889Y-86697159D01*
X145562220Y-86707408D01*
X145539652Y-86715483D01*
X145516401Y-86721307D01*
X145492691Y-86724824D01*
X145468750Y-86726000D01*
X144980250Y-86726000D01*
X144956309Y-86724824D01*
X144932599Y-86721307D01*
X144909348Y-86715483D01*
X144886780Y-86707408D01*
X144865111Y-86697159D01*
X144844552Y-86684836D01*
X144825299Y-86670558D01*
X144807539Y-86654461D01*
X144791442Y-86636701D01*
X144777164Y-86617448D01*
X144764841Y-86596889D01*
X144754592Y-86575220D01*
X144746517Y-86552652D01*
X144740693Y-86529401D01*
X144737176Y-86505691D01*
X144736000Y-86481750D01*
X144736000Y-85918250D01*
X144737176Y-85894309D01*
X144740693Y-85870599D01*
X144746517Y-85847348D01*
X144754592Y-85824780D01*
X144764841Y-85803111D01*
X144777164Y-85782552D01*
X144791442Y-85763299D01*
X144807539Y-85745539D01*
X144825299Y-85729442D01*
X144844552Y-85715164D01*
X144865111Y-85702841D01*
X144886780Y-85692592D01*
X144909348Y-85684517D01*
X144932599Y-85678693D01*
X144956309Y-85675176D01*
X144980250Y-85674000D01*
X145468750Y-85674000D01*
X145492691Y-85675176D01*
X145492691Y-85675176D01*
G37*
D13*
X145224500Y-86200000D03*
D12*
G36*
X147067691Y-85675176D02*
G01*
X147091401Y-85678693D01*
X147114652Y-85684517D01*
X147137220Y-85692592D01*
X147158889Y-85702841D01*
X147179448Y-85715164D01*
X147198701Y-85729442D01*
X147216461Y-85745539D01*
X147232558Y-85763299D01*
X147246836Y-85782552D01*
X147259159Y-85803111D01*
X147269408Y-85824780D01*
X147277483Y-85847348D01*
X147283307Y-85870599D01*
X147286824Y-85894309D01*
X147288000Y-85918250D01*
X147288000Y-86481750D01*
X147286824Y-86505691D01*
X147283307Y-86529401D01*
X147277483Y-86552652D01*
X147269408Y-86575220D01*
X147259159Y-86596889D01*
X147246836Y-86617448D01*
X147232558Y-86636701D01*
X147216461Y-86654461D01*
X147198701Y-86670558D01*
X147179448Y-86684836D01*
X147158889Y-86697159D01*
X147137220Y-86707408D01*
X147114652Y-86715483D01*
X147091401Y-86721307D01*
X147067691Y-86724824D01*
X147043750Y-86726000D01*
X146555250Y-86726000D01*
X146531309Y-86724824D01*
X146507599Y-86721307D01*
X146484348Y-86715483D01*
X146461780Y-86707408D01*
X146440111Y-86697159D01*
X146419552Y-86684836D01*
X146400299Y-86670558D01*
X146382539Y-86654461D01*
X146366442Y-86636701D01*
X146352164Y-86617448D01*
X146339841Y-86596889D01*
X146329592Y-86575220D01*
X146321517Y-86552652D01*
X146315693Y-86529401D01*
X146312176Y-86505691D01*
X146311000Y-86481750D01*
X146311000Y-85918250D01*
X146312176Y-85894309D01*
X146315693Y-85870599D01*
X146321517Y-85847348D01*
X146329592Y-85824780D01*
X146339841Y-85803111D01*
X146352164Y-85782552D01*
X146366442Y-85763299D01*
X146382539Y-85745539D01*
X146400299Y-85729442D01*
X146419552Y-85715164D01*
X146440111Y-85702841D01*
X146461780Y-85692592D01*
X146484348Y-85684517D01*
X146507599Y-85678693D01*
X146531309Y-85675176D01*
X146555250Y-85674000D01*
X147043750Y-85674000D01*
X147067691Y-85675176D01*
X147067691Y-85675176D01*
G37*
D13*
X146799500Y-86200000D03*
D12*
G36*
X129067691Y-70575176D02*
G01*
X129091401Y-70578693D01*
X129114652Y-70584517D01*
X129137220Y-70592592D01*
X129158889Y-70602841D01*
X129179448Y-70615164D01*
X129198701Y-70629442D01*
X129216461Y-70645539D01*
X129232558Y-70663299D01*
X129246836Y-70682552D01*
X129259159Y-70703111D01*
X129269408Y-70724780D01*
X129277483Y-70747348D01*
X129283307Y-70770599D01*
X129286824Y-70794309D01*
X129288000Y-70818250D01*
X129288000Y-71381750D01*
X129286824Y-71405691D01*
X129283307Y-71429401D01*
X129277483Y-71452652D01*
X129269408Y-71475220D01*
X129259159Y-71496889D01*
X129246836Y-71517448D01*
X129232558Y-71536701D01*
X129216461Y-71554461D01*
X129198701Y-71570558D01*
X129179448Y-71584836D01*
X129158889Y-71597159D01*
X129137220Y-71607408D01*
X129114652Y-71615483D01*
X129091401Y-71621307D01*
X129067691Y-71624824D01*
X129043750Y-71626000D01*
X128555250Y-71626000D01*
X128531309Y-71624824D01*
X128507599Y-71621307D01*
X128484348Y-71615483D01*
X128461780Y-71607408D01*
X128440111Y-71597159D01*
X128419552Y-71584836D01*
X128400299Y-71570558D01*
X128382539Y-71554461D01*
X128366442Y-71536701D01*
X128352164Y-71517448D01*
X128339841Y-71496889D01*
X128329592Y-71475220D01*
X128321517Y-71452652D01*
X128315693Y-71429401D01*
X128312176Y-71405691D01*
X128311000Y-71381750D01*
X128311000Y-70818250D01*
X128312176Y-70794309D01*
X128315693Y-70770599D01*
X128321517Y-70747348D01*
X128329592Y-70724780D01*
X128339841Y-70703111D01*
X128352164Y-70682552D01*
X128366442Y-70663299D01*
X128382539Y-70645539D01*
X128400299Y-70629442D01*
X128419552Y-70615164D01*
X128440111Y-70602841D01*
X128461780Y-70592592D01*
X128484348Y-70584517D01*
X128507599Y-70578693D01*
X128531309Y-70575176D01*
X128555250Y-70574000D01*
X129043750Y-70574000D01*
X129067691Y-70575176D01*
X129067691Y-70575176D01*
G37*
D13*
X128799500Y-71100000D03*
D12*
G36*
X127492691Y-70575176D02*
G01*
X127516401Y-70578693D01*
X127539652Y-70584517D01*
X127562220Y-70592592D01*
X127583889Y-70602841D01*
X127604448Y-70615164D01*
X127623701Y-70629442D01*
X127641461Y-70645539D01*
X127657558Y-70663299D01*
X127671836Y-70682552D01*
X127684159Y-70703111D01*
X127694408Y-70724780D01*
X127702483Y-70747348D01*
X127708307Y-70770599D01*
X127711824Y-70794309D01*
X127713000Y-70818250D01*
X127713000Y-71381750D01*
X127711824Y-71405691D01*
X127708307Y-71429401D01*
X127702483Y-71452652D01*
X127694408Y-71475220D01*
X127684159Y-71496889D01*
X127671836Y-71517448D01*
X127657558Y-71536701D01*
X127641461Y-71554461D01*
X127623701Y-71570558D01*
X127604448Y-71584836D01*
X127583889Y-71597159D01*
X127562220Y-71607408D01*
X127539652Y-71615483D01*
X127516401Y-71621307D01*
X127492691Y-71624824D01*
X127468750Y-71626000D01*
X126980250Y-71626000D01*
X126956309Y-71624824D01*
X126932599Y-71621307D01*
X126909348Y-71615483D01*
X126886780Y-71607408D01*
X126865111Y-71597159D01*
X126844552Y-71584836D01*
X126825299Y-71570558D01*
X126807539Y-71554461D01*
X126791442Y-71536701D01*
X126777164Y-71517448D01*
X126764841Y-71496889D01*
X126754592Y-71475220D01*
X126746517Y-71452652D01*
X126740693Y-71429401D01*
X126737176Y-71405691D01*
X126736000Y-71381750D01*
X126736000Y-70818250D01*
X126737176Y-70794309D01*
X126740693Y-70770599D01*
X126746517Y-70747348D01*
X126754592Y-70724780D01*
X126764841Y-70703111D01*
X126777164Y-70682552D01*
X126791442Y-70663299D01*
X126807539Y-70645539D01*
X126825299Y-70629442D01*
X126844552Y-70615164D01*
X126865111Y-70602841D01*
X126886780Y-70592592D01*
X126909348Y-70584517D01*
X126932599Y-70578693D01*
X126956309Y-70575176D01*
X126980250Y-70574000D01*
X127468750Y-70574000D01*
X127492691Y-70575176D01*
X127492691Y-70575176D01*
G37*
D13*
X127224500Y-71100000D03*
D12*
G36*
X141680691Y-85725176D02*
G01*
X141704401Y-85728693D01*
X141727652Y-85734517D01*
X141750220Y-85742592D01*
X141771889Y-85752841D01*
X141792448Y-85765164D01*
X141811701Y-85779442D01*
X141829461Y-85795539D01*
X141845558Y-85813299D01*
X141859836Y-85832552D01*
X141872159Y-85853111D01*
X141882408Y-85874780D01*
X141890483Y-85897348D01*
X141896307Y-85920599D01*
X141899824Y-85944309D01*
X141901000Y-85968250D01*
X141901000Y-86531750D01*
X141899824Y-86555691D01*
X141896307Y-86579401D01*
X141890483Y-86602652D01*
X141882408Y-86625220D01*
X141872159Y-86646889D01*
X141859836Y-86667448D01*
X141845558Y-86686701D01*
X141829461Y-86704461D01*
X141811701Y-86720558D01*
X141792448Y-86734836D01*
X141771889Y-86747159D01*
X141750220Y-86757408D01*
X141727652Y-86765483D01*
X141704401Y-86771307D01*
X141680691Y-86774824D01*
X141656750Y-86776000D01*
X141168250Y-86776000D01*
X141144309Y-86774824D01*
X141120599Y-86771307D01*
X141097348Y-86765483D01*
X141074780Y-86757408D01*
X141053111Y-86747159D01*
X141032552Y-86734836D01*
X141013299Y-86720558D01*
X140995539Y-86704461D01*
X140979442Y-86686701D01*
X140965164Y-86667448D01*
X140952841Y-86646889D01*
X140942592Y-86625220D01*
X140934517Y-86602652D01*
X140928693Y-86579401D01*
X140925176Y-86555691D01*
X140924000Y-86531750D01*
X140924000Y-85968250D01*
X140925176Y-85944309D01*
X140928693Y-85920599D01*
X140934517Y-85897348D01*
X140942592Y-85874780D01*
X140952841Y-85853111D01*
X140965164Y-85832552D01*
X140979442Y-85813299D01*
X140995539Y-85795539D01*
X141013299Y-85779442D01*
X141032552Y-85765164D01*
X141053111Y-85752841D01*
X141074780Y-85742592D01*
X141097348Y-85734517D01*
X141120599Y-85728693D01*
X141144309Y-85725176D01*
X141168250Y-85724000D01*
X141656750Y-85724000D01*
X141680691Y-85725176D01*
X141680691Y-85725176D01*
G37*
D13*
X141412500Y-86250000D03*
D12*
G36*
X143255691Y-85725176D02*
G01*
X143279401Y-85728693D01*
X143302652Y-85734517D01*
X143325220Y-85742592D01*
X143346889Y-85752841D01*
X143367448Y-85765164D01*
X143386701Y-85779442D01*
X143404461Y-85795539D01*
X143420558Y-85813299D01*
X143434836Y-85832552D01*
X143447159Y-85853111D01*
X143457408Y-85874780D01*
X143465483Y-85897348D01*
X143471307Y-85920599D01*
X143474824Y-85944309D01*
X143476000Y-85968250D01*
X143476000Y-86531750D01*
X143474824Y-86555691D01*
X143471307Y-86579401D01*
X143465483Y-86602652D01*
X143457408Y-86625220D01*
X143447159Y-86646889D01*
X143434836Y-86667448D01*
X143420558Y-86686701D01*
X143404461Y-86704461D01*
X143386701Y-86720558D01*
X143367448Y-86734836D01*
X143346889Y-86747159D01*
X143325220Y-86757408D01*
X143302652Y-86765483D01*
X143279401Y-86771307D01*
X143255691Y-86774824D01*
X143231750Y-86776000D01*
X142743250Y-86776000D01*
X142719309Y-86774824D01*
X142695599Y-86771307D01*
X142672348Y-86765483D01*
X142649780Y-86757408D01*
X142628111Y-86747159D01*
X142607552Y-86734836D01*
X142588299Y-86720558D01*
X142570539Y-86704461D01*
X142554442Y-86686701D01*
X142540164Y-86667448D01*
X142527841Y-86646889D01*
X142517592Y-86625220D01*
X142509517Y-86602652D01*
X142503693Y-86579401D01*
X142500176Y-86555691D01*
X142499000Y-86531750D01*
X142499000Y-85968250D01*
X142500176Y-85944309D01*
X142503693Y-85920599D01*
X142509517Y-85897348D01*
X142517592Y-85874780D01*
X142527841Y-85853111D01*
X142540164Y-85832552D01*
X142554442Y-85813299D01*
X142570539Y-85795539D01*
X142588299Y-85779442D01*
X142607552Y-85765164D01*
X142628111Y-85752841D01*
X142649780Y-85742592D01*
X142672348Y-85734517D01*
X142695599Y-85728693D01*
X142719309Y-85725176D01*
X142743250Y-85724000D01*
X143231750Y-85724000D01*
X143255691Y-85725176D01*
X143255691Y-85725176D01*
G37*
D13*
X142987500Y-86250000D03*
D18*
X120000000Y-80160000D03*
X120000000Y-77620000D03*
X120000000Y-75080000D03*
X120000000Y-72540000D03*
D19*
X120000000Y-70000000D03*
D12*
G36*
X127420141Y-66550297D02*
G01*
X127446278Y-66554174D01*
X127471909Y-66560594D01*
X127496788Y-66569495D01*
X127520674Y-66580793D01*
X127543337Y-66594377D01*
X127564560Y-66610117D01*
X127584139Y-66627861D01*
X127601883Y-66647440D01*
X127617623Y-66668663D01*
X127631207Y-66691326D01*
X127642505Y-66715212D01*
X127651406Y-66740091D01*
X127657826Y-66765722D01*
X127661703Y-66791859D01*
X127663000Y-66818250D01*
X127663000Y-67781750D01*
X127661703Y-67808141D01*
X127657826Y-67834278D01*
X127651406Y-67859909D01*
X127642505Y-67884788D01*
X127631207Y-67908674D01*
X127617623Y-67931337D01*
X127601883Y-67952560D01*
X127584139Y-67972139D01*
X127564560Y-67989883D01*
X127543337Y-68005623D01*
X127520674Y-68019207D01*
X127496788Y-68030505D01*
X127471909Y-68039406D01*
X127446278Y-68045826D01*
X127420141Y-68049703D01*
X127393750Y-68051000D01*
X126855250Y-68051000D01*
X126828859Y-68049703D01*
X126802722Y-68045826D01*
X126777091Y-68039406D01*
X126752212Y-68030505D01*
X126728326Y-68019207D01*
X126705663Y-68005623D01*
X126684440Y-67989883D01*
X126664861Y-67972139D01*
X126647117Y-67952560D01*
X126631377Y-67931337D01*
X126617793Y-67908674D01*
X126606495Y-67884788D01*
X126597594Y-67859909D01*
X126591174Y-67834278D01*
X126587297Y-67808141D01*
X126586000Y-67781750D01*
X126586000Y-66818250D01*
X126587297Y-66791859D01*
X126591174Y-66765722D01*
X126597594Y-66740091D01*
X126606495Y-66715212D01*
X126617793Y-66691326D01*
X126631377Y-66668663D01*
X126647117Y-66647440D01*
X126664861Y-66627861D01*
X126684440Y-66610117D01*
X126705663Y-66594377D01*
X126728326Y-66580793D01*
X126752212Y-66569495D01*
X126777091Y-66560594D01*
X126802722Y-66554174D01*
X126828859Y-66550297D01*
X126855250Y-66549000D01*
X127393750Y-66549000D01*
X127420141Y-66550297D01*
X127420141Y-66550297D01*
G37*
D16*
X127124500Y-67300000D03*
D12*
G36*
X129295141Y-66550297D02*
G01*
X129321278Y-66554174D01*
X129346909Y-66560594D01*
X129371788Y-66569495D01*
X129395674Y-66580793D01*
X129418337Y-66594377D01*
X129439560Y-66610117D01*
X129459139Y-66627861D01*
X129476883Y-66647440D01*
X129492623Y-66668663D01*
X129506207Y-66691326D01*
X129517505Y-66715212D01*
X129526406Y-66740091D01*
X129532826Y-66765722D01*
X129536703Y-66791859D01*
X129538000Y-66818250D01*
X129538000Y-67781750D01*
X129536703Y-67808141D01*
X129532826Y-67834278D01*
X129526406Y-67859909D01*
X129517505Y-67884788D01*
X129506207Y-67908674D01*
X129492623Y-67931337D01*
X129476883Y-67952560D01*
X129459139Y-67972139D01*
X129439560Y-67989883D01*
X129418337Y-68005623D01*
X129395674Y-68019207D01*
X129371788Y-68030505D01*
X129346909Y-68039406D01*
X129321278Y-68045826D01*
X129295141Y-68049703D01*
X129268750Y-68051000D01*
X128730250Y-68051000D01*
X128703859Y-68049703D01*
X128677722Y-68045826D01*
X128652091Y-68039406D01*
X128627212Y-68030505D01*
X128603326Y-68019207D01*
X128580663Y-68005623D01*
X128559440Y-67989883D01*
X128539861Y-67972139D01*
X128522117Y-67952560D01*
X128506377Y-67931337D01*
X128492793Y-67908674D01*
X128481495Y-67884788D01*
X128472594Y-67859909D01*
X128466174Y-67834278D01*
X128462297Y-67808141D01*
X128461000Y-67781750D01*
X128461000Y-66818250D01*
X128462297Y-66791859D01*
X128466174Y-66765722D01*
X128472594Y-66740091D01*
X128481495Y-66715212D01*
X128492793Y-66691326D01*
X128506377Y-66668663D01*
X128522117Y-66647440D01*
X128539861Y-66627861D01*
X128559440Y-66610117D01*
X128580663Y-66594377D01*
X128603326Y-66580793D01*
X128627212Y-66569495D01*
X128652091Y-66560594D01*
X128677722Y-66554174D01*
X128703859Y-66550297D01*
X128730250Y-66549000D01*
X129268750Y-66549000D01*
X129295141Y-66550297D01*
X129295141Y-66550297D01*
G37*
D16*
X128999500Y-67300000D03*
D12*
G36*
X129183141Y-76900297D02*
G01*
X129209278Y-76904174D01*
X129234909Y-76910594D01*
X129259788Y-76919495D01*
X129283674Y-76930793D01*
X129306337Y-76944377D01*
X129327560Y-76960117D01*
X129347139Y-76977861D01*
X129364883Y-76997440D01*
X129380623Y-77018663D01*
X129394207Y-77041326D01*
X129405505Y-77065212D01*
X129414406Y-77090091D01*
X129420826Y-77115722D01*
X129424703Y-77141859D01*
X129426000Y-77168250D01*
X129426000Y-78131750D01*
X129424703Y-78158141D01*
X129420826Y-78184278D01*
X129414406Y-78209909D01*
X129405505Y-78234788D01*
X129394207Y-78258674D01*
X129380623Y-78281337D01*
X129364883Y-78302560D01*
X129347139Y-78322139D01*
X129327560Y-78339883D01*
X129306337Y-78355623D01*
X129283674Y-78369207D01*
X129259788Y-78380505D01*
X129234909Y-78389406D01*
X129209278Y-78395826D01*
X129183141Y-78399703D01*
X129156750Y-78401000D01*
X128618250Y-78401000D01*
X128591859Y-78399703D01*
X128565722Y-78395826D01*
X128540091Y-78389406D01*
X128515212Y-78380505D01*
X128491326Y-78369207D01*
X128468663Y-78355623D01*
X128447440Y-78339883D01*
X128427861Y-78322139D01*
X128410117Y-78302560D01*
X128394377Y-78281337D01*
X128380793Y-78258674D01*
X128369495Y-78234788D01*
X128360594Y-78209909D01*
X128354174Y-78184278D01*
X128350297Y-78158141D01*
X128349000Y-78131750D01*
X128349000Y-77168250D01*
X128350297Y-77141859D01*
X128354174Y-77115722D01*
X128360594Y-77090091D01*
X128369495Y-77065212D01*
X128380793Y-77041326D01*
X128394377Y-77018663D01*
X128410117Y-76997440D01*
X128427861Y-76977861D01*
X128447440Y-76960117D01*
X128468663Y-76944377D01*
X128491326Y-76930793D01*
X128515212Y-76919495D01*
X128540091Y-76910594D01*
X128565722Y-76904174D01*
X128591859Y-76900297D01*
X128618250Y-76899000D01*
X129156750Y-76899000D01*
X129183141Y-76900297D01*
X129183141Y-76900297D01*
G37*
D16*
X128887500Y-77650000D03*
D12*
G36*
X127308141Y-76900297D02*
G01*
X127334278Y-76904174D01*
X127359909Y-76910594D01*
X127384788Y-76919495D01*
X127408674Y-76930793D01*
X127431337Y-76944377D01*
X127452560Y-76960117D01*
X127472139Y-76977861D01*
X127489883Y-76997440D01*
X127505623Y-77018663D01*
X127519207Y-77041326D01*
X127530505Y-77065212D01*
X127539406Y-77090091D01*
X127545826Y-77115722D01*
X127549703Y-77141859D01*
X127551000Y-77168250D01*
X127551000Y-78131750D01*
X127549703Y-78158141D01*
X127545826Y-78184278D01*
X127539406Y-78209909D01*
X127530505Y-78234788D01*
X127519207Y-78258674D01*
X127505623Y-78281337D01*
X127489883Y-78302560D01*
X127472139Y-78322139D01*
X127452560Y-78339883D01*
X127431337Y-78355623D01*
X127408674Y-78369207D01*
X127384788Y-78380505D01*
X127359909Y-78389406D01*
X127334278Y-78395826D01*
X127308141Y-78399703D01*
X127281750Y-78401000D01*
X126743250Y-78401000D01*
X126716859Y-78399703D01*
X126690722Y-78395826D01*
X126665091Y-78389406D01*
X126640212Y-78380505D01*
X126616326Y-78369207D01*
X126593663Y-78355623D01*
X126572440Y-78339883D01*
X126552861Y-78322139D01*
X126535117Y-78302560D01*
X126519377Y-78281337D01*
X126505793Y-78258674D01*
X126494495Y-78234788D01*
X126485594Y-78209909D01*
X126479174Y-78184278D01*
X126475297Y-78158141D01*
X126474000Y-78131750D01*
X126474000Y-77168250D01*
X126475297Y-77141859D01*
X126479174Y-77115722D01*
X126485594Y-77090091D01*
X126494495Y-77065212D01*
X126505793Y-77041326D01*
X126519377Y-77018663D01*
X126535117Y-76997440D01*
X126552861Y-76977861D01*
X126572440Y-76960117D01*
X126593663Y-76944377D01*
X126616326Y-76930793D01*
X126640212Y-76919495D01*
X126665091Y-76910594D01*
X126690722Y-76904174D01*
X126716859Y-76900297D01*
X126743250Y-76899000D01*
X127281750Y-76899000D01*
X127308141Y-76900297D01*
X127308141Y-76900297D01*
G37*
D16*
X127012500Y-77650000D03*
D12*
G36*
X129183141Y-79450297D02*
G01*
X129209278Y-79454174D01*
X129234909Y-79460594D01*
X129259788Y-79469495D01*
X129283674Y-79480793D01*
X129306337Y-79494377D01*
X129327560Y-79510117D01*
X129347139Y-79527861D01*
X129364883Y-79547440D01*
X129380623Y-79568663D01*
X129394207Y-79591326D01*
X129405505Y-79615212D01*
X129414406Y-79640091D01*
X129420826Y-79665722D01*
X129424703Y-79691859D01*
X129426000Y-79718250D01*
X129426000Y-80681750D01*
X129424703Y-80708141D01*
X129420826Y-80734278D01*
X129414406Y-80759909D01*
X129405505Y-80784788D01*
X129394207Y-80808674D01*
X129380623Y-80831337D01*
X129364883Y-80852560D01*
X129347139Y-80872139D01*
X129327560Y-80889883D01*
X129306337Y-80905623D01*
X129283674Y-80919207D01*
X129259788Y-80930505D01*
X129234909Y-80939406D01*
X129209278Y-80945826D01*
X129183141Y-80949703D01*
X129156750Y-80951000D01*
X128618250Y-80951000D01*
X128591859Y-80949703D01*
X128565722Y-80945826D01*
X128540091Y-80939406D01*
X128515212Y-80930505D01*
X128491326Y-80919207D01*
X128468663Y-80905623D01*
X128447440Y-80889883D01*
X128427861Y-80872139D01*
X128410117Y-80852560D01*
X128394377Y-80831337D01*
X128380793Y-80808674D01*
X128369495Y-80784788D01*
X128360594Y-80759909D01*
X128354174Y-80734278D01*
X128350297Y-80708141D01*
X128349000Y-80681750D01*
X128349000Y-79718250D01*
X128350297Y-79691859D01*
X128354174Y-79665722D01*
X128360594Y-79640091D01*
X128369495Y-79615212D01*
X128380793Y-79591326D01*
X128394377Y-79568663D01*
X128410117Y-79547440D01*
X128427861Y-79527861D01*
X128447440Y-79510117D01*
X128468663Y-79494377D01*
X128491326Y-79480793D01*
X128515212Y-79469495D01*
X128540091Y-79460594D01*
X128565722Y-79454174D01*
X128591859Y-79450297D01*
X128618250Y-79449000D01*
X129156750Y-79449000D01*
X129183141Y-79450297D01*
X129183141Y-79450297D01*
G37*
D16*
X128887500Y-80200000D03*
D12*
G36*
X127308141Y-79450297D02*
G01*
X127334278Y-79454174D01*
X127359909Y-79460594D01*
X127384788Y-79469495D01*
X127408674Y-79480793D01*
X127431337Y-79494377D01*
X127452560Y-79510117D01*
X127472139Y-79527861D01*
X127489883Y-79547440D01*
X127505623Y-79568663D01*
X127519207Y-79591326D01*
X127530505Y-79615212D01*
X127539406Y-79640091D01*
X127545826Y-79665722D01*
X127549703Y-79691859D01*
X127551000Y-79718250D01*
X127551000Y-80681750D01*
X127549703Y-80708141D01*
X127545826Y-80734278D01*
X127539406Y-80759909D01*
X127530505Y-80784788D01*
X127519207Y-80808674D01*
X127505623Y-80831337D01*
X127489883Y-80852560D01*
X127472139Y-80872139D01*
X127452560Y-80889883D01*
X127431337Y-80905623D01*
X127408674Y-80919207D01*
X127384788Y-80930505D01*
X127359909Y-80939406D01*
X127334278Y-80945826D01*
X127308141Y-80949703D01*
X127281750Y-80951000D01*
X126743250Y-80951000D01*
X126716859Y-80949703D01*
X126690722Y-80945826D01*
X126665091Y-80939406D01*
X126640212Y-80930505D01*
X126616326Y-80919207D01*
X126593663Y-80905623D01*
X126572440Y-80889883D01*
X126552861Y-80872139D01*
X126535117Y-80852560D01*
X126519377Y-80831337D01*
X126505793Y-80808674D01*
X126494495Y-80784788D01*
X126485594Y-80759909D01*
X126479174Y-80734278D01*
X126475297Y-80708141D01*
X126474000Y-80681750D01*
X126474000Y-79718250D01*
X126475297Y-79691859D01*
X126479174Y-79665722D01*
X126485594Y-79640091D01*
X126494495Y-79615212D01*
X126505793Y-79591326D01*
X126519377Y-79568663D01*
X126535117Y-79547440D01*
X126552861Y-79527861D01*
X126572440Y-79510117D01*
X126593663Y-79494377D01*
X126616326Y-79480793D01*
X126640212Y-79469495D01*
X126665091Y-79460594D01*
X126690722Y-79454174D01*
X126716859Y-79450297D01*
X126743250Y-79449000D01*
X127281750Y-79449000D01*
X127308141Y-79450297D01*
X127308141Y-79450297D01*
G37*
D16*
X127012500Y-80200000D03*
D12*
G36*
X136255691Y-85075176D02*
G01*
X136279401Y-85078693D01*
X136302652Y-85084517D01*
X136325220Y-85092592D01*
X136346889Y-85102841D01*
X136367448Y-85115164D01*
X136386701Y-85129442D01*
X136404461Y-85145539D01*
X136420558Y-85163299D01*
X136434836Y-85182552D01*
X136447159Y-85203111D01*
X136457408Y-85224780D01*
X136465483Y-85247348D01*
X136471307Y-85270599D01*
X136474824Y-85294309D01*
X136476000Y-85318250D01*
X136476000Y-85881750D01*
X136474824Y-85905691D01*
X136471307Y-85929401D01*
X136465483Y-85952652D01*
X136457408Y-85975220D01*
X136447159Y-85996889D01*
X136434836Y-86017448D01*
X136420558Y-86036701D01*
X136404461Y-86054461D01*
X136386701Y-86070558D01*
X136367448Y-86084836D01*
X136346889Y-86097159D01*
X136325220Y-86107408D01*
X136302652Y-86115483D01*
X136279401Y-86121307D01*
X136255691Y-86124824D01*
X136231750Y-86126000D01*
X135743250Y-86126000D01*
X135719309Y-86124824D01*
X135695599Y-86121307D01*
X135672348Y-86115483D01*
X135649780Y-86107408D01*
X135628111Y-86097159D01*
X135607552Y-86084836D01*
X135588299Y-86070558D01*
X135570539Y-86054461D01*
X135554442Y-86036701D01*
X135540164Y-86017448D01*
X135527841Y-85996889D01*
X135517592Y-85975220D01*
X135509517Y-85952652D01*
X135503693Y-85929401D01*
X135500176Y-85905691D01*
X135499000Y-85881750D01*
X135499000Y-85318250D01*
X135500176Y-85294309D01*
X135503693Y-85270599D01*
X135509517Y-85247348D01*
X135517592Y-85224780D01*
X135527841Y-85203111D01*
X135540164Y-85182552D01*
X135554442Y-85163299D01*
X135570539Y-85145539D01*
X135588299Y-85129442D01*
X135607552Y-85115164D01*
X135628111Y-85102841D01*
X135649780Y-85092592D01*
X135672348Y-85084517D01*
X135695599Y-85078693D01*
X135719309Y-85075176D01*
X135743250Y-85074000D01*
X136231750Y-85074000D01*
X136255691Y-85075176D01*
X136255691Y-85075176D01*
G37*
D13*
X135987500Y-85600000D03*
D12*
G36*
X134680691Y-85075176D02*
G01*
X134704401Y-85078693D01*
X134727652Y-85084517D01*
X134750220Y-85092592D01*
X134771889Y-85102841D01*
X134792448Y-85115164D01*
X134811701Y-85129442D01*
X134829461Y-85145539D01*
X134845558Y-85163299D01*
X134859836Y-85182552D01*
X134872159Y-85203111D01*
X134882408Y-85224780D01*
X134890483Y-85247348D01*
X134896307Y-85270599D01*
X134899824Y-85294309D01*
X134901000Y-85318250D01*
X134901000Y-85881750D01*
X134899824Y-85905691D01*
X134896307Y-85929401D01*
X134890483Y-85952652D01*
X134882408Y-85975220D01*
X134872159Y-85996889D01*
X134859836Y-86017448D01*
X134845558Y-86036701D01*
X134829461Y-86054461D01*
X134811701Y-86070558D01*
X134792448Y-86084836D01*
X134771889Y-86097159D01*
X134750220Y-86107408D01*
X134727652Y-86115483D01*
X134704401Y-86121307D01*
X134680691Y-86124824D01*
X134656750Y-86126000D01*
X134168250Y-86126000D01*
X134144309Y-86124824D01*
X134120599Y-86121307D01*
X134097348Y-86115483D01*
X134074780Y-86107408D01*
X134053111Y-86097159D01*
X134032552Y-86084836D01*
X134013299Y-86070558D01*
X133995539Y-86054461D01*
X133979442Y-86036701D01*
X133965164Y-86017448D01*
X133952841Y-85996889D01*
X133942592Y-85975220D01*
X133934517Y-85952652D01*
X133928693Y-85929401D01*
X133925176Y-85905691D01*
X133924000Y-85881750D01*
X133924000Y-85318250D01*
X133925176Y-85294309D01*
X133928693Y-85270599D01*
X133934517Y-85247348D01*
X133942592Y-85224780D01*
X133952841Y-85203111D01*
X133965164Y-85182552D01*
X133979442Y-85163299D01*
X133995539Y-85145539D01*
X134013299Y-85129442D01*
X134032552Y-85115164D01*
X134053111Y-85102841D01*
X134074780Y-85092592D01*
X134097348Y-85084517D01*
X134120599Y-85078693D01*
X134144309Y-85075176D01*
X134168250Y-85074000D01*
X134656750Y-85074000D01*
X134680691Y-85075176D01*
X134680691Y-85075176D01*
G37*
D13*
X134412500Y-85600000D03*
D12*
G36*
X136255691Y-83075176D02*
G01*
X136279401Y-83078693D01*
X136302652Y-83084517D01*
X136325220Y-83092592D01*
X136346889Y-83102841D01*
X136367448Y-83115164D01*
X136386701Y-83129442D01*
X136404461Y-83145539D01*
X136420558Y-83163299D01*
X136434836Y-83182552D01*
X136447159Y-83203111D01*
X136457408Y-83224780D01*
X136465483Y-83247348D01*
X136471307Y-83270599D01*
X136474824Y-83294309D01*
X136476000Y-83318250D01*
X136476000Y-83881750D01*
X136474824Y-83905691D01*
X136471307Y-83929401D01*
X136465483Y-83952652D01*
X136457408Y-83975220D01*
X136447159Y-83996889D01*
X136434836Y-84017448D01*
X136420558Y-84036701D01*
X136404461Y-84054461D01*
X136386701Y-84070558D01*
X136367448Y-84084836D01*
X136346889Y-84097159D01*
X136325220Y-84107408D01*
X136302652Y-84115483D01*
X136279401Y-84121307D01*
X136255691Y-84124824D01*
X136231750Y-84126000D01*
X135743250Y-84126000D01*
X135719309Y-84124824D01*
X135695599Y-84121307D01*
X135672348Y-84115483D01*
X135649780Y-84107408D01*
X135628111Y-84097159D01*
X135607552Y-84084836D01*
X135588299Y-84070558D01*
X135570539Y-84054461D01*
X135554442Y-84036701D01*
X135540164Y-84017448D01*
X135527841Y-83996889D01*
X135517592Y-83975220D01*
X135509517Y-83952652D01*
X135503693Y-83929401D01*
X135500176Y-83905691D01*
X135499000Y-83881750D01*
X135499000Y-83318250D01*
X135500176Y-83294309D01*
X135503693Y-83270599D01*
X135509517Y-83247348D01*
X135517592Y-83224780D01*
X135527841Y-83203111D01*
X135540164Y-83182552D01*
X135554442Y-83163299D01*
X135570539Y-83145539D01*
X135588299Y-83129442D01*
X135607552Y-83115164D01*
X135628111Y-83102841D01*
X135649780Y-83092592D01*
X135672348Y-83084517D01*
X135695599Y-83078693D01*
X135719309Y-83075176D01*
X135743250Y-83074000D01*
X136231750Y-83074000D01*
X136255691Y-83075176D01*
X136255691Y-83075176D01*
G37*
D13*
X135987500Y-83600000D03*
D12*
G36*
X134680691Y-83075176D02*
G01*
X134704401Y-83078693D01*
X134727652Y-83084517D01*
X134750220Y-83092592D01*
X134771889Y-83102841D01*
X134792448Y-83115164D01*
X134811701Y-83129442D01*
X134829461Y-83145539D01*
X134845558Y-83163299D01*
X134859836Y-83182552D01*
X134872159Y-83203111D01*
X134882408Y-83224780D01*
X134890483Y-83247348D01*
X134896307Y-83270599D01*
X134899824Y-83294309D01*
X134901000Y-83318250D01*
X134901000Y-83881750D01*
X134899824Y-83905691D01*
X134896307Y-83929401D01*
X134890483Y-83952652D01*
X134882408Y-83975220D01*
X134872159Y-83996889D01*
X134859836Y-84017448D01*
X134845558Y-84036701D01*
X134829461Y-84054461D01*
X134811701Y-84070558D01*
X134792448Y-84084836D01*
X134771889Y-84097159D01*
X134750220Y-84107408D01*
X134727652Y-84115483D01*
X134704401Y-84121307D01*
X134680691Y-84124824D01*
X134656750Y-84126000D01*
X134168250Y-84126000D01*
X134144309Y-84124824D01*
X134120599Y-84121307D01*
X134097348Y-84115483D01*
X134074780Y-84107408D01*
X134053111Y-84097159D01*
X134032552Y-84084836D01*
X134013299Y-84070558D01*
X133995539Y-84054461D01*
X133979442Y-84036701D01*
X133965164Y-84017448D01*
X133952841Y-83996889D01*
X133942592Y-83975220D01*
X133934517Y-83952652D01*
X133928693Y-83929401D01*
X133925176Y-83905691D01*
X133924000Y-83881750D01*
X133924000Y-83318250D01*
X133925176Y-83294309D01*
X133928693Y-83270599D01*
X133934517Y-83247348D01*
X133942592Y-83224780D01*
X133952841Y-83203111D01*
X133965164Y-83182552D01*
X133979442Y-83163299D01*
X133995539Y-83145539D01*
X134013299Y-83129442D01*
X134032552Y-83115164D01*
X134053111Y-83102841D01*
X134074780Y-83092592D01*
X134097348Y-83084517D01*
X134120599Y-83078693D01*
X134144309Y-83075176D01*
X134168250Y-83074000D01*
X134656750Y-83074000D01*
X134680691Y-83075176D01*
X134680691Y-83075176D01*
G37*
D13*
X134412500Y-83600000D03*
D20*
X145400000Y-75800000D03*
X149700000Y-75800000D03*
X145350000Y-65800000D03*
X149650000Y-65800000D03*
X145350000Y-70800000D03*
X149650000Y-70800000D03*
D12*
G36*
X141680691Y-82425176D02*
G01*
X141704401Y-82428693D01*
X141727652Y-82434517D01*
X141750220Y-82442592D01*
X141771889Y-82452841D01*
X141792448Y-82465164D01*
X141811701Y-82479442D01*
X141829461Y-82495539D01*
X141845558Y-82513299D01*
X141859836Y-82532552D01*
X141872159Y-82553111D01*
X141882408Y-82574780D01*
X141890483Y-82597348D01*
X141896307Y-82620599D01*
X141899824Y-82644309D01*
X141901000Y-82668250D01*
X141901000Y-83231750D01*
X141899824Y-83255691D01*
X141896307Y-83279401D01*
X141890483Y-83302652D01*
X141882408Y-83325220D01*
X141872159Y-83346889D01*
X141859836Y-83367448D01*
X141845558Y-83386701D01*
X141829461Y-83404461D01*
X141811701Y-83420558D01*
X141792448Y-83434836D01*
X141771889Y-83447159D01*
X141750220Y-83457408D01*
X141727652Y-83465483D01*
X141704401Y-83471307D01*
X141680691Y-83474824D01*
X141656750Y-83476000D01*
X141168250Y-83476000D01*
X141144309Y-83474824D01*
X141120599Y-83471307D01*
X141097348Y-83465483D01*
X141074780Y-83457408D01*
X141053111Y-83447159D01*
X141032552Y-83434836D01*
X141013299Y-83420558D01*
X140995539Y-83404461D01*
X140979442Y-83386701D01*
X140965164Y-83367448D01*
X140952841Y-83346889D01*
X140942592Y-83325220D01*
X140934517Y-83302652D01*
X140928693Y-83279401D01*
X140925176Y-83255691D01*
X140924000Y-83231750D01*
X140924000Y-82668250D01*
X140925176Y-82644309D01*
X140928693Y-82620599D01*
X140934517Y-82597348D01*
X140942592Y-82574780D01*
X140952841Y-82553111D01*
X140965164Y-82532552D01*
X140979442Y-82513299D01*
X140995539Y-82495539D01*
X141013299Y-82479442D01*
X141032552Y-82465164D01*
X141053111Y-82452841D01*
X141074780Y-82442592D01*
X141097348Y-82434517D01*
X141120599Y-82428693D01*
X141144309Y-82425176D01*
X141168250Y-82424000D01*
X141656750Y-82424000D01*
X141680691Y-82425176D01*
X141680691Y-82425176D01*
G37*
D13*
X141412500Y-82950000D03*
D12*
G36*
X143255691Y-82425176D02*
G01*
X143279401Y-82428693D01*
X143302652Y-82434517D01*
X143325220Y-82442592D01*
X143346889Y-82452841D01*
X143367448Y-82465164D01*
X143386701Y-82479442D01*
X143404461Y-82495539D01*
X143420558Y-82513299D01*
X143434836Y-82532552D01*
X143447159Y-82553111D01*
X143457408Y-82574780D01*
X143465483Y-82597348D01*
X143471307Y-82620599D01*
X143474824Y-82644309D01*
X143476000Y-82668250D01*
X143476000Y-83231750D01*
X143474824Y-83255691D01*
X143471307Y-83279401D01*
X143465483Y-83302652D01*
X143457408Y-83325220D01*
X143447159Y-83346889D01*
X143434836Y-83367448D01*
X143420558Y-83386701D01*
X143404461Y-83404461D01*
X143386701Y-83420558D01*
X143367448Y-83434836D01*
X143346889Y-83447159D01*
X143325220Y-83457408D01*
X143302652Y-83465483D01*
X143279401Y-83471307D01*
X143255691Y-83474824D01*
X143231750Y-83476000D01*
X142743250Y-83476000D01*
X142719309Y-83474824D01*
X142695599Y-83471307D01*
X142672348Y-83465483D01*
X142649780Y-83457408D01*
X142628111Y-83447159D01*
X142607552Y-83434836D01*
X142588299Y-83420558D01*
X142570539Y-83404461D01*
X142554442Y-83386701D01*
X142540164Y-83367448D01*
X142527841Y-83346889D01*
X142517592Y-83325220D01*
X142509517Y-83302652D01*
X142503693Y-83279401D01*
X142500176Y-83255691D01*
X142499000Y-83231750D01*
X142499000Y-82668250D01*
X142500176Y-82644309D01*
X142503693Y-82620599D01*
X142509517Y-82597348D01*
X142517592Y-82574780D01*
X142527841Y-82553111D01*
X142540164Y-82532552D01*
X142554442Y-82513299D01*
X142570539Y-82495539D01*
X142588299Y-82479442D01*
X142607552Y-82465164D01*
X142628111Y-82452841D01*
X142649780Y-82442592D01*
X142672348Y-82434517D01*
X142695599Y-82428693D01*
X142719309Y-82425176D01*
X142743250Y-82424000D01*
X143231750Y-82424000D01*
X143255691Y-82425176D01*
X143255691Y-82425176D01*
G37*
D13*
X142987500Y-82950000D03*
D12*
G36*
X141680691Y-84025176D02*
G01*
X141704401Y-84028693D01*
X141727652Y-84034517D01*
X141750220Y-84042592D01*
X141771889Y-84052841D01*
X141792448Y-84065164D01*
X141811701Y-84079442D01*
X141829461Y-84095539D01*
X141845558Y-84113299D01*
X141859836Y-84132552D01*
X141872159Y-84153111D01*
X141882408Y-84174780D01*
X141890483Y-84197348D01*
X141896307Y-84220599D01*
X141899824Y-84244309D01*
X141901000Y-84268250D01*
X141901000Y-84831750D01*
X141899824Y-84855691D01*
X141896307Y-84879401D01*
X141890483Y-84902652D01*
X141882408Y-84925220D01*
X141872159Y-84946889D01*
X141859836Y-84967448D01*
X141845558Y-84986701D01*
X141829461Y-85004461D01*
X141811701Y-85020558D01*
X141792448Y-85034836D01*
X141771889Y-85047159D01*
X141750220Y-85057408D01*
X141727652Y-85065483D01*
X141704401Y-85071307D01*
X141680691Y-85074824D01*
X141656750Y-85076000D01*
X141168250Y-85076000D01*
X141144309Y-85074824D01*
X141120599Y-85071307D01*
X141097348Y-85065483D01*
X141074780Y-85057408D01*
X141053111Y-85047159D01*
X141032552Y-85034836D01*
X141013299Y-85020558D01*
X140995539Y-85004461D01*
X140979442Y-84986701D01*
X140965164Y-84967448D01*
X140952841Y-84946889D01*
X140942592Y-84925220D01*
X140934517Y-84902652D01*
X140928693Y-84879401D01*
X140925176Y-84855691D01*
X140924000Y-84831750D01*
X140924000Y-84268250D01*
X140925176Y-84244309D01*
X140928693Y-84220599D01*
X140934517Y-84197348D01*
X140942592Y-84174780D01*
X140952841Y-84153111D01*
X140965164Y-84132552D01*
X140979442Y-84113299D01*
X140995539Y-84095539D01*
X141013299Y-84079442D01*
X141032552Y-84065164D01*
X141053111Y-84052841D01*
X141074780Y-84042592D01*
X141097348Y-84034517D01*
X141120599Y-84028693D01*
X141144309Y-84025176D01*
X141168250Y-84024000D01*
X141656750Y-84024000D01*
X141680691Y-84025176D01*
X141680691Y-84025176D01*
G37*
D13*
X141412500Y-84550000D03*
D12*
G36*
X143255691Y-84025176D02*
G01*
X143279401Y-84028693D01*
X143302652Y-84034517D01*
X143325220Y-84042592D01*
X143346889Y-84052841D01*
X143367448Y-84065164D01*
X143386701Y-84079442D01*
X143404461Y-84095539D01*
X143420558Y-84113299D01*
X143434836Y-84132552D01*
X143447159Y-84153111D01*
X143457408Y-84174780D01*
X143465483Y-84197348D01*
X143471307Y-84220599D01*
X143474824Y-84244309D01*
X143476000Y-84268250D01*
X143476000Y-84831750D01*
X143474824Y-84855691D01*
X143471307Y-84879401D01*
X143465483Y-84902652D01*
X143457408Y-84925220D01*
X143447159Y-84946889D01*
X143434836Y-84967448D01*
X143420558Y-84986701D01*
X143404461Y-85004461D01*
X143386701Y-85020558D01*
X143367448Y-85034836D01*
X143346889Y-85047159D01*
X143325220Y-85057408D01*
X143302652Y-85065483D01*
X143279401Y-85071307D01*
X143255691Y-85074824D01*
X143231750Y-85076000D01*
X142743250Y-85076000D01*
X142719309Y-85074824D01*
X142695599Y-85071307D01*
X142672348Y-85065483D01*
X142649780Y-85057408D01*
X142628111Y-85047159D01*
X142607552Y-85034836D01*
X142588299Y-85020558D01*
X142570539Y-85004461D01*
X142554442Y-84986701D01*
X142540164Y-84967448D01*
X142527841Y-84946889D01*
X142517592Y-84925220D01*
X142509517Y-84902652D01*
X142503693Y-84879401D01*
X142500176Y-84855691D01*
X142499000Y-84831750D01*
X142499000Y-84268250D01*
X142500176Y-84244309D01*
X142503693Y-84220599D01*
X142509517Y-84197348D01*
X142517592Y-84174780D01*
X142527841Y-84153111D01*
X142540164Y-84132552D01*
X142554442Y-84113299D01*
X142570539Y-84095539D01*
X142588299Y-84079442D01*
X142607552Y-84065164D01*
X142628111Y-84052841D01*
X142649780Y-84042592D01*
X142672348Y-84034517D01*
X142695599Y-84028693D01*
X142719309Y-84025176D01*
X142743250Y-84024000D01*
X143231750Y-84024000D01*
X143255691Y-84025176D01*
X143255691Y-84025176D01*
G37*
D13*
X142987500Y-84550000D03*
M02*
